<svg width="50" height="60" viewBox="0 0 50 60" fill="none" xmlns="http://www.w3.org/2000/svg"><path d="M20.9966 22.1592C18.4915 18.3418 15.7608 14.4083 14.0128 10.2651C13.9355 10.0846 14.2289 9.88935 14.3636 10.0752C16.946 13.6545 18.9728 17.5776 21.3255 21.2792C23.7972 25.1696 26.5216 28.9344 28.9839 32.8273C29.0611 32.9489 28.8408 33.0668 28.7468 32.9554C25.8752 29.5476 23.4056 25.8306 20.9966 22.1592Z" fill="currentColor"></path><path d="M45.9711 39.7741C46.0825 39.9177 45.844 40.09 45.7295 39.9454C37.5404 29.5408 27.9963 20.285 18.031 11.191C17.9301 11.0989 18.0982 10.9378 18.2096 11.0252C28.8619 19.3896 37.947 29.4376 45.9711 39.7741Z" fill="currentColor"></path><path d="M46.356 52.0802C46.5579 52.3127 46.7598 52.5463 46.9618 52.7804C47.0971 52.9156 46.8404 53.0854 46.7029 52.9508C43.2114 49.5229 40.1086 45.8026 37.0188 42.1333C36.9479 42.0486 37.095 41.9472 37.1734 42.0319C38.9047 43.8999 40.6413 45.7641 42.3586 47.6426C43.1759 48.5368 43.9857 49.4362 44.8009 50.333C45.2004 50.7735 45.6826 51.2061 46.0166 51.6824C46.0628 51.7489 46.1606 51.9071 46.2561 52.0655C46.2851 52.0487 46.3313 52.0477 46.356 52.0802Z" fill="currentColor"></path><path d="M44.895 54.9343C44.9895 54.9091 45.042 55.0109 44.9577 55.0555C40.092 57.5843 33.2597 54.4552 28.8741 52.4442C23.8193 50.1248 18.7707 47.079 15.041 43.2758C14.9053 43.1374 15.1366 42.911 15.299 43.0367C19.2281 46.0989 23.0905 48.9896 27.6919 51.2889C32.8053 53.8433 38.9303 56.5557 44.895 54.9343Z" fill="currentColor"></path><path d="M14.1514 43.2788C15.3825 45.0267 16.9125 46.6079 18.8116 47.8555C20.4654 48.943 22.3341 49.7539 23.9679 50.8628C24.0402 50.9121 23.9804 51.0305 23.8871 50.9927C19.9389 49.4296 16.4627 47.1233 14.1252 43.9592C11.3075 40.1451 9.87187 35.5416 9.00253 31.1299C8.97212 30.9794 9.22485 30.9506 9.27099 31.0915C10.6101 35.2584 11.5067 39.5212 14.1514 43.2788Z" fill="currentColor"></path><path d="M31.8875 52.995C27.3522 51.3815 23.0518 48.4439 20.0199 45.1159C19.9516 45.0409 20.0751 44.9578 20.1494 45.0243C23.7578 48.2226 27.5219 50.6299 31.9638 52.8677C32.0462 52.9086 31.9739 53.0254 31.8875 52.995Z" fill="currentColor"></path><path d="M41.9772 49.8391C42.0642 49.9407 41.8806 50.0644 41.7925 49.961C38.633 46.2853 35.2705 42.7394 32.0186 39.1181C31.951 39.0428 32.0841 38.9545 32.1582 39.027C35.6645 42.4747 38.8445 46.1607 41.9772 49.8391Z" fill="currentColor"></path><path d="M37.1689 48.0282C38.4798 49.2602 39.7077 50.5576 40.9699 51.8233C41.0778 51.9322 40.8693 52.0694 40.7614 51.9596C39.5128 50.6857 38.2185 49.4312 37.0206 48.1253C36.947 48.0458 37.088 47.952 37.1689 48.0282Z" fill="currentColor"></path><path d="M40.8368 54.968C40.2 54.0905 39.4653 53.1642 39.0122 52.1969C38.9463 52.056 39.1639 51.9235 39.2703 52.0523C39.9645 52.8975 40.4779 53.9393 40.9913 54.8819C41.0365 54.9637 40.8942 55.0475 40.8368 54.968Z" fill="currentColor"></path><path fill-rule="evenodd" clip-rule="evenodd" d="M15.7825 50.7782C10.0441 47.443 5.52942 42.8818 2.89309 37.2549C0.855698 32.9035 -0.574505 27.58 0.225789 22.7436C0.918689 20.3035 2.66694 18.6645 4.54841 16.9397C3.93089 17.8886 3.36088 18.8604 2.91787 19.8876C1.63431 22.8629 1.71485 26.0653 2.26112 29.1681C3.32473 35.2168 6.1965 41.0926 11.1325 45.4661C11.217 45.5405 11.3031 45.613 11.3894 45.6856C11.4422 45.7301 11.4951 45.7746 11.5476 45.8196C10.9229 45.0431 10.3797 44.2199 9.89231 43.3656C5.3549 38.5328 3.40425 31.4322 3.36604 25.4243C3.34745 22.5057 3.80904 19.5878 4.72086 16.7824L4.74074 16.7641C5.22793 16.3167 5.72291 15.8622 6.20683 15.3838C10.4644 11.1883 9.73225 6.05806 8.69858 0.995564C8.77782 0.952988 8.85801 0.911854 8.93828 0.870682C9.00237 0.837807 9.0665 0.804909 9.13022 0.77124C9.15294 0.808102 9.17641 0.844898 9.19991 0.881729C9.24904 0.95874 9.29827 1.0359 9.34088 1.11415C9.32952 1.023 9.32126 0.929024 9.3161 0.833221C9.29383 0.805431 9.26985 0.778599 9.24585 0.751751C9.23758 0.742493 9.2293 0.733231 9.22109 0.72393C9.69404 0.476818 10.1711 0.235355 10.6513 0C11.1315 0.604614 11.5115 1.30183 11.7645 1.8925C12.7682 3.21959 13.7058 4.59079 14.565 5.9897C14.9109 6.20227 15.2476 6.43552 15.5811 6.67516C15.5887 6.67809 15.5962 6.6799 15.6037 6.68169C15.6125 6.68381 15.6212 6.68589 15.6296 6.68975C17.7113 7.71412 19.5852 9.10894 21.4303 10.4824C22.0153 10.9178 22.5974 11.3511 23.1824 11.7698C23.7066 12.1447 24.2309 12.5196 24.7553 12.8946C26.5826 14.2012 28.41 15.508 30.2363 16.8169C34.4835 19.8588 38.6254 23.0217 41.6542 27.0897C44.3679 30.733 46.2174 34.8013 47.5103 38.9968C48.8961 43.4943 50.0061 48.3911 50 53.0681C50 53.6314 49.0365 53.6203 48.9208 53.1036C48.5153 51.2944 48.2128 49.4751 47.9105 47.6571L47.8913 47.5416C40.6432 37.585 32.6351 28.197 24.0952 19.1285C31.4267 28.3995 38.5043 37.8487 45.5667 47.2777C46.0952 47.9832 46.6236 48.6886 47.1519 49.3938C47.3058 49.5989 46.9733 49.8449 46.8101 49.6381C46.2697 48.9517 45.7291 48.2652 45.1885 47.5787C42.6782 44.3912 40.1662 41.2015 37.6641 38.0041C38.4964 39.1726 39.3256 40.3441 40.1455 41.5198C41.5241 43.4982 42.9006 45.4778 44.2316 47.4803C44.5191 47.9126 44.8517 48.366 45.1955 48.8345C46.2977 50.3369 47.5144 51.9951 47.723 53.6139C47.7333 53.6897 47.6393 53.7463 47.566 53.7015C46.1471 52.8311 45.1238 51.2524 44.184 49.8024C43.8681 49.3151 43.5616 48.8422 43.2527 48.4158C42.6134 47.5327 41.9774 46.6479 41.3414 45.7631C40.5166 44.6158 39.6918 43.4684 38.8599 42.3249C35.9106 38.2712 32.9253 34.2398 29.8738 30.2455C28.7817 28.816 27.6913 27.3855 26.6009 25.9549C24.7139 23.4792 22.8268 21.0034 20.9302 18.5331C20.5895 18.0899 20.2491 17.6466 19.9086 17.2032C19.5049 16.6775 19.101 16.1517 18.6966 15.6255C19.0828 16.2152 19.469 16.8013 19.8655 17.3756C21.6871 20.0144 23.5345 22.6406 25.4067 25.2531C27.6622 28.3994 29.9418 31.5336 32.2215 34.6679C33.5477 36.4913 34.874 38.3148 36.1957 40.1409C36.2473 40.2121 36.1358 40.2967 36.0769 40.2248C32.1064 35.3582 28.3455 30.3758 24.7065 25.3104C23.0109 22.9515 21.337 20.5823 19.6817 18.2005C19.2763 17.617 18.8552 17.0324 18.4317 16.4445C17.0551 14.5331 15.6528 12.5861 14.6776 10.5256C14.1994 9.94133 13.7255 9.34957 13.2814 8.74706C13.2639 9.01131 13.2381 9.27583 13.204 9.54008C13.2143 9.94306 13.2019 10.3451 13.1575 10.7478C13.2587 10.7436 13.3671 10.777 13.4219 10.8635C14.6218 12.7883 15.6339 14.8158 16.6451 16.8416C17.3369 18.2274 18.0283 19.6125 18.7792 20.9633C20.6317 24.296 22.5907 27.5847 24.6621 30.8159C24.7509 30.9544 24.4855 31.1039 24.3874 30.9648C22.1507 27.7907 20.0359 24.5574 18.1038 21.2303C17.9535 20.9716 17.8021 20.7121 17.6502 20.4516C15.9433 17.525 14.1727 14.4894 13.0718 11.3531C13.0377 11.5565 12.9954 11.7605 12.9489 11.9637C13.3596 13.047 13.7144 14.1484 14.0696 15.2509C14.5566 16.7626 15.0442 18.2761 15.6771 19.7473C16.938 22.677 18.3796 25.5448 20.0803 28.2964C20.1825 28.4598 19.8882 28.5698 19.7839 28.4131C17.9169 25.6096 16.2162 22.7318 14.8861 19.6928L14.8568 19.6259C14.0087 17.6926 13.0849 15.5866 12.5173 13.4824C12.3004 14.1158 12.0464 14.7478 11.7665 15.3784C12.7744 19.1541 13.8804 22.7781 15.7329 26.374C15.8176 26.54 15.5439 26.6403 15.4448 26.4879C13.4983 23.4756 11.9111 19.9933 11.2575 16.4804C11.0086 16.9963 10.7504 17.5112 10.4902 18.0236C10.5356 18.0108 10.5852 18.0218 10.6059 18.0767C10.7359 18.4369 10.8079 18.8224 10.879 19.2034C10.9094 19.3668 10.9398 19.5294 10.9745 19.6889C11.0086 19.8495 10.7225 19.8915 10.6916 19.7309C10.6616 19.5785 10.6269 19.4246 10.5921 19.2699C10.5116 18.9126 10.4301 18.5509 10.4035 18.1942C10.3525 18.2943 10.3016 18.3944 10.2507 18.4943C9.3258 20.3112 8.421 22.0885 7.93649 23.7872C7.21468 26.3185 7.04429 28.9882 7.29936 31.6501C7.3861 31.94 7.48007 32.2323 7.59262 32.5267C7.6329 32.6336 7.52963 32.7358 7.42534 32.7236C7.92204 36.2978 9.16843 39.8189 10.9053 42.9274C10.9663 43.0371 11.0306 43.1429 11.0951 43.2488C11.1103 43.2738 11.1256 43.2989 11.1408 43.324C11.3359 43.6221 11.5332 43.9208 11.7314 44.2209C13.615 46.8352 16.2823 48.545 19.3988 50.1402C22.7187 51.8403 26.1398 53.3753 29.5868 54.8637C29.6394 54.8612 29.6931 54.8665 29.7489 54.89C30.3957 55.1621 31.0339 55.4459 31.6705 55.729C31.727 55.7541 31.7835 55.7793 31.84 55.8044C33.0884 56.3011 34.4133 56.7814 35.7619 57.1688C40.3159 58.2555 44.9906 58.2812 48.0018 54.6632C48.1298 54.5084 48.3075 54.4966 48.451 54.5557C48.4663 54.5343 48.4816 54.5131 48.4968 54.4919C48.5703 54.39 48.6432 54.2888 48.7133 54.18C48.9477 53.8165 49.7087 54.0572 49.6045 54.4727C49.527 54.7761 49.4237 55.0624 49.306 55.3387C49.1294 58.2645 44.8223 59.9273 41.9412 59.9956C40.4852 60.0302 38.9332 59.8589 37.3997 59.5135C34.4174 58.9666 31.4827 57.8663 28.6688 56.5617C24.1634 55.0122 19.7468 53.0827 15.7825 50.7782ZM13.2938 7.24842C13.2773 6.9468 13.2463 6.64527 13.204 6.3462C14.3663 7.53481 15.9238 8.54931 17.4114 9.51836L17.4117 9.51851C18.0082 9.90707 18.5934 10.2883 19.1375 10.6705C21.4165 12.2721 23.655 13.9132 25.8955 15.5558L25.8957 15.5559L25.8959 15.556L25.8962 15.5563L26.0479 15.6675C28.32 17.3337 30.5968 18.9934 32.8739 20.6533C33.7657 21.3033 34.6576 21.9535 35.5492 22.604C37.0744 23.9321 38.5026 25.3442 39.7541 26.901C41.3805 28.9245 42.7116 31.1139 43.8083 33.3956C40.415 29.2656 36.4321 25.4105 32.4069 21.7818C28.2092 17.9973 23.7854 14.0888 18.8411 11.0643C18.6997 10.9775 18.4952 11.1545 18.6274 11.2648C20.4282 12.7772 22.2774 14.2381 24.1262 15.6988C26.8647 17.8624 29.6026 20.0254 32.1818 22.3544C35.6011 25.4414 38.7528 28.6972 41.9164 31.9653C42.6977 32.7724 43.4798 33.5803 44.2667 34.3865C45.0557 36.1547 45.7124 37.9688 46.2566 39.799C46.9371 42.0871 47.3616 44.4022 47.7529 46.7212C39.9937 35.6369 31.1419 24.9896 21.1171 15.3959C20.9543 15.193 20.7921 14.9901 20.6299 14.7872L20.6287 14.7857C20.3561 14.4446 20.0837 14.1037 19.8087 13.7633C19.691 13.6184 19.5051 13.6747 19.4256 13.7942C18.8029 13.2129 18.1772 12.6328 17.5442 12.0595C17.5318 12.048 17.5172 12.045 17.5022 12.0419L17.4946 12.0403L17.4838 12.0274C17.4285 11.9616 17.3732 11.8957 17.317 11.8299C16.9635 11.4164 16.6129 10.9915 16.2598 10.5635L16.2598 10.5635L16.2598 10.5634C15.3226 9.42753 14.3679 8.27026 13.2938 7.24842ZM5.29397 28.0778C5.40343 29.4486 5.61925 30.8124 5.92388 32.1586C5.81442 31.4247 5.73594 30.6884 5.6936 29.9517C5.48501 29.3411 5.3549 28.7148 5.29397 28.0778ZM5.453 22.0816C5.2124 23.8491 5.1556 25.6384 5.2568 27.4215C5.21136 25.5547 5.6967 23.6224 6.38134 21.7911C6.01889 21.3261 5.82062 20.8557 5.74833 20.3818C5.63268 20.9405 5.53148 21.5055 5.453 22.0816ZM6.94516 20.3999C6.89353 19.3015 7.50588 18.1458 8.19259 17.0419C8.34439 17.0419 8.49515 16.9957 8.62216 16.8988C8.55082 17.0417 8.47931 17.1846 8.40783 17.3274C8.17305 17.7965 7.93857 18.2649 7.71138 18.7336C7.45115 19.2706 7.19196 19.8274 6.94516 20.3999ZM6.6426 17.2009L6.64264 17.2008C6.6576 17.174 6.67256 17.1472 6.68803 17.1203C7.22397 16.1895 7.69589 15.2552 8.10998 14.3084C8.19089 14.038 8.27265 13.7682 8.35437 13.4986C8.42909 13.252 8.50378 13.0056 8.57776 12.7588C7.79192 14.2361 7.12381 15.7359 6.59716 17.2815C6.61265 17.2547 6.62762 17.2278 6.6426 17.2009ZM19.4595 14.2924C19.3255 14.1555 19.1915 14.0187 19.058 13.8818C19.7891 14.7439 20.514 15.6109 21.2348 16.4815C21.0716 16.2599 20.9077 16.0387 20.7438 15.8174C20.5321 15.5316 20.3203 15.2459 20.1103 14.9593C19.8943 14.7365 19.6768 14.5144 19.4595 14.2924ZM10.1773 6.02425C10.23 5.60057 10.2558 5.1768 10.2517 4.75559C10.3198 4.87956 10.388 5.00343 10.4572 5.12667C10.3869 5.42292 10.2899 5.72445 10.1773 6.02425Z" fill="currentColor"></path></svg>