<svg width="1332" height="1667" viewBox="0 0 1332 1667" fill="none" xmlns="http://www.w3.org/2000/svg">
<path d="M196.656 1545.43C193.829 1543.67 191.298 1541.03 188.734 1538.93L169.349 1523.03L124.85 1486.47L114.483 1477.95C107.599 1472.29 115.621 1460.9 122.572 1466.61L194.83 1525.98C198.032 1528.61 201.217 1531.91 204.787 1534.12C212.38 1538.84 204.305 1550.12 196.697 1545.46L196.656 1545.43Z" fill="#F1A874"/>
<path d="M54.7538 1338.04L83.4758 1361.64L152.484 1418.33L235.998 1486.94L308.25 1546.28C319.978 1555.91 331.891 1565.38 343.451 1575.19C343.616 1575.34 343.791 1575.47 343.957 1575.61C350.84 1581.27 342.818 1592.67 335.867 1586.96L307.136 1563.35L238.129 1506.66L154.623 1438.06L82.3798 1378.72C70.6515 1369.09 58.739 1359.62 47.1796 1349.8L46.6733 1349.38C39.7894 1343.73 47.812 1332.33 54.7627 1338.04L54.7538 1338.04Z" fill="#F1A874"/>
<path d="M42.3873 1255.06L80.7731 1286.6L172.565 1362.01L283.898 1453.46L379.762 1532.22C395.255 1544.96 410.982 1557.47 426.283 1570.45C426.49 1570.63 426.706 1570.8 426.922 1570.97C433.806 1576.63 425.784 1588.02 418.833 1582.31L380.447 1550.78L288.656 1475.37L177.322 1383.91L81.4586 1305.15C65.9565 1292.42 50.2291 1279.91 34.928 1266.93C34.7215 1266.75 34.5053 1266.58 34.2891 1266.41C27.4052 1260.75 35.4278 1249.35 42.3784 1255.06L42.3873 1255.06Z" fill="#F1A874"/>
<path d="M491.348 1567.52C488.695 1567.28 486.987 1565.48 485.071 1563.91L476.412 1556.79L444.156 1530.3L336.714 1442.01L206.154 1334.77L93.0293 1241.84C74.6718 1226.79 56.094 1211.9 37.9312 1196.57L37.0986 1195.93C30.2147 1190.27 38.2373 1178.88 45.188 1184.58L90.2414 1221.6L197.701 1309.89L328.337 1417.17L440.591 1509.38L477.609 1539.79C483.415 1544.56 489.827 1549.04 495.225 1554.27C495.471 1554.5 495.756 1554.7 496.058 1554.91L492.607 1553.64C501.529 1554.46 500.271 1568.33 491.339 1567.52L491.348 1567.52Z" fill="#F1A874"/>
<path d="M57.8315 1122.12L71.2507 1133.15L107.529 1162.96L161.442 1207.24L226.9 1261.01L298.934 1320.2L371.598 1379.91L439.145 1435.32L496.443 1482.46L537.486 1516.15C543.997 1521.49 550.586 1526.77 557.027 1532.2L557.857 1532.88C564.74 1538.54 556.718 1549.93 549.767 1544.22L536.357 1533.19L500.069 1503.38L446.157 1459.1L380.699 1405.33L308.665 1346.14L235.95 1286.4L168.451 1230.96L111.147 1183.88L70.1161 1150.16C63.605 1144.81 57.016 1139.54 50.5749 1134.11L49.7455 1133.43C42.8615 1127.77 50.8841 1116.37 57.8347 1122.08L57.8315 1122.12Z" fill="#F1A874"/>
<path d="M78.4448 1066.21L92.8435 1078.04L132.009 1110.21L189.952 1157.82L260.644 1215.89L338.078 1279.5L416.252 1343.71L489.142 1403.58L550.735 1454.18L595.034 1490.58C602.017 1496.32 609.088 1501.98 616.009 1507.81L616.905 1508.55C623.789 1514.21 615.767 1525.6 608.816 1519.89L594.397 1508.09L555.233 1475.9L497.289 1428.31L426.597 1370.24L349.162 1306.63L270.988 1242.42L198.098 1182.55L136.56 1131.94L92.2602 1095.55C85.2774 1089.81 78.207 1084.14 71.2845 1078.32L70.3884 1077.59C63.5045 1071.93 71.5271 1060.53 78.4778 1066.24L78.4448 1066.21Z" fill="#F1A874"/>
<path d="M106.826 1016.73L122.154 1029.32L163.621 1063.43L224.899 1113.77L299.647 1175.17L381.513 1242.39L464.493 1310.6L541.568 1373.86L606.676 1427.36L653.538 1465.86C661.006 1471.96 668.48 1477.98 675.825 1484.17C676.131 1484.43 676.446 1484.69 676.762 1484.94C683.646 1490.6 675.623 1501.99 668.673 1496.28L653.345 1483.69L611.877 1449.59L550.6 1399.24L475.854 1337.92L393.988 1270.7L311.008 1202.48L233.955 1139.18L168.82 1085.68L121.958 1047.18C114.49 1041.08 107.016 1035.06 99.6713 1028.87C99.3651 1028.61 99.0501 1028.35 98.7342 1028.1C91.8503 1022.44 99.8729 1011.05 106.824 1016.76L106.826 1016.73Z" fill="#F1A874"/>
<path d="M143.901 974.377L159.875 987.499L203.335 1023.23L267.324 1075.8L345.705 1140.19L431.569 1210.7L518.232 1281.92L599.045 1348.28L667.056 1404.17L716.191 1444.54C723.946 1450.91 731.78 1457.2 739.412 1463.64C739.743 1463.92 740.075 1464.19 740.407 1464.46C747.291 1470.11 739.269 1481.51 732.318 1475.8L716.343 1462.68L672.882 1426.97L608.892 1374.4L530.512 1310.02L444.721 1239.49L358.058 1168.26L277.247 1101.88L209.236 1045.99L160.101 1005.62C152.346 999.25 144.512 992.961 136.88 986.513C136.549 986.233 136.217 985.971 135.885 985.7C129.001 980.042 137.023 968.648 143.974 974.357L143.901 974.377Z" fill="#F1A874"/>
<path d="M184.704 935.037L201.491 948.831L247.168 986.352L314.724 1041.85L397.184 1109.6L487.422 1183.76L578.534 1258.61L663.133 1328.13L734.944 1387.12L786.576 1429.54C794.721 1436.23 802.935 1442.85 811.011 1449.61C811.35 1449.9 811.708 1450.18 812.048 1450.46C818.932 1456.12 810.909 1467.51 803.958 1461.8L787.171 1448.01L741.521 1410.5L673.964 1355L591.537 1287.28L501.263 1213.12L410.151 1138.27L325.553 1068.74L253.741 1009.75L202.109 967.345C193.964 960.653 185.75 954.036 177.674 947.279C177.335 946.99 176.986 946.708 176.637 946.427C169.753 940.769 177.776 929.375 184.726 935.084L184.704 935.037Z" fill="#F1A874"/>
<path d="M884.055 1453.23C881.013 1452.95 878.591 1450.28 876.36 1448.45L863.387 1437.8L815.09 1398.12L743.563 1339.34L655.768 1267.23L559.82 1188.41L462.546 1108.49L371.8 1033.94L295.344 971.127L240.146 925.781C231.453 918.648 222.718 911.581 214.069 904.362L212.941 903.439C206.057 897.781 214.079 886.387 221.03 892.096L238.995 906.853L287.425 946.641L359.539 1005.84L446.872 1077.63L543.214 1156.82L639.754 1236.08L730.458 1310.61L806.558 1373.12L861.665 1418.39C870.274 1425.46 879.313 1432.22 887.592 1439.7C887.955 1440.01 888.347 1440.32 888.72 1440.62L885.314 1439.35C894.236 1440.17 892.978 1454.04 884.046 1453.23L884.055 1453.23Z" fill="#F1A874"/>
<path d="M253.343 845.836L272.279 861.387L323.786 903.703L399.959 966.293L492.565 1042.35L593.964 1125.62L696.663 1209.99L792.411 1288.65L873.297 1355.09L931.266 1402.7C940.431 1410.23 949.656 1417.69 958.761 1425.29L959.954 1426.29C966.838 1431.95 958.815 1443.34 951.864 1437.63L932.928 1422.08L881.422 1379.76L805.248 1317.18L712.641 1241.14L611.242 1157.86L508.543 1073.49L412.795 994.839L331.909 928.395L273.941 880.772C264.82 873.251 255.551 865.788 246.446 858.189C246.049 857.85 245.615 857.525 245.253 857.188C238.369 851.53 246.392 840.137 253.342 845.845L253.343 845.836Z" fill="#F1A874"/>
<path d="M282.075 796.62L301.82 812.878L355.559 857.02L434.738 922.034L531.291 1001.35L637.39 1088.51L744.485 1176.49L844.015 1258.26L928.16 1327.38L988.875 1377.24C998.438 1385.1 1008.07 1392.89 1017.57 1400.82C1017.98 1401.16 1018.4 1401.48 1018.78 1401.82C1025.67 1407.48 1017.64 1418.87 1010.69 1413.16L990.945 1396.94L937.207 1352.8L858.03 1287.76L761.462 1208.41L655.361 1121.26L548.267 1033.28L448.737 951.516L364.601 882.394L303.903 832.533C294.34 824.678 284.708 816.888 275.206 808.958C274.8 808.617 274.374 808.293 273.995 807.955C267.111 802.297 275.134 790.904 282.084 796.612L282.075 796.62Z" fill="#F1A874"/>
<path d="M307.47 744.682L327.799 761.386L382.951 806.647L464.376 873.533L564.002 955.421L672.823 1044.81L782.658 1135L885.38 1219.4L971.895 1290.5L1034.1 1341.61C1043.95 1349.7 1053.85 1357.68 1063.63 1365.87C1064.03 1366.21 1064.46 1366.55 1064.86 1366.88C1071.75 1372.53 1063.73 1383.93 1056.78 1378.22L1036.47 1361.49L981.376 1316.23L899.952 1249.35L800.278 1167.49L691.458 1078.1L581.644 987.875L478.92 903.484L392.403 832.415L330.202 781.257C320.365 773.172 310.457 765.187 300.674 757C300.268 756.659 299.845 756.318 299.438 755.995C292.554 750.337 300.576 738.943 307.527 744.652L307.47 744.682Z" fill="#F1A874"/>
<path d="M328.971 689.508L349.64 706.492L405.883 752.691L489.071 821.067L590.57 904.41L701.713 995.705L813.975 1087.93L918.614 1173.91L1007.06 1246.54L1070.63 1298.72C1080.66 1306.95 1090.74 1315.12 1100.71 1323.43L1101.99 1324.44C1108.87 1330.1 1100.85 1341.5 1093.9 1335.79L1073.23 1318.8L1016.99 1272.6L933.799 1204.26L832.303 1120.88L721.16 1029.58L608.93 937.393L504.225 851.466L415.809 778.832L352.238 726.658C342.21 718.422 332.124 710.242 322.155 701.939L320.874 700.931C313.991 695.273 322.013 683.879 328.964 689.588L328.971 689.508Z" fill="#F1A874"/>
<path d="M344.896 629.777L365.963 647.083L423.276 694.164L508.034 763.798L611.106 848.47L723.974 941.189L838.235 1035.06L944.774 1122.58L1034.81 1196.51L1099.28 1249.53C1109.46 1257.89 1119.71 1266.21 1129.85 1274.61C1130.29 1274.98 1130.73 1275.33 1131.17 1275.7C1138.05 1281.35 1130.03 1292.75 1123.08 1287.04L1102.01 1269.73L1044.7 1222.65L959.946 1152.98L856.873 1068.31L744.006 975.592L629.737 881.719L523.185 794.232L433.184 720.304L368.68 667.313C358.495 658.946 348.242 650.636 338.105 642.228C337.666 641.858 337.226 641.506 336.786 641.145C329.903 635.487 337.925 624.093 344.876 629.802L344.896 629.777Z" fill="#F1A874"/>
<path d="M357.147 567.017L378.464 584.524L436.448 632.166L521.874 702.387L626.161 788.017L740.67 882.09L856.258 977.045L963.709 1065.33L1054.53 1139.94L1120.06 1193.75C1130.37 1202.24 1140.76 1210.65 1151.03 1219.19L1152.33 1220.27C1159.21 1225.93 1151.19 1237.32 1144.24 1231.61L1122.92 1214.09L1064.94 1166.46L979.468 1096.24L875.244 1010.6L760.7 916.519L645.112 821.563L537.661 733.281L446.841 658.662L381.314 604.856C370.997 596.37 360.567 587.954 350.345 579.405C349.914 579.045 349.473 578.692 349.042 578.341C342.158 572.683 350.18 561.289 357.131 566.998L357.147 567.017Z" fill="#F1A874"/>
<path d="M368.294 503.363L389.61 520.879L447.622 568.506L533.111 638.732L637.366 724.413L751.91 818.498L867.514 913.472L975.026 1001.77L1065.84 1076.4L1131.36 1130.22C1141.69 1138.7 1152.11 1147.12 1162.34 1155.66L1163.64 1156.74C1170.53 1162.39 1162.5 1173.79 1155.55 1168.08L1134.24 1150.56L1076.23 1102.91L990.739 1032.68L886.482 947.029L771.947 852.936L656.326 757.96L548.849 669.675L458.002 595.045L392.478 541.221C382.151 532.743 371.73 524.319 361.499 515.769C361.068 515.409 360.628 515.057 360.196 514.705C353.312 509.047 361.335 497.654 368.286 503.362L368.294 503.363Z" fill="#F1A874"/>
<path d="M381.126 441.085L402.111 458.32L458.751 504.859L542.449 573.602L645.148 657.964L756.937 749.808L869.796 842.526L975.638 929.476L1064.53 1002.5L1128.48 1055.03C1138.6 1063.36 1148.8 1071.61 1158.87 1080L1160.17 1081.06C1167.05 1086.72 1159.03 1098.12 1152.08 1092.41L1131.09 1075.16L1074.45 1028.63L990.781 959.901L888.083 875.53L776.268 783.674L663.409 690.965L557.566 604.016L468.678 530.991L404.729 478.462C394.602 470.136 384.407 461.884 374.331 453.491L373.037 452.428C366.153 446.77 374.175 435.376 381.126 441.085Z" fill="#F1A874"/>
<path d="M1137.06 1005.71C1133.85 1005.42 1131.13 1002.39 1128.79 1000.5L1114.43 988.655L1060.76 944.519L980.891 878.997L883.302 798.829L776.309 710.909L668.204 622.076L567.314 539.19L481.973 469.102L420.597 418.671C410.897 410.652 401.129 402.787 391.476 394.745L390.213 393.738C383.329 388.08 391.351 376.686 398.302 382.395L418.206 398.774L472.45 443.337L552.39 508.999L649.863 589.077L756.979 677.017L864.744 765.569L965.237 848.115L1050.44 918.101L1111.65 968.383C1121.24 976.259 1131.26 983.818 1140.51 992.099C1140.91 992.447 1141.34 992.772 1141.74 993.103L1138.33 991.837C1147.25 992.653 1146 1006.53 1137.06 1005.71Z" fill="#F1A874"/>
<path d="M422.05 329.067L440.92 344.567L492.264 386.708L567.916 448.848L660.492 524.947L761.914 608.265L863.932 692.075L959.4 770.489L1040.04 836.705L1097.84 884.179C1106.96 891.7 1116.22 899.153 1125.3 906.75L1126.47 907.704C1133.36 913.362 1125.33 924.756 1118.38 919.047L1099.51 903.583L1048.17 861.442L972.519 799.249L879.939 723.194L778.514 639.92L676.495 556.111L581.045 477.698L500.398 411.481L442.595 363.998C433.473 356.486 424.221 349.034 415.134 341.436L413.963 340.482C407.08 334.824 415.102 323.43 422.053 329.139L422.05 329.067Z" fill="#F1A874"/>
<path d="M454.066 282.558L472.014 297.305L520.635 337.244L592.479 396.272L680.116 468.255L776.096 547.108L873.335 627.013L963.674 701.249L1039.98 763.966L1095.04 809.202C1103.68 816.295 1112.38 823.322 1120.95 830.49L1122.08 831.413C1128.97 837.071 1120.94 848.465 1113.99 842.756L1096.12 827.963L1047.5 788.024L975.655 729.004L888.027 657.013L792.038 578.159L694.796 498.281L604.466 424.046L528.11 361.324L473.044 316.088C464.41 308.995 455.707 301.967 447.134 294.8L446.005 293.877C439.121 288.219 447.144 276.825 454.095 282.533L454.066 282.558Z" fill="#F1A874"/>
<path d="M495.463 243.744L512.459 257.682L558.177 295.243L626.226 351.205L708.679 418.934L799.641 493.664L890.794 568.545L976.408 638.872L1048.27 697.84L1100.29 740.577C1108.44 747.278 1116.66 753.896 1124.76 760.646C1125.1 760.945 1125.46 761.227 1125.82 761.518C1132.7 767.176 1124.68 778.57 1117.73 772.861L1100.77 758.918L1055.03 721.391L986.943 665.461L904.47 597.757L813.508 523.027L722.354 448.146L636.741 377.819L564.922 318.819L512.901 276.082C504.748 269.381 496.525 262.763 488.43 256.013C488.083 255.714 487.725 255.432 487.368 255.141C480.484 249.483 488.507 238.089 495.458 243.797L495.463 243.744Z" fill="#F1A874"/>
<path d="M1127.73 708.318L1111.91 695.281L1069.07 660.097L1005.79 608.11L928.597 544.678L844.045 475.224L758.341 404.818L678.715 339.434L611.448 284.176L562.894 244.287C555.33 238.077 547.186 232.152 540.019 225.497C539.714 225.219 539.372 224.965 539.048 224.704L542.499 225.973C533.567 225.157 534.826 211.282 543.766 212.098C546.649 212.362 548.79 214.689 550.906 216.424L562.285 225.774L604.76 260.667L667.938 312.644L745.29 376.189L830.14 445.893L915.52 516.038L995.562 581.754L1063.19 637.313L1111.83 677.262C1119.49 683.562 1127.22 689.778 1134.82 696.153C1135.15 696.433 1135.49 696.705 1135.83 696.976C1142.71 702.633 1134.69 714.027 1127.74 708.319L1127.73 708.318Z" fill="#F1A874"/>
<path d="M1138.24 644.142L1123.91 632.365L1084.93 600.324L1027.24 552.922L956.836 495.095L879.699 431.74L801.849 367.784L729.258 308.152L667.88 257.748L623.755 221.492C616.846 215.823 609.328 210.464 602.837 204.307C602.549 204.049 602.231 203.815 601.932 203.573L605.383 204.843C596.452 204.027 597.71 190.152 606.651 190.968C609.436 191.223 611.402 193.328 613.415 195.001L623.783 203.519L662.318 235.171L719.946 282.522L790.173 340.208L867.566 403.792L945.775 468.004L1018.44 527.696L1080.16 578.399L1124.37 614.725C1131.39 620.485 1138.49 626.18 1145.44 632.022C1145.73 632.281 1146.04 632.523 1146.34 632.764C1153.22 638.422 1145.2 649.816 1138.25 644.107L1138.24 644.142Z" fill="#F1A874"/>
<path d="M1139.08 572.002L1093.15 534.271L982.903 443.709L849.656 334.167L735.054 240.032L696.898 208.709C691.043 203.894 684.446 199.386 679.058 194.052C678.812 193.828 678.554 193.617 678.286 193.42L681.737 194.689C672.806 193.873 674.064 179.998 683.004 180.814C685.657 181.057 687.398 182.892 689.33 184.478L698.164 191.731L731.482 219.1L841.225 309.321L974.505 418.813L1090.43 514.05C1109.08 529.369 1127.97 544.443 1146.39 560.027C1146.65 560.246 1146.91 560.448 1147.16 560.659C1154.05 566.317 1146.03 577.711 1139.08 572.002Z" fill="#F1A874"/>
<path d="M1120.96 484.31L1086.51 456.009L1003.78 388.041L903.706 305.783L817.214 234.733L788.732 211.329C784.361 207.746 779.123 204.37 775.234 200.287C775.053 200.118 774.862 199.961 774.661 199.816L778.112 201.085C769.181 200.27 770.439 186.394 779.38 187.211C783.739 187.609 788.335 193.031 791.462 195.6L816.348 216.099L898.626 283.696L999.343 366.432L1086.02 437.659C1100.17 449.267 1114.54 460.657 1128.47 472.522L1129.05 472.994C1135.93 478.652 1127.91 490.045 1120.96 484.337L1120.96 484.31Z" fill="#F1A874"/>
<path d="M1044.22 348.436C1010.51 321.219 977.256 293.429 943.789 265.931C939.228 262.179 934.701 257.459 929.69 254.344C922.096 249.62 930.171 238.338 937.779 243.001C941.846 245.522 945.509 249.352 949.2 252.382L976.573 274.847L1038.19 325.532C1042.9 329.394 1047.57 333.299 1052.29 337.119C1059.24 342.728 1051.2 354.112 1044.2 348.462L1044.22 348.436Z" fill="#F1A874"/>
<path d="M790.033 81.9803C725.624 79.877 659.484 91.4541 602.673 122.822C547.357 153.436 508.518 203.388 485.33 261.51C461.83 320.416 452.394 383.691 441.582 445.825C430.366 510.034 417.549 573.812 391.088 633.705C362.173 699.178 325.406 761.882 278.322 816.003C266.557 829.516 254.203 842.547 241.215 854.896C231.021 864.584 220.098 873.475 210.407 883.7C193.991 900.988 180.249 921.016 168.886 941.931C144.233 987.303 130.628 1038.62 126.071 1089.87C121.409 1142.66 126.374 1197.15 143.672 1247.41C162.549 1302.26 195.742 1348.47 240.581 1385.21C290.737 1426.3 351.237 1450.5 416.021 1454.26C483.847 1458.2 551.554 1441.38 614.315 1416.82C686.082 1388.74 756.096 1354.87 831.746 1338.06C896.637 1323.67 964.131 1323.72 1028.28 1305.58C1058.93 1296.91 1087.48 1283.02 1112.4 1263.14C1136.53 1243.94 1157.06 1220.63 1173.93 1194.81C1207.77 1142.94 1226.53 1080.81 1225.68 1018.79C1225.15 981.616 1217.88 944.002 1209.05 907.983C1199.73 869.798 1191.2 831.934 1187.1 792.737C1183.01 753.848 1182.23 714.682 1184.76 675.661C1186.02 656.611 1188.1 637.636 1191 618.736C1194.02 599.03 1198.55 579.649 1202.07 560.006C1214.78 489.192 1211.07 417.511 1185.23 350.023C1162.19 289.871 1124.56 235.046 1076.14 192.487C1023.31 146.082 959.384 113.831 891.434 96.326C858.231 87.9062 824.221 83.0715 789.987 81.9047C776.266 81.3913 778.25 60.1636 791.925 60.6818C934.292 66.0191 1074.74 133.197 1156.91 251.573C1195.03 306.495 1220.74 370.395 1228.34 436.984C1232.85 476.388 1230.91 516.265 1224.4 555.332C1220.97 575.928 1216.06 596.228 1212.77 616.855C1209.57 636.97 1207.29 657.205 1205.95 677.561C1203.34 717.218 1204.32 757.031 1208.89 796.51C1211.14 815.904 1214.22 835.181 1218.13 854.341C1222.28 874.541 1227.85 894.275 1232.38 914.278C1240.83 951.011 1247.15 989.003 1246.89 1026.79C1246.63 1058.86 1241.18 1090.96 1231.65 1121.6C1212.57 1182.93 1175.86 1240.15 1125.27 1280.16C1070.86 1323.2 1003.78 1335.44 936.66 1343.81C902.829 1348.03 868.836 1351.67 835.508 1359.06C797.12 1367.57 760.026 1380.76 723.54 1395.2C653.364 1423.03 584.918 1455.65 510.052 1469.14C444.507 1480.93 375.893 1478.4 313.586 1453.39C253.382 1429.16 197.922 1385.23 161.565 1331.29C99.1377 1238.58 89.6416 1116.57 118.817 1010.57C132.507 960.855 155.827 912.214 190.687 873.811C199.607 864.006 209.261 855.258 219.051 846.38C232.7 834.014 245.661 820.91 257.875 807.127C282.001 779.652 303.701 750.139 322.733 718.918C359.108 659.718 387.568 595.906 403.728 528.234C419.228 463.301 426.592 396.742 441.716 331.721C456.001 270.324 478.387 209.061 520.937 161.339C565.84 110.987 627.871 80.9513 693.517 68.1431C725.882 61.8264 759.025 59.6825 791.954 60.7558C805.69 61.1991 803.689 82.4252 790.033 81.9803Z" fill="url(#paint0_linear_923_3)"/>
<defs>
<linearGradient id="paint0_linear_923_3" x1="1144.5" y1="95.5" x2="242" y2="1442.5" gradientUnits="userSpaceOnUse">
<stop stop-color="#E4620A"/>
<stop offset="1" stop-color="#FFF7EC"/>
</linearGradient>
</defs>
</svg>
