<svg xmlns="http://www.w3.org/2000/svg" viewBox="0 0 405.31 402.81"><defs><style>.cls-1{fill:#a0845c;}</style></defs><g id="Layer_2" data-name="Layer 2"><g id="Layer_1-2" data-name="Layer 1"><path class="cls-1" d="M395.29,267.77c-7,37.38-30.41,70-61.08,92-35,25.07-78.44,35.38-121.08,35.24-43.59-.15-88.76-9.84-126.66-31.92-34.4-20-63-51.82-74-90.64-10.61-37.49-2.76-80.93,25-109.22,14.91-15.18,33.7-25.76,49.05-40.45,15.69-15,25.28-34.49,37.23-52.33a126.48,126.48,0,0,1,44.74-41c16.94-9.28,35.32-14.68,54.24-18.12,13.56-2.47,27.14-4,40.94-3.33a172.59,172.59,0,0,1,58.71,13.19A107.19,107.19,0,0,1,385,100.25c1.65,9.15,1.48,18.2,1.56,27.44A304.76,304.76,0,0,0,389.31,163c2.95,23.41,7.38,46.71,8.17,70.34a164,164,0,0,1-2.19,34.43c-.88,4.94,6.67,7.06,7.57,2.09,8.82-49.13-9-97.35-8.41-146.43.23-18.74-3.07-36.85-11.13-53.86a114.61,114.61,0,0,0-34.39-42C332.41,15.08,312.66,8.31,292.58,4A166.81,166.81,0,0,0,240.24.82c-36.6,3.81-73.63,15-101.5,40-16.7,15-26.93,34.53-39,53.06a129.52,129.52,0,0,1-21.18,25.56c-8.29,7.54-17.43,14-26.32,20.84C43.62,146.87,35.13,153.72,28,161.9A107.12,107.12,0,0,0,11.54,187,124.39,124.39,0,0,0,.2,246.52c2.29,41.26,25,79,56.33,105.13,34.74,29,79,43.72,123.45,49.08,45.49,5.49,93.15.52,134.54-20,35.15-17.44,64.87-47.06,80.1-83.44a137.17,137.17,0,0,0,8.24-27.41C403.79,264.93,396.23,262.81,395.29,267.77Z"/></g></g></svg>