<svg width="921" height="1042" viewBox="0 0 921 1042" fill="none" xmlns="http://www.w3.org/2000/svg">
<path d="M116.265 812.943C115.086 811.606 114.196 809.858 113.205 808.386L105.715 797.24L88.5319 771.628L84.5283 765.661C81.8703 761.698 87.742 757.092 90.4264 761.091L118.329 802.684C119.565 804.526 120.689 806.712 122.18 808.395C125.345 811.989 119.464 816.53 116.281 812.965L116.265 812.943Z" fill="#F3B38B"/>
<path d="M75.4732 684.694L86.5633 701.23L113.213 740.944L145.463 789.011L173.367 830.589C177.896 837.338 182.545 844.031 186.961 850.847C187.022 850.948 187.092 851.043 187.155 851.14C189.813 855.104 183.941 859.71 181.257 855.71L170.163 839.173L143.514 799.455L111.267 751.393L83.368 709.817C78.8384 703.069 74.1894 696.375 69.7756 689.555L69.5795 689.266C66.9215 685.302 72.7933 680.696 75.4776 684.696L75.4732 684.694Z" fill="#F3B38B"/>
<path d="M81.9278 640.232L96.7515 662.323L132.198 715.156L175.192 779.23L212.21 834.409C218.193 843.328 224.329 852.17 230.175 861.187C230.253 861.311 230.337 861.432 230.422 861.553C233.08 865.517 227.208 870.123 224.524 866.123L209.7 844.032L174.254 791.199L131.259 727.124L94.2413 671.945C88.2543 663.025 82.1179 654.183 76.2724 645.166C76.1941 645.042 76.1097 644.921 76.0252 644.8C73.3673 640.836 79.239 636.23 81.9234 640.23L81.9278 640.232Z" fill="#F3B38B"/>
<path d="M263.996 869.72C262.673 869.186 262.073 868.001 261.334 866.898L257.99 861.915L245.533 843.351L204.045 781.504L153.626 706.366L109.94 641.259C102.846 630.708 95.6141 620.209 88.663 609.547L88.3358 609.086C85.6778 605.123 91.5495 600.517 94.2339 604.517L111.631 630.45L153.128 692.301L203.58 767.473L246.93 832.075L261.226 853.38C263.468 856.719 266.065 860.007 268.028 863.521C268.118 863.68 268.234 863.824 268.355 863.981L266.781 862.798C271.231 864.592 268.446 871.514 263.991 869.718L263.996 869.72Z" fill="#F3B38B"/>
<path d="M110.352 574.43L115.533 582.159L129.542 603.04L150.362 634.066L175.64 671.74L203.456 713.205L231.514 755.035L257.611 793.869L279.727 826.884L295.581 850.489C298.096 854.235 300.662 857.956 303.128 861.735L303.448 862.212C306.106 866.176 300.234 870.782 297.55 866.782L292.374 859.055L278.36 838.172L257.539 807.146L232.262 769.473L204.446 728.007L176.367 686.154L150.299 647.31L128.171 614.327L112.328 590.706C109.813 586.96 107.247 583.238 104.781 579.46L104.461 578.982C101.803 575.019 107.675 570.413 110.359 574.413L110.352 574.43Z" fill="#F3B38B"/>
<path d="M129.546 548.937L135.106 557.224L150.231 579.765L172.606 613.115L199.906 653.799L229.809 698.367L259.999 743.353L288.148 785.301L311.932 820.753L329.038 846.251C331.735 850.271 334.487 854.268 337.138 858.325L337.485 858.839C340.143 862.803 334.271 867.409 331.586 863.409L326.012 855.132L310.889 832.587L288.512 799.241L261.212 758.558L231.309 713.99L201.119 669.003L172.971 627.055L149.214 591.61L132.106 566.116C129.412 562.091 126.659 558.095 124.007 554.042L123.66 553.527C121.002 549.564 126.874 544.958 129.558 548.958L129.546 548.937Z" fill="#F3B38B"/>
<path d="M151.733 527.937L157.652 536.759L173.66 560.645L197.323 595.914L226.189 638.931L257.809 686.032L289.846 733.814L319.618 778.145L344.759 815.625L362.856 842.595C365.745 846.877 368.649 851.119 371.463 855.422C371.58 855.602 371.701 855.785 371.824 855.962C374.482 859.926 368.61 864.532 365.926 860.532L360.007 851.711L343.999 827.825L320.336 792.556L291.46 749.575L259.84 702.475L227.803 654.693L198.049 610.343L172.895 572.858L154.797 545.888C151.909 541.606 149.004 537.364 146.191 533.061C146.074 532.881 145.953 532.698 145.83 532.521C143.172 528.557 149.043 523.951 151.728 527.951L151.733 527.937Z" fill="#F3B38B"/>
<path d="M177.28 511.933L183.449 521.127L200.227 546.154L224.937 582.984L255.206 628.094L288.368 677.499L321.83 727.394L353.042 773.889L379.303 813.041L398.277 841.323C401.271 845.786 404.319 850.22 407.239 854.704C407.366 854.898 407.496 855.084 407.624 855.274C410.282 859.238 404.41 863.844 401.726 859.844L395.557 850.651L378.774 825.636L354.063 788.806L323.795 743.696L290.673 694.293L257.211 644.398L226.004 597.889L199.743 558.737L180.77 530.455C177.775 525.992 174.727 521.559 171.807 517.074C171.681 516.88 171.551 516.694 171.422 516.504C168.764 512.54 174.636 507.934 177.32 511.934L177.28 511.933Z" fill="#F3B38B"/>
<path d="M204.273 498.049L210.756 507.713L228.395 534.001L254.483 572.883L286.325 620.345L321.167 672.299L356.351 724.739L389.017 773.441L416.749 814.77L436.687 844.486C439.833 849.174 443.025 853.835 446.125 858.546C446.254 858.747 446.394 858.947 446.525 859.143C449.183 863.107 443.311 867.713 440.627 863.713L434.145 854.05L416.517 827.772L390.429 788.89L358.599 741.447L323.737 689.491L288.553 637.051L255.889 588.345L228.157 547.016L208.217 517.303C205.072 512.615 201.88 507.955 198.78 503.244C198.65 503.043 198.515 502.845 198.38 502.647C195.722 498.683 201.593 494.077 204.278 498.077L204.273 498.049Z" fill="#F3B38B"/>
<path d="M483.028 871.67C481.511 871.058 480.681 869.313 479.818 868.032L474.808 860.567L456.158 832.77L428.538 791.594L394.633 741.069L357.582 685.846L320.018 629.857L284.975 577.628L255.451 533.623L234.135 501.853C230.777 496.854 227.387 491.883 224.064 486.847L223.628 486.199C220.97 482.235 226.842 477.629 229.526 481.629L236.464 491.968L255.166 519.843L283.021 561.324L316.739 611.615L353.936 667.086L391.224 722.625L426.249 774.837L455.637 818.634L476.918 850.348C480.243 855.303 483.835 860.166 486.929 865.274C487.066 865.494 487.22 865.71 487.365 865.922L485.813 864.748C490.264 866.542 487.478 873.464 483.024 871.668L483.028 871.67Z" fill="#F3B38B"/>
<path d="M253.233 462.888L260.546 473.784L280.436 503.43L309.85 547.277L345.614 600.567L384.776 658.912L424.434 718.022L461.41 773.127L492.646 819.679L515.033 853.038C518.573 858.311 522.154 863.559 525.651 868.861L526.109 869.558C528.767 873.522 522.895 878.128 520.211 874.128L512.897 863.232L493.007 833.586L463.592 789.743L427.826 736.458L388.664 678.113L349.006 619.003L312.03 563.898L280.794 517.346L258.409 483.982C254.891 478.718 251.288 473.461 247.79 468.159C247.639 467.924 247.467 467.69 247.333 467.462C244.675 463.499 250.547 458.893 253.231 462.892L253.233 462.888Z" fill="#F3B38B"/>
<path d="M275.559 442.077L283.178 453.461L303.931 484.387L334.512 529.942L371.799 585.511L412.771 646.576L454.127 708.216L492.563 765.499L525.057 813.927L548.506 848.864C552.199 854.367 555.937 859.848 559.588 865.381C559.743 865.618 559.911 865.85 560.054 866.081C562.712 870.045 556.84 874.651 554.156 870.651L546.529 859.286L525.777 828.359L495.2 782.791L457.911 727.205L416.937 666.145L375.581 604.505L337.145 547.221L304.655 498.795L281.215 463.862C277.522 458.359 273.784 452.878 270.133 447.345C269.977 447.108 269.809 446.876 269.667 446.645C267.009 442.681 272.881 438.075 275.565 442.075L275.559 442.077Z" fill="#F3B38B"/>
<path d="M296.594 419.357L304.443 431.059L325.749 462.778L357.193 509.639L395.659 567.001L437.683 629.628L480.103 692.825L519.769 751.953L553.175 801.758L577.195 837.566C580.997 843.232 584.843 848.853 588.597 854.561C588.753 854.798 588.918 855.039 589.077 855.267C591.735 859.231 585.863 863.837 583.179 859.837L575.343 848.126L554.069 816.419L522.624 769.558L484.13 712.205L442.105 649.577L399.701 586.366L360.033 527.243L326.622 477.451L302.611 441.621C298.813 435.957 294.963 430.334 291.208 424.626C291.053 424.389 290.888 424.148 290.729 423.92C288.071 419.956 293.943 415.35 296.627 419.35L296.594 419.357Z" fill="#F3B38B"/>
<path d="M316.13 394.376L324.11 406.274L345.831 438.642L377.95 486.539L417.151 544.937L460.073 608.9L503.424 673.513L543.83 733.744L577.987 784.637L602.544 821.199C606.417 826.97 610.33 832.716 614.16 838.516L614.661 839.231C617.319 843.195 611.448 847.801 608.763 843.801L600.782 831.903L579.062 799.535L546.936 751.655L507.743 693.236L464.822 629.273L421.481 564.684L381.033 504.467L346.89 453.58L322.333 417.017C318.46 411.246 314.549 405.496 310.717 399.7L310.215 398.985C307.557 395.022 313.429 390.416 316.114 394.416L316.13 394.376Z" fill="#F3B38B"/>
<path d="M333.509 366.198L341.644 378.323L363.777 411.308L396.507 460.093L436.311 519.415L479.897 584.374L524.02 650.139L565.162 711.457L599.937 763.26L624.823 800.391C628.756 806.253 632.733 812.097 636.635 817.972C636.803 818.229 636.975 818.478 637.145 818.731C639.802 822.694 633.931 827.3 631.246 823.301L623.111 811.176L600.978 778.19L568.255 729.388L528.451 670.066L484.865 605.107L440.738 539.34L399.584 478.038L364.827 426.242L339.918 389.117C335.985 383.255 332.008 377.412 328.106 371.537C327.938 371.279 327.766 371.031 327.597 370.778C324.939 366.814 330.81 362.208 333.495 366.208L333.509 366.198Z" fill="#F3B38B"/>
<path d="M349.471 335.9L357.704 348.167L380.094 381.543L413.077 430.732L453.355 490.732L497.575 556.639L542.211 623.165L583.703 685.014L618.776 737.285L644.082 774.991C648.065 780.934 652.094 786.85 656.042 792.816L656.544 793.567C659.202 797.53 653.33 802.136 650.646 798.137L642.415 785.866L620.023 752.494L587.019 703.296L546.773 643.304L502.537 577.385L457.901 510.86L416.409 449.011L381.338 396.735L356.03 359.034C352.047 353.09 347.996 347.165 344.072 341.204C343.907 340.953 343.735 340.705 343.568 340.458C340.91 336.494 346.782 331.888 349.466 335.888L349.471 335.9Z" fill="#F3B38B"/>
<path d="M365.005 304.973L373.236 317.244L395.643 350.617L428.657 399.818L468.911 459.84L513.147 525.758L557.789 592.296L599.31 654.162L634.374 706.441L659.679 744.151C663.667 750.091 667.713 756.019 671.643 761.977L672.145 762.728C674.803 766.692 668.931 771.298 666.247 767.298L658.016 755.028L635.615 721.641L602.601 672.44L562.341 612.432L518.112 546.511L473.461 479.969L431.956 418.115L396.874 365.829L371.569 328.119C367.581 322.178 363.535 316.251 359.607 310.288C359.442 310.037 359.27 309.788 359.103 309.541C356.445 305.578 362.317 300.972 365.001 304.972L365.005 304.973Z" fill="#F3B38B"/>
<path d="M381.191 275.012L389.295 287.088L411.167 319.691L443.491 367.855L483.151 426.96L526.319 491.305L569.9 556.262L610.773 617.179L645.099 668.34L669.795 705.143C673.704 710.975 677.661 716.779 681.534 722.638L682.034 723.383C684.692 727.346 678.82 731.952 676.135 727.953L668.033 715.872L646.16 683.273L613.848 635.119L574.189 576.009L531.01 511.655L487.426 446.702L446.553 385.785L412.228 334.624L387.532 297.821C383.622 291.989 379.666 286.185 375.793 280.326L375.293 279.581C372.635 275.618 378.507 271.012 381.191 275.012Z" fill="#F3B38B"/>
<path d="M681.806 681.174C680.205 680.529 679.273 678.553 678.368 677.224L672.829 668.936L652.107 638.021L621.253 592.101L583.566 535.934L542.253 474.342L500.51 412.111L461.55 354.041L428.591 304.934L404.891 269.604C401.153 263.995 397.357 258.455 393.646 252.842L393.154 252.13C390.496 248.167 396.367 243.561 399.052 247.561L406.734 259.031L427.681 290.251L458.552 336.256L496.193 392.358L537.567 453.979L579.178 516.014L617.987 573.848L650.889 622.881L674.527 658.109C678.23 663.627 682.207 669.05 685.673 674.724C685.822 674.964 685.995 675.197 686.148 675.428L684.596 674.254C689.046 676.048 686.261 682.97 681.806 681.174Z" fill="#F3B38B"/>
<path d="M419.456 223.874L426.743 234.733L446.576 264.264L475.792 307.801L511.535 361.107L550.7 419.48L590.097 478.197L626.965 533.136L658.11 579.533L680.433 612.795C683.951 618.059 687.547 623.308 691.036 628.606L691.489 629.276C694.147 633.24 688.275 637.846 685.591 633.846L678.297 623.004L658.463 593.473L629.258 549.909L593.507 496.625L554.332 438.275L514.936 379.558L478.076 324.622L446.927 278.224L424.605 244.957C421.086 239.698 417.49 234.449 414.001 229.15L413.548 228.481C410.89 224.517 416.762 219.911 419.446 223.911L419.456 223.874Z" fill="#F3B38B"/>
<path d="M443.048 204.958L449.979 215.289L468.755 243.271L496.498 284.625L530.342 335.059L567.406 390.302L604.953 446.279L639.836 498.284L669.297 542.218L690.561 573.91C693.896 578.88 697.275 583.826 700.567 588.824L701.003 589.472C703.661 593.435 697.79 598.042 695.105 594.042L688.22 583.698L669.444 555.716L641.7 514.367L607.861 463.931L570.793 408.686L533.241 352.722L498.363 300.718L468.875 256.774L447.611 225.082C444.276 220.112 440.897 215.166 437.605 210.168L437.169 209.52C434.511 205.557 440.382 200.95 443.067 204.95L443.048 204.958Z" fill="#F3B38B"/>
<path d="M470.265 191.437L476.833 201.206L494.487 227.52L520.756 266.717L552.598 314.169L587.724 366.524L622.925 418.986L655.987 468.258L683.746 509.582L703.834 539.524C706.982 544.218 710.179 548.88 713.29 553.59C713.421 553.797 713.561 553.997 713.699 554.202C716.357 558.165 710.486 562.771 707.801 558.772L701.253 549.005L683.583 522.705L657.289 483.519L625.433 436.077L590.307 383.722L555.106 331.26L522.045 281.988L494.31 240.652L474.221 210.711C471.074 206.017 467.877 201.354 464.766 196.644C464.634 196.437 464.495 196.237 464.357 196.033C461.699 192.07 467.57 187.463 470.255 191.463L470.265 191.437Z" fill="#F3B38B"/>
<path d="M722.883 527.211L716.779 518.085L700.239 493.435L675.8 457.012L645.993 412.575L613.341 363.915L580.245 314.588L549.491 268.774L523.515 230.06L504.765 202.115C501.843 197.763 498.58 193.468 495.931 188.95C495.817 188.76 495.681 188.577 495.555 188.393L497.129 189.576C492.674 187.78 495.46 180.858 499.919 182.656C501.357 183.236 502.096 184.759 502.913 185.976L507.308 192.526L523.71 216.972L548.096 253.373L577.967 297.892L610.733 346.727L643.703 395.87L674.619 441.918L700.736 480.842L719.52 508.832C722.478 513.245 725.481 517.624 728.398 522.066C728.524 522.261 728.657 522.453 728.786 522.643C731.444 526.606 725.572 531.213 722.888 527.213L722.883 527.211Z" fill="#F3B38B"/>
<path d="M738.174 495.92L732.64 487.669L717.59 465.225L695.311 432.016L668.123 391.501L638.333 347.112L608.27 302.305L580.238 260.526L556.532 225.209L539.494 199.81C536.824 195.837 533.795 191.929 531.416 187.77C531.308 187.593 531.181 187.424 531.065 187.254L532.639 188.438C528.185 186.642 530.97 179.72 535.429 181.517C536.818 182.078 537.502 183.46 538.277 184.629L542.28 190.596L557.162 212.773L579.414 245.945L606.535 286.361L636.421 330.907L666.628 375.901L694.69 417.722L718.523 453.244L735.597 478.694C738.308 482.73 741.068 486.744 743.735 490.814C743.843 490.991 743.964 491.162 744.08 491.332C746.738 495.296 740.866 499.902 738.182 495.902L738.174 495.92Z" fill="#F3B38B"/>
<path d="M749.726 459.049L731.992 432.616L689.417 369.167L637.973 292.436L593.716 226.483L578.978 204.534C576.718 201.162 574.03 197.832 572.089 194.266C571.997 194.113 571.897 193.965 571.79 193.822L573.364 195.006C568.91 193.21 571.695 186.288 576.154 188.085C577.477 188.619 578.087 189.828 578.834 190.94L582.245 196.022L595.112 215.197L637.481 278.394L688.949 355.103L733.717 421.826C740.917 432.558 748.28 443.202 755.326 454.036C755.424 454.188 755.525 454.332 755.624 454.48C758.282 458.443 752.41 463.049 749.726 459.049Z" fill="#F3B38B"/>
<path d="M753.96 411.282L740.654 391.454L708.709 343.837L670.071 286.215L636.67 236.438L625.672 220.042C623.983 217.53 621.817 214.99 620.452 212.297C620.386 212.182 620.312 212.072 620.231 211.967L621.805 213.15C617.351 211.354 620.136 204.432 624.595 206.23C626.77 207.106 628.291 210.596 629.498 212.396L639.1 226.747L670.872 274.104L709.767 332.07L743.237 381.968C748.7 390.103 754.317 398.161 759.632 406.395L759.853 406.725C762.511 410.689 756.639 415.295 753.955 411.295L753.96 411.282Z" fill="#F3B38B"/>
<path d="M735.555 329.761C722.466 310.604 709.698 291.223 696.775 271.959C695.014 269.331 693.42 266.212 691.33 263.842C688.164 260.248 694.046 255.707 697.228 259.272C698.926 261.192 700.214 263.721 701.639 265.844L712.213 281.587L735.999 317.085C737.815 319.791 739.61 322.514 741.444 325.202C744.139 329.15 738.264 333.75 735.545 329.772L735.555 329.761Z" fill="#F3B38B"/>
<path d="M606.417 849.429C561.095 870.946 508.874 872.655 458.924 868.015C381.565 860.713 306.224 839.166 236.702 804.461C194.673 783.389 153.96 756.68 127.056 718.151C100.152 679.622 89.2099 627.29 108.975 584.618C124.644 550.796 156.281 527.857 184.612 503.671C212.942 479.485 240.707 449.273 243.27 412.103C246.374 366.88 211.055 325.151 215.935 280.091C220.309 239.103 257.137 208.581 295.63 193.897C308.435 189.001 321.71 185.434 335.246 183.253C351.706 180.57 368.567 181.8 384.464 186.843C400.362 191.885 414.849 200.599 426.753 212.279L427.159 212.683C457.874 243.216 475.691 287.922 514.139 307.816C571.413 337.455 643.544 297.346 704.857 317.371C719.708 322.358 733.222 330.675 744.365 341.687C755.508 352.699 763.985 366.113 769.147 380.904C774.063 395.781 775.513 411.584 773.387 427.107C771.261 442.629 765.614 457.46 756.879 470.467C730.671 508.778 679.127 528.149 663.701 571.896C645.384 623.851 688.141 677.722 688.36 732.803C688.56 782.961 651.696 827.951 606.417 849.429Z" fill="#F9AB51"/>
<path d="M670.922 667.75C629.146 717.081 590.71 770.128 540.139 811.093C497.929 845.3 444.981 870.617 389.812 870.976C329.875 871.361 275.562 839.745 237.873 794.488C199.34 748.233 180.395 689.345 171.417 630.606C161.604 566.217 160.426 498.647 173.721 434.678C179.791 405.46 189.719 374.839 212.664 354.379C232.022 337.121 257.572 329.849 282.378 324.491C308.72 318.799 335.466 314.886 360.814 305.342C390.151 294.312 416.598 276.516 446.204 266.213C460.597 261.213 476.903 259.006 492.054 258.002C508.263 256.996 524.533 257.817 540.558 260.452C569.728 265.14 599.482 277.037 619.332 299.627C639.181 322.218 643.444 353.217 654.683 380.215C666.674 409.085 685.86 434.089 702.628 460.235C718.299 484.671 733.311 512.026 735.207 541.599C737.329 574.544 721.384 603.947 702.2 629.52C692.344 642.7 681.574 655.164 670.953 667.718C665.965 673.6 676.058 680.126 680.984 674.308C703.223 648.093 726.893 621.582 739.478 589.077C751.208 558.796 748.564 527.437 736.464 497.734C724.365 468.03 704.592 442.564 687.45 415.656C678.83 402.123 670.741 388.121 664.695 373.192C658.944 358.946 655.115 344.017 649.792 329.616C644.469 315.214 637.52 301.779 627.227 290.438C616.91 279.327 604.587 270.264 590.906 263.728C561.387 249.281 527.028 244.031 494.375 245.9C478.189 246.822 461.529 249.114 445.957 253.734C430.968 258.173 416.694 265.671 402.776 272.621C387.954 280.057 373.204 287.695 357.766 293.724C344.533 298.909 330.673 302.326 316.764 305.276C290.177 310.879 262.906 314.758 237.614 325.203C209.723 336.732 189.275 357.399 176.688 384.734C162.971 414.531 157.883 448.648 154.718 481.042C151.299 515.982 151.563 551.227 154.393 586.209C159.313 648.177 171.712 711.068 203.197 765.482C233.748 818.365 283.807 862.867 344.058 877.621C401.311 891.638 460.918 876.13 510.599 846.384C566.516 812.946 608.722 762.314 649.462 712.449C659.885 699.694 670.313 686.92 680.962 674.343C685.944 668.449 675.87 661.929 670.922 667.75Z" fill="#EC813F"/>
</svg>
