<svg width="1770" height="2106" viewBox="0 0 1770 2106" fill="none" xmlns="http://www.w3.org/2000/svg">
<path d="M643.421 257.111C744.96 237.568 857.106 248.324 940.035 310.091C1087.33 419.824 1091.46 637.958 1188.32 794.024C1247.03 888.635 1323.1 976.452 1417.25 1035.88C1571.34 1133.14 1645.72 1412.63 1528.81 1585.48C1419.59 1746.97 1255.65 1776.49 1068.18 1734.26C985.26 1715.67 903.057 1690.96 818.27 1685.59C713.486 1678.94 601.962 1704.74 507.041 1659.79C397.839 1608.08 319.268 1487.92 310.63 1367.41C307.843 1327.61 309.049 1286.43 313.183 1246.02C325.292 1127.56 310.014 1007.8 267.207 896.689C251.599 856.131 239.95 814.546 234.842 771.378C220.68 651.783 260.596 527.987 337.164 435.027C413.732 342.067 525.166 279.886 643.421 257.111Z" fill="#CE7106"/>
<path d="M1549.2 1793.88C1552.04 1791.44 1554.4 1788.05 1556.88 1785.27L1575.68 1764.2L1618.83 1715.78L1628.89 1704.5C1635.56 1697.01 1624.65 1685.73 1617.91 1693.29L1547.85 1771.92C1544.74 1775.4 1541.77 1779.63 1538.18 1782.71C1530.56 1789.29 1541.51 1800.44 1549.16 1793.93L1549.2 1793.88Z" fill="#CE7106"/>
<path d="M1670.99 1538.44L1643.14 1569.7L1576.23 1644.78L1495.25 1735.65L1425.18 1814.25C1413.81 1827.01 1402.2 1839.62 1391.05 1852.55C1390.89 1852.74 1390.72 1852.92 1390.56 1853.1C1383.89 1860.6 1394.8 1871.88 1401.54 1864.32L1429.39 1833.05L1496.31 1757.96L1577.28 1667.1L1647.33 1588.5C1658.71 1575.75 1670.31 1563.14 1681.47 1550.2L1681.96 1549.65C1688.63 1542.16 1677.72 1530.88 1670.98 1538.44L1670.99 1538.44Z" fill="#CE7106"/>
<path d="M1670.31 1443.96L1633.09 1485.73L1544.08 1585.61L1436.13 1706.74L1343.17 1811.06C1328.15 1827.92 1312.83 1844.58 1298.06 1861.68C1297.86 1861.92 1297.65 1862.15 1297.44 1862.37C1290.77 1869.87 1301.68 1881.15 1308.42 1873.59L1345.64 1831.82L1434.64 1731.94L1542.6 1610.81L1635.56 1506.49C1650.59 1489.63 1665.91 1472.97 1680.68 1455.87C1680.87 1455.63 1681.08 1455.4 1681.3 1455.17C1687.97 1447.68 1677.06 1436.4 1670.32 1443.96L1670.31 1443.96Z" fill="#CE7106"/>
<path d="M1225.16 1869.75C1228.07 1869.02 1229.66 1866.72 1231.51 1864.63L1239.91 1855.21L1271.19 1820.12L1375.37 1703.19L1501.97 1561.15L1611.66 1438.06C1629.47 1418.12 1647.55 1398.32 1665.09 1378.11L1665.9 1377.24C1672.58 1369.75 1661.67 1358.47 1654.93 1366.03L1611.24 1415.06L1507.04 1531.99L1380.37 1674.1L1271.51 1796.23L1235.62 1836.5C1229.99 1842.82 1223.64 1848.92 1218.54 1855.68C1218.31 1855.98 1218.02 1856.25 1217.72 1856.54L1221.34 1854.53C1211.56 1856.99 1215.37 1872.21 1225.17 1869.74L1225.16 1869.75Z" fill="#CE7106"/>
<path d="M1629.99 1298.73L1616.98 1313.34L1581.8 1352.82L1529.52 1411.47L1466.05 1482.7L1396.2 1561.09L1325.75 1640.17L1260.23 1713.57L1204.69 1776L1164.88 1820.62C1158.57 1827.7 1152.16 1834.72 1145.93 1841.88L1145.13 1842.78C1138.46 1850.28 1149.36 1861.56 1156.11 1854L1169.11 1839.39L1204.29 1799.91L1256.57 1741.25L1320.04 1670.03L1389.89 1591.64L1460.4 1512.51L1525.85 1439.08L1581.42 1376.72L1621.2 1332.07C1627.52 1324.99 1633.93 1317.97 1640.15 1310.81L1640.95 1309.9C1647.63 1302.41 1636.72 1291.13 1629.98 1298.69L1629.99 1298.73Z" fill="#CE7106"/>
<path d="M1597.33 1240.12L1583.36 1255.78L1545.39 1298.4L1489.2 1361.44L1420.65 1438.36L1345.57 1522.61L1269.76 1607.66L1199.08 1686.96L1139.36 1753.98L1096.4 1802.19C1089.63 1809.79 1082.75 1817.32 1076.07 1825.01L1075.2 1825.98C1068.52 1833.48 1079.43 1844.76 1086.17 1837.2L1100.16 1821.56L1138.13 1778.93L1194.32 1715.89L1262.87 1638.98L1337.96 1554.73L1413.76 1469.68L1484.44 1390.38L1544.1 1323.36L1587.06 1275.17C1593.83 1267.56 1600.71 1260.02 1607.4 1252.34L1608.27 1251.37C1614.94 1243.87 1604.03 1232.59 1597.29 1240.15L1597.33 1240.12Z" fill="#CE7106"/>
<path d="M1557.14 1190L1542.27 1206.68L1502.07 1251.84L1442.65 1318.52L1370.17 1399.84L1290.78 1488.88L1210.33 1579.22L1135.58 1663.02L1072.45 1733.88L1027.01 1784.86C1019.76 1792.95 1012.49 1800.96 1005.4 1809.11C1005.1 1809.45 1004.8 1809.8 1004.49 1810.13C997.814 1817.63 1008.72 1828.91 1015.46 1821.35L1030.33 1804.67L1070.53 1759.51L1129.95 1692.83L1202.44 1611.59L1281.83 1522.55L1362.28 1432.21L1437 1348.37L1500.16 1277.5L1545.6 1226.51C1552.85 1218.42 1560.11 1210.42 1567.21 1202.26C1567.51 1201.92 1567.81 1201.58 1568.12 1201.24C1574.79 1193.75 1563.88 1182.47 1557.14 1190.03L1557.14 1190Z" fill="#CE7106"/>
<path d="M1508.51 1149.33L1493.02 1166.71L1450.89 1214.03L1388.84 1283.65L1312.84 1368.93L1229.57 1462.33L1145.54 1556.66L1067.18 1644.56L1001.23 1718.58L953.587 1772.04C946.067 1780.48 938.445 1788.84 931.076 1797.34C930.756 1797.71 930.431 1798.06 930.109 1798.42C923.435 1805.92 934.344 1817.2 941.084 1809.63L956.574 1792.25L998.717 1744.96L1060.77 1675.34L1136.77 1590.06L1219.95 1496.65L1303.98 1402.32L1382.34 1314.4L1448.28 1240.38L1495.93 1186.91C1503.45 1178.47 1511.07 1170.11 1518.44 1161.61C1518.76 1161.24 1519.08 1160.89 1519.4 1160.53C1526.08 1153.04 1515.17 1141.76 1508.43 1149.32L1508.51 1149.33Z" fill="#CE7106"/>
<path d="M1456.27 1112.66L1439.99 1130.93L1395.7 1180.62L1330.19 1254.13L1250.23 1343.86L1162.74 1442.08L1074.39 1541.22L992.363 1633.29L922.729 1711.43L872.664 1767.61C864.766 1776.47 856.779 1785.26 848.968 1794.18C848.641 1794.57 848.293 1794.94 847.963 1795.31C841.289 1802.81 852.198 1814.09 858.938 1806.53L875.215 1788.26L919.48 1738.58L984.987 1665.07L1064.91 1575.38L1152.45 1477.16L1240.8 1378.02L1322.82 1285.94L1392.46 1207.8L1442.52 1151.63C1450.42 1142.77 1458.41 1133.98 1466.22 1125.05C1466.55 1124.67 1466.89 1124.3 1467.23 1123.93C1473.9 1116.43 1462.99 1105.15 1456.25 1112.71L1456.27 1112.66Z" fill="#CE7106"/>
<path d="M768.327 1810.93C771.663 1810.09 773.893 1806.69 776.058 1804.27L788.637 1790.16L835.469 1737.61L904.824 1659.76L989.958 1564.25L1082.99 1459.85L1177.32 1354L1265.31 1255.26L1339.45 1172.07L1392.97 1112.01C1401.4 1102.56 1409.89 1093.18 1418.26 1083.64L1419.35 1082.41C1426.03 1074.92 1415.12 1063.64 1408.38 1071.2L1390.96 1090.75L1344 1143.45L1274.06 1221.86L1189.39 1316.94L1095.97 1421.82L1002.35 1526.81L914.404 1625.51L840.612 1708.31L787.176 1768.27C778.828 1777.63 769.948 1786.73 762.037 1796.49C761.688 1796.9 761.305 1797.31 760.942 1797.71L764.512 1795.71C754.726 1798.17 758.542 1813.39 768.337 1810.93L768.327 1810.93Z" fill="#CE7106"/>
<path d="M1364.37 1025.35L1346.01 1045.95L1296.07 1102L1222.21 1184.9L1132.41 1285.64L1034.08 1395.93L934.495 1507.68L841.65 1611.86L763.218 1699.86L707.006 1762.93C698.118 1772.9 689.152 1782.8 680.344 1792.84L679.191 1794.16C672.516 1801.66 683.425 1812.94 690.165 1805.38L708.528 1784.78L758.472 1728.73L832.334 1645.84L922.137 1545.11L1020.47 1434.82L1120.05 1323.07L1212.89 1218.89L1291.33 1130.89L1347.54 1067.81C1356.37 1057.86 1365.39 1047.94 1374.2 1037.9C1374.58 1037.45 1375.01 1037.01 1375.35 1036.58C1382.03 1029.08 1371.12 1017.8 1364.38 1025.36L1364.37 1025.35Z" fill="#CE7106"/>
<path d="M1323.84 975.595L1304.7 997.12L1252.59 1055.59L1175.81 1141.7L1082.18 1246.76L979.302 1362.2L875.456 1478.73L778.945 1587.03L697.352 1678.58L638.476 1744.62C629.203 1755.03 619.842 1765.37 610.649 1775.85C610.256 1776.3 609.84 1776.73 609.476 1777.17C602.802 1784.67 613.711 1795.95 620.451 1788.39L639.601 1766.9L691.71 1708.43L768.486 1622.29L862.123 1517.2L965.006 1401.77L1068.85 1285.24L1165.36 1176.94L1246.95 1085.39L1305.8 1019.35C1315.08 1008.95 1324.44 998.604 1333.63 988.126C1334.02 987.677 1334.44 987.242 1334.8 986.801C1341.48 979.307 1330.57 968.026 1323.83 975.588L1323.84 975.595Z" fill="#CE7106"/>
<path d="M1286.54 922.227L1266.83 944.349L1213.35 1004.31L1134.39 1092.9L1037.79 1201.35L932.273 1319.74L825.764 1439.21L726.159 1551L642.273 1645.16L581.956 1712.85C572.409 1723.56 562.784 1734.17 553.324 1744.98C552.932 1745.43 552.52 1745.89 552.123 1746.31C545.449 1753.81 556.358 1765.09 563.098 1757.53L582.783 1735.38L636.202 1675.44L715.158 1586.85L811.812 1478.43L917.333 1360.03L1023.81 1240.53L1123.42 1128.75L1207.31 1034.62L1267.62 966.877C1277.16 956.169 1286.79 945.561 1296.25 934.748C1296.64 934.299 1297.05 933.845 1297.45 933.415C1304.13 925.922 1293.22 914.641 1286.48 922.202L1286.54 922.227Z" fill="#CE7106"/>
<path d="M1253.02 864.58L1232.98 887.074L1178.44 948.266L1097.78 1038.82L999.356 1149.22L891.582 1270.14L782.726 1392.29L681.264 1506.16L595.501 1602.37L533.849 1671.48C524.125 1682.39 514.324 1693.24 504.68 1704.22L503.43 1705.57C496.756 1713.06 507.665 1724.34 514.405 1716.78L534.446 1694.28L588.984 1633.09L669.652 1542.58L768.067 1432.13L875.841 1311.21L984.668 1189.11L1086.21 1075.28L1171.95 979.078L1233.6 909.964C1243.32 899.054 1253.12 888.198 1262.77 877.225L1264.02 875.88C1270.69 868.387 1259.78 857.106 1253.04 864.667L1253.02 864.58Z" fill="#CE7106"/>
<path d="M1224.91 800.892L1204.48 823.814L1148.9 886.173L1066.72 978.401L966.771 1090.55L857.326 1213.35L746.533 1337.68L643.225 1453.61L555.914 1551.53L493.413 1621.74C483.537 1632.82 473.575 1643.85 463.759 1654.97C463.336 1655.46 462.907 1655.93 462.481 1656.41C455.806 1663.9 466.715 1675.18 473.455 1667.62L493.884 1644.7L549.459 1582.34L631.635 1490.07L731.581 1377.92L841.026 1255.12L951.829 1130.79L1055.16 1014.9L1142.43 916.981L1204.98 846.796C1214.85 835.714 1224.81 824.683 1234.63 813.564C1235.05 813.076 1235.48 812.608 1235.91 812.129C1242.58 804.636 1231.67 793.355 1224.93 800.917L1224.91 800.892Z" fill="#CE7106"/>
<path d="M1200.35 733.195L1179.68 756.384L1123.46 819.484L1040.63 912.481L939.5 1025.91L828.464 1150.5L716.382 1276.27L612.193 1393.2L524.126 1492.02L460.586 1563.3C450.584 1574.54 440.492 1585.7 430.555 1597L429.293 1598.42C422.618 1605.91 433.527 1617.19 440.268 1609.63L460.936 1586.43L517.162 1523.34L600.039 1430.33L701.099 1316.91L812.171 1192.3L924.253 1066.53L1028.44 949.602L1116.51 850.773L1180.05 779.502C1190.05 768.265 1200.19 757.085 1210.08 745.795C1210.49 745.319 1210.92 744.85 1211.34 744.384C1218.02 736.891 1207.11 725.61 1200.37 733.171L1200.35 733.195Z" fill="#CE7106"/>
<path d="M1176.87 664.311L1156.2 687.51L1099.95 750.598L1017.05 843.612L915.963 957.088L804.891 1081.7L692.795 1207.5L588.54 1324.45L500.488 1423.29L436.95 1494.58C426.936 1505.81 416.807 1516.99 406.909 1528.28L405.647 1529.7C398.973 1537.19 409.882 1548.47 416.622 1540.91L437.29 1517.71L493.541 1454.6L576.437 1361.58L677.531 1248.13L788.59 1123.51L900.706 997.713L1004.92 880.779L1093.02 781.932L1156.55 710.642C1166.57 699.412 1176.7 688.226 1186.59 676.933C1187.01 676.457 1187.44 675.988 1187.86 675.522C1194.53 668.029 1183.62 656.748 1176.88 664.309L1176.87 664.311Z" fill="#CE7106"/>
<path d="M1151.76 597.251L1131.41 620.08L1076.49 681.718L995.325 772.771L895.74 884.508L787.344 1006.15L677.909 1128.96L575.277 1244.12L489.085 1340.84L427.075 1410.42C417.257 1421.44 407.349 1432.4 397.599 1443.49L396.344 1444.9C389.669 1452.39 400.579 1463.67 407.319 1456.11L427.665 1433.27L482.588 1371.64L563.723 1280.61L663.306 1168.86L771.729 1047.2L881.166 924.405L983.798 809.241L1069.99 712.521L1132 642.946C1141.82 631.92 1151.73 620.964 1161.48 609.872L1162.73 608.464C1169.41 600.971 1158.5 589.69 1151.76 597.251Z" fill="#CE7106"/>
<path d="M408.936 1357.04C412.456 1356.15 414.964 1352.3 417.231 1349.8L431.149 1334.12L483.19 1275.67L560.647 1188.87L655.277 1082.69L759.02 966.244L863.841 848.591L961.671 738.81L1044.43 645.976L1103.94 579.183C1113.34 568.572 1122.83 558.121 1132.18 547.493L1133.41 546.153C1140.08 538.659 1129.17 527.379 1122.43 534.94L1103.14 556.628L1050.54 615.651L973.021 702.622L878.505 808.682L774.628 925.17L670.136 1042.45L572.69 1151.78L490.075 1244.48L430.719 1311.08C421.422 1321.51 411.581 1331.67 402.732 1342.49C402.352 1342.95 401.926 1343.38 401.541 1343.82L405.111 1341.82C395.325 1344.28 399.14 1359.5 408.936 1357.04Z" fill="#CE7106"/>
<path d="M1086.73 479.738L1068.43 500.268L1018.64 556.091L945.277 638.397L855.518 739.179L757.173 849.533L658.249 960.538L565.675 1064.4L487.478 1152.11L431.426 1214.99C422.586 1224.94 413.588 1234.85 404.8 1244.88L403.664 1246.15C396.989 1253.64 407.898 1264.92 414.638 1257.36L432.945 1236.87L482.739 1181.05L556.083 1098.68L645.855 997.947L744.212 887.642L843.136 776.638L935.69 672.782L1013.9 585.07L1069.95 522.179C1078.79 512.234 1087.79 502.332 1096.58 492.296L1097.71 491.031C1104.39 483.538 1093.48 472.257 1086.74 479.818L1086.73 479.738Z" fill="#CE7106"/>
<path d="M1043.01 433.562L1025.61 453.094L978.461 505.993L908.799 584.174L823.817 679.517L730.749 783.956L636.464 889.784L548.869 988.104L474.886 1071.17L421.491 1131.08C413.118 1140.47 404.658 1149.81 396.366 1159.27L395.271 1160.5C388.597 1167.99 399.506 1179.27 406.246 1171.71L423.557 1152.14L470.704 1099.24L540.369 1021.07L625.338 925.72L718.416 821.279L812.709 715.48L900.294 617.163L974.335 534.087L1027.73 474.173C1036.1 464.778 1044.56 455.444 1052.86 445.977L1053.95 444.753C1060.62 437.26 1049.72 425.979 1042.98 433.54L1043.01 433.562Z" fill="#CE7106"/>
<path d="M990.197 397.582L973.711 416.048L929.381 465.795L863.407 539.904L783.454 629.612L695.251 728.589L606.863 827.769L523.846 920.917L454.156 999.032L403.713 1055.64C395.808 1064.51 387.811 1073.31 379.979 1082.23C379.645 1082.62 379.296 1082.99 378.949 1083.38C372.275 1090.87 383.184 1102.16 389.924 1094.59L406.369 1076.13L450.728 1026.41L516.75 952.334L596.73 862.651L684.933 763.673L773.322 664.494L856.339 571.346L925.98 493.201L976.422 436.597C984.327 427.722 992.325 418.927 1000.16 410.009C1000.49 409.615 1000.84 409.239 1001.19 408.853C1007.86 401.36 996.952 390.079 990.212 397.64L990.197 397.582Z" fill="#CE7106"/>
<path d="M367.567 1024.52L382.902 1007.26L424.435 960.66L485.8 891.803L560.648 807.792L642.636 715.8L725.74 622.548L802.957 535.941L868.183 462.752L915.264 409.921C922.6 401.694 930.63 393.685 937.446 385.033C937.737 384.671 938.074 384.328 938.388 383.981L934.77 385.994C944.565 383.532 940.75 368.313 930.945 370.777C927.783 371.572 925.806 374.534 923.754 376.833L912.72 389.216L871.534 435.431L810.285 504.259L735.279 588.423L653.003 680.745L570.214 773.65L492.593 860.699L427.013 934.286L379.85 987.2C372.419 995.543 364.906 1003.8 357.556 1012.22C357.237 1012.59 356.905 1012.95 356.583 1013.31C349.908 1020.8 360.817 1032.08 367.557 1024.52L367.567 1024.52Z" fill="#CE7106"/>
<path d="M344.696 954.946L358.593 939.348L396.389 896.914L452.332 834.132L520.6 757.539L595.399 673.623L670.887 588.915L741.276 509.933L800.796 443.169L843.581 395.15C850.282 387.64 857.714 380.369 863.864 372.389C864.14 372.052 864.453 371.736 864.743 371.415L861.125 373.428C870.92 370.966 867.105 355.747 857.3 358.211C854.245 358.979 852.425 361.664 850.475 363.876L840.422 375.157L803.055 417.081L747.177 479.795L679.079 556.201L604.035 640.416L528.191 725.471L457.729 804.534L397.885 871.688L355.01 919.802C348.205 927.431 341.302 935.002 334.579 942.714C334.303 943.051 334.003 943.374 333.712 943.695C327.037 951.188 337.947 962.469 344.687 954.908L344.696 954.946Z" fill="#CE7106"/>
<path d="M331.218 874.825L375.749 824.851L482.653 704.902L611.845 559.831L722.973 435.149L759.974 393.657C765.651 387.28 772.206 381.116 777.274 374.244C777.509 373.952 777.759 373.672 778.022 373.406L774.404 375.419C784.199 372.957 780.384 357.738 770.579 360.202C767.669 360.933 766.052 363.279 764.178 365.379L755.612 374.987L723.304 411.237L616.901 530.72L487.665 675.74L375.254 801.879C357.174 822.168 338.78 842.228 320.992 862.774C320.745 863.063 320.493 863.333 320.243 863.612C313.569 871.105 324.478 882.386 331.218 874.825Z" fill="#CE7106"/>
<path d="M336.112 774.103L369.521 736.618L449.736 646.597L546.766 537.657L630.636 443.552L658.252 412.555C662.493 407.808 667.733 403.139 671.35 397.92C671.521 397.7 671.707 397.492 671.905 397.296L668.286 399.309C678.081 396.847 674.266 381.628 664.461 384.092C659.68 385.294 655.51 392.127 652.478 395.529L628.356 422.668L548.575 512.198L450.912 621.782L366.864 716.117C353.149 731.495 339.135 746.669 325.699 762.295L325.144 762.919C318.47 770.413 329.379 781.694 336.119 774.132L336.112 774.103Z" fill="#CE7106"/>
<path d="M397.854 609.568C430.621 573.419 462.782 536.712 495.233 500.292C499.655 495.324 503.87 489.285 508.904 484.946C516.531 478.369 505.583 467.221 497.93 473.733C493.843 477.246 490.434 482.144 486.855 486.158L460.308 515.917L400.568 583.036C396.008 588.152 391.489 593.309 386.897 598.382C380.149 605.831 391.066 617.1 397.871 609.594L397.854 609.568Z" fill="#CE7106"/>
<path d="M597.992 207.89C669.29 194.341 744.895 195.711 813.564 220.726C880.438 245.16 932.345 293.979 968.26 354.613C1004.66 416.064 1026.17 484.824 1049.01 552.075C1072.67 621.565 1098.03 690.296 1137.89 752.329C1181.46 820.145 1233.28 883.513 1295.09 935.536C1310.53 948.523 1326.54 960.872 1343.14 972.352C1356.17 981.357 1369.87 989.348 1382.43 999.038C1403.71 1015.42 1422.48 1035.31 1438.77 1056.6C1474.09 1102.79 1498.16 1157.53 1512.15 1213.75C1526.52 1271.68 1530.48 1333.17 1519.98 1392.1C1508.53 1456.42 1479.64 1513.61 1436.14 1562.29C1387.49 1616.73 1324.38 1654.19 1252.96 1669.65C1178.18 1685.83 1099.92 1678.9 1025.81 1662.5C941.075 1643.75 857.28 1618.25 770.183 1612.72C695.479 1608 620.39 1619.8 545.862 1610.77C510.247 1606.46 476.07 1595.98 444.874 1578.2C414.69 1561.04 387.786 1538.67 364.526 1512.87C317.844 1461.05 286.162 1395.19 276.319 1326.04C270.435 1284.58 271.971 1241.47 275.533 1199.86C279.253 1155.75 282.159 1112.13 279.895 1067.81C277.676 1023.83 271.731 980.115 262.124 937.139C257.408 916.162 251.794 895.411 245.28 874.886C238.488 853.487 230.07 832.712 222.74 811.468C196.273 734.89 187.922 654.49 204.933 574.902C220.098 503.965 252.426 436.416 298.89 380.637C349.592 319.812 415.108 272.802 487.666 241.499C523.144 226.352 560.143 215.054 598.03 207.798C613.207 204.839 607.305 181.566 592.18 184.522C434.707 215.237 290.125 314.426 219.302 460.436C186.455 528.177 168.971 603.749 172.099 679.162C173.944 723.788 183.042 767.819 197.076 810.155C204.48 832.473 213.479 854.205 220.723 876.584C227.79 898.407 233.841 920.525 238.877 942.941C248.689 986.609 254.524 1031.08 256.311 1075.8C257.187 1097.77 257.114 1119.75 256.093 1141.75C254.994 1164.95 252.23 1187.88 250.671 1210.92C247.662 1253.26 247.242 1296.63 254.106 1338.63C259.973 1374.27 271.63 1409.04 287.565 1441.46C319.464 1506.38 370.269 1563.66 433.524 1599.37C501.551 1637.79 578.311 1639.74 654.453 1637.37C692.827 1636.17 731.284 1634.31 769.651 1636.73C813.845 1639.52 857.413 1647.74 900.521 1657.45C983.446 1676.21 1065.28 1700.59 1150.92 1702.57C1225.9 1704.28 1301.81 1689.52 1366.78 1650.85C1429.55 1613.42 1483.61 1554.88 1514.67 1488.54C1568 1374.53 1557.33 1237.13 1506.42 1124.26C1482.54 1071.33 1448.12 1021.27 1402.65 984.604C1391.02 975.247 1378.76 967.193 1366.32 959.019C1348.98 947.636 1332.28 935.312 1316.29 922.101C1284.67 895.73 1255.39 866.67 1228.78 835.245C1178 775.707 1135.23 709.661 1105.47 637.178C1076.93 567.629 1057.15 494.855 1029.01 425.142C1002.43 359.316 966.857 295.048 911.209 249.355C852.486 201.147 778.241 178.523 702.971 175.697C665.861 174.302 628.612 177.684 592.16 184.61C576.955 187.493 582.876 210.762 597.992 207.89Z" fill="#92400E"/>
</svg>
