<svg width="400" height="400" viewBox="0 0 400 400" fill="none" xmlns="http://www.w3.org/2000/svg"><path fill-rule="evenodd" clip-rule="evenodd" d="M54.091 64.0484C18.209 104.345 1.13533 150.788 0 206.608C0.181134 208.409 0.34967 210.51 0.535236 212.824C1.0085 218.726 1.59252 226.008 2.77878 233.203C9.11837 271.61 25.1758 306 52.5349 335.433C106.535 393.536 188.08 415.274 263.381 388.905C274.56 384.993 285.516 380.173 295.853 374.595C323.26 359.804 345.141 339.174 363.608 315.35C374.052 301.876 382.694 287.178 388.005 271.372C397.759 242.363 401.919 212.551 399.168 181.984C397.207 160.209 391.947 139.296 383.258 119.076C348.344 37.8253 262.396 -7.81146 181.625 1.10315C162.88 3.17468 144.366 6.64456 126.883 13.4244C98.1664 24.5593 74.1061 41.5667 54.091 64.0484ZM18.5716 247.029C16.5932 237.007 15.0549 226.999 15.3403 216.735C15.9167 211.042 16.4634 205.345 17.0102 199.648C18.2765 186.455 19.5428 173.261 21.1765 160.107C23.0796 144.773 29.9229 130.876 37.3252 117.272C39.8911 112.559 42.5012 107.868 45.1112 103.177C49.0908 96.0251 53.0699 88.8734 56.8915 81.6472C64.6863 66.9106 76.1644 55.3316 90.3386 45.8477C110.956 32.0436 133.281 21.6533 157.907 15.7802C161.518 14.9189 165.116 13.9871 168.715 13.0552C176.663 10.9973 184.612 8.93893 192.698 7.63742C232.473 1.25168 268.66 11.4525 301.706 31.4009C348.17 59.4513 377.165 99.6378 390.47 149.717C396.001 170.546 398.325 191.746 396.104 213.266C392.548 247.732 380.61 279.326 359.398 307.74C349.692 320.742 337.889 331.961 324.952 342.136C317.97 347.633 310.877 353.027 303.617 358.209C286.636 370.327 268.009 379.198 246.992 383.559C244.099 384.16 241.223 384.841 238.347 385.523C229.347 387.655 220.355 389.785 210.908 389.436C208.981 389.365 207.054 389.296 205.127 389.228C185.131 388.514 165.133 387.801 145.326 384.714C138.249 383.611 131.525 381.627 124.991 378.834C93.6096 365.427 68.2705 345.263 48.4346 318.94C48.1638 318.581 47.8626 318.231 47.5598 317.88C46.1866 316.288 44.783 314.66 46.0596 311.875C46.5383 310.832 45.3021 308.984 44.2255 307.375C43.9823 307.011 43.7473 306.66 43.542 306.332C31.9053 287.788 22.7743 268.345 18.5716 247.029Z" fill="currentColor"></path></svg>