<svg xmlns="http://www.w3.org/2000/svg" viewBox="0 0 80.33 81.16"><defs><style>.cls-1{fill:#da982a;}.cls-1,.cls-2{fill-rule:evenodd;}.cls-2{fill:#f3c163;}.cls-3{fill:#0a2135;}</style></defs><g id="Layer_2" data-name="Layer 2"><g id="OBJECTS"><path class="cls-1" d="M40.56,42S34,61.54,34.39,73s12.45,10.88,12.35-1.27C46.65,60.69,40.56,42,40.56,42Z"/><path class="cls-1" d="M38.55,40.11S19.3,33.41,8.06,33.85-2.64,46.5,9.32,46.4C20.13,46.32,38.55,40.11,38.55,40.11Z"/><path class="cls-1" d="M38.6,39.18S24.21,24.53,13.94,19.88-1.15,26.45,9.62,31.72C19.37,36.48,38.6,39.18,38.6,39.18Z"/><path class="cls-1" d="M41.44,38.9S57.06,25.63,62.53,15.63,57.43-.23,51.32,10.21C45.78,19.66,41.44,38.9,41.44,38.9Z"/><path class="cls-1" d="M41.76,40.08s20-3.75,29.6-9.73S74.59,14,64.22,20C54.84,25.5,41.76,40.08,41.76,40.08Z"/><path class="cls-1" d="M41.5,43s4.26,20.24,10.4,29.82,16.18,2.82,10-7.56C56.21,55.9,41.5,43,41.5,43Z"/><path class="cls-1" d="M40.16,39.21s6.59-19.58,6.17-31S33.88-2.68,34,9.47C34.07,20.47,40.16,39.21,40.16,39.21Z"/><path class="cls-1" d="M41.77,41.05s19.26,6.7,30.5,6.27S83,34.66,71,34.76C60.2,34.85,41.77,41.05,41.77,41.05Z"/><path class="cls-1" d="M42.06,41.64S55.51,57.17,65.48,62.46s15.46-5.6,5-11.54C61.08,45.54,42.06,41.64,42.06,41.64Z"/><path class="cls-1" d="M40,41.11S24.34,54.38,18.88,64.37,24,80.24,30.09,69.79C35.62,60.35,40,41.11,40,41.11Z"/><path class="cls-1" d="M39,41S19,44.7,9.4,50.67,6.17,67,16.54,61C25.93,55.53,39,41,39,41Z"/><path class="cls-1" d="M39.64,39.87s-4.25-20.24-10.4-29.82S13.07,7.24,19.3,17.61C24.94,27,39.64,39.87,39.64,39.87Z"/><path class="cls-2" d="M45.73,34.23l6.49-14.72a.3.3,0,0,0-.16-.39.29.29,0,0,0-.39.15L44.15,33.58a.85.85,0,0,0,1.58.65Z"/><path class="cls-2" d="M41.76,34.3c0-4.41.2-8.84-.15-13.24-.15-1.91-.56-3.75-.81-5.64a.25.25,0,0,0-.26-.25.26.26,0,0,0-.25.26c-.19,1.91-.5,3.77-.51,5.7,0,4.42.67,8.81,1,13.21a.5.5,0,0,0,.52.48A.5.5,0,0,0,41.76,34.3Z"/><path class="cls-2" d="M40,43.7l1,17a.62.62,0,1,0,1.23,0l-.5-17a.85.85,0,1,0-1.7,0Z"/><path class="cls-2" d="M42.55,46c1.93,2.67,3.58,5.57,5.59,8.2,1.36,1.79,2.94,3.33,4.41,5a.37.37,0,0,0,.51.09.35.35,0,0,0,.09-.5c-1.32-2.47-2.46-5-4-7.35A69.82,69.82,0,0,0,43.89,45a.85.85,0,0,0-1.19-.16A.86.86,0,0,0,42.55,46Z"/><path class="cls-2" d="M44.93,43.11c2.77,1.51,5.38,3.28,8.21,4.66,1.92.93,3.92,1.56,5.91,2.34a.42.42,0,0,0,.4-.74c-1.76-1.22-3.38-2.55-5.21-3.64a89.83,89.83,0,0,0-8.55-4.14.84.84,0,0,0-1.14.37A.86.86,0,0,0,44.93,43.11Z"/><path class="cls-2" d="M46.82,42.67,58.57,41a.53.53,0,0,0,.5-.56.53.53,0,0,0-.55-.51,47.13,47.13,0,0,0-6.06,0,52.92,52.92,0,0,0-6,1,.85.85,0,0,0,.31,1.68Z"/><path class="cls-2" d="M46.48,38.9a49.49,49.49,0,0,0,7-3.37,59.57,59.57,0,0,0,6-4.85.68.68,0,0,0-.76-1.13c-2.24,1.2-4.59,2.16-6.78,3.5s-4.09,3-6.21,4.35a.85.85,0,0,0,.81,1.5Z"/><path class="cls-2" d="M36.38,46.17,26.67,61.78a.35.35,0,0,0,.59.38L37.83,47.07a.85.85,0,0,0-1.45-.9Z"/><path class="cls-2" d="M35.1,42.49c-3,1.81-6.18,3.22-9.19,5a58.55,58.55,0,0,0-8.6,6.25.73.73,0,0,0,.9,1.16L36,43.91a.85.85,0,0,0-.94-1.42Z"/><path class="cls-2" d="M36.45,38.33,17,38a.58.58,0,0,0-.11,1.15c2.62.41,5.2.87,7.83,1A97.35,97.35,0,0,0,36.51,40a.85.85,0,1,0-.06-1.7Z"/><path class="cls-2" d="M35.81,36.22,21,30.56a.52.52,0,0,0-.71.22.53.53,0,0,0,.23.72,45,45,0,0,0,5.64,3.13c2.92,1.29,6,2.13,9,3.19a.85.85,0,1,0,.6-1.6Z"/><path class="cls-2" d="M37.27,34.32l-10-14.88a.31.31,0,0,0-.43-.11.33.33,0,0,0-.11.43A122.77,122.77,0,0,0,32.57,31a51,51,0,0,0,3.3,4.33.86.86,0,0,0,1.4-1Z"/><ellipse class="cls-3" cx="40.02" cy="40.07" rx="9.79" ry="9.95"/></g></g></svg>