<svg xmlns="http://www.w3.org/2000/svg" viewBox="0 0 86.33 71.01"><defs><style>.cls-1{fill:#ed245c;}.cls-1,.cls-2,.cls-3,.cls-5{fill-rule:evenodd;}.cls-2{fill:#ae1747;}.cls-3{fill:#fd6891;}.cls-4{fill:#fef9f6;}.cls-5{fill:#153f4f;}</style></defs><g id="Layer_2" data-name="Layer 2"><g id="OBJECTS"><path class="cls-1" d="M45.14,35.57S40,25.9,40.53,17.79c.32-4.63,0-14.56,6.78-16.8,5.64-1.85,8,3.64,12.42,4.58,2.54.53,4.81-1.05,7.35-.14,3.92,1.41,3,3.91,5,6.08,1.64,1.8,6.16,1.1,7.86,3.56C84,21,68,29.08,62.82,30.78,57.45,32.53,51.05,35,45.14,35.57Z"/><path class="cls-1" d="M43.81,35.27s8.82,4.55,14,11.63c2.93,4,10.07,12.2,6,17.35-3.36,4.27-9.06.79-13.38,2.14-2.46.77-3.23,3.19-5.94,3.64-4.2.71-5.15-1.84-8.27-2.7-2.6-.72-5.84,2-8.93.79-7.51-3,2.18-19.33,5.26-23.23S39.34,38.59,43.81,35.27Z"/><path class="cls-1" d="M45.38,36.84a51.9,51.9,0,0,1,16.89-9c5.34-1.53,16.47-5.64,21.17-1.09,3.9,3.78-1.57,7.75-1.22,11.66.2,2.23,2.71,3.43,2.49,5.8-.35,3.66-3.47,3.88-5.3,6.29-1.51,2,.71,5.33-1.53,7.63-5.44,5.59-17.49-5.07-21-8.52C53.14,46,47.91,41.34,45.38,36.84Z"/><path class="cls-1" d="M40.32,36a39.71,39.71,0,0,1-7.83,15c-3.3,3.75-9.6,12.26-16.2,11.2-5.47-.89-3.59-6.52-6.32-9.24-1.56-1.55-4.31-1.21-5.62-3.08-2-2.88.34-4.57.29-7.26,0-2.23-3.91-3.6-3.56-6.41.84-6.81,17.11-4.83,22.11-4C28.39,33,35.49,33.88,40.32,36Z"/><path class="cls-1" d="M44.16,35.2s-10.24,1.57-19.53-.82C19.33,33,7.67,31,6.92,24.82c-.63-5.09,6.4-5.7,8.71-9.15,1.31-2,.09-4.21,1.85-6.09,2.7-2.9,5.35-1.53,8.42-2.64,2.54-.93,3-4.82,6.29-5.64,8.07-2,10.68,12.89,11.24,17.55C44,23.69,45.11,30.18,44.16,35.2Z"/><path class="cls-2" d="M47.58,27.69c.33-.19.35,0,.56-.32a1.08,1.08,0,0,0,.07-.54,78.06,78.06,0,0,1,.94-8.08.54.54,0,0,0-1-.23,50.32,50.32,0,0,0-1.18,8.2c0,.18-.1.38,0,.55.15.34.2.16.49.41a.11.11,0,0,0,.09.1A.1.1,0,0,0,47.58,27.69Z"/><path class="cls-2" d="M49.93,27.22c.19-.19.34-.25.48-.47a5.59,5.59,0,0,0,.43-1.27c.4-1.21.82-2.4,1.26-3.59s.86-2.38,1.37-3.55a48.51,48.51,0,0,1,2.89-5.65.42.42,0,0,0-.13-.56.41.41,0,0,0-.56.13,46.38,46.38,0,0,0-4.52,8.59,32.79,32.79,0,0,0-1.25,3.9c-.14.56-.24,1.14-.34,1.71a.32.32,0,0,0,0,.13,1.9,1.9,0,0,0,.21.59.09.09,0,1,0,.18,0Z"/><path class="cls-2" d="M51.2,27.84v0c0-.05,0-.1.07-.15.23-.47.45-1,.69-1.44A53,53,0,0,1,55.59,20a15.82,15.82,0,0,1,1.94-2.36,12.7,12.7,0,0,1,2.5-1.8.38.38,0,0,1,.44.62,18.54,18.54,0,0,0-1.95,2.11c-.62.72-1.24,1.45-1.81,2.23-1.39,1.9-2.54,4-3.78,5.95-.29.46-.61.9-.92,1.33,0,0,0,.12-.1.13h0a3,3,0,0,0-.27-.15.1.1,0,0,1-.13,0,.11.11,0,0,1,0-.13Z"/><path class="cls-2" d="M54.63,28.23a4,4,0,0,0,.62-.14.92.92,0,0,0,.21-.13,33.47,33.47,0,0,1,4.5-2.4c.67-.31,1.32-.65,2-1a.47.47,0,0,0-.37-.86c-.79.31-1.57.59-2.32.94a20.5,20.5,0,0,0-2.21,1.2,8.24,8.24,0,0,0-2.2,1.57,2.82,2.82,0,0,0-.35.64.09.09,0,0,0,0,.13A.09.09,0,0,0,54.63,28.23Z"/><path class="cls-2" d="M34.16,38.73a2.59,2.59,0,0,0-.5-.44,8.7,8.7,0,0,0-3.17-.68,19.06,19.06,0,0,0-2.14-.13,47.18,47.18,0,0,0-6.17.35c-.88.11-1.73.28-2.59.4a.47.47,0,0,0-.45.49.46.46,0,0,0,.49.44c.89,0,1.77.08,2.66.05,2-.07,4.05-.32,6.06-.36h2.06c1,0,2,.27,3.07.22a3.42,3.42,0,0,0,.63-.16.11.11,0,0,0,.12-.07A.09.09,0,0,0,34.16,38.73Z"/><path class="cls-2" d="M32.54,40.26c-.12-.16-.06-.21-.23-.31a1.29,1.29,0,0,0-.59-.09,23.72,23.72,0,0,0-3-.2,28.81,28.81,0,0,0-4.55.39,27.06,27.06,0,0,0-3.31.7,36.66,36.66,0,0,0-4.73,1.79.45.45,0,0,0-.25.58.44.44,0,0,0,.58.26c1.31-.42,2.63-.75,4-1.07s2.65-.63,4-.87,2.9-.42,4.37-.53c1-.08,2-.14,2.94-.17a1.36,1.36,0,0,0,.57,0c.19-.08.13-.13.27-.27a.1.1,0,0,0,.1-.09A.08.08,0,0,0,32.54,40.26Z"/><path class="cls-2" d="M34,41.05c-.11-.13,0-.1-.13-.15s-.44.12-.66.18c-1.11.32-2.21.64-3.3,1s-2.17.78-3.23,1.23-1.87.84-2.78,1.33a36.33,36.33,0,0,0-3.9,2.5.37.37,0,1,0,.41.62c1.18-.67,2.4-1.25,3.64-1.83.81-.38,1.64-.75,2.46-1.12,1.24-.57,2.49-1.11,3.74-1.66L32.78,42,34,41.46s.08,0,.1-.05c.13-.22,0,.07,0-.18a.11.11,0,0,0,.06-.13A.11.11,0,0,0,34,41.05Z"/><path class="cls-2" d="M34,42.37a5.36,5.36,0,0,0-.9.21,7.83,7.83,0,0,0-1.72,1.15c-1.79,1.37-3.34,3.07-5,4.56a.51.51,0,0,0,0,.71A.52.52,0,0,0,27,49c1.17-1.09,2.29-2.27,3.45-3.38.92-.87,2-1.57,2.92-2.4.26-.22.43-.48.68-.72a.09.09,0,0,0,0-.13A.11.11,0,0,0,34,42.37Z"/><path class="cls-2" d="M44,40.8c-.17,0-.17,0-.33,0s-.06.07-.09.11a13.36,13.36,0,0,0-.81,1.16A31.34,31.34,0,0,0,41,45.75a48,48,0,0,0-1.62,4.53,27.44,27.44,0,0,0-.81,4.78.53.53,0,1,0,1,.15c.19-.92.44-1.82.7-2.71s.49-1.67.76-2.5c.39-1.25.79-2.51,1.24-3.75a29.36,29.36,0,0,1,1.77-4.71,1.24,1.24,0,0,0,.16-.3c0-.17-.05-.16-.09-.33a.09.09,0,0,0,0-.13A.09.09,0,0,0,44,40.8Z"/><path class="cls-2" d="M44.59,42.52a5,5,0,0,0-.42.6c0,.09-.06.19-.09.28a22.37,22.37,0,0,0-.73,3.87,29.88,29.88,0,0,0-.21,3.67c0,1.21.13,2.42.23,3.65a.33.33,0,0,0,.35.33.34.34,0,0,0,.33-.35c0-1.22.08-2.42.12-3.62,0-.8,0-1.6.08-2.4a40.46,40.46,0,0,1,.54-4.74c0-.16.06-.31.07-.47a6.48,6.48,0,0,0-.09-.77.08.08,0,0,0-.06-.11A.09.09,0,0,0,44.59,42.52Z"/><path class="cls-2" d="M46.27,43.53c0,.06-.08.07-.09.14a4.44,4.44,0,0,0,.12,1.13c.16,1.66.17,3.44.46,5.1a9,9,0,0,0,.33,1.38,6.91,6.91,0,0,0,.63,1.28.27.27,0,0,0,.36.14.29.29,0,0,0,.14-.37,12.25,12.25,0,0,1-.33-1.39c-.06-.31-.13-.61-.19-.93-.36-1.85-.42-3.85-.77-5.67a2,2,0,0,0-.2-.82c0-.05-.06,0-.12-.07a.17.17,0,0,0-.34.08Z"/><path class="cls-2" d="M47.65,43.71a2,2,0,0,0,.05.35,3.48,3.48,0,0,0,.22.43c.53.94,1.09,1.86,1.65,2.77a.3.3,0,0,0,.42.1.32.32,0,0,0,.1-.42c-.59-.9-1.1-1.85-1.7-2.74a2.19,2.19,0,0,0-.29-.39,1.49,1.49,0,0,0-.29-.2.1.1,0,0,0-.13,0A.09.09,0,0,0,47.65,43.71Z"/><path class="cls-2" d="M54.73,36.89a7.71,7.71,0,0,0,.84-.09c1.41-.31,2.73-.82,4.12-1,.93-.15,1.87-.26,2.81-.33a45.48,45.48,0,0,1,7.09.17c1.6.13,3.2.23,4.78.42a.43.43,0,0,0,.51-.34.43.43,0,0,0-.34-.5,43.37,43.37,0,0,0-4.78-1.06,30.06,30.06,0,0,0-7.4-.09,22.32,22.32,0,0,0-2.92.52,12.65,12.65,0,0,0-4.17,1.59,3.84,3.84,0,0,0-.62.59.09.09,0,0,0,0,.12A.1.1,0,0,0,54.73,36.89Z"/><path class="cls-2" d="M59.06,37.33c.69,0,1.37,0,2.06.09,1,.09,2,.23,3,.42s2,.44,3,.7c.66.18,1.33.35,2,.56a.23.23,0,0,0,.16-.44c-.64-.27-1.28-.54-2-.77a19.81,19.81,0,0,0-3.06-.75,16.59,16.59,0,0,0-3.15-.23,14.54,14.54,0,0,0-2.08.23.1.1,0,0,0-.09.1A.11.11,0,0,0,59.06,37.33Z"/><path class="cls-2" d="M58.9,39.46c.47.19.9.4,1.36.56,1.06.4,2.11.74,3.13,1.18a30.15,30.15,0,0,1,2.86,1.4.38.38,0,0,0,.52-.13.39.39,0,0,0-.14-.53,23.62,23.62,0,0,0-3.69-1.79,15.88,15.88,0,0,0-2.76-.78c-.41-.06-.81-.07-1.23-.09a.1.1,0,0,0-.12.07A.09.09,0,0,0,58.9,39.46Z"/><path class="cls-2" d="M38.8,29.05c.09-.18.17-.21.2-.41a.83.83,0,0,0,0-.35,18.88,18.88,0,0,0-.82-2.65c-.36-1-.76-2-1.19-3-.65-1.49-1.38-2.93-2.09-4.37a.28.28,0,0,0-.37-.14.29.29,0,0,0-.14.37c.63,1.59,1.22,3.21,1.83,4.82s1.15,3.22,1.75,4.82a2.27,2.27,0,0,0,.31.73c.14.16.22.14.39.25a.09.09,0,0,0,.12.06A.09.09,0,0,0,38.8,29.05Z"/><path class="cls-2" d="M36.65,28.94c.07-.15.13-.12.13-.29s-.06-.19-.1-.29a35.45,35.45,0,0,0-2.17-4c-.65-1.07-1.33-2.14-2-3.17s-1.53-2-2.27-3a.24.24,0,0,0-.33-.07.24.24,0,0,0-.07.33c.73,1.29,1.46,2.62,2.26,3.93,1.19,1.91,2.43,3.81,3.55,5.73.17.28.26.65.52.85s.19.05.36.1a.1.1,0,0,0,.12,0A.1.1,0,0,0,36.65,28.94Z"/><path class="cls-2" d="M35.06,30.77c-.17-.18-.3-.36-.46-.54-.63-.65-1.25-1.32-1.86-2s-1.12-1.36-1.7-2a18.44,18.44,0,0,0-1.91-1.94,8.66,8.66,0,0,0-2.3-1.58,5.07,5.07,0,0,0-1.17-.33.32.32,0,0,0-.41.2.33.33,0,0,0,.2.41,10.93,10.93,0,0,1,1,.61,16.37,16.37,0,0,1,3.4,3.17c.44.51.87,1,1.32,1.53a18.36,18.36,0,0,0,1.48,1.45,7.47,7.47,0,0,0,1.69,1.25,3.13,3.13,0,0,0,.52.16.19.19,0,1,0,.21-.32Z"/><path class="cls-2" d="M32,30.32l-4-.79a.27.27,0,0,0-.33.19.27.27,0,0,0,.19.34,13.51,13.51,0,0,0,1.64.31c.82.09,1.64.1,2.47.14a.12.12,0,0,0,.11-.09A.1.1,0,0,0,32,30.32Z"/><path class="cls-3" d="M41.79,10.79c.19-.16.16,0,.26-.24a.25.25,0,0,0,0-.12,10.26,10.26,0,0,0-.55-2.61,13.13,13.13,0,0,0-3.84-5.88,6.12,6.12,0,0,0-7.14-.73,5.61,5.61,0,0,0-1.37,1.07,15,15,0,0,0-1.43,1.9A4.74,4.74,0,0,1,25.88,6c-1.81.85-4.25.67-6.27,1.28A6.22,6.22,0,0,0,16.69,9a5,5,0,0,0-.94,1.53A30.38,30.38,0,0,0,15,13.86a5.4,5.4,0,0,1-.55,1.34,8.47,8.47,0,0,1-.89,1.24C12,18.2,9.46,19.17,7.7,20.8a6.7,6.7,0,0,0-2,3.12,5.14,5.14,0,0,0,1.83,5.47,11.52,11.52,0,0,0,3.49,2,14.45,14.45,0,0,0,3.84.85,9.81,9.81,0,0,0,1.08,0c.51,0,1-.08,1.55-.15a.32.32,0,1,0,0-.64c-.44,0-.84,0-1.25,0a7.29,7.29,0,0,1-1.2-.19,17,17,0,0,1-2.69-1A12.65,12.65,0,0,1,8.84,28a3.37,3.37,0,0,1-1.2-3.49,4.74,4.74,0,0,1,1.45-2.17c1.84-1.66,4.5-2.66,6.11-4.46a10.49,10.49,0,0,0,1.14-1.57,7.76,7.76,0,0,0,.79-1.85c.26-.9.33-1.83.6-2.69a2.87,2.87,0,0,1,.64-1.17A4,4,0,0,1,20.26,9.5C22.39,8.89,25,9,26.88,8.16a5.57,5.57,0,0,0,1.43-1,13.38,13.38,0,0,0,1.85-2.35,4.73,4.73,0,0,1,1.51-1.54,4.05,4.05,0,0,1,4.6.45,13.9,13.9,0,0,1,3.85,4.66c.43.78.78,1.52,1.09,2.2a.16.16,0,0,0,0,.1c.19.16.11,0,.34.09a.09.09,0,0,0,.11.08A.1.1,0,0,0,41.79,10.79Z"/><path class="cls-3" d="M40.14,41.84c-.09.16-.21.35-.37.58-.7,1-2.11,2.94-3.45,4.84-1.67,2.37-3.23,4.66-3.38,4.88-.34.51-.69,1-1.07,1.49-.25.33-.51.65-.79,1a12,12,0,0,1-.94.95c-.72.67-1.49,1.26-2.19,1.94-2,1.85-4.94,4.86-8.06,6.17a7,7,0,0,1-7.49-.9,8.65,8.65,0,0,1-1.9-2.12A8.87,8.87,0,0,1,9.4,58c-.2-.86-.29-1.79-.52-2.67a3.74,3.74,0,0,0-.53-1.19,3.57,3.57,0,0,0-1.36-1,20.28,20.28,0,0,1-2.31-1.22A5.6,5.6,0,0,1,3.46,50.8,5.37,5.37,0,0,1,2.3,48.14c-.23-1.59.32-3.29.08-4.94A4.78,4.78,0,0,0,2,42c-.5-1.18-1.25-2.28-1.7-3.47A5.12,5.12,0,0,1,0,36.38a5.61,5.61,0,0,1,.54-2.05,6.52,6.52,0,0,1,4.26-3.25,18.75,18.75,0,0,1,4.53-.64,61.37,61.37,0,0,1,16,1.85c.89.2,1.79.42,2.7.7a6.12,6.12,0,0,1,.69.22,4.91,4.91,0,0,1,.44.25.1.1,0,0,1,.07.11.1.1,0,0,1-.11.08c-.16,0-.28.05-.43.06a4.3,4.3,0,0,1-.62,0l-2.36-.26a81.44,81.44,0,0,0-13.41-.64A23.89,23.89,0,0,0,6,33.91c-1.31.45-2.27.93-2.64,1.74a2.51,2.51,0,0,0-.24.93,2.21,2.21,0,0,0,.12.88c.44,1.15,1.17,2.21,1.65,3.35a7.75,7.75,0,0,1,.57,2,38.16,38.16,0,0,1-.17,4.42,2.59,2.59,0,0,0,.53,1.71,4,4,0,0,0,1.43,1,15.53,15.53,0,0,1,2.33,1.31,5.13,5.13,0,0,1,1.18,1.19,6.14,6.14,0,0,1,.79,1.63c.34,1.06.43,2.22.66,3.29a6,6,0,0,0,.71,1.79,6.23,6.23,0,0,0,1.26,1.47,4.46,4.46,0,0,0,4.77.66c2.91-1.06,5.73-3.7,7.66-5.3l3.32-2.5a13.77,13.77,0,0,0,1-1q.49-.52,1-1.08c.17-.21,2-2.32,3.83-4.56,1.09-1.32,2.19-2.69,3-3.7l0,0c.4-.54.69-.92.89-1.17l.29-.35c.45-.69.92-.47.25.2Z"/><path class="cls-3" d="M25.52,58.35c-.69-.08,0-.36-.63-.06-.15.06-.17.26-.26.4a9,9,0,0,0-.78,1.69,9.12,9.12,0,0,0-.43,4.47,5.9,5.9,0,0,0,3,4.31,6.62,6.62,0,0,0,3.06.75c1.91,0,3.93-.66,5.76-.7C38,69.1,40.21,70.67,42.8,71a8.31,8.31,0,0,0,2.38,0,6.86,6.86,0,0,0,2.49-1C49,69.06,50,67.76,51.6,67.25a7.55,7.55,0,0,1,3.25,0,28.82,28.82,0,0,0,4,.41,6.62,6.62,0,0,0,2.34-.43,7.39,7.39,0,0,0,1.57-.84,8,8,0,0,0,1.32-1.14,6.69,6.69,0,0,0,1-1.49,10.12,10.12,0,0,0,.63-1.59,5,5,0,0,0,.12-1.92,25.62,25.62,0,0,0-.86-3.43A7,7,0,0,0,64,54.74a20.48,20.48,0,0,0-2.21-2.26L57.3,47.69a.08.08,0,0,0-.12,0,.09.09,0,0,0,0,.13L61,53.07a20.28,20.28,0,0,1,1.47,2.55,5.08,5.08,0,0,1,.42,1.65c.14.78.4,1.81.52,2.78a3.29,3.29,0,0,1,0,1.37,6.39,6.39,0,0,1-.48,1.14,4.24,4.24,0,0,1-.67.92,6.29,6.29,0,0,1-.92.79,5,5,0,0,1-1.05.54,6.66,6.66,0,0,1-3.19.1,38.46,38.46,0,0,0-4-.48,7.51,7.51,0,0,0-2.35.3c-1.77.57-3,2-4.53,2.9a4.12,4.12,0,0,1-1.53.6,5.74,5.74,0,0,1-2.42-.13c-2.38-.6-4.53-1.93-7.07-1.94-1.59,0-3.31.55-5,.69a4.23,4.23,0,0,1-2.38-.34,3.4,3.4,0,0,1-1.74-2.27,9.25,9.25,0,0,1-.26-3.41c.06-.55.11-1.07.21-1.58,0-.14.13-.27.08-.41-.22-.66,0,0-.47-.41a.09.09,0,0,0-.05-.12A.09.09,0,0,0,25.52,58.35Z"/><path class="cls-3" d="M52.88,41.18c-.11.31-.22.21-.2.54s.38.81.6,1.2a58.53,58.53,0,0,0,8.89,12.25,26.15,26.15,0,0,0,3.46,3.11,16.29,16.29,0,0,0,6.52,2.94,10.49,10.49,0,0,0,3,.39,5.13,5.13,0,0,0,2.35-.71,6.5,6.5,0,0,0,2.29-2.25,6.26,6.26,0,0,0,.87-3.12c0-1-.22-1.87-.2-2.75a2,2,0,0,1,.27-1,5.46,5.46,0,0,1,1.71-1.54,16.61,16.61,0,0,0,1.75-1.31,5.54,5.54,0,0,0,1.57-2.36,6,6,0,0,0,.08-3.49,18.85,18.85,0,0,0-1.28-3.16,6.9,6.9,0,0,1-.77-2.47.8.8,0,0,1,.13-.42c.18-.37.4-.72.56-1.1.44-1,1-2.12,1.35-3.23a8.37,8.37,0,0,0,.48-2.65,6.06,6.06,0,0,0-2.28-4.84,9.79,9.79,0,0,0-7.14-1.84,11.2,11.2,0,0,0-2.45.64c-1.09.41-2.15.95-3.16,1.44-1.37.72-4.56,2.36-7.42,3.9-2.06,1.11-3.94,2.17-4.85,2.82a.17.17,0,0,0,.18.29A41.36,41.36,0,0,1,63,30.8c3.31-1.29,7.5-2.74,9.17-3.35,1-.41,2-.87,3.07-1.21a8.67,8.67,0,0,1,1.93-.43,7.59,7.59,0,0,1,4.48.93,3.64,3.64,0,0,1,2,3.3,5.55,5.55,0,0,1-.37,1.78c-.36,1-.9,2-1.32,3-.24.53-.59,1-.78,1.56A3.13,3.13,0,0,0,81,37.58a9.55,9.55,0,0,0,1,3.55A17.71,17.71,0,0,1,83,43.8,3.22,3.22,0,0,1,83,45.64a2.62,2.62,0,0,1-.76,1.1,16.46,16.46,0,0,1-1.84,1.31,7.62,7.62,0,0,0-2.17,2.14,4.64,4.64,0,0,0-.69,1.88,33.44,33.44,0,0,0,.12,3.41,3.23,3.23,0,0,1-.44,1.61A3.35,3.35,0,0,1,76,58.28a2.11,2.11,0,0,1-1.26.29,8.43,8.43,0,0,1-1.84-.31,14.75,14.75,0,0,1-5.53-2.38,30.1,30.1,0,0,1-3.27-2.62c-2.58-2.36-5.52-6-9.58-11.14-.27-.34-.45-.81-.86-1s-.24,0-.57,0a.11.11,0,0,0-.13,0A.11.11,0,0,0,52.88,41.18Z"/><path class="cls-3" d="M75,24.88a7.83,7.83,0,0,0,1.45-.35,11.36,11.36,0,0,0,2.74-2,10.1,10.1,0,0,0,1.61-1.81,5.84,5.84,0,0,0,.75-5.36,4.76,4.76,0,0,0-2-2.53,9.24,9.24,0,0,0-4-1.2c-.49-.05-1-.05-1.53-.12a1.41,1.41,0,0,1-.76-.28,3.61,3.61,0,0,1-1-1.8,11.76,11.76,0,0,0-.72-1.93A4.71,4.71,0,0,0,69.8,5.63a7,7,0,0,0-3.17-1c-2-.17-4.16.52-6.18-.09a6.63,6.63,0,0,1-1.52-.72C57.59,3,56.42,1.88,55,1.16A12.76,12.76,0,0,0,45.25.79a6.12,6.12,0,0,0-4.11,5.43C41.07,7.45,41,8.73,40.92,10c0,.86-.07,1.71-.07,2.54a21.42,21.42,0,0,0,.57,3.84c.7,3.09,1.9,6.89,2.42,8.37a.33.33,0,0,0,.63-.18c-.25-1.13-.69-3.59-1.06-6.06-.16-1.05-.28-2.09-.4-3a21.94,21.94,0,0,1-.26-2.9l.43-6.2c.19-2.33,2-3.51,4.15-4a10.61,10.61,0,0,1,6.61.79c1.37.71,2.46,1.8,3.73,2.62a8.66,8.66,0,0,0,2.08,1c2.17.69,4.46.06,6.67.26a4.67,4.67,0,0,1,2.07.67,2.25,2.25,0,0,1,.85.95,16.43,16.43,0,0,1,.7,2,5.55,5.55,0,0,0,1.54,2.47,3.47,3.47,0,0,0,1.26.72,12.46,12.46,0,0,0,2.43.33,8.3,8.3,0,0,1,2.54.62,2.49,2.49,0,0,1,1.4,1.41A3.56,3.56,0,0,1,79,19.57a9.21,9.21,0,0,1-1.16,1.53,29.75,29.75,0,0,0-2.23,2.27,6.57,6.57,0,0,0-.65,1.37.09.09,0,0,0,0,.13A.09.09,0,0,0,75,24.88Z"/><ellipse class="cls-4" cx="45.1" cy="34.05" rx="15.89" ry="11.11" transform="translate(-3.18 4.68) rotate(-5.74)"/><path class="cls-5" d="M35.69,29c0-.15-.3-.36.12.16.21.25,0,.65-.06,1a.53.53,0,1,1-1,.05c-.05-.32-.36-.68-.19-.95.36-.57,0-.32.11-.18s.14.11.44,0a.11.11,0,0,1,.09-.1.1.1,0,0,1,.1.09C35.57,29.1,35.67,29,35.69,29Z"/><path class="cls-5" d="M39.7,27l0,0c.1,0,.11,0,.17.11a1.25,1.25,0,0,1,.14.61c0,.32-.05.62-.06.94a.35.35,0,1,1-.68.14,5.86,5.86,0,0,1-.39-.89,1.29,1.29,0,0,1-.08-.61c0-.1,0-.1.13-.16l0,0,.25-.06a.09.09,0,1,1,.18,0A.83.83,0,0,0,39.7,27Z"/><path class="cls-5" d="M37.32,30.61c-.51.27-.13-.13-.53.28a.22.22,0,0,0-.08.15,1,1,0,0,0,.29.69c.06.07.06,0,.14.07a.42.42,0,0,0,.46.38.42.42,0,0,0,.38-.46c.06-.06.06,0,.11-.1a1,1,0,0,0,.12-.77.2.2,0,0,0-.12-.13c-.49-.29,0,0-.58-.14a.11.11,0,0,0-.11-.08A.1.1,0,0,0,37.32,30.61Z"/><path class="cls-5" d="M32.82,32.91h.07c.14,0,.11,0,.19.07s.1.61.07.91a2,2,0,0,1-.12.4.42.42,0,0,1-.32.48.4.4,0,0,1-.48-.32A1.54,1.54,0,0,1,32,34.1c-.13-.27-.32-.59-.22-.87s0-.07.16-.13l.05,0,.34-.08a.09.09,0,0,1,.08-.11.09.09,0,0,1,.11.07A1.62,1.62,0,0,0,32.82,32.91Z"/><path class="cls-5" d="M36.93,33.93c-.36.37-.22,0-.49.48,0,.08-.09.12-.08.22,0,.42.42.67.65,1a.53.53,0,0,0,.66.34.52.52,0,0,0,.34-.65,8.11,8.11,0,0,0,0-1,.48.48,0,0,0-.06-.24.32.32,0,0,0-.2-.16c-.48-.19-.16,0-.68-.1a.1.1,0,0,0-.12-.06A.1.1,0,0,0,36.93,33.93Z"/><path class="cls-5" d="M42.25,31.2h.08c.13,0,.1,0,.2.08a1.2,1.2,0,0,1,.2.73,2.8,2.8,0,0,1-.13.81.48.48,0,1,1-1,.08,6.36,6.36,0,0,1-.32-.64,1.25,1.25,0,0,1-.09-.71c0-.12,0-.08.15-.15l.07,0h0a1.58,1.58,0,0,0,.26-.09s0-.09.07-.11.09.07.12.07a1.31,1.31,0,0,0,.27,0Z"/><path class="cls-5" d="M44.18,26.17c-.53.35,0-.11-.45.3-.07.06-.07,0-.09.09s0,.06,0,.09a3.13,3.13,0,0,0,.32.78c.08.13.18.17.28.28a.48.48,0,0,0,.92-.26,2.12,2.12,0,0,0,.08-.41,3.54,3.54,0,0,0-.2-.84s0-.06,0-.08,0,0-.13,0c-.64-.05.1,0-.54,0a.09.09,0,0,0-.12-.06A.09.09,0,0,0,44.18,26.17Z"/><path class="cls-5" d="M49.68,24.93c-.33.3-.11,0-.41.36,0,.05-.05,0-.06.09a.83.83,0,0,0,0,.15A3.76,3.76,0,0,0,49.8,27c.07.09.11.07.22.12a.45.45,0,0,0,.58.28.46.46,0,0,0,.29-.58c0-.11.09-.11.1-.22a4.18,4.18,0,0,0-.43-1.52c0-.05,0-.11-.06-.14s0,0-.1,0c-.44-.1-.1,0-.54-.06a.1.1,0,0,0-.12-.06A.09.09,0,0,0,49.68,24.93Z"/><path class="cls-5" d="M47.32,29.34c-.29.23-.37.06-.52.4s.08.56.1.85a.54.54,0,0,0,.52.56.55.55,0,0,0,.56-.53,2.28,2.28,0,0,0,.08-.93.23.23,0,0,0-.08-.11c-.27-.23-.16-.09-.47-.25a.1.1,0,0,0-.19,0Z"/><path class="cls-5" d="M53.53,28.12c0-.11-.21-.15.24.2.25.19.24.6.23.92s-.11.26-.16.44a.51.51,0,0,1-.33.61A.48.48,0,0,1,52.9,30c-.15-.14-.27-.18-.37-.35s-.36-.65-.22-.94a2.49,2.49,0,0,0,.13-.29c.11-.32-.28.37.47,0a.09.09,0,0,1,.07-.11.1.1,0,0,1,.12.07C53.53,28.32,53.56,28.2,53.53,28.12Z"/><path class="cls-5" d="M57.46,28.87c.1-.13-.17.15.15-.08a.1.1,0,0,1,0-.12.1.1,0,0,1,.13,0c.43,0,.1-.25.48,0s.31.55.4.85a3.71,3.71,0,0,1,.11.68.42.42,0,0,1-.27.53A.41.41,0,0,1,58,30.5c-.11-.18-.25-.32-.35-.5a1.66,1.66,0,0,1-.36-.87c0-.1,0-.08.09-.16Z"/><path class="cls-5" d="M53.17,32.59c-.24.13-.07-.14-.2.11s0,.35.08.52a.29.29,0,0,0,.05.13c.1.13.16.06.28.16a.45.45,0,1,0,.9,0c.14-.14.17-.14.23-.33a.34.34,0,0,0,0-.2c0-.19,0-.43-.17-.55s0,0-.22,0a.49.49,0,0,0-.58-.37A.48.48,0,0,0,53.17,32.59Z"/><path class="cls-5" d="M49.61,32.49c-.26.17-.28,0-.44.3a1.37,1.37,0,0,0-.08,1,.77.77,0,0,0,.12.24.48.48,0,0,0,1,0,1.08,1.08,0,0,0,.12-.24,1.49,1.49,0,0,0-.06-1c-.15-.27-.18-.13-.43-.31a.1.1,0,0,0-.19,0Z"/><path class="cls-5" d="M43.6,34.56c-.49.21,0-.19-.39.16a.43.43,0,0,0-.15.28,1.75,1.75,0,0,0,.08.55c.07.28.18.52.23.82a.44.44,0,0,0,.41.47.45.45,0,0,0,.47-.42,4.11,4.11,0,0,0,.2-1,2.66,2.66,0,0,0,0-.63.35.35,0,0,0,0-.11.29.29,0,0,0-.19-.13c-.49-.19.11,0-.42-.06a.1.1,0,0,0-.1-.08A.09.09,0,0,0,43.6,34.56Z"/><path class="cls-5" d="M37.71,37.19a1.77,1.77,0,0,0-.26.41,2,2,0,0,0-.17.91.41.41,0,0,0,0,.19c.06.09.08.06.15.13a.35.35,0,0,0,.34.36.34.34,0,0,0,.35-.33c.09-.07.12,0,.17-.15a.66.66,0,0,0,0-.37,2.31,2.31,0,0,0-.21-.81,1.7,1.7,0,0,0-.26-.34.09.09,0,0,0-.1-.1A.1.1,0,0,0,37.71,37.19Z"/><path class="cls-5" d="M32.13,37.32s0,0,.11,0a.49.49,0,0,1,1-.23c.25,0,0-.11.11,0l.06,0a.21.21,0,0,1,.07.13,2.84,2.84,0,0,1,.13,1.08,4.15,4.15,0,0,1-.11.48.4.4,0,0,1-.29.49.41.41,0,0,1-.5-.29,2.61,2.61,0,0,1-.31-.43,3.28,3.28,0,0,1-.28-1,.15.15,0,0,1,0-.13Z"/><path class="cls-5" d="M39.76,39.17c-.29.29-.33,0-.46.42a1.25,1.25,0,0,0,.1.73,3.6,3.6,0,0,0,.23.49.48.48,0,0,0,1-.1,4.15,4.15,0,0,0,.11-.48,1.8,1.8,0,0,0-.07-.73.45.45,0,0,0-.14-.24c-.34-.25-.12,0-.54-.14a.1.1,0,0,0-.11-.07A.11.11,0,0,0,39.76,39.17Z"/><path class="cls-5" d="M44,38.73c-.44.18-.08-.21-.38.15-.12.14-.08.32-.11.49a2.73,2.73,0,0,0,0,.57,6,6,0,0,0,.17.82.59.59,0,1,0,1.18-.06,4.63,4.63,0,0,0,.07-.74,2,2,0,0,0-.06-.49c-.06-.22-.06-.47-.23-.63s0,0-.42-.13a.08.08,0,0,0-.1-.08A.1.1,0,0,0,44,38.73Z"/><path class="cls-5" d="M48,37.14c-.17.24-.27.24-.39.51a1.07,1.07,0,0,0-.06.31,2.15,2.15,0,0,0,0,.8,1.41,1.41,0,0,0,.23.33.56.56,0,0,0,.61.52.57.57,0,0,0,.53-.61,1.56,1.56,0,0,0,.17-.37,2.18,2.18,0,0,0-.1-.84,1.23,1.23,0,0,0-.14-.31c-.19-.24-.27-.22-.52-.41a.21.21,0,0,0-.23-.16A.2.2,0,0,0,48,37.14Z"/><path class="cls-5" d="M52.63,36.5c-.58.26-.08-.23-.51.23A.34.34,0,0,0,52,37a3,3,0,0,0,.08,1.16.49.49,0,0,0,.07.19,1.27,1.27,0,0,0,.25.27.57.57,0,0,0,1.12-.17,1.91,1.91,0,0,0,.16-.32.4.4,0,0,0,0-.19,3,3,0,0,0-.2-1.12.39.39,0,0,0-.16-.23c-.53-.35.07,0-.54-.1a.1.1,0,0,0-.11-.08A.08.08,0,0,0,52.63,36.5Z"/><path class="cls-5" d="M56.81,35.21c-.23.2-.21,0-.37.3a1.17,1.17,0,0,0-.08.37,5.06,5.06,0,0,0,0,1,.63.63,0,0,0,.06.27c0,.09.09.09.18.16a.53.53,0,1,0,1.06-.14c.06-.09.11-.11.14-.21a1,1,0,0,0,0-.29,4.22,4.22,0,0,0-.25-1.16.54.54,0,0,0-.1-.16c-.24-.2-.15-.08-.44-.2a.09.09,0,0,0-.11-.07A.08.08,0,0,0,56.81,35.21Z"/><path class="cls-5" d="M59.18,34.33c-.08,0-.08,0-.13.05a.45.45,0,0,0-.11.19,7.05,7.05,0,0,0-.32,1.11.31.31,0,0,0,.23.37.32.32,0,0,0,.38-.23c.07-.38.17-.75.21-1.12a.5.5,0,0,0,0-.21c0-.07,0-.05-.08-.11a.09.09,0,0,0-.06-.12A.09.09,0,0,0,59.18,34.33Z"/><path class="cls-5" d="M51.72,41c-.46.15-.14-.1-.52.18a.15.15,0,0,0-.07.09c-.06.25.09.47.14.72a.5.5,0,0,0,1,0c.07-.24.29-.47.2-.7-.17-.42-.17-.08-.55-.32a.1.1,0,0,0-.09-.1A.09.09,0,0,0,51.72,41Z"/><path class="cls-5" d="M47.94,41.52c.17-.15-.24.13.25.06a.1.1,0,0,1,.1-.09.08.08,0,0,1,.08.1c.24.07.27,0,.25,0s-.1-.11.11.13.12.47.16.72A1.88,1.88,0,0,1,49,43a2.28,2.28,0,0,1-.24.61.54.54,0,0,1-.57.5.53.53,0,0,1-.5-.56,2.38,2.38,0,0,1-.19-.61,1.85,1.85,0,0,1,.13-.61c.06-.26,0-.56.23-.74A.69.69,0,0,0,47.94,41.52Z"/><path class="cls-5" d="M43.4,42.86c-.18.21-.28.21-.38.47a4.73,4.73,0,0,0-.11.93.64.64,0,0,0,1.27.08A2.43,2.43,0,0,0,44,43.26c-.14-.24-.24-.22-.44-.4a.08.08,0,0,0-.1-.09A.09.09,0,0,0,43.4,42.86Z"/><path class="cls-5" d="M39.67,42.94a.54.54,0,0,0,.26.09.11.11,0,0,1,.13,0,.09.09,0,0,1,0,.13c.36.35.26,0,.26.17v.05s0,0-.1.11a.36.36,0,0,1-.47.22.36.36,0,0,1-.22-.47c0-.14,0-.18,0-.22S39.62,42.89,39.67,42.94Z"/></g></g></svg>