<svg width="353" height="360" viewBox="0 0 353 360" fill="none" xmlns="http://www.w3.org/2000/svg">
<g clip-path="url(#clip0_927_2)">
<path d="M155.32 110.141C156.377 109.723 157.098 109.496 157.098 109.496C157.098 109.496 156.911 110.139 156.452 111.293C156.337 111.581 156.199 111.897 156.056 112.253C155.875 112.615 155.675 112.968 155.457 113.309C154.971 114.197 154.403 115.036 153.76 115.817C153.415 116.259 153.016 116.735 152.592 117.168C152.168 117.601 151.68 118.067 151.186 118.492C150.104 119.443 148.931 120.285 147.685 121.006C144.768 122.653 141.526 123.643 138.187 123.906C134.83 124.121 131.463 123.697 128.265 122.657C127.549 122.411 126.836 122.135 126.183 121.866C125.533 121.583 124.899 121.265 124.282 120.915C123.199 120.297 122.182 119.568 121.247 118.742C120.81 118.418 120.405 118.053 120.038 117.652C119.679 117.277 119.36 116.916 119.073 116.53C118.549 115.934 118.12 115.262 117.8 114.536C117.239 113.321 117.201 112.451 117.672 111.882C118.034 111.602 118.457 111.409 118.906 111.317C119.355 111.226 119.819 111.238 120.262 111.354C120.848 111.424 121.504 111.582 122.235 111.699C122.603 111.743 122.982 111.858 123.383 111.956C123.793 112.074 124.208 112.17 124.627 112.245C125.521 112.351 126.409 112.678 127.412 112.798L128.919 113.077C129.446 113.14 129.982 113.204 130.518 113.267C132.848 113.548 135.199 113.618 137.542 113.477C140.011 113.297 142.377 113.045 144.675 112.774C145.778 112.562 146.908 112.455 147.911 112.151C148.449 112.034 148.941 111.961 149.458 111.842L150.881 111.477C151.823 111.266 152.626 110.949 153.408 110.72L154.456 110.381L155.32 110.141ZM127.958 71.9972C128.247 68.1242 129.067 65.2105 127.861 64.3422C127.286 63.9215 126.319 64.0986 125.032 64.9226C123.331 66.1886 121.949 67.835 120.997 69.7302C119.488 72.6099 118.706 75.8154 118.72 79.0667C118.715 83.0212 119.63 86.9226 121.394 90.4618C123.068 93.8497 125.464 96.8293 128.414 99.1907C130.723 101.081 133.329 102.578 136.125 103.621C137.984 104.316 139.919 104.789 141.889 105.031C142.416 105.097 142.945 105.137 143.476 105.149L144.022 105.214C144.022 105.214 143.505 104.649 142.608 103.636C141.712 102.623 140.481 101.198 139.079 99.4405C135.815 95.2422 132.977 90.7288 130.609 85.9674C128.444 81.6474 127.527 76.8097 127.958 71.9972ZM159.655 96.2857C158.81 94.7935 158.18 93.1897 157.783 91.5217C157.329 89.7557 156.997 87.8029 156.623 85.6035C155.892 81.1662 155.765 76.6397 155.415 73.2246C155.066 69.8095 154.52 67.3681 153.144 66.9126C151.768 66.4571 149.818 68.2899 148.202 71.8944C146.169 76.7565 145.552 82.0945 146.423 87.2921C146.936 90.4063 148.242 93.336 150.216 95.7989C151.119 96.9051 152.168 97.8835 153.335 98.7071C154.341 99.4077 155.435 99.9712 156.59 100.383C158.179 100.941 159.864 101.172 161.544 101.062C162.136 101.013 162.723 100.918 163.3 100.777L162.107 99.5477C161.182 98.5451 160.361 97.4523 159.655 96.2857ZM167.036 83.064C168.072 84.1432 169.361 84.947 170.786 85.4028L171.759 85.6895C172.081 85.7781 172.385 85.7639 172.675 85.8588C173.204 85.9734 173.743 86.0374 174.284 86.0499C175.797 86.0732 177.307 85.9145 178.781 85.5771L180.346 85.2091L178.767 85.0215C177.363 84.8285 175.982 84.4924 174.646 84.0185C173.003 83.5373 171.612 82.4325 170.772 80.94C170.411 80.1599 170.369 79.2696 170.654 78.4587C170.939 77.6832 171.491 77.0346 172.211 76.6296C172.536 76.4202 172.895 76.2686 173.271 76.1815C173.446 76.1272 173.626 76.0912 173.808 76.0741L174.464 75.9708C175.577 75.8416 176.703 75.8702 177.808 76.0558C180.371 76.5769 182.829 77.5259 185.077 78.8629C186.33 79.5958 187.624 80.3135 188.626 81.0367C189.7 81.8082 190.735 82.6336 191.726 83.5096C193.742 85.2697 195.683 87.2425 197.613 89.1334C201.479 92.9561 205.48 96.4121 209.657 98.5498C213.095 100.442 216.999 101.322 220.916 101.086C223.064 100.933 225.151 100.303 227.026 99.2435C227.609 98.9006 228.156 98.5 228.658 98.0477C228.077 97.748 227.481 97.4788 226.871 97.2413C225.245 96.5028 223.663 95.6727 222.131 94.7548C219.843 93.2941 217.736 91.5666 215.855 89.6085C213.456 87.2491 210.725 83.9639 206.633 79.923C204.345 77.6458 201.866 75.569 199.223 73.7156C197.704 72.6639 196.113 71.718 194.464 70.8845C192.792 70.101 191.073 69.4193 189.319 68.8433C185.653 67.5397 181.761 66.9951 177.878 67.2425C175.85 67.4186 173.865 67.9242 172 68.7396L171.307 69.0602C171.071 69.1832 170.781 69.34 170.542 69.4829C170.035 69.7727 169.551 70.1025 169.096 70.4691C168.638 70.8021 168.216 71.1803 167.834 71.5981C167.443 71.9798 167.093 72.4005 166.788 72.8536C165.599 74.4557 164.993 76.4161 165.071 78.4098C165.155 80.1501 165.85 81.805 167.033 83.0839L167.036 83.064ZM75.8303 24.7281C76.1566 25.5422 76.4064 26.2365 76.6839 26.7831C77.2511 27.8575 77.5437 28.4461 77.5437 28.4461C77.5437 28.4461 77.4393 27.7993 77.2163 26.6248C77.1246 26.0399 77.0805 25.3096 76.9961 24.4939C76.9615 23.5635 76.9948 22.6318 77.0956 21.7062C77.226 20.6399 77.4956 19.5953 77.8978 18.5991C78.3792 17.5638 79.0365 16.6197 79.8405 15.8088C81.7721 14.1412 84.273 13.2838 86.8215 13.4156C89.7069 13.5309 92.503 14.449 94.8952 16.0665C96.1139 16.8695 97.2156 17.8375 98.1688 18.9427C99.1257 20.0303 99.9335 21.2404 100.571 22.5412C100.747 22.8441 100.878 23.1819 101.03 23.5121C101.182 23.8424 101.328 24.1416 101.428 24.5665C101.674 25.2906 101.934 25.9861 102.178 26.7301C102.568 28.119 102.824 29.5421 102.942 30.9799C103.142 33.946 103.075 36.9242 102.741 39.8783C102.143 45.8493 101.45 51.6784 101.743 56.7584C100.413 55.6769 99.0093 54.6891 97.5423 53.8022C94.3453 51.8451 90.7852 50.5556 87.0764 50.0112L85.8054 49.8602C85.4181 49.8142 84.9928 49.8342 84.5908 49.8267C83.7969 49.8129 83.0614 49.8162 82.3644 49.8341C80.9428 50.0177 79.7281 50.1554 78.7411 50.4107C76.7723 50.9623 75.6718 51.3251 75.6718 51.3251L78.5624 52.4237C79.4255 52.7881 80.4682 53.3349 81.5046 53.8507L83.0948 54.8755C83.3749 55.0438 83.6456 55.2272 83.9057 55.425L84.696 56.0626C86.8688 57.8136 88.8282 59.8141 90.5337 62.0229C92.2743 64.3243 94.0744 66.8039 95.9573 68.8402C97.6386 70.6925 99.5884 72.282 101.742 73.5555C102.629 74.0665 103.552 74.5127 104.503 74.8906C105.324 75.1839 106.164 75.4183 107.018 75.5921C108.187 75.8323 109.385 75.8932 110.572 75.7726L110.928 75.9961C110.942 75.9107 110.953 75.8245 110.958 75.738C111.307 75.7079 111.652 75.6443 111.988 75.5481C112.009 75.1035 111.998 74.6579 111.955 74.2149C111.833 73.0642 111.632 71.9233 111.354 70.8001C111.236 70.353 111.091 69.8727 110.929 69.3701C110.999 68.7842 110.991 68.169 111.04 67.5101C111.333 64.0897 111.861 60.6936 112.62 57.3455C113.069 55.1733 113.582 52.8073 114.13 50.224C114.774 47.1634 115.256 44.0709 115.573 40.9595C115.981 36.9876 115.837 32.9783 115.146 29.0459C114.726 26.8199 114.055 24.6489 113.145 22.5747C112.707 21.5156 112.188 20.5377 111.671 19.5498C111.419 19.0465 111.066 18.5413 110.762 18.052C110.457 17.5485 110.125 17.0619 109.767 16.5944C106.988 12.7826 103.187 9.83487 98.8032 8.09181C94.7485 6.45586 90.3001 6.05709 86.0191 6.94579C84.0497 7.39601 82.1774 8.19693 80.4916 9.31026C78.9289 10.3403 77.6019 11.6893 76.5975 13.2685C75.8035 14.6756 75.2787 16.2184 75.05 17.8178C74.8843 19.1135 74.9116 20.4267 75.1309 21.7145C75.2749 22.7377 75.5089 23.7461 75.8303 24.7281ZM214.057 83.8059C214.734 85.344 215.718 86.7285 216.947 87.8752C218.605 89.4322 220.718 90.4173 222.977 90.6862C224.228 90.831 225.494 90.6996 226.689 90.3013C227.115 90.1809 227.526 90.0136 227.916 89.8026C227.916 89.8026 227.834 89.3094 227.616 88.5082C227.399 87.707 227.036 86.6165 226.66 85.3735C226.265 84.1257 225.982 82.8452 225.815 81.5471C225.743 80.4058 225.731 79.2615 225.779 78.119C225.78 77.277 225.839 76.4361 225.957 75.6024C226.146 74.4515 226.419 73.316 226.774 72.205C227.65 69.5958 228.849 67.1063 230.343 64.7943C231.641 62.8119 233.136 60.9652 234.804 59.2821C235.476 58.6268 236.034 58.0887 236.435 57.7638L237.063 57.2241L236.233 57.2565C235.459 57.2796 234.688 57.3494 233.922 57.4653C231.247 57.8914 228.649 58.7094 226.212 59.8928C222.871 61.4844 219.899 63.755 217.485 66.5599C216.152 68.1245 215.058 69.8779 214.238 71.7632C213.395 73.715 212.937 75.8116 212.891 77.9373C212.842 79.9555 213.24 81.9595 214.057 83.8059ZM117.348 60.4349C117.523 60.8165 117.736 61.1793 117.985 61.5175C118.399 61.4495 118.807 61.3534 119.207 61.2297C120.209 60.9356 121.187 60.5707 122.137 60.1376C125.129 58.7655 127.741 56.6836 129.745 54.0728C131.179 52.1551 132.514 50.166 133.746 48.1131C135.137 45.9017 136.59 43.587 137.979 41.4761C139.367 39.3652 140.678 37.4867 141.635 36.13C142.591 34.7734 143.205 33.9299 143.205 33.9299C143.205 33.9299 142.179 34.09 140.527 34.4375C138.318 34.9374 136.147 35.5915 134.03 36.3949C131.269 37.4253 128.625 38.7449 126.141 40.3317C123.674 41.8977 121.471 43.8454 119.615 46.1021C116.31 50.352 115.87 54.5695 116.349 57.3152C116.52 58.4001 116.857 59.4523 117.348 60.4349ZM80.0481 104.684C77.2512 105.19 74.3667 104.848 71.7663 103.7C70.011 102.939 68.39 101.9 66.9659 100.622C65.3323 99.1756 63.9591 97.4592 62.9061 95.548C61.8352 93.6903 61.2432 91.5955 61.1832 89.4522C61.184 88.4424 61.3644 87.4409 61.7158 86.4943C61.7465 86.2361 61.902 86.1136 61.9665 85.9098C62.031 85.706 62.0385 85.727 62.1023 85.6138L62.3177 85.3272C62.4628 85.1229 62.5781 84.915 62.7554 84.6944C62.9326 84.4738 63.1052 84.2929 63.2725 84.071C63.9658 83.3137 64.7729 82.6689 65.6646 82.1599C66.6107 81.6509 67.6247 81.2796 68.6757 81.0574C71.1324 80.5948 73.6452 80.5096 76.1276 80.8046C81.0081 81.4138 85.8426 82.3481 90.5987 83.6012C94.8546 84.6506 98.4249 85.5379 100.875 85.9397C102.159 86.1865 103.457 86.3574 104.761 86.4517C104.761 86.4517 103.553 85.7744 101.466 84.4389C99.3787 83.1034 96.4156 81.0898 92.5577 78.8088C87.932 75.9919 82.9542 73.7989 77.7537 72.287C74.2913 71.2767 70.6681 70.9351 67.0778 71.2806C64.9542 71.5316 62.8861 72.1296 60.9563 73.0509C58.9156 74.0731 57.081 75.4631 55.5448 77.1512C53.9585 78.8744 52.7379 80.9014 51.9569 83.1095C51.2287 85.2144 50.9065 87.4383 51.0072 89.6633C51.2159 93.5903 52.5082 97.3828 54.7408 100.62C58.2154 105.862 63.6176 109.522 69.7744 110.805C72.1443 111.264 74.5853 111.211 76.9328 110.648C78.7084 110.239 80.3731 109.447 81.8107 108.327C82.3182 107.951 82.7789 107.515 83.1832 107.03C83.5041 106.695 83.7705 106.312 83.9726 105.895C84.3169 105.201 84.3612 104.743 84.1437 104.455C83.6291 103.871 82.2054 104.326 80.0481 104.684ZM54.6858 52.5078C55.1224 53.3432 55.6006 54.1562 56.1184 54.9438C57.1219 56.3527 58.3312 57.603 59.706 58.6529C60.8651 59.5631 62.1246 60.3378 63.4598 60.9618C64.5983 61.4384 65.7633 61.8492 66.9491 62.192C68.0506 62.4135 69.0366 62.591 69.9092 62.7047C70.64 62.7875 71.375 62.8277 72.1104 62.8252C73.3384 62.8301 74.019 62.7801 74.019 62.7801C74.019 62.7801 73.5716 62.2234 72.7687 61.3526C72.3702 60.8924 71.8736 60.4104 71.3438 59.7836C70.8141 59.1567 70.2429 58.4544 69.5713 57.7503L67.7133 55.3343C67.1658 54.4334 66.4686 53.6053 66.0175 52.6555C64.9621 50.8937 64.1475 48.9985 63.5953 47.0204C63.1011 45.0309 62.9708 42.9685 63.2107 40.9326C63.2749 39.9339 63.393 38.9394 63.5646 37.9535C63.7521 36.9688 63.9892 35.9899 64.1327 35.1208C64.2763 34.2516 64.5465 33.4177 64.6683 32.6467C64.7901 31.8756 64.9521 31.19 64.9832 30.5894C65.0576 29.3697 64.8548 28.4493 64.2804 28.0287C63.706 27.608 62.8085 27.7028 61.6389 28.309C60.9565 28.6713 60.3168 29.1087 59.7317 29.6132C59.009 30.2946 58.322 31.013 57.6734 31.7654C56.9079 32.7433 56.2133 33.7747 55.5949 34.8517C54.8879 36.1529 54.3137 37.5219 53.8809 38.9381C52.7676 42.4369 52.6722 46.1801 53.6058 49.731C53.9564 50.679 54.3094 51.6071 54.6858 52.5078ZM58.2744 67.1433C59.0735 66.775 59.5569 66.5202 59.5569 66.5202C59.5569 66.5202 59.1986 66.1453 58.5041 65.5492C57.537 64.7147 56.4617 64.0145 55.3073 63.4676C53.5684 62.6544 51.6888 62.185 49.7717 62.085C47.316 61.9453 44.8679 62.4684 42.6836 63.5994C40.4391 64.7624 38.4891 66.4215 36.9815 68.4507C36.6433 68.9241 36.3472 69.3823 36.0698 69.8529C35.8108 70.3017 35.5775 70.7649 35.3712 71.2402C34.9991 72.0767 34.7227 72.9526 34.5475 73.8513C34.2437 75.1692 34.2815 76.5429 34.6575 77.8421C34.7539 78.2388 34.9475 78.6053 35.2209 78.9085C35.4943 79.2117 35.8389 79.4421 36.2235 79.579C37.6474 79.9696 39.2472 78.7096 41.0465 77.2113C41.5417 76.8573 41.9634 76.4441 42.4808 76.0726C42.7253 75.8801 42.9609 75.6765 43.2153 75.4851C43.4696 75.2938 43.7327 75.1136 43.9882 74.9123C45.098 74.1408 46.2512 73.4339 47.4421 72.7949C48.7896 72.0487 50.089 71.3672 51.2967 70.695C52.5045 70.0228 53.9413 69.2871 55.1566 68.6359C56.3719 67.9847 57.4567 67.4993 58.2744 67.1433ZM120.405 103.536C120.118 103.095 119.805 102.672 119.468 102.267C119.088 101.769 118.656 101.312 118.18 100.906C117.551 100.348 116.872 99.8495 116.152 99.4159C115.255 98.8539 114.295 98.4017 113.291 98.069C112.745 97.9135 112.174 97.7148 111.583 97.6043C110.992 97.4938 110.352 97.4581 109.697 97.3802C106.821 97.2005 103.952 97.8372 101.422 99.217C98.8791 100.646 96.728 102.68 95.1599 105.14C94.8221 105.694 94.5031 106.26 94.2063 106.809C93.9095 107.358 93.7581 107.954 93.5518 108.503C93.1986 109.509 92.9664 110.553 92.8601 111.614C92.6661 113.144 92.8811 114.698 93.4831 116.118C93.6111 116.528 93.8485 116.895 94.1695 117.18C94.4906 117.465 94.8832 117.656 95.3051 117.735C95.7168 117.712 96.1195 117.605 96.488 117.42C96.8565 117.235 97.1829 116.977 97.4469 116.66C98.1125 115.974 98.9355 115.064 99.7703 114.056C100.241 113.568 100.59 113.005 101.14 112.527C101.392 112.275 101.625 112.01 101.868 111.737C102.112 111.464 102.419 111.259 102.691 110.999C103.851 109.961 105.113 109.044 106.46 108.264C107.902 107.489 109.299 106.749 110.75 106.065L111.817 105.557L112.931 105.166C113.674 104.842 114.405 104.707 115.134 104.421C116.349 104.098 117.582 103.851 118.827 103.681L120.405 103.536ZM40.7308 85.2099C39.463 84.9593 38.1567 84.9791 36.8971 85.2681C35.2934 85.6293 33.8123 86.4048 32.6019 87.5172C31.8457 88.1792 31.1689 88.9268 30.585 89.7448C30.2614 90.1797 29.9478 90.6157 29.6604 91.0851C29.3731 91.5545 29.1254 92.0286 28.8695 92.5722C27.8646 94.5531 27.1143 96.6532 26.6366 98.8224C26.452 99.8679 26.3113 100.798 26.204 101.701C26.1174 102.47 26.0894 103.245 26.1202 104.018C26.1269 105.318 26.1921 106.04 26.1921 106.04L27.8957 104.924C28.4394 104.585 28.9925 104.168 29.7034 103.779C30.4142 103.39 31.1421 102.943 31.9295 102.502C35.1598 100.741 38.9006 99.091 41.1386 97.1212C42.1641 96.2201 42.9832 95.1083 43.5398 93.8617C43.9798 92.7788 44.2707 91.6413 44.4047 90.4801C44.5702 89.1904 44.556 87.8839 44.3624 86.598C43.2529 85.9027 42.0212 85.4249 40.7331 85.1901L40.7308 85.2099ZM69.0634 87.4578C68.5381 88.3426 68.2872 89.3634 68.3423 90.391C68.3974 91.4185 68.7562 92.4066 69.3732 93.2301C69.9901 94.0537 70.8376 94.6756 71.8082 95.0173C72.7788 95.359 73.829 95.405 74.8258 95.1495C75.8226 94.8941 76.7212 94.3486 77.4078 93.5822C78.0945 92.8157 78.5383 91.8628 78.6831 90.8441C78.8279 89.8253 78.6672 88.7864 78.2213 87.8591C77.7754 86.9317 77.0643 86.1574 76.1782 85.6343C74.9945 84.9361 73.5828 84.7339 72.2506 85.0717C70.9185 85.4095 69.7738 86.26 69.0658 87.4379L69.0634 87.4578ZM84.3925 39.7127C85.8808 40.5913 87.5961 41.009 89.3217 40.9129C91.0473 40.8168 92.7056 40.2113 94.0871 39.1729C95.4686 38.1345 96.5113 36.7099 97.0833 35.079C97.6553 33.4482 97.7309 31.6843 97.3006 30.0105C96.8704 28.3367 95.9535 26.828 94.666 25.6751C93.3784 24.5223 91.778 23.777 90.0669 23.5336C88.3559 23.2901 86.6111 23.5594 85.0531 24.3074C83.4951 25.0554 82.1939 26.2485 81.3138 27.7359C80.7309 28.7233 80.3482 29.8158 80.1875 30.9511C80.0269 32.0864 80.0915 33.2422 80.3776 34.3526C80.6637 35.4629 81.1657 36.506 81.855 37.4223C82.5443 38.3386 83.4074 39.1101 84.3949 39.6928L84.3925 39.7127ZM93.0641 90.8224C92.2002 90.3131 91.2047 90.0714 90.2034 90.1279C89.2021 90.1845 88.2401 90.5367 87.439 91.14C86.6379 91.7433 86.0338 92.5707 85.7029 93.5174C85.3721 94.4641 85.3295 95.4877 85.5805 96.4587C85.8315 97.4296 86.3647 98.3043 87.1129 98.9722C87.8611 99.64 88.7905 100.071 89.7836 100.211C90.7767 100.35 91.7889 100.192 92.6921 99.7563C93.5954 99.3205 94.3491 98.6267 94.858 97.7625C95.54 96.6042 95.7342 95.2225 95.3978 93.9211C95.0614 92.6197 94.222 91.5051 93.0641 90.8224ZM222.049 204.552C222.133 204.792 222.244 205.021 222.381 205.236C222.621 205.667 222.882 206.101 223.132 206.543C224.291 208.327 225.833 209.83 227.644 210.946C229.554 212.089 231.687 212.809 233.898 213.059C238.578 213.566 243.275 212.273 247.036 209.443C247.523 209.088 247.983 208.699 248.414 208.278L249.071 207.661C249.301 207.462 249.516 207.245 249.712 207.012L250.883 205.631C251.263 205.142 251.585 204.636 251.938 204.124C253.267 202.053 254.288 199.8 254.968 197.435C255.626 195.147 256.076 192.804 256.313 190.435C256.674 185.865 256.704 181.274 256.404 176.7C256.235 172.188 255.947 167.582 255.725 163.004C255.504 158.426 255.324 153.833 255.444 149.265C255.498 144.748 255.982 140.247 256.89 135.822L257.283 134.207C257.417 133.669 257.513 133.116 257.695 132.604L258.193 131.042L258.416 130.263C258.506 130.012 258.616 129.763 258.718 129.503C259.479 127.514 260.382 125.582 261.419 123.721C263.494 120.048 266.029 116.654 268.963 113.621C271.571 110.778 274.804 108.58 278.406 107.2C279.246 106.914 280.11 106.707 280.987 106.58C281.858 106.456 282.74 106.422 283.618 106.48C284.074 106.509 284.528 106.563 284.978 106.641C285.435 106.696 285.872 106.828 286.317 106.901C287.19 107.126 288.04 107.433 288.856 107.817C290.476 108.575 291.909 109.68 293.054 111.055C293.639 111.756 294.146 112.518 294.566 113.329C294.796 113.732 295.006 114.147 295.194 114.572C295.345 114.993 295.545 115.429 295.673 115.877C296.792 119.446 297.067 123.226 296.476 126.919C295.964 130.453 294.853 133.873 293.19 137.032C291.722 139.958 289.596 142.505 286.979 144.471C285.849 145.35 284.539 145.969 283.142 146.286C281.745 146.602 280.296 146.607 278.897 146.301C276.39 145.578 274.142 144.154 272.416 142.198C270.856 140.561 269.733 138.557 269.15 136.372C268.667 134.567 268.688 132.664 269.21 130.87C269.623 129.444 270.398 128.148 271.459 127.109C271.652 126.931 271.852 126.773 272.03 126.623C271.762 127.656 271.874 128.751 272.345 129.708C272.816 130.665 273.616 131.421 274.598 131.838C275.58 132.255 276.679 132.306 277.695 131.98C278.711 131.655 279.577 130.975 280.133 130.065C280.69 129.155 280.902 128.075 280.729 127.022C280.556 125.969 280.011 125.013 279.192 124.329C278.374 123.644 277.337 123.277 276.27 123.293C275.203 123.309 274.177 123.708 273.38 124.417C272.039 124.904 270.828 125.695 269.842 126.727C268.856 127.76 268.123 129.006 267.698 130.369C267.051 132.441 267.012 134.656 267.585 136.75C268.231 139.194 269.504 141.428 271.276 143.23C272.232 144.232 273.29 145.13 274.432 145.911C275.689 146.753 277.079 147.374 278.544 147.749C279.32 147.922 280.112 148.016 280.907 148.03C281.731 148.03 282.553 147.938 283.357 147.757C284.991 147.366 286.537 146.668 287.911 145.7C290.752 143.61 293.094 140.917 294.769 137.814C296.632 134.504 297.974 130.927 298.748 127.209C299.667 123.16 299.751 118.965 298.994 114.882C298.544 112.652 297.726 110.513 296.574 108.552C295.31 106.439 293.615 104.615 291.6 103.198C290.567 102.48 289.472 101.854 288.328 101.329C287.752 101.09 287.17 100.819 286.569 100.627C285.967 100.407 285.354 100.22 284.732 100.066C283.579 99.7695 282.4 99.5856 281.212 99.5173C281.502 98.9375 281.785 98.3367 282.028 97.7311C282.547 96.477 282.938 95.1739 283.195 93.8416C283.46 92.5303 283.582 91.1941 283.558 89.8566C283.557 89.2199 283.521 88.5837 283.452 87.9508C283.396 87.3198 283.288 86.7027 283.19 86.0869C282.936 84.8501 282.582 83.636 282.131 82.4566C281.225 80.1664 279.845 78.0941 278.08 76.3763C277.255 75.5549 276.351 74.8168 275.381 74.1725C274.456 73.5452 273.48 72.9949 272.465 72.527C268.671 70.8399 264.575 69.9388 260.423 69.8781C256.626 69.7569 252.833 70.227 249.18 71.2716C245.775 72.1701 242.609 73.809 239.909 76.0715C238.652 77.2155 237.622 78.586 236.872 80.1114C236.505 80.846 236.224 81.6201 236.034 82.4186C235.855 83.1974 235.761 83.993 235.752 84.7919C235.762 86.2994 236.034 87.7936 236.556 89.2077C237.055 90.5066 237.683 91.7519 238.431 92.9248C239.794 95.0823 241.689 96.8538 243.933 98.0696C245.833 99.1017 247.984 99.5805 250.143 99.4519C251.887 99.3352 253.563 98.7319 254.982 97.7106C255.884 97.0539 256.662 96.2429 257.281 95.315C258.152 94.7079 258.776 93.8082 259.039 92.7798C259.302 91.7513 259.187 90.6625 258.716 89.7115C258.244 88.7605 257.446 88.0107 256.468 87.5984C255.489 87.1862 254.395 87.139 253.385 87.4654C252.375 87.7919 251.516 88.4702 250.964 89.377C250.411 90.2838 250.203 91.3587 250.377 92.406C250.551 93.4533 251.095 94.4034 251.91 95.0833C252.726 95.7631 253.758 96.1276 254.82 96.1102C254.631 96.259 254.422 96.4054 254.215 96.5419C252.956 97.3351 251.515 97.7915 250.029 97.8674C248.158 97.9514 246.3 97.5181 244.659 96.6152C242.69 95.5367 241.028 93.9737 239.831 92.074C238.319 89.9465 237.453 87.4272 237.34 84.8194C237.375 83.3872 237.722 81.98 238.357 80.6954C238.991 79.4109 239.897 78.2798 241.013 77.3808C243.543 75.3046 246.518 73.8417 249.708 73.1066C253.167 72.2196 256.754 71.9404 260.309 72.2814C264.036 72.571 267.646 73.7167 270.858 75.6291C271.261 75.8784 271.631 76.154 272.022 76.422C272.413 76.69 272.75 76.9918 273.086 77.3036C273.764 77.9103 274.379 78.5839 274.921 79.3142C275.992 80.7506 276.737 82.4026 277.105 84.1556C277.281 85.0355 277.373 85.9298 277.382 86.8269C277.327 87.2936 277.373 87.7523 277.329 88.2103C277.31 88.6672 277.256 89.122 277.167 89.5707C277.03 90.4378 276.787 91.2848 276.445 92.0931C276.135 92.9238 275.733 93.7172 275.247 94.4583C273.051 97.641 270.146 100.271 266.762 102.141C263.119 104.274 259.223 105.943 255.165 107.108C253.108 107.673 251.016 108.098 248.901 108.378C248.635 108.417 248.378 108.457 248.114 108.476L247.292 108.529L245.668 108.638C245.119 108.684 244.558 108.657 244.022 108.674L242.35 108.677C237.837 108.513 233.348 107.929 228.942 106.933C224.474 105.979 220.05 104.729 215.651 103.441C211.253 102.153 206.834 100.782 202.497 99.5623C198.114 98.208 193.642 97.1619 189.113 96.4316C186.754 96.1076 184.371 95.9964 181.992 96.0994C179.551 96.2152 177.138 96.6815 174.829 97.484C174.259 97.7083 173.681 97.9116 173.137 98.1692L171.499 98.9817C171.224 99.1075 170.962 99.2621 170.719 99.4429L169.966 99.9375C169.456 100.259 168.973 100.619 168.519 101.014C164.879 104.002 162.52 108.269 161.926 112.94C161.651 115.145 161.852 117.384 162.516 119.505C163.171 121.53 164.273 123.381 165.739 124.923L166.834 125.96C167.017 126.135 167.214 126.297 167.421 126.442C167.612 126.602 167.813 126.747 168.024 126.877C168.811 127.408 169.643 127.87 170.509 128.259C172.097 128.991 173.768 129.528 175.485 129.857C177.096 130.158 178.735 130.288 180.373 130.247C181.942 130.208 183.497 129.942 184.989 129.456C186.446 128.996 187.787 128.228 188.922 127.204C189.971 126.233 190.768 125.021 191.244 123.673C191.656 122.482 191.862 121.23 191.856 119.969C191.866 118.828 191.684 117.693 191.318 116.613C190.966 115.607 190.384 114.696 189.62 113.954C188.957 113.291 188.131 112.814 187.226 112.572C186.44 112.376 185.62 112.358 184.825 112.518C184.223 112.655 183.644 112.878 183.105 113.18C181.982 113.362 180.971 113.968 180.281 114.874C179.591 115.779 179.276 116.915 179.4 118.047C179.524 119.179 180.078 120.219 180.948 120.954C181.817 121.689 182.936 122.062 184.072 121.996C185.137 121.879 186.123 121.382 186.85 120.596C187.577 119.81 187.995 118.788 188.028 117.717C188.06 116.647 187.705 115.601 187.028 114.772C186.35 113.943 185.396 113.387 184.341 113.206C184.523 113.16 184.709 113.128 184.896 113.111C185.594 113.037 186.3 113.121 186.962 113.356C187.686 113.629 188.326 114.087 188.818 114.684C189.364 115.357 189.746 116.147 189.933 116.992C190.145 117.936 190.196 118.909 190.085 119.87C189.975 120.91 189.695 121.924 189.255 122.873C188.787 123.825 188.102 124.655 187.255 125.294C185.207 126.598 182.765 127.139 180.357 126.821C177.603 126.59 174.936 125.739 172.556 124.333C171.955 123.987 171.389 123.582 170.867 123.126C170.736 123.028 170.614 122.919 170.503 122.8C170.378 122.687 170.262 122.565 170.153 122.437L169.5 121.664C168.711 120.592 168.169 119.358 167.915 118.052C167.648 116.682 167.678 115.271 168.003 113.914C168.338 112.476 168.944 111.116 169.789 109.906C170.592 108.661 171.634 107.587 172.853 106.746C173.164 106.517 173.494 106.317 173.84 106.148L174.356 105.877C174.525 105.771 174.708 105.687 174.899 105.629L175.958 105.191C176.338 105.045 176.738 104.982 177.116 104.855C178.741 104.453 180.416 104.286 182.089 104.358C183.931 104.422 185.765 104.64 187.57 105.01C189.465 105.426 191.395 105.957 193.424 106.601C195.452 107.245 197.442 107.955 199.579 108.702L205.943 110.908C208.1 111.658 210.284 112.431 212.521 113.18C216.991 114.718 221.657 116.128 226.577 117.266C231.664 118.489 236.864 119.174 242.094 119.311L244.11 119.299C244.797 119.28 245.468 119.309 246.132 119.227L248.165 119.066L249.182 118.985C249.529 118.946 249.869 118.885 250.207 118.835C250.882 118.744 251.559 118.643 252.259 118.515C250.917 120.82 249.75 123.223 248.767 125.703C248.649 126.011 248.51 126.337 248.391 126.665L248.084 127.636C247.867 128.275 247.65 128.914 247.451 129.575C247.236 130.215 247.054 130.865 246.907 131.524C246.75 132.17 246.571 132.824 246.413 133.479C245.313 138.601 244.764 143.826 244.773 149.065C244.739 153.972 244.953 158.878 245.414 163.763C245.618 166.114 245.866 168.429 246.081 170.69C246.296 172.951 246.554 175.187 246.745 177.395C246.936 179.603 247.228 181.803 247.345 183.871C247.462 185.939 247.549 187.924 247.521 189.934C247.453 191.773 247.236 193.603 246.871 195.406C246.55 197.051 245.988 198.64 245.203 200.122C245.012 200.462 244.845 200.845 244.625 201.171C244.405 201.498 244.177 201.813 243.941 202.097C243.835 202.26 243.715 202.414 243.585 202.558L243.18 202.993C242.945 203.291 242.683 203.567 242.398 203.817C241.297 204.825 240.014 205.612 238.618 206.137C237.24 206.669 235.778 206.945 234.301 206.954C232.903 206.942 231.523 206.641 230.247 206.069C229.044 205.499 227.971 204.686 227.097 203.681C226.908 203.41 226.709 203.135 226.5 202.855C226.4 202.725 226.312 202.587 226.237 202.441C226.147 202.3 226.067 202.152 225.998 202C225.681 201.386 225.42 200.745 225.218 200.084C224.416 197.413 224.218 194.596 224.637 191.838C224.895 189.421 226 187.172 227.757 185.492C228.568 184.804 229.538 184.331 230.579 184.115C231.601 183.905 232.65 183.87 233.683 184.011C234.644 184.12 235.579 184.395 236.447 184.822C237.219 185.207 237.893 185.763 238.419 186.446C238.888 187.064 239.187 187.794 239.285 188.563C239.364 189.258 239.28 189.962 239.041 190.619C239.019 190.807 238.899 190.965 238.827 191.147C238.91 190.027 238.566 188.917 237.862 188.04C237.159 187.164 236.15 186.587 235.038 186.425C233.926 186.264 232.795 186.53 231.871 187.17C230.947 187.809 230.301 188.776 230.061 189.873C229.822 190.971 230.008 192.119 230.581 193.085C231.154 194.051 232.073 194.764 233.151 195.08C234.229 195.396 235.387 195.291 236.391 194.788C237.395 194.284 238.171 193.418 238.562 192.364C238.983 191.915 239.333 191.402 239.598 190.846C239.937 190.118 240.114 189.324 240.116 188.521C240.089 187.582 239.82 186.665 239.335 185.86C238.788 184.946 238.04 184.168 237.148 183.586C236.178 182.98 235.114 182.54 233.999 182.286C232.779 181.985 231.516 181.892 230.265 182.013C228.843 182.161 227.478 182.652 226.288 183.444C225.03 184.311 223.97 185.434 223.178 186.74C222.349 188.074 221.722 189.523 221.318 191.041C220.887 192.623 220.633 194.248 220.561 195.886C220.475 197.629 220.605 199.377 220.95 201.088C221.12 202.022 221.368 202.941 221.691 203.834C221.842 204.094 221.936 204.317 222.049 204.552ZM218.678 251.159C218.913 251.66 219.193 252.138 219.515 252.588C219.794 253.034 220.07 253.429 220.327 253.802C220.788 254.452 221.349 255.025 221.989 255.5C223.039 256.32 223.876 256.57 224.54 256.236C224.895 255.95 225.181 255.587 225.375 255.173C225.569 254.76 225.666 254.308 225.659 253.852C225.729 253.256 225.728 252.591 225.785 251.853C225.831 251.465 225.808 251.07 225.796 250.666C225.775 250.237 225.782 249.807 225.817 249.379C225.864 248.478 225.812 247.556 225.912 246.551C225.971 246.054 226.001 245.544 226.003 245.021C226.067 244.484 226.128 243.968 226.193 243.422C226.475 241.092 226.96 238.791 227.644 236.545C228.399 234.178 229.197 231.946 229.989 229.774C230.462 228.763 230.821 227.688 231.353 226.774C231.591 226.289 231.788 225.819 232.025 225.354L232.713 224.056C233.139 223.18 233.636 222.474 234.042 221.767C234.242 221.438 234.424 221.097 234.607 220.827L235.163 220.047C235.823 219.068 236.196 218.468 236.196 218.468C236.196 218.468 235.529 218.489 234.29 218.664L233.263 218.834C232.891 218.911 232.513 219.037 232.076 219.156C231.104 219.424 230.158 219.78 229.251 220.221C228.749 220.463 228.184 220.728 227.663 221.039C227.143 221.35 226.576 221.716 226.047 222.096C224.871 222.919 223.781 223.859 222.794 224.902C220.516 227.357 218.795 230.275 217.749 233.456C216.753 236.669 216.38 240.043 216.649 243.396C216.721 244.15 216.823 244.897 216.911 245.602C216.998 246.307 217.237 247.01 217.41 247.676C217.719 248.875 218.143 250.042 218.678 251.159ZM256.715 262.928C259.871 263.696 263.166 263.683 266.316 262.891C268.385 262.404 270.312 261.444 271.947 260.085C273.079 259.032 273.438 258.128 273.172 257.482C272.601 256.105 269.577 256.209 265.733 255.591C260.981 254.843 256.529 252.791 252.873 249.663C248.79 246.25 245.063 242.434 241.749 238.271C240.354 236.534 239.256 235.014 238.491 233.906L237.281 232.222C237.281 232.222 237.259 232.41 237.167 232.762C237.075 233.114 236.989 233.667 236.909 234.343C236.683 236.308 236.694 238.294 236.941 240.258C237.299 243.224 238.136 246.112 239.42 248.81C241.041 252.227 243.381 255.253 246.281 257.681C249.305 260.221 252.874 262.03 256.71 262.968L256.715 262.928ZM270.992 228.613C267.746 227.462 263.362 226.297 259.242 224.529C257.19 223.66 255.361 222.869 253.739 222.022C252.214 221.236 250.804 220.245 249.548 219.077C248.56 218.116 247.673 217.055 246.902 215.913C246.306 214.996 245.977 214.463 245.977 214.463C245.708 214.992 245.481 215.541 245.299 216.105C244.794 217.712 244.624 219.405 244.798 221.081C244.926 222.298 245.214 223.494 245.655 224.636C246.186 225.962 246.891 227.21 247.751 228.35C249.687 230.842 252.228 232.797 255.133 234.03C259.99 236.085 265.331 236.719 270.534 235.86C274.415 235.152 276.628 233.643 276.533 232.242C276.438 230.841 274.246 229.795 270.988 228.653L270.992 228.613ZM279.237 213.55C280.475 211.933 281.435 210.121 282.079 208.188C283.224 204.471 283.607 200.56 283.203 196.691C283.058 194.866 282.799 193.053 282.428 191.261C282.012 189.46 281.472 187.69 280.812 185.964C279.621 182.961 278.183 180.062 276.514 177.296C273.522 172.389 270.99 168.956 269.247 166.081C267.781 163.793 266.592 161.339 265.704 158.772C265.174 157.068 264.741 155.335 264.407 153.582C264.212 152.341 264.031 151.665 264.031 151.665C263.478 152.05 262.964 152.489 262.496 152.973C261.028 154.55 259.925 156.43 259.264 158.48C258.126 162.232 258.07 166.229 259.102 170.011C260.201 174.583 262.624 179.272 265.435 183.926C266.83 186.256 268.284 188.594 269.522 190.977C270.137 192.158 270.71 193.354 271.201 194.56C271.692 195.766 272.074 197.131 272.493 198.52C273.26 201.02 273.604 203.63 273.509 206.244C273.431 207.361 273.195 208.462 272.808 209.514L272.553 210.138C272.497 210.314 272.416 210.481 272.313 210.633C272.139 210.974 271.915 211.287 271.648 211.561C271.068 212.169 270.291 212.551 269.456 212.64C268.607 212.725 267.759 212.476 267.091 211.947C265.828 210.78 265.073 209.164 264.987 207.447C264.849 206.041 264.852 204.624 264.996 203.218L265.184 201.64C265.184 201.64 264.923 202.142 264.469 203.075C263.792 204.428 263.284 205.859 262.956 207.337C262.847 207.866 262.783 208.405 262.765 208.945C262.729 209.251 262.713 209.558 262.716 209.866C262.678 210.184 262.747 210.534 262.757 210.878C262.866 212.37 263.346 213.811 264.152 215.072C265.117 216.534 266.571 217.607 268.254 218.097C270.166 218.661 272.213 218.549 274.052 217.778C274.565 217.591 275.056 217.349 275.517 217.056C276.01 216.778 276.476 216.456 276.911 216.094C277.367 215.737 277.797 215.347 278.197 214.927C278.393 214.719 278.622 214.484 278.787 214.283L279.237 213.55ZM321.05 298.909C320.37 294.251 318.394 289.877 315.349 286.288C314.978 285.831 314.583 285.394 314.165 284.979C313.76 284.569 313.343 284.096 312.922 283.744C312.084 283 311.215 282.262 310.318 281.592C308.509 280.229 306.557 279.068 304.495 278.131C300.829 276.542 296.962 275.466 293.002 274.933C289.906 274.514 286.79 274.258 283.667 274.166L276.391 273.957C272.962 273.917 269.539 273.639 266.148 273.122L264.314 272.794C263.865 272.509 263.43 272.266 263.013 272.045C261.997 271.497 260.937 271.034 259.844 270.662C259.42 270.516 258.987 270.394 258.549 270.296C258.386 270.605 258.243 270.925 258.123 271.253L257.855 271.221C257.855 271.221 257.898 271.367 257.997 271.631C257.611 272.759 257.39 273.936 257.34 275.127C257.308 275.996 257.342 276.865 257.444 277.728C257.587 278.745 257.804 279.75 258.094 280.735C258.828 283.121 259.918 285.382 261.325 287.443C262.861 289.771 264.805 292.056 266.68 294.333C268.483 296.499 270.017 298.876 271.247 301.411C271.401 301.722 271.536 302.03 271.682 302.329C271.827 302.628 271.901 302.939 272.017 303.235C272.244 303.866 272.456 304.455 272.651 305.022C272.915 306.191 273.197 307.292 273.357 308.228C273.581 310.158 273.738 311.294 273.738 311.294C273.738 311.294 274.353 310.36 275.357 308.516C275.807 307.613 276.224 306.474 276.766 305.138C276.946 304.465 277.134 303.732 277.306 302.967C277.353 302.57 277.51 302.176 277.549 301.767C277.587 301.359 277.648 300.933 277.696 300.526C278.031 296.79 277.612 293.024 276.464 289.453C275.944 287.821 275.316 286.226 274.584 284.678C279.441 286.182 285.26 286.873 291.218 287.661C294.172 288.022 297.087 288.648 299.928 289.532C301.294 289.986 302.614 290.568 303.871 291.269C304.532 291.639 305.168 292.047 305.814 292.456C306.153 292.658 306.387 292.897 306.744 293.111C307.044 293.304 307.324 293.526 307.581 293.774C308.697 294.698 309.688 295.764 310.528 296.944C311.377 298.132 312.056 299.433 312.546 300.809C313.565 303.512 313.803 306.447 313.232 309.279C312.768 311.789 311.343 314.018 309.261 315.494C308.289 316.095 307.215 316.513 306.093 316.729C305.034 316.89 303.958 316.908 302.895 316.782C301.97 316.671 301.056 316.488 300.16 316.235C299.387 315.962 298.667 315.746 298.131 315.511L296.446 314.777L297.857 315.952C298.324 316.35 298.94 316.755 299.664 317.274C300.526 317.821 301.434 318.293 302.377 318.684C303.584 319.19 304.856 319.524 306.156 319.677C307.761 319.835 309.382 319.686 310.931 319.237C312.703 318.638 314.328 317.671 315.699 316.4C317.182 315.023 318.401 313.386 319.294 311.57C321.11 307.628 321.719 303.236 321.045 298.948L321.05 298.909ZM285.194 159.506C284.352 159.425 283.517 159.286 282.695 159.088C281.575 158.877 280.468 158.601 279.38 158.261C278.156 157.79 276.974 157.215 275.848 156.543C274.749 155.878 273.741 155.285 273.023 154.888C272.639 154.667 272.242 154.468 271.835 154.294C271.537 154.616 271.276 154.97 271.055 155.349C270.402 156.426 269.984 157.629 269.83 158.879C269.553 161.135 270.016 163.421 271.151 165.39C271.974 166.859 273.09 168.143 274.429 169.163C276.035 170.379 277.885 171.235 279.851 171.671C281.933 172.12 284.082 172.163 286.18 171.798C288.204 171.449 290.162 170.796 291.99 169.86C295.284 168.175 298.193 165.825 300.533 162.959C302.251 160.863 303.652 158.525 304.691 156.021C304.979 155.303 305.231 154.57 305.445 153.825C305.587 153.308 305.671 153.026 305.671 153.026L304.989 153.509C304.569 153.822 303.896 154.235 303.131 154.738C301.104 155.963 298.959 156.98 296.728 157.774C294.13 158.695 291.425 159.277 288.678 159.507C287.518 159.596 286.353 159.596 285.194 159.506ZM283.554 258.081C280.553 259.431 277.923 261.485 275.884 264.068C275.246 264.891 274.66 265.753 274.128 266.648C273.915 267.009 273.729 267.384 273.571 267.771C273.847 268.09 274.149 268.385 274.474 268.653C275.323 269.362 276.272 269.943 277.29 270.378C279.837 271.486 284.051 272.037 288.947 269.819C291.578 268.541 293.99 266.856 296.096 264.827C298.217 262.786 300.119 260.527 301.77 258.089C303.056 256.221 304.201 254.26 305.196 252.223C305.943 250.68 306.337 249.74 306.337 249.74L303.83 250.751C302.269 251.351 300.153 252.208 297.766 253.052C295.38 253.896 292.798 254.778 290.333 255.613C287.867 256.448 285.521 257.207 283.554 258.081ZM248.957 320.435C250.312 318.783 251.378 316.915 252.111 314.908C253.307 311.519 253.839 307.93 253.679 304.339C253.399 298.924 252.41 293.569 250.737 288.411C249.415 284.115 248.17 280.775 247.361 278.433C246.551 276.091 246.177 274.748 246.177 274.748C245.943 276.035 245.788 277.335 245.715 278.641C245.567 281.151 245.567 284.796 245.571 289.177C245.694 294.098 245.472 299.022 244.908 303.912C244.612 306.394 243.941 308.817 242.916 311.097C242.454 312.072 241.852 312.974 241.128 313.775C240.427 314.511 239.619 315.138 238.732 315.635L237.984 315.999C237.748 316.122 237.521 316.166 237.286 316.279L236.937 316.419C236.832 316.457 236.742 316.446 236.638 316.474C236.534 316.502 236.253 316.579 235.992 316.579C235.009 316.705 234.012 316.648 233.051 316.41C230.958 315.864 229.038 314.797 227.468 313.31C225.861 311.838 224.514 310.105 223.484 308.185C222.582 306.494 221.948 304.672 221.608 302.786C221.117 299.988 221.459 297.108 222.592 294.504C223.465 292.493 224.231 291.214 223.769 290.615C223.561 290.329 223.086 290.262 222.339 290.446C221.885 290.558 221.449 290.73 221.04 290.956C220.477 291.238 219.95 291.584 219.467 291.988C218.064 293.105 216.918 294.511 216.107 296.11C215.015 298.262 214.392 300.622 214.278 303.033C214.131 309.343 216.476 315.458 220.806 320.051C223.428 322.988 226.817 325.134 230.593 326.249C232.788 326.907 235.093 327.118 237.371 326.87C239.649 326.622 241.854 325.919 243.856 324.804C245.826 323.683 247.576 322.216 249.023 320.473L248.957 320.435ZM291.201 326.46C290.51 326.368 289.814 326.312 289.117 326.293C288.272 326.226 287.424 326.203 286.577 326.223C285.683 326.117 284.702 326.151 283.71 326.114C282.695 326.049 281.683 325.929 280.681 325.754C278.646 325.509 276.672 324.899 274.853 323.954C273.057 322.952 271.402 321.716 269.932 320.278C269.117 319.597 268.475 318.725 267.725 318.002L265.823 315.621C265.272 314.83 264.743 314.113 264.251 313.42C263.76 312.727 263.394 312.16 263.069 311.678C262.4 310.693 261.973 310.138 261.973 310.138C261.973 310.138 261.757 310.767 261.474 311.962C261.298 312.69 261.161 313.427 261.061 314.169C260.958 315.033 260.91 316.034 260.886 317.169C260.938 318.402 261.061 319.63 261.254 320.848C261.549 322.294 262.011 323.7 262.629 325.04C263.324 326.622 264.253 328.09 265.385 329.395C266.021 330.055 266.686 330.738 267.415 331.379C268.145 332.019 269.023 332.506 269.858 333.028C273.1 334.763 276.766 335.548 280.434 335.292C281.913 335.207 283.379 334.97 284.809 334.583C285.998 334.227 287.163 333.794 288.296 333.285C289.185 332.825 290.047 332.311 290.875 331.749C291.511 331.297 292.091 330.771 292.602 330.181C293.454 329.195 293.772 328.306 293.481 327.698C293.191 327.089 292.524 326.688 291.27 326.478L291.201 326.46ZM255.678 324.637C255.466 324.21 255.229 323.795 254.97 323.395C254.97 323.395 254.61 323.795 254.065 324.486C253.52 325.176 252.732 326.13 251.872 327.176C251.013 328.222 250.009 329.381 248.984 330.468C247.958 331.555 247.063 332.566 246.032 333.702C245.139 334.721 244.181 335.681 243.163 336.574C242.918 336.767 242.662 336.978 242.435 337.192C242.208 337.407 241.927 337.565 241.682 337.768C241.209 338.185 240.688 338.506 240.24 338.885C238.361 340.294 236.771 341.555 236.808 343.019C236.855 343.426 237 343.815 237.232 344.151C237.465 344.488 237.776 344.762 238.14 344.95C239.312 345.627 240.639 345.989 241.993 346.002C242.908 346.037 243.825 345.97 244.725 345.803C245.242 345.711 245.753 345.594 246.257 345.451C246.76 345.289 247.306 345.102 247.823 344.902C250.141 343.897 252.205 342.387 253.866 340.484C255.464 338.617 256.545 336.363 256.999 333.948C257.582 330.783 257.119 327.515 255.678 324.637ZM222.116 280.54C222.697 280.478 223.291 280.398 223.907 280.3C224.523 280.202 225.125 279.961 225.753 279.764C228.517 278.815 231.002 277.197 232.989 275.054C234.924 272.899 236.217 270.244 236.719 267.391C236.796 266.745 236.871 266.11 236.942 265.514C237.013 264.918 236.915 264.302 236.87 263.743C236.803 262.694 236.608 261.656 236.291 260.653C236.049 259.848 235.722 259.07 235.318 258.332C235.039 257.767 234.701 257.234 234.308 256.742C233.679 255.932 233.294 255.534 233.294 255.534C233.294 255.534 233.08 256.063 232.698 256.984C232.256 258.163 231.73 259.309 231.123 260.412C230.725 261.05 230.422 261.739 229.932 262.385C229.702 262.71 229.511 263.05 229.271 263.374C229.031 263.698 228.772 264.01 228.547 264.295C227.54 265.565 226.493 266.75 225.394 267.949C224.323 269.078 223.136 270.092 221.853 270.972C221.546 271.178 221.251 271.374 220.942 271.599C220.634 271.824 220.318 271.938 220.014 272.123C219.421 272.536 218.782 272.742 218.208 273.087C217.033 273.652 215.948 274.218 215.122 274.735C214.754 274.92 214.428 275.178 214.162 275.493C213.897 275.807 213.697 276.172 213.575 276.565C213.491 277.27 213.829 277.985 214.71 278.714C215.959 279.626 217.426 280.196 218.964 280.367C220.027 280.555 221.107 280.619 222.184 280.558L222.116 280.54ZM231.881 333.462C230.679 332.974 229.416 332.655 228.127 332.512C226.962 332.37 225.783 332.393 224.625 332.579C223.278 332.824 222.002 333.36 220.883 334.149C218.443 335.873 215.96 339.143 213.496 341.831C212.871 342.512 212.333 343.143 211.742 343.707C211.151 344.272 210.612 344.741 210.196 345.195C209.264 346.092 208.71 346.6 208.71 346.6C208.71 346.6 209.427 346.836 210.658 347.154C211.405 347.351 212.164 347.502 212.931 347.605C213.785 347.706 214.758 347.822 215.812 347.846C218.033 347.902 220.251 347.668 222.41 347.15C222.969 347.025 223.519 346.889 224.061 346.732C224.604 346.575 225.113 346.353 225.581 346.147C226.517 345.777 227.408 345.301 228.237 344.73C229.594 343.808 230.691 342.551 231.419 341.08C231.997 339.931 232.325 338.673 232.382 337.388C232.49 336.07 232.343 334.743 231.95 333.48L231.881 333.462ZM236.863 309.24C237.845 308.94 238.716 308.356 239.366 307.562C240.016 306.767 240.416 305.798 240.514 304.776C240.613 303.754 240.407 302.726 239.921 301.822C239.436 300.917 238.693 300.177 237.787 299.695C236.881 299.212 235.852 299.01 234.831 299.112C233.809 299.214 232.841 299.617 232.049 300.27C231.256 300.923 230.675 301.796 230.379 302.779C230.083 303.761 230.085 304.81 230.385 305.792C230.583 306.452 230.91 307.067 231.347 307.599C231.785 308.132 232.324 308.573 232.933 308.895C233.542 309.218 234.209 309.416 234.896 309.478C235.582 309.541 236.274 309.466 236.932 309.258L236.863 309.24ZM297.782 311.331C299.443 310.837 300.92 309.86 302.025 308.524C303.129 307.189 303.811 305.554 303.983 303.83C304.155 302.105 303.81 300.368 302.992 298.84C302.174 297.312 300.919 296.063 299.388 295.25C297.857 294.438 296.119 294.1 294.395 294.279C292.671 294.458 291.039 295.146 289.708 296.255C288.376 297.365 287.405 298.846 286.918 300.509C286.431 302.172 286.45 303.943 286.973 305.596C287.661 307.795 289.19 309.633 291.228 310.711C293.265 311.788 295.645 312.018 297.85 311.349L297.782 311.331ZM235.902 291.473C236.862 291.18 237.713 290.61 238.348 289.834C238.983 289.058 239.374 288.111 239.471 287.113C239.568 286.115 239.367 285.11 238.893 284.227C238.419 283.343 237.694 282.619 236.808 282.148C235.923 281.676 234.918 281.478 233.92 281.578C232.922 281.678 231.977 282.071 231.202 282.709C230.428 283.346 229.86 284.199 229.571 285.159C229.281 286.119 229.283 287.144 229.576 288.103C229.968 289.388 230.855 290.466 232.041 291.098C233.228 291.729 234.617 291.864 235.902 291.473Z" fill="#5D4E37"/>
</g>
<defs>
<clipPath id="clip0_927_2">
<rect width="316.82" height="324.43" fill="white" transform="translate(38.2703 0.125732) rotate(6.77445)"/>
</clipPath>
</defs>
</svg>
