<svg xmlns="http://www.w3.org/2000/svg" viewBox="0 0 533.5 544.3"><path fill="#4285F4" d="M533.5 278.4c0-17.4-1.5-34.1-4.4-50.4H272v95.4h146.9c-6.3 34-25 62.8-53.3 82v68.1h85.9c50.3-46.4 81-114.6 81-195.1z"/><path fill="#34A853" d="M272 544.3c72.6 0 133.7-24.1 178.3-65.2l-85.9-68.1c-24 16.1-54.8 25.6-92.4 25.6-71 0-131.3-47.9-152.8-112.4H33.2v70.6C77.7 487.7 169 544.3 272 544.3z"/><path fill="#FBBC05" d="M119.2 324.5c-10.8-32.6-10.8-67.5 0-100.1V153.9H33.2c-39.5 75-39.5 164.8 0 239.8l86-69.2z"/><path fill="#EA4335" d="M272 108.6c39.6 0 75.3 13.6 103.4 40.4l77.6-77.6C405.7 24.4 344.6 0 272 0 169 0 77.7 56.6 33.2 153.9l86 70.6C140.7 156.5 201 108.6 272 108.6z"/></svg>
