<svg xmlns="http://www.w3.org/2000/svg" xmlns:xlink="http://www.w3.org/1999/xlink" viewBox="0 0 91.08 102.49"><defs><style>.cls-1{fill:none;}.cls-2{fill:#9fccbb;}.cls-2,.cls-4{fill-rule:evenodd;}.cls-3{clip-path:url(#clip-path);}.cls-4{fill:#1c7069;}.cls-5{clip-path:url(#clip-path-2);}</style><clipPath id="clip-path" transform="translate(4.4 3.94)"><path class="cls-1" d="M19.2,94.25S-1,80.93,0,48.63C1,19.46,19.29,0,19.29,0S37.05,24.33,35.23,47.87C32.93,77.51,23.48,82.66,19.2,94.25Z"/></clipPath><clipPath id="clip-path-2" transform="translate(4.4 3.94)"><path class="cls-1" d="M35.9,94.22S31.63,75.26,47.1,53C60,34.51,80.49,29.11,80.49,29.11S79.84,51.43,68.71,69C55.41,90,35.67,94.74,35.9,94.22Z"/></clipPath></defs><g id="Layer_2" data-name="Layer 2"><g id="OBJECTS"><path class="cls-2" d="M19.2,94.25S-1,80.93,0,48.63C1,19.46,19.29,0,19.29,0S37.05,24.33,35.23,47.87C32.93,77.51,23.48,82.66,19.2,94.25Z" transform="translate(4.4 3.94)"/><g class="cls-3"><path class="cls-4" d="M18.78-3.86a7.93,7.93,0,0,0-.07.84c0,.18,0,.37,0,.55,0,1.84,0,3.68-.1,5.52-.2,3.46-.55,6.91-.67,10.37q-.21,6.81-.34,13.65c-.13,6.82-.23,13.66-.33,20.46-.11,7.08-.35,14.29-.3,21.47,0,4.81.2,9.61.61,14.33.25,2.71.6,5.4,1,8.08.23,1.78.45,3.56.65,5.35a7.2,7.2,0,0,0,.12,1,3.29,3.29,0,0,0,.16.44.32.32,0,1,0,.64,0,2.54,2.54,0,0,0,.1-.37,4.86,4.86,0,0,0,0-.54c0-1.21-.17-2.42-.3-3.62-.37-3.48-.93-6.94-1.24-10.44C18.21,78.54,18,73.77,18,69c-.09-7.17.11-14.38.18-21.45q.09-10.2.21-20.46.09-6.82.26-13.64c.09-4,.51-8.07.59-12.1a29.17,29.17,0,0,0-.07-4.18,9.35,9.35,0,0,0-.2-1,.08.08,0,0,0-.08-.07A.07.07,0,0,0,18.78-3.86Z" transform="translate(4.4 3.94)"/><path class="cls-4" d="M19,87.34a2,2,0,0,0,.5-.25,2.54,2.54,0,0,0,.39-.61c1.89-3,4-5.88,6.23-8.72,1.84-2.35,3.76-4.66,5.66-7s3.84-4.65,5.69-6.94a.16.16,0,0,0-.25-.21c-2.23,2.6-4.59,5.21-6.89,7.88s-4.52,5.36-6.62,8.13a79.45,79.45,0,0,0-4.62,6.67,1.52,1.52,0,0,0-.24.38,1.63,1.63,0,0,0,0,.54.08.08,0,1,0,.13.08Z" transform="translate(4.4 3.94)"/><path class="cls-4" d="M18,79.77a5.53,5.53,0,0,0,.68-.48,3.36,3.36,0,0,0,.34-.41c2.39-3.07,4.9-6.14,7.62-9.06,1.79-1.92,3.65-3.8,5.51-5.67,2.84-2.83,5.69-5.62,8.48-8.33a.27.27,0,0,0,0-.37.26.26,0,0,0-.38,0c-2.86,2.62-5.84,5.29-8.73,8.08-1.9,1.84-3.77,3.73-5.57,5.67a74.9,74.9,0,0,0-7.58,9.23,3,3,0,0,0-.28.45,5.39,5.39,0,0,0-.23.81s0,.09,0,.11A.07.07,0,0,0,18,79.77Z" transform="translate(4.4 3.94)"/><path class="cls-4" d="M17.46,70.11c.1,0,.05.06.16,0s.1-.09.15-.14c.62-.63,1.2-1.3,1.8-1.94q2-2.15,4.08-4.23c1.38-1.4,2.76-2.79,4.16-4.17q3.5-3.4,7.13-6.75a.26.26,0,0,0,0-.34.25.25,0,0,0-.34,0c-3.73,3.27-7.41,6.5-10.89,10Q20.6,65.63,17.68,69c-.19.23-.51.39-.57.68,0,.12,0,.07.06.18a.19.19,0,0,0,.29.25Z" transform="translate(4.4 3.94)"/><path class="cls-4" d="M17.57,59.88c.33.13-.09.19.25.1,0,0,0,0,.06-.08.29-.37.59-.74.88-1.12a119.65,119.65,0,0,1,9.53-10.61C32.05,44.43,36,40.86,40,37.45a.26.26,0,0,0,0-.37.25.25,0,0,0-.36,0c-3,2.41-5.9,4.87-8.72,7.46q-2.84,2.58-5.49,5.34A87.26,87.26,0,0,0,18,58.59c-.23.31-.45.63-.67.94,0,0,0,0,0,0,0,.36-.07-.07.16.21a.08.08,0,0,0,0,.11A.08.08,0,0,0,17.57,59.88Z" transform="translate(4.4 3.94)"/><path class="cls-4" d="M17.33,51.33v-.06s0-.06.05-.08l.72-1c2.46-3.26,5.08-6.4,7.74-9.51,2.21-2.58,4.45-5.14,6.76-7.63s4.7-4.93,7.07-7.37a.2.2,0,0,1,.29,0,.22.22,0,0,1,0,.3c-2.69,3.06-5.33,6.17-8,9.25-2.4,2.77-4.82,5.52-7.21,8.31Q22.39,46.33,20,49.13c-.65.78-1.29,1.57-2,2.34-.06.08-.1.21-.2.22h-.05a.64.64,0,0,0-.18-.14.08.08,0,0,1-.11,0s0-.07,0-.11S17.37,51.33,17.33,51.33Z" transform="translate(4.4 3.94)"/><path class="cls-4" d="M18.06,42.13a1.61,1.61,0,0,0,.53-.15.55.55,0,0,0,.12-.14c.55-.63,1.07-1.3,1.6-2,4.11-5.16,8.3-10.32,12.53-15.42,1.82-2.19,3.61-4.39,5.43-6.56a.14.14,0,0,0,0-.2.13.13,0,0,0-.19,0c-2.14,2.31-4.27,4.64-6.36,7S27.59,29.54,25.57,32c-2.43,2.92-4.84,5.85-7.14,8.85a2.91,2.91,0,0,0-.45.61,1.76,1.76,0,0,0-.05.61.08.08,0,0,0,0,.11A.09.09,0,0,0,18.06,42.13Z" transform="translate(4.4 3.94)"/><path class="cls-4" d="M17.39,32.55a3.76,3.76,0,0,0,.31-.25,26.53,26.53,0,0,0,2.05-2.75c1.78-2.36,3.62-4.68,5.47-7q3.95-5,7.93-9.93a.16.16,0,0,0,0-.22.16.16,0,0,0-.23,0c-2,2.31-4,4.6-6,6.93-1.31,1.56-2.61,3.13-3.85,4.74-1.88,2.41-3.66,4.9-5.36,7.44a5.54,5.54,0,0,0-.33.51,2.16,2.16,0,0,0-.13.41.07.07,0,0,0,0,.11A.09.09,0,0,0,17.39,32.55Z" transform="translate(4.4 3.94)"/><path class="cls-4" d="M17.66,22.35c.11,0,.09,0,.19,0,.27-.18.34-.57.5-.86q1.24-2.12,2.6-4.23c.88-1.39,1.79-2.78,2.71-4.16s2.1-3,3.17-4.52,2.14-3,3.24-4.49a.12.12,0,0,0,0-.17.13.13,0,0,0-.18,0C28.46,5.59,27,7.31,25.68,9.09S23,12.66,21.83,14.52a75.17,75.17,0,0,0-4,6.89c-.13.24-.37.45-.36.71s0,.05.09.16a.08.08,0,0,0,.15.07Z" transform="translate(4.4 3.94)"/><path class="cls-4" d="M18.09,13.5c.15-.16.3-.29.44-.46s.31-.52.47-.78c1.17-2,2.45-3.86,3.71-5.76S25.22,2.66,26.45.73a.24.24,0,0,0-.06-.32.23.23,0,0,0-.31.07C25,2,23.91,3.43,22.85,4.94q-1.05,1.5-2,3.06a25.63,25.63,0,0,0-2.72,4.8,3.46,3.46,0,0,0-.14.62.08.08,0,1,0,.14.08Z" transform="translate(4.4 3.94)"/><path class="cls-4" d="M18.47,87.7c-.08-.22,0-.29-.17-.47-.3-.33-.81-.4-1.22-.61a71.21,71.21,0,0,1-6.62-4C8.28,81.2,6.12,79.74,4,78.36a.28.28,0,0,0-.39.07.29.29,0,0,0,.07.39c2,1.38,3.89,2.87,5.89,4.27,1.33.94,2.69,1.84,4.08,2.67A37.8,37.8,0,0,0,17.79,88,.46.46,0,0,0,18,88c.24,0,.22-.09.43-.19a.08.08,0,0,0,.11,0A.07.07,0,0,0,18.47,87.7Z" transform="translate(4.4 3.94)"/><path class="cls-4" d="M17.87,80.83c-.3-.23-.54-.46-.85-.66a10.1,10.1,0,0,0-.92-.49C11.65,77.45,7.22,75,2.87,72.59c-1.1-.61-2.21-1.2-3.3-1.81a.23.23,0,0,0-.3.08.23.23,0,0,0,.07.31c1.05.67,2.11,1.36,3.18,2,2.5,1.51,5.07,2.94,7.65,4.32,2,1.06,4,2.12,6,3a3.29,3.29,0,0,0,.47.19A11.59,11.59,0,0,0,17.8,81a.07.07,0,0,0,.1,0A.07.07,0,0,0,17.87,80.83Z" transform="translate(4.4 3.94)"/><path class="cls-4" d="M17.47,73.06a5.38,5.38,0,0,0-.49-.47,9.47,9.47,0,0,0-1.34-.7c-2.54-1.29-5-2.68-7.52-4.11Q3.46,65.1-1.13,62.31a.27.27,0,0,0-.38.08.27.27,0,0,0,.08.38C.72,64.21,2.86,65.67,5.05,67q2.2,1.38,4.47,2.64c1.13.63,2.27,1.24,3.44,1.81s2.35,1.1,3.56,1.59a.76.76,0,0,0,.16.06,4.4,4.4,0,0,0,.73.06.08.08,0,1,0,.06-.14Z" transform="translate(4.4 3.94)"/><path class="cls-4" d="M17.37,66.86a1.58,1.58,0,0,0-.24-.42,3.92,3.92,0,0,0-.82-.55c-3.56-2.31-7-4.73-10.54-7.07-1.31-.86-2.63-1.72-4-2.53S-.93,54.73-2.34,54a.12.12,0,0,0-.17.05.13.13,0,0,0,0,.17c1.22.71,2.41,1.48,3.59,2.24,4.76,3.05,9.28,6.41,14,9.47.53.34,1.06.68,1.6,1a.33.33,0,0,0,.13.07,1.09,1.09,0,0,0,.4,0,.07.07,0,0,0,.11,0A.08.08,0,0,0,17.37,66.86Z" transform="translate(4.4 3.94)"/><path class="cls-4" d="M17.64,59.75c0-.15,0-.21-.09-.34s-.55-.39-.84-.58C13.54,56.71,10.27,54.68,7,52.7c-2.19-1.31-4.4-2.61-6.65-3.81-1.51-.8-3-1.55-4.57-2.29a.11.11,0,0,0-.15,0,.11.11,0,0,0,0,.14c2,1.1,4,2.27,6,3.44,4.61,2.72,9.14,5.61,13.64,8.5.64.41,1.19,1.07,1.94,1.22.16,0,.19,0,.35-.07a.07.07,0,0,0,.11,0A.09.09,0,0,0,17.64,59.75Z" transform="translate(4.4 3.94)"/><path class="cls-4" d="M18.28,52a2.56,2.56,0,0,0-.27-.45,1.18,1.18,0,0,0-.25-.19c-.84-.64-1.68-1.26-2.53-1.89C11,46.37,6.94,43,2.76,39.82c-2.25-1.73-4.56-3.37-6.86-5a.19.19,0,0,0-.26,0,.18.18,0,0,0,0,.25c2.06,1.64,4.06,3.35,6.11,5,3.06,2.49,6.16,5,9.32,7.34,2,1.53,4.12,3,6.24,4.41a1.75,1.75,0,0,0,.29.18,2.05,2.05,0,0,0,.55.1.07.07,0,0,0,.11,0A.09.09,0,0,0,18.28,52Z" transform="translate(4.4 3.94)"/><path class="cls-4" d="M18.19,42.53A2.4,2.4,0,0,0,18,42a9.74,9.74,0,0,0-1.57-1.43C14.61,39,12.81,37.41,11,35.83S7.4,32.7,5.65,31.1C4.47,30,3.32,28.94,2.17,27.85s-2.32-2.17-3.43-3.3a.15.15,0,0,0-.22,0,.15.15,0,0,0,0,.22c1.11,1.37,2.26,2.73,3.49,4,1.81,1.92,3.76,3.74,5.75,5.53,1.49,1.33,3,2.64,4.52,3.91s3.08,2.56,4.63,3.77a3.33,3.33,0,0,0,.75.56,2.11,2.11,0,0,0,.45.09.09.09,0,0,0,.11,0S18.23,42.55,18.19,42.53Z" transform="translate(4.4 3.94)"/><path class="cls-4" d="M18.15,32.83c0-.19.06-.21,0-.39a.53.53,0,0,0-.11-.15c-.37-.45-.81-.85-1.22-1.28-.64-.66-1.3-1.32-2-2l-8-7.75C5.49,19.9,4,18.54,2.64,17.13a.18.18,0,1,0-.27.25c.86,1,1.7,2,2.6,3,2.08,2.29,4.29,4.46,6.47,6.65.94.94,1.88,1.88,2.83,2.8s1.91,1.84,2.9,2.71c.16.14.29.33.48.4s.2,0,.39,0a.08.08,0,0,0,.11-.11Z" transform="translate(4.4 3.94)"/><path class="cls-4" d="M18.38,23a2.62,2.62,0,0,0-.2-.53,4.07,4.07,0,0,0-.53-.57c-1.58-1.71-3.2-3.42-4.8-5.16-1-1.15-2.09-2.31-3.1-3.49C8.42,11.75,7.17,10.17,6,8.56c-.36-.49-.71-1-1.09-1.47-.16-.21-.35-.38-.52-.59a.12.12,0,0,0-.17,0,.13.13,0,0,0,0,.17c.1.25.17.5.29.75A12.66,12.66,0,0,0,5.35,9,44.51,44.51,0,0,0,9,13.91c1,1.2,2.08,2.36,3.18,3.5,1.64,1.7,3.33,3.34,5,5a4.15,4.15,0,0,0,.57.54,2.39,2.39,0,0,0,.52.22.08.08,0,0,0,.11-.11Z" transform="translate(4.4 3.94)"/><path class="cls-4" d="M18.16,13.64h0s0,0,0,0l-.48-.47c-.79-.78-1.57-1.57-2.33-2.38s-1.48-1.64-2.22-2.48C11.86,6.88,10.65,5.48,9.5,4S7.25,1.09,6.15-.39a.26.26,0,0,1,0-.36.25.25,0,0,1,.36,0C7.7.56,8.89,1.8,10,3.1,11.75,5,13.44,7,15.09,9c1.07,1.29,2.1,2.59,3.12,3.9l.31.39,0,0h0l-.13.12s0,.08,0,.11-.1,0-.11,0l-.1.08,0,0a2.35,2.35,0,0,1,.38,0,1.76,1.76,0,0,1,0-.39c1.09-.94.21,1.16,0,.6C18.31,14.05,17.62,14.14,18.16,13.64Z" transform="translate(4.4 3.94)"/></g><path class="cls-4" d="M35.9,94.22S31.63,75.26,47.1,53C60,34.51,80.49,29.11,80.49,29.11S79.84,51.43,68.71,69C55.41,90,35.67,94.74,35.9,94.22Z" transform="translate(4.4 3.94)"/><g class="cls-5"><path class="cls-2" d="M34.13,95.55c.35.13,0,.22.37.13.06,0,.09-.1.13-.15a23,23,0,0,0,1.86-2.46c1.45-2.19,2.59-4.58,3.94-6.82,1.46-2.43,2.92-4.87,4.43-7.27q1.5-2.4,3.08-4.76,1.32-1.93,2.69-3.83c3.69-5.07,7.65-10,11.21-15.11,3.86-5.58,7.82-11.22,12-16.71,2.06-2.74,4.17-5.42,6.31-8.08,1.51-1.87,3-3.71,4.56-5.55.66-.79,1.3-1.6,2-2.39a.27.27,0,0,0,0-.38.28.28,0,0,0-.39,0c-.78.77-1.56,1.54-2.31,2.35S82.41,26.16,81.69,27c-2.15,2.48-4.24,5-6.27,7.65C70.33,41.15,65.59,48,61,54.67c-3.55,5.15-7.49,10-11.17,15.1-.92,1.28-1.83,2.56-2.71,3.87C46,75.21,45,76.81,44,78.43c-1.51,2.41-3,4.86-4.43,7.3-1.7,2.87-3.16,5.92-5.14,8.62-.19.26-.56.46-.58.79s0,0,.18.3a.08.08,0,1,0,.12.11Z" transform="translate(4.4 3.94)"/><path class="cls-2" d="M38.72,88.89a7.71,7.71,0,0,0,.42-.87,6.18,6.18,0,0,0,.12-.62,18.44,18.44,0,0,0-.15-6.28,33,33,0,0,0-2.06-6.72c-.62-1.47-1.32-2.88-2-4.21a.21.21,0,0,0-.28-.1.21.21,0,0,0-.09.28c.58,1.36,1.15,2.81,1.7,4.3a40.87,40.87,0,0,1,1.92,6.6,20.5,20.5,0,0,1,.29,6c0,.2-.06.4-.07.6s0,.62,0,.94a.08.08,0,1,0,.16,0Z" transform="translate(4.4 3.94)"/><path class="cls-2" d="M44.25,79.49a1.8,1.8,0,0,0,.23-.4,7,7,0,0,0,.17-1.66,26.43,26.43,0,0,0,0-3.33,31.81,31.81,0,0,0-.68-5,34.85,34.85,0,0,0-1.45-5,41,41,0,0,0-2.14-4.73A.26.26,0,0,0,40,59.3a.25.25,0,0,0-.11.34,50,50,0,0,1,1.85,4.77,44.08,44.08,0,0,1,1.36,4.91,39.3,39.3,0,0,1,.7,4.83c.09,1.09.14,2.17.14,3.26A11.09,11.09,0,0,0,44,79a1.69,1.69,0,0,0,.15.43.08.08,0,0,0,.06.09A.08.08,0,0,0,44.25,79.49Z" transform="translate(4.4 3.94)"/><path class="cls-2" d="M49.4,71a2.65,2.65,0,0,0,.26-.39,6.63,6.63,0,0,0,.27-1.68A22.19,22.19,0,0,0,50,64.7a26,26,0,0,0-.67-4.2,25,25,0,0,0-2.27-6,21,21,0,0,0-2.42-3.49.25.25,0,0,0-.33,0,.24.24,0,0,0,0,.33,23.57,23.57,0,0,1,2.11,3.55,28,28,0,0,1,2.09,5.8,31.34,31.34,0,0,1,.65,4.07,28.42,28.42,0,0,1,.1,4.12,13.1,13.1,0,0,0-.13,1.65,1.8,1.8,0,0,0,.12.44.08.08,0,0,0,.06.09A.07.07,0,0,0,49.4,71Z" transform="translate(4.4 3.94)"/><path class="cls-2" d="M55.32,63.46a8,8,0,0,0,.55-1.14,4.35,4.35,0,0,0,.1-.52,20.09,20.09,0,0,0-.22-7,35.19,35.19,0,0,0-2.44-7.48,51.64,51.64,0,0,0-2.39-4.64.2.2,0,0,0-.29-.09.2.2,0,0,0-.08.28c.75,1.54,1.48,3.21,2.16,4.94a43.83,43.83,0,0,1,1.69,5.08,24.69,24.69,0,0,1,.83,8.41c0,.28-.08.56-.09.84,0,.45,0,.86,0,1.31a.08.08,0,0,0,.06.1A.07.07,0,0,0,55.32,63.46Z" transform="translate(4.4 3.94)"/><path class="cls-2" d="M61.58,55.22l0,0c0-.06,0-.14,0-.21,0-.68,0-1.36,0-2.05a34,34,0,0,0-.3-4.51,22.8,22.8,0,0,0-1-4.36,14.82,14.82,0,0,0-3.86-6.27.31.31,0,0,1,0-.44.32.32,0,0,1,.45,0,15.43,15.43,0,0,1,4.94,8.29,25.36,25.36,0,0,1,.52,7.73c0,.58-.11,1.15-.19,1.72,0,.06,0,.12,0,.16l-.05.05s0,0-.15,0a.08.08,0,0,1-.08.07.07.07,0,0,1-.07-.08Z" transform="translate(4.4 3.94)"/><path class="cls-2" d="M66.9,47.26a5.09,5.09,0,0,0,.48-.78,4.63,4.63,0,0,0,.24-.85,21,21,0,0,0,.42-7A19.16,19.16,0,0,0,67.57,36a18.17,18.17,0,0,0-2.48-5.64.28.28,0,0,0-.38-.08.27.27,0,0,0-.09.37,18.3,18.3,0,0,1,2,5.57c.17.83.3,1.66.39,2.51a25,25,0,0,1-.14,6.76c-.05.28-.12.56-.15.84s0,.58,0,.89a.07.07,0,0,0,0,.1A.08.08,0,0,0,66.9,47.26Z" transform="translate(4.4 3.94)"/><path class="cls-2" d="M37.68,90.32c.16.09.2.18.38.24a5.93,5.93,0,0,0,1.4,0,26.86,26.86,0,0,1,3.45.27,16.72,16.72,0,0,1,3.33.82,12.7,12.7,0,0,1,2,1,8.92,8.92,0,0,1,2.59,2.21.19.19,0,1,0,.31-.21,8.64,8.64,0,0,0-2.54-2.82,11.38,11.38,0,0,0-3.49-1.58,16.65,16.65,0,0,0-3.38-.53,20.92,20.92,0,0,0-3.37.1,1.2,1.2,0,0,0-.38,0c-.17.08-.2.17-.35.3a.07.07,0,0,0-.07.08A.08.08,0,0,0,37.68,90.32Z" transform="translate(4.4 3.94)"/><path class="cls-2" d="M40.27,85.84l0-.06s.1,0,.15-.06a16.48,16.48,0,0,1,1.73-.55,14.78,14.78,0,0,1,3.21-.45,16.38,16.38,0,0,1,4.83.61,19,19,0,0,1,5.51,2.49,20.64,20.64,0,0,1,3.07,2.56.18.18,0,0,1,0,.27.19.19,0,0,1-.27,0,24.65,24.65,0,0,0-3.26-2.13A21.76,21.76,0,0,0,50,86.36a19.79,19.79,0,0,0-7.6-.36c-.57.09-1.13.2-1.7.34,0,0-.11.06-.16,0l-.05,0c-.31-.12.15.21,0-.18a.08.08,0,0,1-.1,0,.07.07,0,0,1,.05-.1C40.27,85.58,40.09,86.12,40.27,85.84Z" transform="translate(4.4 3.94)"/><path class="cls-2" d="M44,80.08c.45-.11.88-.15,1.32-.26l.53-.17a21.48,21.48,0,0,1,7.33-1,33.9,33.9,0,0,1,8.25,1.5c1.8.52,3.61,1.08,5.4,1.75A.23.23,0,1,0,67,81.5a47,47,0,0,0-5.27-2.3,27.26,27.26,0,0,0-8.52-1.64,19.68,19.68,0,0,0-7.63,1.36,3.54,3.54,0,0,0-.53.23,9.47,9.47,0,0,0-1.13.78.08.08,0,1,0,.07.15Z" transform="translate(4.4 3.94)"/><path class="cls-2" d="M47,74.2c.13,0,.15.1.27.1a2.47,2.47,0,0,0,.81-.26,46.22,46.22,0,0,1,9.14-2.25,28.92,28.92,0,0,1,5.18-.16,24.6,24.6,0,0,1,5.1.81,16.76,16.76,0,0,1,2,.67c1.1.43,2.16,1,3.26,1.38q.73.27,1.47.48a.15.15,0,0,0,.11-.27c-.46-.23-.89-.49-1.33-.73-1-.59-2.06-1.18-3.14-1.71a14.58,14.58,0,0,0-2.08-.84,23.07,23.07,0,0,0-5.32-1,25.56,25.56,0,0,0-5.39.3,38.16,38.16,0,0,0-9.23,2.68,2.39,2.39,0,0,0-.78.35c-.09.09-.07.14-.13.26a.07.07,0,0,0,0,.1A.06.06,0,0,0,47,74.2Z" transform="translate(4.4 3.94)"/><path class="cls-2" d="M52.94,67.1a1,1,0,0,0,.34-.08c.75-.43,1.29-1.11,2-1.54a15.43,15.43,0,0,1,2.57-1.18A31,31,0,0,1,62.41,63a21.71,21.71,0,0,1,4.66-.54A37.67,37.67,0,0,1,73,63c1.32.19,2.65.36,4,.47.84.07,1.68.11,2.52.1a.2.2,0,0,0,.2-.2.21.21,0,0,0-.19-.2,80.83,80.83,0,0,1-8.61-1.4,25.32,25.32,0,0,0-3.8-.34,21.3,21.3,0,0,0-4.88.55,29.71,29.71,0,0,0-4.65,1.5,14.36,14.36,0,0,0-3.13,1.73A9.62,9.62,0,0,0,53,66.51s-.11.09-.13.15,0,.2,0,.34a.08.08,0,0,0,0,.11A.07.07,0,0,0,52.94,67.1Z" transform="translate(4.4 3.94)"/><path class="cls-2" d="M58.54,58.94c.14,0,.12.1.27.08s.41-.24.62-.36A24.21,24.21,0,0,1,67,56a41.63,41.63,0,0,1,5.36-.58,61.26,61.26,0,0,1,8.15.1.27.27,0,0,0,.29-.23.26.26,0,0,0-.23-.29,50.61,50.61,0,0,0-8.25-.62,30.78,30.78,0,0,0-5.51.61,22.19,22.19,0,0,0-7.74,3.07c-.21.14-.48.21-.61.42s0,.14,0,.3a.08.08,0,0,0,0,.11A.11.11,0,0,0,58.54,58.94Z" transform="translate(4.4 3.94)"/><path class="cls-2" d="M63.36,52.13c.3-.14.57-.23.85-.39a35.31,35.31,0,0,1,7.22-3.47,54.35,54.35,0,0,1,9.3-1.71c1.34-.16,2.69-.37,4.06-.54a.21.21,0,0,0,.18-.21.21.21,0,0,0-.21-.18c-1.38,0-2.75,0-4.11.09a38.4,38.4,0,0,0-9.51,1.61,17.6,17.6,0,0,0-7.3,3.93,7.44,7.44,0,0,0-.58.75s0,.07,0,.11A.08.08,0,0,0,63.36,52.13Z" transform="translate(4.4 3.94)"/><path class="cls-2" d="M70.08,43.08a1.69,1.69,0,0,0,.5,0,2,2,0,0,0,.39-.18,65.9,65.9,0,0,1,7.1-2.87c1.35-.44,2.7-.83,4.08-1.19s2.73-.69,4.15-.94a.31.31,0,0,0,.27-.36.32.32,0,0,0-.36-.27,34.07,34.07,0,0,0-8.45,1.84,49.27,49.27,0,0,0-7.11,3.16,1.76,1.76,0,0,0-.38.21,1.64,1.64,0,0,0-.26.42.08.08,0,0,0,0,.11A.08.08,0,0,0,70.08,43.08Z" transform="translate(4.4 3.94)"/></g></g></g></svg>