<svg xmlns="http://www.w3.org/2000/svg" viewBox="0 0 91 167.08"><defs><style>.cls-1{fill:#1c7069;}.cls-1,.cls-2{fill-rule:evenodd;}.cls-2{fill:#9fccbb;}</style></defs><g id="Layer_2" data-name="Layer 2"><g id="OBJECTS"><path class="cls-1" d="M63,96.28c1.66-12.12,6.68-25.4,14.79-34.64.81-.91,1.64-1.82,2.5-2.68S90,50.4,90.89,55.05s-4,9.63-6.72,12.67c-7.09,8.07-16.19,15-20.62,25.09"/><path class="cls-2" d="M62.84,113.45c1.76-10.77,6-20.09,13.9-27.76a27,27,0,0,1,8.5-6c.83-.33,3.48-1.51,3.62.32.37,4.73-4.91,9.38-8.11,12.22-6.86,6.08-14.61,12.12-17.89,21"/><path class="cls-2" d="M61.16,126.29A39.87,39.87,0,0,1,79.81,105c2.59-1.42,5.71-2.68,8.72-2.11,1,.19,2.61.42,2.47,1.78-.38,3.51-6.68,5.59-9.2,7-7.66,4.19-16.06,8.11-21.14,15.51"/><path class="cls-2" d="M61.19,119.92a44.88,44.88,0,0,0-7.6-27.56c-.69-1-9-11-10.21-5.83-1,4,2.6,8.37,4.71,11.36,5,7.11,13.9,14.8,13.18,24.41"/><path class="cls-1" d="M46.74,118.82A39.35,39.35,0,0,0,41.86,100a12.57,12.57,0,0,0-4.74-5.19c-.07,0-.39-.19-.44-.12-1.33,1.64.55,4.84,1.34,6.26,3.23,5.73,6.84,11.2,8.86,17.5"/><path class="cls-1" d="M52.08,129a31.16,31.16,0,0,0,3.08-14.07c0-.42-.37-5.88-1.93-4.45-2.87,2.63-.88,13.43-2.23,17.86"/><path class="cls-1" d="M34,105.54c-6.54-5.49-12.76-11.36-20.48-15.2-.73-.36-8.41-2.81-8.12-.52.35,2.73,3.93,4.64,6.16,5.64,6.22,2.79,13.2,4.19,18.9,8.09"/><path class="cls-1" d="M16.18,69.84c-1.69-1.32-3.2-2.81-5-4.06C7.86,63.38,4.5,61.23,2,57.84a9.17,9.17,0,0,1-1.95-4.2C0,53.1-.11,52.23.53,52c2.32-.83,4.72,2.25,6,3.68,3.22,3.58,5.55,7.82,8.31,11.75.62.89,1.45,1.59,2.09,2.48"/><path class="cls-1" d="M21.05,74c-3.38-3.7-5.56-9.48-6.06-14.39a13.58,13.58,0,0,1,.47-5.49c.08-.24.49-1.78,1-1.49,1.75,1.06,1.67,5.22,1.94,7A96,96,0,0,0,22.93,77"/><path class="cls-2" d="M27.37,83.88c-1.89-5-3.51-10.1-2.82-15.53a11,11,0,0,1,1.61-4.65c.44-.69,1.06-1.42,1.77-.62,1.49,1.67,1,5.3.93,7.33-.19,6-1,11.65,0,17.64"/><path class="cls-2" d="M30.09,90.58C27.66,86.79,22.81,85.88,19,84c-1.77-.86-3.89-1.68-5-3.43-1.82-2.88,2.34-2.26,3.91-1.33C19,80,20,80.89,21.05,81.68c2.91,2.1,5.95,3.94,8.41,6.61"/><path class="cls-1" d="M21.27,75.25c-3.35-3.14-8-6.1-12.5-7.1-1.62-.36-6.64.42-4.72,3.24,1.71,2.49,5.61,2.57,8.24,3.27,4.86,1.28,9.91,3.14,13.77,6.46"/><path class="cls-2" d="M51.46,148.37c5.32-8.93,13.15-17,22.62-21.54,3.16-1.5,7-3.07,10.62-3,1.34,0,3.84.67,3.17,2.57-1.57,4.49-9.14,6.75-13,8.27-8.67,3.43-18.43,6.85-24.37,14.44"/><path class="cls-2" d="M37.21,108.3c-5.49-2.81-10.08-4.24-16.35-4.28-.36,0-.72,0-1.08,0s-.62,0-.93.08c-.79.07-6.35.93-4.09,2.73,2,1.64,5.24.72,7.59.46C27.22,106.73,32.46,106.51,37.21,108.3Z"/><path class="cls-1" d="M46.12,118.14a24.62,24.62,0,0,0-19.22-5.87c-.95.11-1.52.22-2.46.38-1.27.22-8.19,1.71-5.88,4.4,2,2.26,6.15,1.17,8.62.82,5.36-.75,13.46-3.34,18.46-.17"/><path class="cls-2" d="M51.44,130.24c-2-4.73-8-7.61-12.84-8.21a14.78,14.78,0,0,0-5.66.27c-.12,0-1.58.42-1.54.67.37,2,4,2,5.4,2.18,4.62.61,10.17,1.11,14.13,3.77"/><path class="cls-2" d="M63.11,98.31c-2.28-9.47-6.11-18.69-14-24.8-.49-.38-1-.73-1.51-1.08s-1-.63-1.44-.94-.92-.56-1.39-.82c-.93-.51-6-3-6.38-.36-.39,2.87,4.92,6,6.83,7.37,6.17,4.43,13.45,9.79,17,16.73"/><path class="cls-1" d="M60,73.81A41,41,0,0,0,39.79,56.26c-3.09-1.25-6.52-2.37-9.9-2-.73.07-3.12.41-2.72,1.71a3.52,3.52,0,0,0,2.09,1.87c2.38,1.07,4.93,1.77,7.36,2.71C43.83,63.34,52.84,66.66,58,72.74"/><path class="cls-1" d="M54.26,58.24c-.77-2.4-3-4.38-4.84-6A42.09,42.09,0,0,0,30.05,43a29.32,29.32,0,0,0-9-.54c-.63.07-2.58.41-2.44,1.45.43,3.08,6.9,3.44,9,3.86,8.53,1.71,18.14,3.66,25,9.47"/><path class="cls-1" d="M49.2,46.1A45.75,45.75,0,0,0,24.8,29.66c-3.11-.84-6.6-1.8-9.86-1.38-.71.09-3.17.45-2.82,1.72.25.93,1.39,1.5,2.21,1.91A29,29,0,0,0,21.48,34c8.88,1.86,17.34,4,25.14,8.82"/><path class="cls-1" d="M40.28,31.88C35.23,27,30,23.44,24.05,19.64c-5.26-3.36-10.67-7.75-13.7-13.34C8.94,3.7,8.39-.62,12.76.07,17.28.79,21.1,5.15,24,8.37A126.05,126.05,0,0,1,43.12,35.74"/><path class="cls-1" d="M48.08,42.67c-.8-5.71-2.78-11.3-3.95-17-1.11-5.34-2.83-11.48-1.66-17C43.06,6,45.58,1,48.13,5.67a9.9,9.9,0,0,1,.59,1.46c3.82,13.73-1.34,28.44,1.72,42.16"/><path class="cls-1" d="M57,62.67c-1.41-3.81-1.52-8-1.72-12-.41-7.8-.41-16,1.74-23.55a21.11,21.11,0,0,1,4.77-9c.57-.58,2.22-1.89,3-1.07,2.89,2.85,0,10-.86,13.05-2.93,10.4-7,20.16-7.45,31.09"/><path class="cls-1" d="M61.48,79.86c-.81-12.07,1.87-26.17,7.59-36.9.46-.87,1-1.75,1.46-2.6.77-1.31,6.61-10.1,8.58-6.07,2.07,4.22-2.57,11.09-4.46,14.51-5.33,9.65-11.41,20.29-12.5,31.55"/><path class="cls-2" d="M64,91.17c.11-.3.19-.6.31-.9,1.09-2.6,2.41-5.1,3.66-7.62a55,55,0,0,1,3-5.44c2.13-3.25,4.47-6.35,6.88-9.41,3.61-4.59,7.4-9.06,11.17-13.5a.08.08,0,0,0,0-.1.06.06,0,0,0-.09,0c-3.22,3.64-6.51,7.25-9.6,11A121.27,121.27,0,0,0,70.79,77c-.86,1.33-1.61,2.7-2.33,4.09C67,84.06,65.87,87.18,64.23,90c-.19.32-.41.61-.61.91a.24.24,0,0,0,.42.22Z"/><path class="cls-2" d="M62.06,78.17a18.52,18.52,0,0,1,.1-3c.17-1.51.45-3,.67-4.49a67.42,67.42,0,0,1,2.76-11.45c1.21-3.68,2.68-7.28,4.32-11,1.43-3.32,2.83-6.76,4.38-10.08.67-1.43,1.35-2.84,2.11-4.2a.1.1,0,0,0,0-.12.09.09,0,0,0-.11,0c-1.09,1.77-2.09,3.63-3,5.53-1.38,2.84-2.59,5.77-3.86,8.6a117.69,117.69,0,0,0-4.32,11,67.08,67.08,0,0,0-2.72,11.55c-.22,1.5-.5,3-.65,4.52a17.37,17.37,0,0,0-.09,3.06.24.24,0,0,0,.47,0Z"/><path class="cls-2" d="M56.54,59.3a119.27,119.27,0,0,1,1.85-20A146.51,146.51,0,0,1,63.1,19.81a.05.05,0,0,0,0-.07s-.06,0-.07,0a128.85,128.85,0,0,0-5.21,19.44A108.85,108.85,0,0,0,56.07,59.3a.23.23,0,0,0,.23.23A.23.23,0,0,0,56.54,59.3Z"/><path class="cls-2" d="M49.31,43,46.05,10a.19.19,0,0,0-.21-.18.19.19,0,0,0-.17.2c.21,3.32.44,6.63.74,9.93.69,7.71,1.62,15.4,2.43,23.1a.24.24,0,0,0,.26.21A.24.24,0,0,0,49.31,43Z"/><path class="cls-2" d="M40.3,31c-.3-.29-.61-.57-.89-.89-2.5-2.83-4.46-6.1-7-8.9A116.44,116.44,0,0,0,23.87,13c-3-2.6-6.14-5.05-9.23-7.37a.15.15,0,0,0-.2,0,.14.14,0,0,0,0,.2c3,2.4,6,5,9,7.62s5.83,5.35,8.47,8.17c1.16,1.19,2.25,2.45,3.3,3.75,1.58,2,3.07,4,4.71,5.89a.24.24,0,0,0,.34,0A.24.24,0,0,0,40.3,31Z"/><path class="cls-2" d="M45.91,42a45.82,45.82,0,0,0-9.59-5.63A60,60,0,0,0,25.7,33.05c-1.45-.32-2.84-.67-4.27-.92a22.76,22.76,0,0,0-2.9-.32.16.16,0,0,0-.17.15.15.15,0,0,0,.15.16,22.36,22.36,0,0,1,2.86.38c1.41.27,2.79.65,4.22,1A65.21,65.21,0,0,1,36.06,37a48.64,48.64,0,0,1,9.57,5.4.24.24,0,0,0,.33,0A.25.25,0,0,0,45.91,42Z"/><path class="cls-2" d="M52.92,56.13a48.61,48.61,0,0,0-8.66-5.71,45.45,45.45,0,0,0-9.69-3.72,59.11,59.11,0,0,0-5.87-1.16c-2-.3-3.95-.5-5.92-.77a.11.11,0,1,0,0,.22l11.71,2.2A45.13,45.13,0,0,1,44,50.86a48.18,48.18,0,0,1,8.58,5.64.24.24,0,0,0,.33,0A.25.25,0,0,0,52.92,56.13Z"/><path class="cls-2" d="M58,71.14a15.29,15.29,0,0,0-2.2-2.61c-1.22-1.18-2.59-2.21-3.9-3.25a42.72,42.72,0,0,0-9.86-5.79,79.16,79.16,0,0,0-10.85-3.57.13.13,0,0,0-.07.25,78.49,78.49,0,0,1,12.77,4.75,43.26,43.26,0,0,1,7.69,4.76c1.31,1,2.66,2,3.88,3.2a14.71,14.71,0,0,1,2.14,2.52.24.24,0,1,0,.4-.26Z"/><path class="cls-2" d="M16.32,55.71a12.58,12.58,0,0,0-.07,4.15,31.64,31.64,0,0,0,1.61,5.94c.67,1.85,1.36,3.66,2.16,5.41a46.88,46.88,0,0,0,2.72,5.14.06.06,0,1,0,.11,0c-.75-1.38-1.4-2.77-2-4.18-.91-2.12-1.71-4.27-2.46-6.5a31.45,31.45,0,0,1-1.62-5.84,12.36,12.36,0,0,1,0-4,.24.24,0,0,0-.19-.28A.23.23,0,0,0,16.32,55.71Z"/><path class="cls-2" d="M20,72.88a9.43,9.43,0,0,1-1.54-1.07c-1.12-1-2.09-2.17-3.11-3.19L3.24,55.71a.1.1,0,1,0-.14.14c2.86,3,5.47,6.21,8.21,9.3C12.5,66.48,13.7,67.78,15,69c.91.85,1.8,1.81,2.75,2.68a12.4,12.4,0,0,0,2.06,1.58.25.25,0,0,0,.33-.09A.23.23,0,0,0,20,72.88Z"/><path class="cls-2" d="M23.51,77.59a73.13,73.13,0,0,0-6-4.26,20.72,20.72,0,0,0-4.48-2.06,15.33,15.33,0,0,0-2.32-.45,34.45,34.45,0,0,0-3.5-.17.13.13,0,0,0-.12.11.11.11,0,0,0,.11.11c.93.1,1.9.22,2.86.38a17.19,17.19,0,0,1,2.77.66,19.88,19.88,0,0,1,4.35,2c2.09,1.21,4,2.68,6,4.1a.24.24,0,0,0,.33,0A.25.25,0,0,0,23.51,77.59Z"/><path class="cls-2" d="M45.64,116.37a14.88,14.88,0,0,0-.35-3.54,35.13,35.13,0,0,0-1.58-5c-.58-1.57-1.18-3.13-1.85-4.65-.45-1-.94-2-1.48-3a.15.15,0,0,0-.2,0,.14.14,0,0,0-.06.19c.53,1,1,2,1.44,3,.66,1.52,1.24,3.08,1.8,4.64a36.55,36.55,0,0,1,1.51,5,14.55,14.55,0,0,1,.3,3.44.22.22,0,0,0,.22.24A.24.24,0,0,0,45.64,116.37Z"/><path class="cls-2" d="M51.23,127a14.2,14.2,0,0,0,2-5.79,41,41,0,0,0-.07-9.15A.14.14,0,0,0,53,112a.15.15,0,0,0-.14.16,41.08,41.08,0,0,1-.07,9.06,13.77,13.77,0,0,1-2,5.59.24.24,0,0,0,.4.26Z"/><path class="cls-2" d="M30.22,102.32c-.33-.2-.67-.38-1-.59a85.4,85.4,0,0,0-8.68-5.35c-3.38-1.69-6.9-3.1-10.38-4.54a.12.12,0,0,0-.15.07.12.12,0,0,0,.06.16c4.13,1.78,8.29,3.61,12.28,5.74a37.9,37.9,0,0,1,6.91,4.24,7.84,7.84,0,0,1,.65.64.24.24,0,1,0,.29-.37Z"/><path class="cls-2" d="M43.33,115.41A56.45,56.45,0,0,0,36.55,114a24.25,24.25,0,0,0-4.64-.18,21.56,21.56,0,0,0-2.26.32c-1.71.34-3.38.86-5.1,1.19a.14.14,0,0,0-.12.17.16.16,0,0,0,.17.13L32,114.49a23.77,23.77,0,0,1,4.52.14,56.26,56.26,0,0,1,6.74,1.24.24.24,0,0,0,.29-.17A.24.24,0,0,0,43.33,115.41Z"/><path class="cls-1" d="M62.34,111.78c2.1-4,4.06-8.16,6.39-12.08a46,46,0,0,1,5.33-7.35,27.88,27.88,0,0,1,2.61-2.48c2.14-1.81,4.5-3.43,6.67-5.16a.08.08,0,0,0,0-.1.07.07,0,0,0-.1,0c-1.9,1.44-4,2.78-5.86,4.27a27.76,27.76,0,0,0-3.57,3.27,47.7,47.7,0,0,0-5.35,7.41c-2.36,3.91-4.41,8.07-6.56,12a.24.24,0,0,0,.1.32A.23.23,0,0,0,62.34,111.78Z"/><path class="cls-1" d="M60.69,124a.61.61,0,0,1,.16-.4c.62-.67,1.8-1.76,2-1.93l4.39-3.94c2.27-1.85,4.32-3.92,6.54-5.81a35.39,35.39,0,0,1,3-2.3,20.4,20.4,0,0,1,2.56-1.47c1.31-.66,2.66-1.23,4-1.84a.07.07,0,0,1,.09,0,.08.08,0,0,1,0,.1c-1.33.64-2.67,1.24-4,1.93a19.83,19.83,0,0,0-2.47,1.53,30,30,0,0,0-2.88,2.37c-2.16,2-4.13,4.13-6.33,6.07l-4.26,4a16.86,16.86,0,0,1-2.09,1.91c-.63.42-1.14.17-1-.06a.24.24,0,0,1,.29-.17Z"/><path class="cls-1" d="M54.54,144.32,57,142.51l6.37-4.71,7.43-4c2.35-1.42,4.61-2.88,7-4.18a40.49,40.49,0,0,1,4.87-2.35.07.07,0,0,0,0-.1.07.07,0,0,0-.1,0,40.28,40.28,0,0,0-5,2.17c-2.41,1.24-4.71,2.66-7.1,4-1.7,1-3.52,1.77-5.26,2.7a21.52,21.52,0,0,0-2.2,1.34l-6.34,4.77-2.41,1.79a.25.25,0,0,0-.11.32A.23.23,0,0,0,54.54,144.32Z"/><path class="cls-1" d="M61.67,117a28,28,0,0,0-1.24-5.29c-.58-1.73-1.32-3.4-2-5a69,69,0,0,0-5.2-9.48,72.94,72.94,0,0,0-6.64-8.51.23.23,0,0,0-.34.3,82.06,82.06,0,0,1,6.23,8.69,76.4,76.4,0,0,1,5.06,9.4C58.39,109,59.24,111,60,113a31.61,31.61,0,0,1,1.22,4.07.24.24,0,0,0,.27.19A.23.23,0,0,0,61.67,117Z"/><path class="cls-1" d="M62.63,93.76a38.54,38.54,0,0,0-6.44-9.35A85.17,85.17,0,0,0,43.13,73.52a.12.12,0,0,0-.17,0,.14.14,0,0,0,0,.17,90.4,90.4,0,0,1,12.8,11.07A39.47,39.47,0,0,1,62.21,94a.23.23,0,1,0,.42-.21Z"/><path class="cls-1" d="M28.32,87.23a41.24,41.24,0,0,0-4.22-2.61,66.88,66.88,0,0,0-6.78-3,.1.1,0,0,0-.13,0,.11.11,0,0,0,0,.14c1.85.84,3.68,1.78,5.51,2.73a59,59,0,0,1,5.3,3.08.23.23,0,0,0,.33-.06A.25.25,0,0,0,28.32,87.23Z"/><path class="cls-1" d="M28,84.42a10.38,10.38,0,0,1-.4-2.58c-.06-1.36,0-2.75,0-4,0-1.46-.13-2.92-.15-4.38,0-1,0-1.93.11-2.89a.22.22,0,0,0-.2-.24.21.21,0,0,0-.24.2A24.08,24.08,0,0,0,27,73.45c0,1.46.09,2.92.13,4.38,0,1.27-.07,2.67,0,4a10.88,10.88,0,0,0,.42,2.7.24.24,0,0,0,.3.16A.24.24,0,0,0,28,84.42Z"/><path class="cls-1" d="M37.3,108.33c-1.54-.68-3-1.39-4.56-2a20,20,0,0,0-3.23-.9,22.48,22.48,0,0,0-4.42-.35,57.14,57.14,0,0,0-6.56.65.12.12,0,1,0,0,.24c2.14-.17,4.35-.3,6.53-.28a26.88,26.88,0,0,1,4.32.33,18.7,18.7,0,0,1,3.13.84c1.55.54,3,1.21,4.58,1.86a.23.23,0,0,0,.31-.12A.24.24,0,0,0,37.3,108.33Z"/><path class="cls-1" d="M51,128.54A19.09,19.09,0,0,0,45.66,125a36.66,36.66,0,0,0-9.32-2.39.07.07,0,0,0-.09.06.08.08,0,0,0,.06.09,50.36,50.36,0,0,1,7.63,2.2,21.82,21.82,0,0,1,6.77,4,.24.24,0,0,0,.34,0A.23.23,0,0,0,51,128.54Z"/><path class="cls-1" d="M50.25,150.07c.12-.06.19,0,.28-.14a5.49,5.49,0,0,0,1-2c3.3-7.39,2.8-15-.17-22.22-3.53-8.57-10.47-16.79-19.1-22.89A59.44,59.44,0,0,0,25.85,99a.25.25,0,0,0-.27.41c1.94,1.52,3.75,3.18,5.63,4.79,7.79,6.63,14.77,14,18.34,22.27,2.92,6.75,3.64,13.83,1,21a9.4,9.4,0,0,0-.8,2c0,.13,0,.17.07.3a.24.24,0,0,0,.1.32A.23.23,0,0,0,50.25,150.07Z"/><path class="cls-1" d="M46.31,116.65a1.41,1.41,0,0,0,0-.29,8.86,8.86,0,0,0-1.14-1.86c-1.59-2.59-3.23-5.4-4.86-8.36-1.78-3.23-3.51-6.64-5.31-10C32.21,91,29.32,85.88,26.71,81.28a40.7,40.7,0,0,0-5.84-7.74,85.58,85.58,0,0,0-11-9.22.2.2,0,0,0-.3,0,.21.21,0,0,0,0,.31,94.24,94.24,0,0,1,10.14,9.91A40.87,40.87,0,0,1,25,82.24c2.14,4,4.34,8.48,6.76,12.91,1.55,2.85,3.2,5.69,4.88,8.44a95.68,95.68,0,0,0,8.15,12.17c.37.43.77.78,1.16,1.17a.23.23,0,0,0,.33,0A.24.24,0,0,0,46.31,116.65Z"/><path class="cls-1" d="M31.15,21.24c0,.36-.13.45,0,.78.63,1.58,2.25,2.55,3.35,3.87a109.55,109.55,0,0,1,13.8,21.42,129.24,129.24,0,0,1,9,23.86c5.08,18.83,6,38.82,1.51,56.17a90.36,90.36,0,0,1-8.07,20.58,143.76,143.76,0,0,1-12,18.8.22.22,0,0,0,0,.31.23.23,0,0,0,.32,0,134.42,134.42,0,0,0,15-22.35,86.32,86.32,0,0,0,6.73-16.77c4.69-17.68,4.07-38.12-1-57.38a122.09,122.09,0,0,0-9.23-24.36A98.64,98.64,0,0,0,35.94,24.64c-1.18-1.29-2.08-3-3.67-3.71-.33-.14-.43,0-.79,0a.24.24,0,0,0-.33,0A.23.23,0,0,0,31.15,21.24Z"/></g></g></svg>