<svg width="921" height="1042" viewBox="0 0 921 1042" fill="none" xmlns="http://www.w3.org/2000/svg">
<path d="M116.183 812.943C115.004 811.606 114.115 809.858 113.123 808.387L105.634 797.24L88.4505 771.629L84.4468 765.662C81.7889 761.698 87.6606 757.092 90.345 761.092L118.247 802.684C119.484 804.526 120.608 806.712 122.098 808.395C125.264 811.989 119.383 816.53 116.2 812.965L116.183 812.943Z" fill="#D97706"/>
<path d="M75.3916 684.694L86.4817 701.23L113.132 740.944L145.382 789.012L173.285 830.589C177.815 837.338 182.464 844.032 186.879 850.847C186.941 850.949 187.01 851.043 187.074 851.141C189.732 855.104 183.86 859.71 181.175 855.711L170.081 839.173L143.433 799.455L111.185 751.393L83.2865 709.817C78.7568 703.069 74.1078 696.375 69.6941 689.555L69.4979 689.266C66.84 685.303 72.7117 680.696 75.3961 684.696L75.3916 684.694Z" fill="#D97706"/>
<path d="M81.8461 640.232L96.6698 662.323L132.116 715.156L175.111 779.231L212.128 834.409C218.111 843.328 224.248 852.17 230.093 861.187C230.171 861.311 230.256 861.432 230.34 861.554C232.998 865.517 227.126 870.123 224.442 866.123L209.618 844.032L174.172 791.199L131.178 727.125L94.1597 671.946C88.1727 663.025 82.0362 654.183 76.1907 645.166C76.1125 645.042 76.028 644.921 75.9436 644.8C73.2856 640.836 79.1573 636.23 81.8417 640.23L81.8461 640.232Z" fill="#D97706"/>
<path d="M263.914 869.72C262.591 869.187 261.992 868.002 261.252 866.898L257.908 861.915L245.451 843.352L203.964 781.505L153.544 706.366L109.858 641.259C102.765 630.708 95.5326 620.209 88.5816 609.547L88.2543 609.087C85.5964 605.123 91.4681 600.517 94.1525 604.517L111.55 630.451L153.046 692.301L203.498 767.473L246.849 832.076L261.144 853.38C263.387 856.72 265.984 860.007 267.946 863.521C268.036 863.68 268.152 863.825 268.274 863.981L266.7 862.798C271.15 864.592 268.365 871.514 263.91 869.718L263.914 869.72Z" fill="#D97706"/>
<path d="M110.271 574.43L115.451 582.159L129.46 603.04L150.281 634.066L175.559 671.74L203.374 713.205L231.432 755.035L257.529 793.87L279.645 826.884L295.499 850.489C298.014 854.235 300.58 857.957 303.046 861.735L303.366 862.213C306.024 866.176 300.152 870.782 297.468 866.783L292.292 859.056L278.278 838.173L257.458 807.147L232.18 769.473L204.365 728.008L176.285 686.154L150.218 647.311L128.089 614.327L112.246 590.707C109.732 586.96 107.166 583.239 104.7 579.46L104.38 578.983C101.722 575.019 107.593 570.413 110.278 574.413L110.271 574.43Z" fill="#D97706"/>
<path d="M129.465 548.937L135.025 557.224L150.15 579.765L172.525 613.115L199.825 653.799L229.728 698.367L259.918 743.353L288.066 785.302L311.851 820.753L328.957 846.251C331.654 850.271 334.406 854.268 337.057 858.326L337.403 858.84C340.061 862.803 334.189 867.409 331.505 863.41L325.93 855.132L310.808 832.587L288.431 799.241L261.131 758.558L231.228 713.99L201.038 669.003L172.889 627.055L149.133 591.61L132.025 566.116C129.33 562.092 126.578 558.095 123.925 554.042L123.579 553.528C120.921 549.564 126.793 544.958 129.477 548.958L129.465 548.937Z" fill="#D97706"/>
<path d="M151.651 527.938L157.571 536.759L173.578 560.645L197.241 595.915L226.108 638.932L257.727 686.033L289.764 733.815L319.537 778.145L344.677 815.625L362.775 842.595C365.663 846.877 368.568 851.119 371.381 855.422C371.498 855.603 371.619 855.785 371.743 855.963C374.4 859.926 368.529 864.532 365.844 860.533L359.925 851.711L343.918 827.825L320.255 792.556L291.378 749.576L259.759 702.475L227.722 654.693L197.967 610.343L172.813 572.858L154.716 545.888C151.827 541.607 148.923 537.364 146.109 533.061C145.993 532.881 145.871 532.699 145.748 532.521C143.09 528.557 148.962 523.951 151.646 527.951L151.651 527.938Z" fill="#D97706"/>
<path d="M177.198 511.933L183.367 521.127L200.145 546.155L224.856 582.984L255.124 628.095L288.286 677.499L321.748 727.394L352.96 773.89L379.222 813.041L398.195 841.323C401.19 845.786 404.238 850.22 407.157 854.704C407.284 854.899 407.414 855.084 407.543 855.275C410.201 859.238 404.329 863.844 401.645 859.845L395.475 850.651L378.692 825.636L353.982 788.807L323.713 743.696L290.592 694.293L257.13 644.398L225.923 597.889L199.662 558.737L180.688 530.456C177.693 525.992 174.645 521.559 171.726 517.075C171.599 516.88 171.469 516.694 171.341 516.504C168.683 512.541 174.554 507.934 177.239 511.934L177.198 511.933Z" fill="#D97706"/>
<path d="M204.192 498.05L210.674 507.713L228.313 534.001L254.401 572.883L286.244 620.346L321.086 672.299L356.27 724.739L388.936 773.441L416.668 814.77L436.606 844.487C439.751 849.175 442.943 853.835 446.043 858.546C446.173 858.747 446.313 858.947 446.444 859.143C449.102 863.107 443.23 867.713 440.545 863.713L434.063 854.05L416.436 827.772L390.348 788.89L358.517 741.447L323.656 689.491L288.472 637.052L255.807 588.345L228.076 547.016L208.136 517.304C204.99 512.616 201.798 507.955 198.698 503.244C198.569 503.043 198.433 502.845 198.298 502.647C195.64 498.684 201.512 494.077 204.196 498.077L204.192 498.05Z" fill="#D97706"/>
<path d="M482.946 871.67C481.429 871.058 480.599 869.314 479.737 868.033L474.727 860.568L456.076 832.77L428.457 791.594L394.552 741.069L357.5 685.846L319.937 629.858L284.893 577.628L255.369 533.623L234.054 501.854C230.696 496.854 227.306 491.883 223.983 486.847L223.547 486.199C220.889 482.236 226.76 477.63 229.445 481.629L236.382 491.969L255.084 519.843L282.939 561.325L316.657 611.615L353.854 667.087L391.142 722.626L426.167 774.837L455.555 818.634L476.837 850.348C480.161 855.303 483.754 860.166 486.847 865.275C486.985 865.494 487.139 865.71 487.284 865.922L485.732 864.748C490.182 866.542 487.397 873.464 482.942 871.668L482.946 871.67Z" fill="#D97706"/>
<path d="M253.151 462.888L260.465 473.784L280.355 503.43L309.768 547.278L345.533 600.567L384.694 658.912L424.353 718.022L461.328 773.127L492.564 819.679L514.951 853.039C518.491 858.311 522.072 863.56 525.57 868.861L526.027 869.558C528.685 873.522 522.813 878.128 520.129 874.128L512.816 863.232L492.926 833.587L463.511 789.743L427.744 736.458L388.583 678.113L348.924 619.003L311.948 563.898L280.713 517.346L258.327 483.982C254.809 478.718 251.206 473.461 247.709 468.159C247.558 467.924 247.385 467.691 247.251 467.462C244.594 463.499 250.465 458.893 253.15 462.892L253.151 462.888Z" fill="#D97706"/>
<path d="M275.477 442.078L283.097 453.461L303.849 484.388L334.431 529.942L371.717 585.511L412.689 646.576L454.045 708.216L492.481 765.5L524.976 813.927L548.424 848.864C552.117 854.367 555.856 859.848 559.506 865.381C559.662 865.618 559.83 865.85 559.972 866.082C562.63 870.045 556.759 874.651 554.074 870.651L546.448 859.286L525.695 828.359L495.119 782.791L457.829 727.205L416.855 666.145L375.499 604.505L337.063 547.222L304.573 498.795L281.134 463.863C277.44 458.359 273.702 452.878 270.051 447.345C269.896 447.108 269.728 446.877 269.585 446.645C266.927 442.681 272.799 438.075 275.483 442.075L275.477 442.078Z" fill="#D97706"/>
<path d="M296.512 419.357L304.362 431.059L325.667 462.778L357.111 509.639L395.577 567.001L437.601 629.628L480.021 692.825L519.688 751.953L553.093 801.759L577.114 837.567C580.916 843.232 584.761 848.854 588.516 854.561C588.672 854.798 588.836 855.039 588.995 855.267C591.653 859.231 585.781 863.837 583.097 859.837L575.261 848.126L553.987 816.419L522.543 769.558L484.048 712.205L442.024 649.578L399.619 586.367L359.951 527.243L326.54 477.451L302.529 441.621C298.731 435.957 294.881 430.334 291.127 424.626C290.971 424.389 290.807 424.148 290.647 423.92C287.99 419.957 293.861 415.351 296.546 419.35L296.512 419.357Z" fill="#D97706"/>
<path d="M316.048 394.376L324.029 406.274L345.749 438.642L377.868 486.539L417.07 544.937L459.991 608.9L503.343 673.513L543.749 733.745L577.906 784.637L602.462 821.2C606.335 826.971 610.248 832.717 614.079 838.517L614.58 839.231C617.238 843.195 611.366 847.801 608.682 843.801L600.701 831.903L578.981 799.535L546.855 751.656L507.662 693.236L464.74 629.273L421.399 564.685L380.952 504.467L346.808 453.58L322.251 417.017C318.379 411.247 314.467 405.496 310.635 399.701L310.134 398.986C307.476 395.022 313.348 390.416 316.032 394.416L316.048 394.376Z" fill="#D97706"/>
<path d="M333.427 366.198L341.563 378.323L363.696 411.309L396.426 460.093L436.229 519.415L479.816 584.374L523.939 650.139L565.081 711.457L599.855 763.26L624.741 800.391C628.675 806.253 632.651 812.097 636.554 817.972C636.722 818.229 636.893 818.478 637.063 818.731C639.721 822.694 633.849 827.301 631.165 823.301L623.029 811.176L600.896 778.191L568.173 729.389L528.37 670.067L484.783 605.107L440.656 539.341L399.503 478.039L364.746 426.243L339.836 389.118C335.903 383.256 331.927 377.412 328.024 371.537C327.856 371.28 327.685 371.031 327.515 370.778C324.857 366.815 330.729 362.208 333.413 366.208L333.427 366.198Z" fill="#D97706"/>
<path d="M349.39 335.901L357.622 348.167L380.013 381.543L412.995 430.732L453.274 490.733L497.493 556.639L542.13 623.165L583.622 685.014L618.694 737.286L644 774.991C647.983 780.934 652.012 786.851 655.96 792.816L656.463 793.567C659.121 797.53 653.249 802.137 650.565 798.137L642.334 785.866L619.942 752.494L586.937 703.296L546.691 643.304L502.456 577.386L457.819 510.86L416.327 449.011L381.256 396.735L355.948 359.034C351.966 353.091 347.915 347.166 343.99 341.205C343.825 340.953 343.653 340.705 343.486 340.458C340.828 336.495 346.7 331.888 349.384 335.888L349.39 335.901Z" fill="#D97706"/>
<path d="M364.924 304.974L373.155 317.244L395.562 350.617L428.575 399.819L468.83 459.84L513.065 525.758L557.707 592.297L599.228 654.162L634.293 706.441L659.597 744.151C663.586 750.092 667.631 756.019 671.561 761.977L672.064 762.729C674.722 766.692 668.85 771.298 666.166 767.298L657.935 755.028L635.533 721.641L602.52 672.44L562.26 612.432L518.03 546.511L473.38 479.969L431.874 418.115L396.792 365.829L371.488 328.119C367.499 322.179 363.454 316.251 359.525 310.288C359.36 310.037 359.188 309.789 359.021 309.542C356.363 305.578 362.235 300.972 364.919 304.972L364.924 304.974Z" fill="#D97706"/>
<path d="M381.11 275.012L389.214 287.088L411.085 319.691L443.409 367.856L483.069 426.961L526.237 491.305L569.819 556.262L610.692 617.179L645.018 668.34L669.713 705.143C673.623 710.975 677.579 716.78 681.453 722.638L681.952 723.383C684.61 727.346 678.738 731.952 676.054 727.953L667.952 715.872L646.079 683.273L613.766 635.119L574.108 576.009L530.929 511.655L487.345 446.702L446.472 385.785L412.146 334.624L387.45 297.821C383.541 291.99 379.585 286.185 375.711 280.327L375.212 279.582C372.554 275.618 378.425 271.012 381.11 275.012Z" fill="#D97706"/>
<path d="M681.724 681.174C680.123 680.529 679.192 678.553 678.287 677.225L672.747 668.936L652.026 638.022L621.171 592.101L583.485 535.934L542.171 474.342L500.429 412.111L461.469 354.042L428.51 304.934L404.81 269.604C401.072 263.995 397.275 258.455 393.565 252.842L393.072 252.131C390.414 248.167 396.286 243.561 398.97 247.561L406.652 259.031L427.599 290.251L458.471 336.256L496.112 392.358L537.485 453.979L579.097 516.014L617.906 573.848L650.807 622.881L674.446 658.11C678.149 663.627 682.126 669.051 685.591 674.724C685.741 674.964 685.913 675.197 686.066 675.428L684.514 674.254C688.965 676.048 686.179 682.97 681.724 681.174Z" fill="#D97706"/>
<path d="M419.374 223.874L426.661 234.733L446.495 264.264L475.711 307.802L511.453 361.108L550.619 419.48L590.015 478.197L626.884 533.136L658.028 579.533L680.352 612.796C683.87 618.059 687.466 623.308 690.954 628.607L691.407 629.276C694.065 633.24 688.194 637.846 685.509 633.846L678.215 623.004L658.382 593.473L629.177 549.91L593.425 496.626L554.251 438.275L514.854 379.558L477.995 324.623L446.846 278.224L424.524 244.957C421.004 239.698 417.408 234.449 413.919 229.151L413.466 228.481C410.808 224.517 416.68 219.911 419.364 223.911L419.374 223.874Z" fill="#D97706"/>
<path d="M442.967 204.958L449.897 215.29L468.674 243.271L496.416 284.625L530.261 335.059L567.325 390.302L604.872 446.279L639.754 498.285L669.215 542.218L690.48 573.911C693.814 578.88 697.194 583.826 700.485 588.825L700.922 589.472C703.58 593.436 697.708 598.042 695.024 594.042L688.139 583.698L669.362 555.717L641.618 514.367L607.78 463.931L570.712 408.686L533.159 352.722L498.281 300.718L468.794 256.774L447.529 225.082C444.195 220.113 440.815 215.166 437.523 210.168L437.087 209.52C434.429 205.557 440.301 200.951 442.985 204.95L442.967 204.958Z" fill="#D97706"/>
<path d="M470.184 191.437L476.751 201.207L494.405 227.521L520.674 266.717L552.516 314.169L587.642 366.524L622.843 418.986L655.905 468.258L683.664 509.583L703.753 539.524C706.901 544.218 710.097 548.881 713.208 553.591C713.34 553.798 713.48 553.998 713.618 554.202C716.276 558.165 710.404 562.772 707.72 558.772L701.172 549.005L683.502 522.705L657.208 483.519L625.352 436.077L590.226 383.722L555.025 331.26L521.963 281.988L494.229 240.653L474.14 210.711C470.992 206.017 467.796 201.355 464.685 196.645C464.553 196.438 464.413 196.238 464.275 196.033C461.617 192.07 467.489 187.464 470.173 191.463L470.184 191.437Z" fill="#D97706"/>
<path d="M722.802 527.211L716.698 518.085L700.157 493.435L675.718 457.012L645.912 412.575L613.26 363.915L580.164 314.588L549.41 268.774L523.433 230.06L504.683 202.115C501.762 197.763 498.499 193.469 495.849 188.95C495.736 188.76 495.599 188.577 495.474 188.393L497.048 189.576C492.593 187.781 495.378 180.859 499.838 182.656C501.275 183.236 502.015 184.759 502.832 185.976L507.226 192.526L523.629 216.972L548.014 253.373L577.885 297.892L610.652 346.727L643.622 395.87L674.538 441.918L700.655 480.843L719.438 508.832C722.397 513.245 725.4 517.625 728.316 522.067C728.443 522.261 728.576 522.453 728.704 522.643C731.362 526.607 725.49 531.213 722.806 527.213L722.802 527.211Z" fill="#D97706"/>
<path d="M738.093 495.92L732.559 487.669L717.508 465.225L695.23 432.016L668.041 391.501L638.251 347.112L608.189 302.305L580.156 260.526L556.451 225.21L539.412 199.81C536.743 195.837 533.714 191.929 531.335 187.771C531.227 187.594 531.1 187.425 530.984 187.255L532.558 188.438C528.103 186.642 530.888 179.72 535.348 181.518C536.737 182.078 537.42 183.461 538.195 184.629L542.199 190.597L557.081 212.773L579.333 245.945L606.453 286.362L636.339 330.907L666.547 375.901L694.609 417.722L718.441 453.244L735.516 478.694C738.227 482.73 740.987 486.745 743.653 490.814C743.762 490.991 743.882 491.163 743.998 491.333C746.656 495.296 740.784 499.902 738.1 495.902L738.093 495.92Z" fill="#D97706"/>
<path d="M749.644 459.05L731.91 432.616L689.335 369.167L637.891 292.436L593.634 226.484L578.896 204.534C576.636 201.162 573.948 197.833 572.007 194.266C571.915 194.113 571.816 193.965 571.709 193.823L573.283 195.006C568.828 193.21 571.614 186.288 576.073 188.086C577.396 188.619 578.005 189.829 578.752 190.94L582.164 196.022L595.031 215.197L637.4 278.394L688.867 355.104L733.635 421.826C740.835 432.558 748.198 443.202 755.244 454.037C755.342 454.189 755.443 454.332 755.543 454.48C758.201 458.443 752.329 463.049 749.644 459.05Z" fill="#D97706"/>
<path d="M753.878 411.282L740.573 391.454L708.628 343.837L669.99 286.216L636.589 236.438L625.591 220.042C623.901 217.53 621.736 214.991 620.371 212.297C620.304 212.183 620.231 212.072 620.15 211.967L621.724 213.15C617.269 211.354 620.055 204.432 624.514 206.23C626.688 207.107 628.209 210.596 629.417 212.396L639.019 226.747L670.791 274.105L709.685 332.07L743.156 381.968C748.619 390.103 754.235 398.162 759.55 406.396L759.771 406.726C762.429 410.689 756.557 415.295 753.873 411.296L753.878 411.282Z" fill="#D97706"/>
<path d="M735.474 329.761C722.384 310.604 709.616 291.223 696.693 271.959C694.932 269.331 693.339 266.212 691.249 263.842C688.083 260.248 693.964 255.707 697.147 259.272C698.844 261.192 700.132 263.721 701.558 265.844L712.132 281.587L735.918 317.085C737.734 319.792 739.528 322.515 741.362 325.203C744.057 329.15 738.183 333.75 735.464 329.772L735.474 329.761Z" fill="#D97706"/>
</svg>
