<svg width="680" height="1198" viewBox="0 0 680 1198" fill="none" xmlns="http://www.w3.org/2000/svg"><path fill-rule="evenodd" clip-rule="evenodd" d="M426.221 1104.13C432.254 1110.89 438.435 1117 447.934 1110.85C448.786 1111.64 449.535 1112.36 450.226 1113.03C451.536 1114.3 452.638 1115.37 453.85 1116.29C463.441 1123.58 470.864 1120.98 473.519 1109.26C475.956 1098.53 474.667 1088.26 468.262 1079.03C464.251 1073.25 460.115 1067.52 455.674 1062.07C447.207 1051.67 446.791 1041.56 453.916 1029.95C477.952 990.739 508.148 956.527 541.071 924.804C542.155 923.759 543.24 922.714 544.324 921.67C571.382 895.61 598.285 869.7 618.42 837.551C644.882 795.304 668.38 751.807 675.423 701.661C681.16 660.791 680.965 619.96 668.046 580.085C667.4 578.094 666.755 576.102 666.11 574.111C658.575 550.843 651.029 527.542 642.205 504.747C631.01 475.844 617.288 447.954 593.554 426.781C585.024 419.176 576.635 411.419 568.245 403.662C549.64 386.459 531.032 369.255 510.889 353.7C468.975 321.325 422.82 298.427 371.317 285.695C356.23 281.964 341.322 277.525 326.411 273.085C316.515 270.139 306.618 267.192 296.666 264.451C288.913 262.319 283.982 258.646 281.025 250.771C274.445 233.277 260.781 225.767 242.31 226.28C240.628 226.327 238.941 226.145 236.816 225.914C235.706 225.794 234.476 225.661 233.065 225.541C233.827 223.919 234.479 222.388 235.095 220.942C236.334 218.03 237.426 215.465 238.974 213.207C243.381 206.788 248.203 200.632 253.132 194.594C263.329 182.085 271.398 168.371 277.194 153.345C277.26 153.173 277.327 153.001 277.394 152.829C278.784 149.249 280.238 145.505 277.116 140.372C276.491 141.495 275.924 142.518 275.397 143.469C274.174 145.677 273.162 147.502 272.124 149.311C270.029 152.962 267.992 156.652 265.954 160.343C261.216 168.924 256.478 177.507 251.007 185.604C248.262 189.668 245.169 193.499 242.075 197.33C235.4 205.598 228.723 213.865 225.546 224.485C224.282 228.739 220.405 229.362 217.01 227.011C210.428 222.447 203.968 217.696 197.511 212.946C194.824 210.97 192.137 208.994 189.442 207.031C186.144 204.623 185.312 201.566 186.797 197.785C192.297 183.755 200.589 172.453 215.978 168.032C218.026 167.442 220.08 166.87 222.135 166.297C226.12 165.187 230.107 164.076 234.051 162.84C275.269 149.933 297.977 113.845 293.563 76.9177C292.871 71.1048 294.893 67.6534 298.987 63.9023C305.842 57.6219 312.672 51.0727 318.178 43.6585C322.808 37.4439 323.722 29.8338 317.245 21.6983C315.265 38.8297 305.682 50.0066 291.047 59.6988C290.365 55.721 289.723 51.8649 289.095 48.0977C287.563 38.9065 286.119 30.2453 284.417 21.6397C283.363 16.3506 281.729 11.0438 279.439 6.16823C277.753 2.56466 274.654 -0.506996 268.138 0.960699C276.415 8.83363 277.909 18.0203 279.226 27.2765C279.472 28.9902 279.639 30.7281 279.807 32.4655C280.168 36.2105 280.53 39.9536 281.669 43.4483C287.17 60.3567 281.378 70.8803 266.861 81.2456C259.906 86.2113 253.241 91.5824 246.569 96.9591C235.63 105.775 224.672 114.606 212.385 121.69C211.638 122.121 210.888 122.551 210.137 122.982C204.089 126.452 197.977 129.958 192.652 134.347C175.734 148.29 165.549 165.802 169.446 188.411C170.722 195.857 170.974 202.862 170.378 210.247C169.986 215.103 170.151 220.005 170.33 225.317C170.412 227.759 170.497 230.287 170.533 232.937C164.54 228.462 162.915 223.303 161.832 217.964C161.04 214.027 160.163 210.103 159.286 206.178C155.999 191.471 152.711 176.764 153.91 161.407C154.333 156.128 152.237 151.925 146.704 151.849C146.903 153.604 147.149 155.282 147.387 156.905C147.896 160.38 148.369 163.606 148.275 166.814C148.045 174.594 147.332 182.389 146.275 190.106C144.713 201.646 147.121 212.684 150.354 223.544C153.454 233.947 160.069 241.23 171.264 243.629C171.511 243.682 171.767 243.735 172.028 243.789C174.113 244.218 176.541 244.718 177.575 246.086C181.095 250.724 184.323 255.577 187.612 260.521C188.841 262.367 190.078 264.226 191.342 266.091C164.011 277.375 135.937 260.591 134.589 233.05C134.215 225.516 134.827 217.94 135.44 210.357C135.802 205.883 136.163 201.407 136.323 196.936C136.35 196.193 136.43 195.433 136.511 194.652C136.888 191.058 137.311 187.027 132.844 182.169C132.131 187.726 131.413 193.079 130.714 198.292C129.104 210.293 127.593 221.553 126.476 232.856C125.611 241.631 127.987 250.233 134.115 256.813C146.237 269.819 160.084 279.626 179.379 277.024C181.011 276.801 182.674 276.806 184.49 276.811C185.368 276.814 186.282 276.817 187.245 276.794C185.517 279.384 183.891 281.899 182.31 284.344C178.954 289.536 175.8 294.414 172.301 299.037C171.347 300.298 170.395 301.565 169.443 302.832C163.382 310.902 157.286 319.017 150.183 326.09C135.16 341.037 121.821 357.235 109.766 374.556C85.4341 409.526 65.1667 446.799 45.6273 484.59C22.5576 529.202 9.89704 576.767 2.65855 625.986C-0.872612 649.921 0.52312 673.974 1.92007 698.047C2.15169 702.039 2.38334 706.031 2.59257 710.023C5.04329 756.652 21.5426 798.479 46.6129 836.921C79.599 887.49 125.779 924.388 177.873 953.905C202.362 967.777 227.338 980.796 252.315 993.814C263.509 999.65 274.704 1005.48 285.854 1011.4C307.045 1022.63 324.552 1037.54 337.15 1058.38C344.43 1070.41 346.114 1081.92 341.617 1094.92C338.577 1103.7 338.815 1112.77 343.2 1121.07C344.815 1124.11 348.274 1127.47 351.419 1128.12C356.145 1129.08 357.5 1124.28 358.568 1120.48C359.148 1118.42 359.67 1116.34 360.193 1114.27C360.812 1111.81 361.431 1109.35 362.147 1106.91C363.379 1102.68 365.05 1098.64 370.558 1095.09C370.503 1096.87 370.426 1098.45 370.357 1099.88C370.222 1102.66 370.113 1104.9 370.241 1107.12C370.312 1108.35 370.366 1109.59 370.42 1110.82C370.622 1115.44 370.825 1120.08 371.934 1124.49C375.003 1136.64 381.396 1140.11 393.752 1137.4C394.443 1137.24 395.135 1137.09 395.777 1136.94C396.144 1136.86 396.494 1136.77 396.819 1136.7C397.421 1137.75 397.943 1138.9 398.457 1140.04C399.602 1142.57 400.709 1145.03 402.583 1145.97C404.519 1146.95 407.145 1146.58 410.274 1146.13C411.798 1145.92 413.442 1145.68 415.184 1145.58C414.495 1148.15 413.78 1150.6 413.088 1152.96C411.57 1158.15 410.163 1162.97 409.389 1167.88C408.369 1174.31 408.111 1181.04 408.839 1187.5C409.451 1192.91 413.825 1196.28 419.312 1197.28C424.516 1198.25 429.099 1196.3 430.98 1191.48C437.771 1174.1 442.045 1156.74 432.18 1138.56C427.331 1129.6 423.46 1120.12 419.597 1110.66C418.594 1108.2 417.591 1105.74 416.572 1103.3C416.029 1102 416.14 1100.43 416.292 1098.26C416.375 1097.08 416.471 1095.71 416.478 1094.11C417.93 1095.6 419.209 1096.89 420.366 1098.05C422.682 1100.38 424.503 1102.21 426.221 1104.13ZM204.335 953.76C200.071 950.379 195.953 947.21 191.97 944.146C183.646 937.742 175.913 931.791 168.673 925.303C136.613 896.568 111.289 863.284 98.7521 821.587C86.9544 782.351 72.8254 744.002 55.8749 706.54C43.7801 679.813 35.8641 651.565 32.9303 622.239C32.4694 617.641 32.1705 613.026 31.8582 608.202L31.858 608.2C31.7087 605.895 31.5564 603.543 31.3818 601.122C30.9071 601.582 30.5065 601.925 30.1806 602.204C29.6368 602.67 29.3008 602.958 29.1746 603.315C28.5498 605.149 28.0321 607.031 27.634 608.932C20.6391 642.432 20.3406 676.214 26.5702 709.771C28.4328 719.84 32.3575 729.565 36.2713 739.264C37.6467 742.672 39.0209 746.077 40.3037 749.493C41.3383 752.252 43.5837 754.889 45.9346 756.784C53.05 762.52 56.2489 770.218 58.9134 778.55C60.0007 781.951 61.0574 785.369 62.1147 788.79L62.1153 788.792L62.1158 788.793L62.1164 788.795L62.1169 788.797L62.1171 788.797C65.8983 801.028 69.6885 813.289 74.9189 824.903C100.137 880.964 139.788 923.924 195.761 951.407C196.967 951.997 198.315 952.308 200.268 952.76C201.393 953.02 202.719 953.327 204.335 953.76ZM177.766 179.13C188.949 159.714 207.021 151.851 227.127 145.903C238.171 142.636 248.968 137.415 258.701 131.273C275.948 120.378 284.39 103.86 284.818 83.4975C284.846 82.1848 284.52 80.8602 284.098 79.1473C283.868 78.2152 283.61 77.1681 283.366 75.9454C280.991 77.7639 278.752 79.4893 276.599 81.1489C272.493 84.3136 268.697 87.2392 264.86 90.1157C261.86 92.3656 258.862 94.618 255.863 96.8705C243.686 106.018 231.505 115.168 219.207 124.159C215.972 126.521 212.59 128.691 209.208 130.86C205.388 133.311 201.569 135.76 197.966 138.486C184.613 148.584 178.998 162.767 177.766 179.13ZM108.393 459.68C108.421 459.704 108.447 459.735 108.475 459.758L110.283 453.012C110.272 453.005 110.26 453 110.249 452.995C110.241 452.991 110.233 452.988 110.225 452.984C110.221 452.982 110.218 452.98 110.214 452.977C109.897 454.144 109.58 455.311 109.263 456.478L108.393 459.68ZM410.818 1125.7C409.935 1125.84 409.053 1125.98 408.17 1126.12C407.785 1129.72 407.395 1133.31 406.917 1137.72L406.766 1139.11C408.055 1138.78 409.193 1138.49 410.243 1138.22L410.321 1138.2C412.672 1137.6 414.582 1137.11 416.763 1136.55C416.369 1135.64 416.029 1134.81 415.714 1134.04L415.713 1134.04L415.712 1134.04C415.06 1132.45 414.516 1131.12 413.829 1129.87C413.262 1128.82 412.516 1127.88 411.769 1126.93C411.447 1126.52 411.125 1126.12 410.818 1125.7ZM403.677 1080.11C405.122 1083.83 404.131 1088.49 401.589 1100.45C401.285 1098.07 401.029 1096.02 400.8 1094.19L400.799 1094.19C400.383 1090.86 400.055 1088.23 399.687 1085.61C399.26 1082.57 398.787 1079.53 398.284 1076.3C398.19 1075.7 398.096 1075.1 398.001 1074.49C397.899 1073.83 397.797 1073.17 397.693 1072.49C400.836 1075.75 402.753 1077.74 403.677 1080.11ZM207.597 284.439C197.528 289.009 194.245 294.831 194.408 307.823C204.136 298.39 206.639 293.948 207.597 284.439ZM185.627 214.667C195.193 220.045 203.063 224.47 210.611 232.936C202.292 234.701 196.345 235.967 190.088 237.301C185.116 230.893 184.905 223.977 184.632 215.057L184.632 215.041L184.617 214.553L184.603 214.091L185.143 214.395L185.627 214.667ZM312.283 288.161C328.78 299.531 347.321 306.891 366.943 312.124C350.528 300.581 331.536 294.125 312.283 288.161ZM427.593 1157.07C428.114 1168.24 426.062 1179.14 420.913 1189.49C413.404 1184.62 414.268 1169.31 423.538 1146.71C424.125 1148.15 424.76 1149.43 425.35 1150.61C426.51 1152.95 427.495 1154.94 427.593 1157.07ZM192.209 241.727C193.289 243.808 194.258 245.676 195.156 247.407L195.16 247.415C196.732 250.445 198.088 253.06 199.449 255.67C202.148 260.839 203.579 263.581 205.821 264.701C208.354 265.965 211.922 265.157 219.521 263.437C219.554 262.925 219.588 262.414 219.623 261.902C220.22 253.037 220.822 244.087 213.333 235.765L212.725 235.937C206.445 237.714 199.987 239.54 192.209 241.727ZM274.302 259.903C261.85 261.977 249.547 264.019 235.038 266.428L234.199 260.658L234.196 260.632L234.195 260.627C232.908 251.772 231.649 243.115 230.388 234.472C254.606 230.276 267.401 238.655 274.302 259.903ZM88.443 759.2L88.4843 759.186L88.5379 759.166C88.8148 759.068 89.0911 758.969 89.3658 758.871C89.5687 758.799 89.7708 758.726 89.9717 758.654C90.2329 759.336 90.4786 760.027 90.7243 760.717L90.7245 760.717C91.226 762.126 91.7279 763.536 92.3628 764.883C109.236 800.883 132.201 832.77 159.408 861.732C171.179 874.261 183.132 886.626 195.172 898.897C209.169 913.15 224.454 925.83 240.994 937.19C257.488 948.511 272.377 961.711 284.401 977.95C287.47 982.099 290.879 985.999 294.293 989.903L294.293 989.904L294.294 989.905L294.294 989.906C297.172 993.197 300.052 996.492 302.734 999.943C295.671 996.191 288.575 992.504 281.483 988.818C247.252 971.03 213.117 953.291 183.13 928.607C158.361 908.21 138.535 883.873 121.757 856.798C113.761 843.892 109.141 829.731 104.518 815.559C103.712 813.09 102.907 810.62 102.083 808.156C98.4268 797.219 95.0676 786.182 91.7084 775.144C90.7594 772.026 89.8104 768.908 88.8547 765.792C88.4293 764.407 88.2039 762.962 87.9788 761.518C87.8727 760.838 87.7668 760.159 87.64 759.486C87.8857 759.399 88.1318 759.311 88.3775 759.224L88.443 759.2ZM583.149 554.873L583.149 554.872L583.149 554.87L583.149 554.868L583.148 554.867C582.784 553.216 582.42 551.564 582.085 549.91C598.517 576.4 607.636 605.095 610.139 635.969C613.991 683.517 602.653 727.935 585.432 771.695C575.252 797.547 560.716 820.159 543.147 841.352C517.199 872.655 492.788 905.137 471.712 939.914C467.066 947.585 463.11 955.675 459.155 963.766C457.111 967.947 455.066 972.128 452.927 976.251C451.652 978.706 450.24 981.092 448.475 984.073L448.474 984.075C447.528 985.673 446.481 987.442 445.299 989.485C452.524 963.38 460.842 940.551 473.974 919.538C483.518 904.268 492.879 888.885 502.241 873.501L502.247 873.491L502.253 873.481L502.259 873.471L502.265 873.462L502.271 873.452L502.277 873.442L502.283 873.432L502.289 873.423L502.295 873.413L502.301 873.403L502.301 873.402L502.302 873.401L502.303 873.4L502.303 873.399L502.304 873.398L502.305 873.397L502.305 873.396L502.306 873.395L502.307 873.394L502.307 873.393C513.006 855.812 523.706 838.23 534.677 820.814C555.519 787.742 570.195 752.286 578.477 714.177C585.941 679.821 592.692 645.294 590.563 609.852C589.877 598.603 588.284 587.4 586.693 576.205C586.196 572.711 585.699 569.219 585.231 565.726C584.74 562.085 583.945 558.48 583.149 554.873ZM310.515 329.7C310.473 329.9 310.399 330.115 310.325 330.332C310.163 330.808 309.997 331.293 310.147 331.651C311.801 335.636 313.479 339.613 315.349 343.497C331.895 377.863 346.166 413.02 357.095 449.547C368.802 488.643 373.668 528.163 371.382 568.77C369.809 596.893 371.767 624.983 379.225 652.447C380.735 658.043 382.632 663.873 385.816 668.641C391.465 677.065 399.985 676.034 403.764 666.774C405.957 661.391 407.601 655.674 408.631 649.944C409.361 645.932 410.102 641.921 410.843 637.909L410.845 637.895L410.846 637.894C414.141 620.051 417.439 602.195 419.788 584.218C422.158 566.104 423.814 547.75 423.774 529.494C423.718 504.227 418.16 480.095 404.364 457.905C395.255 443.252 386.36 428.064 380.362 412.042C369.057 381.871 346.494 361.298 323.867 340.665C319.779 336.938 315.689 333.209 311.664 329.421C311.565 329.324 311.264 329.435 310.949 329.553C310.801 329.607 310.65 329.663 310.515 329.7ZM90.8983 497.599C91.5997 497.752 92.294 497.904 92.9955 498.057C92.8529 499.207 92.7206 500.358 92.5884 501.509L92.5884 501.509L92.5882 501.511C92.2941 504.071 92.0002 506.63 91.593 509.168C79.8205 583.051 88.5048 654.594 117.54 723.597C131.906 757.729 151.639 788.744 177.464 815.517C205.289 844.358 230.025 875.554 252.843 908.397C266.495 928.049 281.798 946.28 301.08 960.952C316.807 972.911 329.55 987.722 340.622 1004.03C341.655 1005.55 342.726 1007.04 343.803 1008.55L343.803 1008.55L343.804 1008.55L343.804 1008.55L343.804 1008.55L343.805 1008.55L343.805 1008.55C346.803 1012.74 349.843 1016.99 352.211 1022C350.052 1020.5 347.832 1019.06 345.612 1017.62C340.67 1014.42 335.727 1011.23 331.459 1007.3L329.899 1005.86C318.037 994.953 306.078 983.953 295.826 971.624C282.666 955.783 268.087 941.688 250.935 930.589C231.038 917.72 213.472 902.265 196.592 885.904C173.229 863.256 151.046 839.571 131.964 813.121C104.305 774.777 85.379 732.879 77.1272 686.178C68.2079 635.688 65.602 585.398 78.8546 535.341C81.1715 526.591 84.0716 518.001 86.9714 509.411C88.2991 505.479 89.6267 501.546 90.8983 497.599ZM433.705 1002.43C433.868 1002.27 434.013 1002.14 434.144 1002.02C434.266 1001.91 434.375 1001.82 434.471 1001.73L434.491 1001.72L434.493 1001.71C434.823 1001.43 434.997 1001.28 435.055 1001.09C435.748 998.868 436.433 996.647 437.048 994.401C445.738 962.616 458.072 932.519 475.757 904.485C496.361 871.844 516.082 838.634 535.684 805.379C548.433 783.747 557.581 760.446 563.289 736.002C566.884 720.596 569.864 705.046 572.842 689.497L572.843 689.495L572.844 689.487L572.846 689.479L572.848 689.471C573.686 685.095 574.524 680.72 575.376 676.348C586.611 618.74 581.572 562.969 556.4 509.535C555.317 507.249 554.094 505.025 552.872 502.801C552.305 501.77 551.739 500.739 551.186 499.701C549.908 503.868 550.185 507.544 550.462 511.21L550.483 511.488C550.745 514.865 551.058 518.242 551.372 521.619L551.372 521.62L551.372 521.62L551.372 521.621L551.372 521.621L551.372 521.622L551.372 521.623L551.372 521.623C552.068 529.123 552.764 536.623 552.896 544.133C553.513 579.828 548.2 614.922 541.031 649.761C523.117 736.901 493.459 820.273 460.385 902.598C451.387 925.007 443.969 948.081 436.632 971.114C433.506 980.924 431.848 991.362 433.705 1002.43ZM353.886 1006.09C353.438 1006.42 352.997 1006.75 352.549 1007.08C351.909 1006.24 351.248 1005.42 350.586 1004.6L350.583 1004.6L350.583 1004.6C349.14 1002.81 347.697 1001.02 346.485 999.084C334.709 980.305 319.201 965.231 301.72 951.658C290.713 943.105 279.964 933.51 271.488 922.557C239.19 880.846 205.877 840.084 170.283 801.092C139.993 767.897 121.086 728.062 108.462 685.308C92.5538 631.398 89.126 576.505 96.9966 520.912C100.06 499.283 108.838 471.85 118.747 456.817C118.639 457.591 118.548 458.37 118.458 459.149C118.272 460.751 118.086 462.353 117.742 463.918C109.925 499.546 106.785 535.626 108.871 571.996C111.064 610.14 121.508 646.465 136.398 681.531C151.72 717.624 171.936 750.997 194.455 783.008C206.142 799.61 217.911 816.194 230.464 832.145C238.375 842.208 247.45 851.465 256.751 860.293C260.105 863.476 265.519 865.196 270.257 866.003C274.544 866.737 277.262 868.239 279.704 871.702C284.436 878.394 289.456 884.888 294.639 891.239C314.104 915.074 328.675 941.649 339.749 970.226C342.872 978.287 346.058 986.325 349.244 994.361L349.251 994.378L349.258 994.395C350.803 998.293 352.348 1002.19 353.886 1006.09ZM502.373 906.633L503.876 907.865C504.838 906.826 505.803 905.789 506.768 904.752L506.776 904.743C508.569 902.814 510.364 900.885 512.147 898.944C515.944 894.792 519.645 890.535 523.347 886.277C531.46 876.946 539.574 867.615 548.69 859.393C578.635 832.389 602.071 800.297 623.734 766.866C632.993 752.572 642.173 737.228 646.627 721.046C655.325 689.468 659.791 656.942 657.09 623.775C655.552 604.879 649.938 587.061 644.328 569.254L644.327 569.252L644.326 569.249L644.325 569.247C643.257 565.857 642.19 562.468 641.15 559.072C634.841 538.493 626.828 518.625 614.072 500.83C601.083 482.716 588.134 464.476 576.505 445.483C540.282 386.338 490.989 342.054 427.837 313.083C412.276 305.943 396.306 300.04 378.991 298.068C382.301 300.771 385.927 302.835 389.638 304.768C422.367 321.815 451.291 343.915 474.703 372.31C488.452 388.987 501.314 406.393 514.176 423.796C519.224 430.628 524.273 437.46 529.375 444.247C531.591 447.198 533.671 450.25 535.752 453.303L535.752 453.303L535.753 453.304L535.753 453.304L535.753 453.305L535.754 453.305C537.863 456.399 539.971 459.493 542.221 462.481C563.035 490.132 580.057 519.986 594.723 551.226C608.917 581.477 616.515 613.262 615.095 646.597C614.13 669.165 612.044 691.771 608.939 714.139C603.501 753.375 590.121 789.834 566.391 821.936C556.28 835.618 545.911 849.111 535.541 862.606L535.528 862.622L535.515 862.639L535.502 862.656L535.489 862.673L535.477 862.69C529.927 869.911 524.377 877.133 518.867 884.384C515.056 889.396 511.326 894.471 507.595 899.546C505.857 901.91 504.119 904.275 502.373 906.633ZM293.725 292.375L293.726 292.374L293.727 292.373C294.119 292.007 294.512 291.64 294.904 291.269C296.32 291.999 297.736 292.73 299.15 293.461C301.838 294.85 304.525 296.238 307.218 297.616C320.771 304.551 334.325 311.486 347.888 318.41C374.797 332.137 400.517 348.164 422.112 369.106C450.79 396.929 471.861 430.356 482.783 469.198C489.966 494.772 489.457 521.159 485.642 547.11C476.741 607.606 460.852 666.23 437.643 722.969C418.343 770.147 404.346 818.877 401.575 870.221C401.405 873.36 401.324 876.507 401.244 879.652C401.115 884.706 400.986 889.758 400.486 894.774C400.193 897.693 399.241 900.55 398.186 903.694C399.231 902.346 400.099 900.769 400.408 899.49C402.326 891.584 403.637 883.446 404.244 875.327C407.279 834.978 416.94 796.06 430.055 758.019C435.333 742.708 441.086 727.562 446.838 712.415L446.84 712.412C452.849 696.588 458.859 680.765 464.327 664.755C479.238 621.093 489.283 576.285 492.303 530.063C495.073 487.554 485.725 448.155 463.702 411.492C446.877 383.475 428.028 357.467 400.645 338.669C398.743 337.366 397.067 335.731 395.947 333.031C396.715 333.438 397.492 333.834 398.27 334.23C399.923 335.071 401.578 335.913 403.159 336.867C429.023 352.465 452.749 370.787 473.371 392.884C478.652 398.54 483.439 404.877 487.348 411.552C508.408 447.455 520.901 485.916 522.723 527.808C525.505 592.024 515.191 653.586 487.958 712.07C483.76 721.092 479.68 730.169 475.601 739.247L475.6 739.249C469.299 753.27 462.998 767.29 456.262 781.102C442.613 809.076 435.392 838.884 429.607 869.241C429.777 868.742 429.966 868.247 430.155 867.752C430.541 866.743 430.926 865.735 431.151 864.69C439.131 827.845 453.809 793.581 470.435 759.915C488.546 723.227 506.303 686.264 516.378 646.319C527.678 601.44 532.044 555.71 530.601 509.541C530.304 499.961 528.48 490.422 526.658 480.889C525.911 476.978 525.163 473.068 524.522 469.157C524.409 468.473 524.279 467.793 524.148 467.108C523.565 464.067 522.969 460.955 523.882 457.214C524.511 458.537 525.176 459.847 525.84 461.157C527.289 464.013 528.737 466.868 529.826 469.854C537.145 489.862 539.485 510.825 540.295 531.875C541.787 570.23 538.238 608.221 529.44 645.591C528.008 651.679 526.589 657.771 525.169 663.863L525.162 663.894C518.269 693.481 511.371 723.085 503.026 752.263C488.774 802.129 470.023 850.507 450.773 898.662C450.497 899.353 450.22 900.044 449.944 900.735L449.17 902.668L449.169 902.672C443.477 916.894 437.781 931.125 432.694 945.565C425.76 965.23 421.849 985.394 424.991 1006.45C425.328 1008.69 425.009 1011.03 424.628 1013.83C424.43 1015.28 424.216 1016.85 424.068 1018.59C421.874 1017.48 419.933 1016.07 418.106 1014.73C413.991 1011.73 410.452 1009.15 405.887 1011.48C402.535 1013.19 399.64 1015.77 396.353 1018.71L396.353 1018.71C394.769 1020.13 393.095 1021.62 391.236 1023.14C390.134 1022.38 388.957 1021.55 387.725 1020.69C384.765 1018.61 381.484 1016.31 378.139 1014.1C375.975 1012.67 373.727 1011.38 371.479 1010.09L371.476 1010.09L371.467 1010.08C370.438 1009.49 369.409 1008.9 368.388 1008.29C368.053 1007.92 367.742 1007.53 367.443 1007.13C366.43 1006.13 365.334 1005.17 364.239 1004.21L364.238 1004.21L364.237 1004.21C361.815 1002.09 359.391 999.976 357.847 997.346C353.528 989.982 349.727 982.205 346.625 974.244C332.381 937.651 314.098 903.396 289.028 872.949C286.301 869.646 283.873 866.078 281.514 862.509C278.136 857.383 274.953 853.124 267.37 855.857C265.024 856.697 260.587 854.26 258.245 852.095C257.129 851.062 256.005 850.032 254.879 849.001L254.872 848.994C248.221 842.902 241.51 836.756 236.12 829.657C206.834 791.151 177.599 752.637 154.445 709.884C135.126 674.214 120.645 636.936 114.264 596.926C106.816 550.252 108.262 503.56 119.396 457.63C125.661 431.773 138.125 408.095 150.964 384.896C157.829 372.501 165.384 360.481 172.936 348.469L172.937 348.468C175.131 344.977 177.325 341.487 179.502 337.988C182.144 333.745 185.402 329.894 190.06 326.625C189.707 327.387 189.376 328.163 189.045 328.938C188.328 330.616 187.61 332.295 186.678 333.843C181.694 342.088 176.675 350.311 171.656 358.533L171.654 358.537C165.514 368.596 159.375 378.653 153.303 388.75C136.503 416.673 129.398 447.698 123.858 479.362C117.053 518.259 122.883 556.308 130.681 594.167C140.156 640.158 153.235 685.169 176.685 726.201C185.342 741.347 195.279 755.767 205.214 770.183L205.214 770.184L205.218 770.19C209.463 776.35 213.707 782.509 217.852 788.724C218.636 789.899 219.417 791.076 220.199 792.254L220.201 792.257C224.163 798.227 228.129 804.203 232.509 809.857C237.718 816.604 243.259 823.171 249.288 829.179C254.949 834.806 261.431 839.612 268.412 844.13C266.373 834.599 261.669 826.428 256.288 818.801C224.459 773.73 209.767 723.935 208.896 668.624C208.073 616.146 215.837 565.389 228.975 515.017C230.627 508.68 232.319 502.348 234.011 496.015C240.176 472.942 246.346 449.852 250.606 426.428C254.536 404.786 256.397 382.751 258.256 360.744C258.759 354.787 259.262 348.832 259.806 342.886C260.574 334.52 260.544 326.075 260.514 317.635L260.514 317.633C260.504 314.762 260.494 311.891 260.516 309.024C260.545 305.743 260.033 302.447 258.49 299.186C258.274 303.725 258.081 308.267 257.888 312.807L257.888 312.815L257.888 312.817C257.474 322.562 257.06 332.306 256.422 342.035C253.443 387.357 243.738 431.491 232.378 475.305C224.942 503.986 217.389 532.635 209.758 561.271C195.542 614.636 195.871 668.361 205.531 722.373C206.033 725.17 206.26 728.018 206.488 730.866L206.488 730.868C206.596 732.216 206.704 733.565 206.841 734.909C207.697 737.318 208.554 739.728 209.41 742.138C210.267 744.549 211.123 746.959 211.98 749.368C212.012 749.948 212.048 750.524 212.084 751.1L212.084 751.104C212.113 751.563 212.141 752.021 212.168 752.48C212.009 752.962 211.789 753.458 211.567 753.957C211.066 755.086 210.559 756.227 210.747 757.243C210.988 758.529 211.341 759.794 211.698 761.07C212.247 763.032 212.803 765.02 212.969 767.148L212.553 766.581C197.936 746.625 183.348 726.711 173.882 703.797C152.825 652.807 136.308 600.592 129.477 545.518C124.896 508.631 130.219 473.302 141.826 438.512C149.915 414.254 162.976 392.604 176.924 371.371C186.975 356.079 196.923 340.684 206.173 324.902C214.14 311.307 218.97 296.534 217.962 280.141C226.337 276.33 234.506 273.14 243.727 274.246C247.801 268.629 253.095 268.547 258.691 268.46C261.702 268.413 264.8 268.365 267.842 267.453C267.961 270.22 268.076 272.814 268.185 275.291C268.412 280.41 268.616 285.033 268.792 289.657C269.265 302.143 269.849 314.629 270.432 327.115L270.432 327.115C271.774 355.825 273.117 384.537 273.111 413.246C273.105 455.696 271.829 498.247 268.552 540.558C262.703 615.999 278.417 687.01 308.271 755.667C321.66 786.452 334.652 817.407 341.762 850.365C346.779 873.604 351.561 896.897 355.77 920.292C359.392 940.413 366.188 959.411 374.018 978.157C378.209 988.189 385.355 994.772 396.017 997.409C404.703 999.557 409.147 997.975 413.88 990.417C417.399 984.808 420.738 979.076 420.248 971.959C420.104 969.905 420.2 967.836 420.297 965.764L420.297 965.763L420.297 965.762C420.364 964.333 420.431 962.902 420.419 961.475C420.377 957.995 420.122 954.513 419.024 950.984C418.941 952.698 418.854 954.414 418.766 956.13C418.572 959.955 418.377 963.784 418.231 967.605C417.927 975.309 414.799 981.829 410.353 987.982C406.58 993.198 401.959 994.256 396.01 992.614C386.972 990.103 380.818 984.302 377.893 975.76C376.99 973.122 376.074 970.484 375.158 967.845L375.155 967.838C370.576 954.647 365.983 941.418 362.969 927.862C359.925 914.166 357.413 900.349 354.902 886.534L354.902 886.533C351.974 870.43 349.047 854.33 345.279 838.426C339.637 814.605 333.491 790.45 323.638 768.17C296.261 706.274 282.675 641.783 278.734 574.498C275.769 523.804 276.467 473.257 278.503 422.635C280.096 382.872 279.951 343.154 274.28 303.637C273.949 301.342 273.787 299.009 273.752 296.69C273.748 296.287 274.026 295.882 274.501 295.187C274.785 294.772 275.14 294.254 275.548 293.571C276.112 295.225 276.666 296.786 277.199 298.288L277.2 298.289C278.316 301.433 279.341 304.321 280.174 307.265C288.061 335.155 291.618 363.637 293.38 392.555C297.019 452.491 297.621 512.468 297.69 572.474C297.741 609.402 308.096 644.036 321.687 677.862C326.187 689.06 331.243 700.117 337.027 710.7C355.215 743.992 366.45 779.442 371.429 816.924C372.503 825.018 373.481 833.126 374.459 841.232L374.459 841.235C375.908 853.245 377.357 865.253 379.116 877.214C380.295 885.212 382.526 893.202 385.49 900.727C386.604 903.556 391.061 906.433 394.168 906.645L394.176 906.645C388.171 901.078 387.303 894.411 386.472 888.034L386.472 888.033C384.562 873.334 383.096 858.573 381.721 843.81C377.094 794.325 364.953 747.106 342.014 702.639C326.363 672.309 315.177 640.078 310.305 606.188C307.766 588.494 307.084 570.447 306.747 552.533C306.488 538.719 306.559 524.895 306.629 511.074L306.629 511.071L306.629 511.068L306.629 511.065L306.629 511.063C306.726 492.095 306.823 473.13 306.069 454.197C304.229 407.782 301.16 361.383 289.1 316.154L288.908 315.434C287.582 310.479 286.253 305.509 285.821 299.982C286.362 300.601 286.903 301.217 287.443 301.832L287.443 301.833L287.463 301.856L287.464 301.856C292.87 308.014 298.184 314.067 301.995 321.496C331.322 378.711 349.339 439.586 359.332 502.795C362.422 522.331 362.78 542.44 362.778 562.288C362.781 567.414 362.73 572.541 362.68 577.666L362.68 577.67L362.68 577.673L362.68 577.676L362.68 577.68C362.431 602.993 362.182 628.268 368.293 653.177C369.78 659.215 371.602 665.239 373.957 670.977C376.416 676.971 380.893 681.191 387.384 683.13C397.884 686.262 405.074 683.682 409.499 673.645C412.313 667.274 414.562 660.378 415.498 653.504C416.245 647.998 417.004 642.492 417.763 636.986L417.763 636.986L417.763 636.985L417.763 636.984L417.763 636.983C421.536 609.621 425.311 582.247 427.584 554.753C428.675 541.561 427.294 528.125 425.92 514.761L425.919 514.754C425.571 511.367 425.223 507.984 424.916 504.612C423.56 489.673 417.994 475.998 411.191 462.579C401.318 443.099 392.126 423.241 383.51 403.172C376.315 386.413 367.199 371.358 353.812 358.746C341.765 347.408 330.139 335.633 318.513 323.857L318.512 323.857L318.512 323.857L318.511 323.856L318.511 323.856C316.415 321.734 314.32 319.611 312.222 317.492C304.894 310.082 297.875 302.348 292.873 293.171C293.156 292.905 293.44 292.64 293.725 292.375ZM394.176 906.645C395.286 906.716 396.875 905.386 398.186 903.694L398.154 903.788C397.641 905.319 397.104 906.919 396.608 908.627C395.715 907.985 394.908 907.323 394.176 906.645ZM81.0754 738.85C81.0617 738.699 81.049 738.547 81.0371 738.396C80.7888 738.184 80.5251 737.979 80.2614 737.773C79.4352 737.131 78.6107 736.489 78.2715 735.65C75.6339 729.133 72.9096 722.643 70.1853 716.153C63.5661 700.386 56.9465 684.617 51.5666 668.436C33.039 612.703 40.4687 558.414 64.4643 505.971C86.9223 456.875 117.985 412.974 149.173 369.209C150.273 367.677 151.788 366.441 154.576 365.995C153.84 367.278 153.108 368.561 152.377 369.845L152.376 369.848L152.374 369.851L152.372 369.854L152.37 369.857L152.37 369.858L152.369 369.859C151.096 372.094 149.823 374.328 148.527 376.553C143.871 384.533 139.031 392.426 134.191 400.32C123.34 418.016 112.488 435.713 103.704 454.386C87.3493 489.174 72.9113 525.027 66.8475 563.579C60.725 602.501 62.1823 641.214 68.89 679.781C70.8623 691.096 73.5455 702.289 76.2287 713.482C77.6283 719.321 79.0279 725.159 80.3267 731.015C80.7092 732.744 80.8082 734.537 80.9073 736.334C80.9452 737.022 80.9832 737.71 81.0371 738.396C81.1519 738.494 81.2634 738.593 81.3699 738.694L81.6362 739.773C81.9743 740.33 82.3122 740.888 82.6501 741.445L82.7652 741.634L82.8546 741.782L83.0384 742.085L84.0828 743.806L84.606 744.668C85.0285 745.364 85.4513 746.06 85.8746 746.756C85.2214 747 84.5735 747.245 83.9323 747.487L83.8842 747.506L83.5752 747.623C83.041 745.472 82.5112 743.323 81.9813 741.173L81.6362 739.773L81.0754 738.85ZM368.965 1091.19L368.998 1091.25L368.995 1091.19L368.965 1091.19ZM360.534 1098.74C362.15 1095.14 363.856 1091.34 368.965 1091.19C368.123 1089.81 367.233 1088.45 366.343 1087.09L366.342 1087.09C364.288 1083.95 362.234 1080.81 360.776 1077.41C358.985 1073.23 357.929 1068.72 356.879 1064.25C356.663 1063.33 356.448 1062.41 356.226 1061.49C353.33 1049.54 346.427 1040.14 338.065 1031.5C334.74 1028.05 331.05 1026.69 326.652 1026.59C328.464 1029.59 330.641 1031.75 332.82 1033.92L332.821 1033.92L332.951 1034.05C345.145 1046.2 351.904 1060.98 354.066 1077.97C354.864 1084.29 354.636 1090.24 351.424 1096.29C347.957 1102.83 347.531 1110.04 352.798 1117.92C353.619 1115.82 354.362 1113.84 355.072 1111.94L355.073 1111.94C356.651 1107.72 358.068 1103.94 359.812 1100.31C360.057 1099.8 360.294 1099.28 360.533 1098.74L360.534 1098.74ZM367.087 1051.77C367.738 1064.94 368.388 1078.12 368.995 1091.19L369.026 1091.19C375.93 1087.74 377.78 1088.2 379.209 1095.23C379.946 1098.85 380.34 1102.55 380.734 1106.24C381.137 1110.01 381.539 1113.78 382.307 1117.48C384.638 1128.76 389.295 1130.33 400.072 1123.5C392.051 1114.97 389.817 1104.24 388.576 1093.11C388.285 1090.5 387.642 1087.93 387.002 1085.36L386.995 1085.34L386.854 1084.77C386.783 1084.49 386.713 1084.2 386.643 1083.92C386.569 1083.63 386.144 1083.42 385.708 1083.21L385.707 1083.21C385.505 1083.12 385.301 1083.02 385.128 1082.91C385.053 1083.26 384.979 1083.6 384.905 1083.93L384.719 1084.79C384.47 1085.95 384.227 1087.07 383.985 1088.2L383.534 1088.27L383.212 1088.32C382.823 1088.38 382.434 1088.43 382.044 1088.49C377.94 1077.6 373.826 1066.72 369.714 1055.83L369.674 1055.73L367.941 1051.14C367.66 1051.35 367.374 1051.55 367.087 1051.77Z" fill="currentColor"></path></svg>