<svg width="361" height="356" viewBox="0 0 361 356" fill="none" xmlns="http://www.w3.org/2000/svg"><path fill-rule="evenodd" clip-rule="evenodd" d="M357.389 176.334C357.003 173.185 356.617 170.035 356.204 166.889C357.652 146.974 353.532 127.972 348.93 108.859C342.695 83.0226 327.886 64.2024 306.026 50.1104C301.848 47.4083 297.69 44.6622 293.531 41.9151C285.314 36.4884 277.092 31.0576 268.689 25.9538C257.036 18.8929 245.122 12.1992 232.986 6.09891C223.893 1.53754 213.835 -0.824738 203.591 0.261841C181.805 2.57959 160.057 5.31271 138.345 8.24237C133.397 8.90955 128.472 9.83926 123.55 10.7685C116.216 12.1533 108.887 13.5371 101.491 14.0497C91.5069 14.7432 82.3398 17.5802 75.251 23.5693C62.892 34.0641 51.2753 45.6529 40.5122 57.8091C35.0425 63.9965 30.3981 70.9112 25.7534 77.8261C23.433 81.2807 21.1125 84.7354 18.6891 88.0995C6.4786 104.973 0.28055 123.715 0.020751 144.582C-0.276162 167.782 2.50739 190.133 15.2375 210.284C19.6912 217.323 20.7304 225.218 20.1366 233.395C19.0603 247.877 23.217 260.867 31.011 272.964C37.9884 283.8 46.4133 293.312 56.5826 301.2C81.0779 320.191 108.134 333.652 138.827 339.53C144.673 340.651 150.358 342.775 156.019 344.89C157.006 345.259 157.993 345.627 158.98 345.99C161.339 346.863 163.685 347.797 166.031 348.732C177.2 353.18 188.375 357.632 200.919 355.41C202.149 355.192 203.378 354.975 204.608 354.758C222.65 351.577 240.723 348.39 257.852 341.588C269.803 336.842 281.42 330.99 289.176 320.402C296.839 309.935 306.178 301.188 315.51 292.448C316.754 291.282 317.999 290.117 319.239 288.947C338.019 271.243 351.528 250.614 358.468 225.559C361.141 215.847 361.697 206.431 360.139 196.597C359.049 189.87 358.22 183.103 357.389 176.334ZM204.742 350.262L167.108 343.443C178.762 350.574 191.232 353.24 204.742 350.262ZM348.782 176.92C349.524 151.521 344.365 130.891 339.058 110.161C333.12 86.9869 319.684 69.8281 299.791 57.3381C283.98 47.407 268.059 37.6242 252.025 28.0602C245.419 24.1218 238.442 20.7694 231.501 17.4355C218.251 11.0682 204.222 9.74057 189.822 11.6578C176.933 13.3694 164.056 15.1162 151.178 16.8632C141.175 18.2201 131.172 19.5771 121.161 20.9178C107.54 22.7423 94.5132 26.2838 82.8222 33.9603C75.3994 38.8368 67.9395 43.7208 60.1827 48.0634C53.1681 52.0203 48.566 57.9055 44.5947 64.6437L44.3227 65.1045L43.6826 66.1892C38.8669 74.35 34.049 82.5146 28.6728 90.3282C14.5324 110.999 8.03739 134.05 6.14457 158.726C4.88269 175.611 8.3343 191.149 18.5407 204.87C24.9243 213.437 28.5244 223.038 29.3409 233.61C30.3058 245.492 34.7595 255.954 41.4029 265.681C51.6835 280.819 64.6735 293.275 79.3335 304.1C89.1316 311.335 99.0782 318.526 111.066 321.6C125.392 325.264 139.829 328.653 154.304 331.572C160.422 332.803 166.598 333.682 172.767 334.56L172.767 334.56C177.749 335.27 182.728 335.978 187.669 336.871C202.664 339.571 217.546 340.632 232.726 337.706C255.996 333.215 277.3 325.59 292.368 305.784C296.674 300.151 301.573 294.81 306.954 290.234C322.208 277.292 331.004 260.367 337.833 242.166C346.175 219.943 347.591 196.57 348.778 176.984L348.782 176.92Z" fill="currentColor"></path><path fill-rule="evenodd" clip-rule="evenodd" d="M295.378 154.698C295.3 154.772 295.222 154.846 295.144 154.921L294.959 154.739C295.095 154.719 295.236 154.707 295.378 154.698ZM323.805 152.438C313.712 144.497 305.3 145.255 295.378 154.698C295.43 154.694 295.484 154.691 295.537 154.687C295.957 154.661 296.374 154.635 296.704 154.46C310.768 147.193 312.846 149.638 320.895 159.108C321.451 159.762 322.036 160.449 322.654 161.169C322.84 161.392 323.026 161.649 323.174 161.883C329.485 170.124 332.084 178.257 323.545 188.449C318.533 194.434 315.006 201.083 312.668 208.644C309.178 219.899 301.901 221.486 293.511 213.476C293.474 213.442 293.438 213.408 293.401 213.375C292.993 212.997 292.589 212.625 292.249 212.205C278.4 195.566 259.11 188.067 239.922 180.607C238.689 180.128 237.457 179.649 236.226 179.167C232.332 177.652 227.684 177.799 223.323 177.936C222.944 177.948 222.567 177.96 222.193 177.971C218.666 178.071 215.844 180.665 215.585 184.148C215.468 185.88 216.543 187.748 217.568 189.527C217.847 190.012 218.122 190.491 218.369 190.958C218.941 191.998 219.628 192.967 220.313 193.934C220.918 194.788 221.522 195.64 222.044 196.537C222.702 197.638 223.287 198.796 223.871 199.952C224.903 201.994 225.931 204.031 227.353 205.737C237.971 218.487 251.299 226.943 267.857 229.634C276.322 231.013 284.861 232.032 293.399 232.861C300.119 233.508 303.312 237.738 305.205 243.399C307.804 251.134 307.321 258.787 302.755 265.627C300.509 269 297.783 272.067 295.062 275.128C294.231 276.063 293.4 276.998 292.583 277.942C291.904 278.739 291.109 279.46 290.315 280.18C289.11 281.274 287.909 282.364 287.125 283.71C281.519 293.527 272.943 299.14 262.622 303.255C261.23 303.813 259.787 304.319 258.335 304.828C251.777 307.128 245.037 309.49 241.907 317.056C241.662 317.608 240.862 317.962 240.131 318.286C239.975 318.356 239.823 318.423 239.679 318.491C220.931 327.665 206.081 322.535 202.813 300.207C202.61 298.808 202.633 297.38 202.656 295.951C202.666 295.292 202.677 294.633 202.665 293.977C202.405 280.685 205.635 267.861 209.942 255.624C216.587 236.827 211.946 219.241 206.637 201.563C204.521 194.56 199.843 193.434 193.384 197.043C189.56 199.195 187.815 202.648 188.112 206.633C188.425 211.334 189.294 216.009 190.161 220.668C190.321 221.528 190.48 222.386 190.636 223.245C191.042 225.526 191.657 227.819 192.27 230.108C193.451 234.517 194.629 238.915 194.312 243.202C192.864 260.951 190.265 278.618 187.629 296.252C186.107 306.771 180.909 310.815 170.366 309.552C164.242 308.817 158.186 307.566 151.694 306.224C148.663 305.598 145.536 304.952 142.262 304.329C142.814 303.932 143.359 303.547 143.895 303.169C148.877 299.651 153.076 296.686 154.55 289.873C153.501 290.767 152.586 291.595 151.749 292.352C149.978 293.953 148.553 295.241 146.94 296.185C145.083 297.27 142.262 298.449 140.591 297.791C137.361 296.527 138.438 293.245 139.403 290.795C140.787 287.377 142.298 284.02 143.809 280.664C144.448 279.246 145.086 277.828 145.715 276.406C141.779 279.551 138.141 283.175 136.433 287.554C135.25 290.639 134.938 294.059 134.593 297.831C134.429 299.622 134.258 301.493 133.983 303.444C132.098 302.795 130.137 302.195 128.147 301.587C123.591 300.194 118.881 298.754 114.566 296.553C107.104 292.736 99.7162 289.416 91.2517 288.405C86.1283 287.788 81.4877 285.223 78.7775 280.555C81.4281 280.065 83.926 279.603 86.3681 279.15C88.0992 278.83 89.8022 278.514 91.5115 278.198C87.8839 277.85 86.1219 277.681 84.4732 277.156C82.9161 276.66 81.4601 275.847 78.629 274.265C79.9456 263.96 87.383 259.416 94.8505 254.852C98.1224 252.853 101.4 250.85 104.171 248.357C102.902 247.619 102.026 247.104 101.022 246.515C100.794 246.381 100.558 246.243 100.31 246.097C103.496 243.899 106.469 241.834 109.435 239.773C110.928 238.736 112.419 237.7 113.935 236.648C114.812 237.95 114.929 239.524 115.045 241.082C115.249 243.813 115.448 246.494 119.727 247.573C117.982 239.86 121.249 234.296 126.818 229.872C127.903 229.014 129.078 228.268 130.252 227.523C131.086 226.994 131.919 226.464 132.721 225.895C139.737 220.94 145.64 215.03 148.87 206.834C147.817 207.332 146.785 208.221 145.826 209.046C144.554 210.142 143.411 211.126 142.522 210.937C137.471 209.869 134.679 212.629 131.914 215.363C130.716 216.547 129.523 217.726 128.154 218.587C125.226 220.431 122.513 222.604 119.8 224.776C117.871 226.321 115.941 227.866 113.935 229.292C101.09 238.407 87.5762 246.305 72.689 251.654C64.4842 254.609 61.737 259.509 63.519 268.299C65.895 279.993 80.8194 293.55 92.6624 295.568C96.5958 296.238 100.394 297.612 104.183 298.983C105.651 299.514 107.117 300.045 108.589 300.534C110.636 301.213 112.67 301.965 114.706 302.717C118.763 304.216 122.826 305.717 127.003 306.652C135.71 308.595 144.497 310.165 153.276 311.732C156.438 312.297 159.599 312.862 162.755 313.443C163.303 313.544 163.851 313.647 164.399 313.75C167.343 314.303 170.294 314.857 173.299 315.124C182.32 315.93 188.743 311.994 192.641 303.883C193.363 302.411 194.027 300.911 194.799 299.165C195.099 298.486 195.416 297.769 195.76 297.003C196.266 298.885 196.698 300.682 197.113 302.407C197.976 305.993 198.764 309.27 199.992 312.369C205.449 326.078 217.218 331.133 231.103 326.085C232.453 325.596 233.754 325.021 235.066 324.442C235.378 324.304 235.69 324.167 236.004 324.03L236.006 324.029C242.205 321.312 248.404 318.595 254.566 315.848C256.357 315.053 258.161 314.283 259.963 313.513C264.437 311.603 268.905 309.695 273.166 307.411C280.331 303.567 286.234 298.278 289.576 290.457C290.541 288.145 292.211 285.688 294.29 284.346C300.03 280.558 305.942 277.025 311.304 273.82C312.983 272.817 314.608 271.846 316.157 270.909C316.157 269.613 316.127 268.456 316.098 267.391C316.044 265.358 316 263.664 316.194 261.995C316.383 260.371 316.715 258.763 317.046 257.155C317.432 255.285 317.817 253.417 317.976 251.528C318.682 242.622 315.749 234.623 311.294 227.887C312.378 226.478 313.555 225.159 314.703 223.873C317.174 221.105 319.513 218.487 320.501 215.431C323.312 206.633 328.252 199.322 333.273 191.89C333.558 191.469 333.842 191.049 334.126 190.627C341.106 180.305 340.549 170.86 332.715 161.095C330.116 157.887 327.035 154.988 323.805 152.438ZM77.36 266.018L77.3597 266.018C75.7253 268.285 74.0954 270.545 72.4291 272.857C68.4938 265.181 68.9393 263.17 76.1416 259.219C78.1707 258.094 80.2692 257.057 82.5316 255.94C83.5807 255.421 84.6651 254.886 85.7942 254.316C82.8429 258.415 80.0952 262.225 77.36 266.018ZM191.23 210.056C190.673 202.02 192.307 200.533 201.7 197.671C210.573 220.672 210.981 243.324 199.138 265.995C199.101 264.508 199.035 263.02 198.969 261.532C198.837 258.556 198.705 255.58 198.804 252.613C199.138 243.882 197.356 235.608 194.72 227.337C192.901 221.769 191.639 215.877 191.23 210.056ZM284.898 217.792C273.315 203.15 237.154 185.483 224.309 187.706C223.752 203.827 256.942 220.594 284.898 217.792Z" fill="currentColor"></path><path d="M295.403 154.888C284.094 164.381 270.144 167.574 256.306 170.808C246.783 173.037 237.111 175.359 227.215 173.033C224.909 172.494 222.528 172.04 220.37 171.083C212.67 167.637 210.029 158.896 215.758 152.76C219.85 148.372 225.355 144.416 231.01 142.604C238.785 140.1 247.229 139.236 255.487 138.663C268.21 137.777 280.56 135.459 293.469 131.209C291.46 129.981 290.344 129.3 288.744 128.333C291.274 126.818 293.506 125.475 295.961 123.982C296.891 125.378 297.672 126.543 298.23 127.395C299.57 126.945 300.165 126.848 300.648 126.565C314.896 118.188 311.808 94.2042 300.053 85.5521C297.933 83.9705 295.664 82.3517 293.246 81.3954C286.475 78.7644 282.048 73.9973 278.663 67.7045C276.468 63.6371 273.269 60.1093 269.623 55.1562C268.805 59.4208 268.284 62.0965 267.801 64.7721C267.317 64.8577 266.871 64.9433 266.424 65.0289C265.68 62.4835 264.639 59.9753 264.341 57.3778C264.118 55.6474 257.719 53.623 264.527 52.1977C255.264 40.8067 236.143 43.3558 231.084 56.4252C230.452 58.0886 229.708 59.7744 229.447 61.516C226.657 80.011 218.064 96.4966 211.368 113.63C209.917 117.373 207.202 120.778 204.486 123.83C202.217 126.36 199.055 127.361 195 124.113C202.18 119.941 204.04 112.911 206.606 106.172C209.136 99.5146 212.447 93.1622 215.088 86.542C217.952 79.3933 220.408 72.092 223.012 64.8503C223.309 64.0167 223.458 63.1236 223.644 62.2565C228.108 44.0591 237.743 37.5728 256.306 40.7918C259.654 41.3686 263.337 43.0246 265.717 45.3653C271.595 51.1818 277.398 57.255 282.086 64.0316C285.954 69.6359 289.898 73.9601 296.556 76.3418C309.056 80.8148 316.458 90.1331 318.504 103.288C321.22 120.89 312.701 134.927 294.734 141.275C282.681 145.536 270.107 147.877 257.161 148.048C250.354 148.138 243.435 148.532 236.813 149.913C232.014 150.91 227.178 153.158 223.123 155.949C218.064 159.439 218.771 164.794 224.425 166.875C228.815 168.467 233.688 169.346 238.338 169.297C255.487 169.126 271.893 165.326 287.442 157.947C290.046 156.723 292.836 156.008 295.589 155.063C295.589 155.07 295.403 154.888 295.403 154.888Z" fill="currentColor"></path><path d="M147 195.705C143.82 199.05 140.935 202.695 137.459 205.68C123.517 217.649 109.501 229.645 93.0438 237.968C84.6859 242.193 75.7733 245.575 66.7498 248.081C58.0961 250.476 49.7382 248.018 42.4159 242.716C36.8316 238.673 33.4663 233.272 33.3924 226.192C33.3554 216.112 33.0595 206.014 33.5773 195.961C33.9841 188.046 31.8391 181.448 26.8096 175.471C24.1469 172.316 21.5952 168.941 19.7091 165.288C13.8291 153.864 23.999 138.342 36.8317 139.022C38.052 139.085 39.1985 140.306 39.8641 140.692C35.3524 143.677 30.6187 146.064 26.8466 149.524C21.8541 154.106 21.928 158.238 25.7741 163.695C26.4768 164.657 27.1794 165.637 28.03 166.427C38.9026 176.407 42.231 189.148 42.12 203.43C42.083 209.916 43.3774 216.398 43.7842 222.903C44.3019 231.553 49.5164 236.234 56.9497 239.011C67.2676 242.876 77.5854 241.465 87.0897 236.966C96.1132 232.704 104.841 227.528 112.829 221.547C124.145 213.031 134.611 203.408 145.484 194.26C146.001 194.739 146.482 195.222 147 195.705Z" fill="currentColor"></path><path d="M101.078 52.4795C98.4484 54.9828 95.7815 57.4898 93.2998 59.8409C92.2257 53.122 93.5962 51.0867 104.782 43.417C104.708 41.5303 104.597 39.7029 104.523 37.8719C105.894 38.2396 107.301 38.5255 108.635 39.0009C109.82 39.4206 110.931 40.52 112.079 40.5052C117.08 40.4383 122.117 40.0409 127.118 39.8255C132.563 39.5915 136.711 36.8393 139.971 32.7909C152.601 17.0913 170.233 14.1646 188.642 14.0012C198.717 13.912 206.791 18.8407 212.088 27.7434C222.163 44.665 222.237 62.1734 214.459 79.7672C210.421 88.9373 205.273 97.6247 199.013 106C199.42 104.121 199.754 102.223 200.272 100.373C203.458 88.9707 206.866 77.6278 209.829 66.1735C212.533 55.7034 210.347 45.5192 206.754 35.6508C203.161 25.7972 196.272 20.1258 185.419 19.8509C168.603 19.4164 152.972 22.3802 140.971 35.5988C135.563 41.5637 128.599 43.2685 120.969 43.5693C113.042 43.885 106.042 46.4366 100.782 52.7655L101.078 52.4795Z" fill="currentColor"></path><path d="M65.992 137.522C55.8605 138.337 45.8779 138.449 36.0444 135.072C26.8813 131.922 24.4974 127.685 26.8441 118.147C27.8125 114.145 28.8182 110.045 28.9672 105.961C29.228 98.2248 31.6864 91.4711 36.2679 85.3281C43.494 75.622 52.4709 67.9413 63.2356 62.4982C71.989 58.0603 79.8111 59.5496 87 66.8505C83.5359 66.8505 80.7795 66.6569 78.0232 66.8989C74.2611 67.2302 70.0148 66.9287 66.8487 68.5929C55.8977 74.3599 46.7346 82.3943 40.7377 93.4034C38.9498 96.7169 38.0931 100.6 37.1618 104.316C35.8209 109.74 34.9269 115.276 33.6605 120.716C32.4313 125.898 32.9528 127.421 37.9441 129.901C44.686 133.263 51.8004 135.012 59.399 135.061C61.6339 135.072 65.0608 133.367 65.9175 137.522H65.992Z" fill="currentColor"></path><path d="M175.294 147C169.89 137.947 164.375 128.865 159.045 119.685C154.964 112.717 151.692 105.45 152.023 97.0424C152.17 93.9739 152.427 90.9389 155.663 89.5818C159.192 88.1165 162.206 89.5594 164.228 92.3408C167.684 97.1021 171.103 101.968 173.86 107.165C178.786 116.509 180.036 126.792 179.999 137.362C175 121.799 171.507 105.525 158.751 93.1425C155.074 98.6568 156.692 103.705 158.604 108.038C161.545 114.782 165.552 121.057 169.118 127.53C171.544 131.933 174.154 136.251 176.36 140.762C177.536 143.19 177.279 143.335 175.294 147" fill="currentColor"></path><path d="M105 79C136.791 88.8665 155.991 110.635 165 142C162.452 138.947 159.757 136.012 157.431 132.807C155.031 129.469 152.778 125.972 150.748 122.367C141.702 106.116 127.375 95.2505 112.68 84.7771C110.058 82.9229 107.548 80.9282 105 79Z" fill="currentColor"></path><path d="M245.584 131.909C253.095 128.822 260.607 125.765 268.081 122.568C268.451 122.394 268.34 121.004 268.525 119.67C255.463 115.157 246.62 125.152 236 128.767C242.994 121.98 250.505 116.218 260.533 115.175C266.083 114.595 271.486 114.743 273.077 121.951C281.735 120.454 289.58 118.058 296.426 113.294C298.35 111.974 300.681 109.028 300.385 107.254C299.719 103.55 295.871 104.282 293.021 104.496C290.209 104.707 287.397 105.398 284.511 105.384C288.581 101.828 293.502 101.635 298.35 102.305C303.789 103.051 305.75 107.768 302.235 111.982C300.052 114.61 296.981 116.816 293.909 118.324C290.246 120.11 286.176 121.156 282.18 122.132C277.036 123.385 272.189 124.775 267.489 127.576C260.903 131.495 253.095 132.308 245.584 131.909Z" fill="currentColor"></path><path d="M118.087 188.055C111.727 191.713 105.034 193.827 97.8228 192.694C93.6812 192.045 89.5025 190.795 88.3192 185.948C87.2468 181.466 88.9479 177.532 92.3499 174.824C95.0494 172.673 98.2665 170.697 101.558 169.891C105.477 168.929 109.73 168.84 113.798 169.183C125.483 170.163 137.094 171.558 150 172.919C146.931 173.825 144.638 175.074 142.345 175.071C135.282 175.063 128.219 174.604 121.193 174.261C115.905 174.004 110.617 173.493 105.293 173.396C100.559 173.311 96.7874 175.548 94.014 179.359C90.7968 183.789 91.8322 187.663 97.2681 188.558C102.408 189.405 107.77 188.722 113.021 188.618C114.722 188.584 116.423 188.252 118.087 188.055Z" fill="currentColor"></path><path d="M141.288 271.234C140.427 272.369 139.678 273.575 138.704 274.62C136.008 277.588 133.011 280.037 128.554 278.555C124.584 277.23 122 273.176 122 267.822C122 259.789 124.472 252.398 129.603 246.276C133.798 241.266 138.779 236.913 143.386 232.232C149.79 225.703 156.157 219.137 162.15 213C163.423 217.677 163.723 218.398 159.753 222.478C154.36 228.021 148.217 232.867 142.562 238.16C138.217 242.218 133.723 246.212 129.978 250.789C126.307 255.298 125.071 260.939 125.558 266.826C126.195 275.102 130.464 277.211 137.356 272.634C138.33 271.981 139.229 271.171 140.165 270.436C140.539 270.701 140.914 270.969 141.288 271.234Z" fill="currentColor"></path><path d="M77.3412 159.437C71.3548 156.625 69.4585 153.92 70.1277 149.317C70.797 144.655 74.3294 143.327 78.1592 142.447C85.1868 140.826 92.2515 139.649 98.7585 144.163C99.874 145.114 100.99 146.061 102.105 147.009C112.07 151.878 122.035 156.754 132 161.627C131.851 162.086 131.703 162.545 131.591 163C127.873 161.942 124.043 161.194 120.473 159.759C113.929 157.11 107.645 153.669 100.99 151.29C94.6684 149.018 88.0499 147.279 81.3941 146.154C79.0144 145.747 74.9615 147.105 73.9204 148.933C72.9165 150.661 74.8128 154.079 75.6308 156.71C75.9283 157.742 76.6719 158.649 77.1925 159.615L77.3412 159.437Z" fill="currentColor"></path><path d="M73.5522 166.25C67.7007 165.789 61.812 165.268 55.9233 164.905C54.1715 164.799 52.308 164.844 50.6308 165.339C46.3075 166.624 45.2639 171.036 49.0655 173.341C52.4571 175.411 56.6687 176.71 60.6566 177.133C66.5081 177.753 72.4714 177.292 80 177.292C70.4588 182.328 56.1469 182.052 48.5064 177.568C43.214 174.466 41.2014 170.995 42.2822 166.816C43.3631 162.657 48.0592 159.333 53.6498 160.115C60.5821 161.089 67.4026 163.095 74.2603 164.656C74.0367 165.188 73.7758 165.721 73.5522 166.25Z" fill="currentColor"></path><path d="M79.9049 217.298C83.9071 218.628 87.6155 219.856 92.1684 221.354C89.3779 221.587 87.1015 222.362 85.2656 221.799C82.3649 220.937 78.987 219.786 77.2613 217.616C74.8012 214.562 76.2699 210.506 78.8401 208.062C81.9243 205.103 85.5593 202.012 89.5248 200.799C99.4384 197.763 109.682 195.75 120 194C116.622 198.676 111.482 199.488 106.562 200.737C101.458 202.034 96.1706 202.71 91.2505 204.46C85.9999 206.338 81.0064 209.118 79.9049 217.298Z" fill="currentColor"></path><path d="M236.183 70.2041C238.263 67.8475 240.052 65.0407 242.535 63.2883C244.141 62.1476 247.719 61.4984 248.777 62.4816C250.274 63.9187 250.822 67.0145 250.858 69.4123C250.858 71.6187 249.653 73.8327 248.668 76.9734C251.917 75.4162 254.29 73.7651 256.918 73.206C258.89 72.782 261.664 73.1009 263.088 74.3167C264.147 75.206 264.22 78.298 263.635 80.0279C262.869 82.4295 261.044 84.4745 258.707 86.2607C259.875 83.195 261.044 80.1292 262.212 76.9772C255.02 75.3599 255.02 75.3599 242.498 91C240.271 88.5159 239.979 86.1631 242.097 83.2137C244.104 80.3431 245.82 77.1273 247.098 73.8364C248.23 70.9846 248.595 67.81 249.325 64.733C242.243 61.7498 240.417 68.947 236 70.0164L236.183 70.2041Z" fill="currentColor"></path><path d="M182.683 112C177.613 101.117 173.564 89.9828 174.038 77.7911C174.111 75.8267 175.606 72.9705 177.211 72.2739C178.853 71.5405 181.735 72.3955 183.522 73.4754C187.425 75.8267 189.431 80.8058 191 90.1412C187.17 84.8046 186.623 77.1019 178.342 75.3108C174.986 88.4938 183.559 99.6904 182.683 112" fill="currentColor"></path><path d="M232.08 118.982C233.03 115.313 233.981 111.643 235.151 107.051C226.961 107.648 222.647 111.702 219.246 116.913C216.687 120.81 214.713 125.083 212.007 128.866C210.325 131.221 207.839 132.975 205.682 135C205.133 134.487 204.548 133.975 204 133.462C209.411 125.797 214.457 117.836 220.416 110.614C222.793 107.696 226.924 105.7 230.654 104.506C236.284 102.715 239.209 105.821 237.527 111.552C236.686 114.463 234.566 117.005 233.03 119.711C232.738 119.469 232.409 119.224 232.08 118.982Z" fill="currentColor"></path><path d="M246 115.063C250.765 112.629 255.529 110.142 260.331 107.772C263.507 106.208 266.942 105.084 269.971 103.277C273.295 101.276 276.065 98.566 275.364 93.7241C268.494 90.3979 263.064 95.4115 257.044 96.5165C261.291 92.6042 266.167 90.2859 271.781 90.0134C277.247 89.7446 280.535 93.5449 278.282 98.5025C276.693 102.053 273.775 105.864 270.451 107.552C262.916 111.359 254.754 113.928 246.886 117C246.591 116.354 246.295 115.708 246 115.063Z" fill="currentColor"></path><path d="M112 96.2412C118.729 93.7064 122.953 95.3466 126.168 98.5262C129.907 102.213 133.383 106.358 136.187 110.801C140.374 117.47 143.888 124.571 148 132C141.794 127.713 137.981 121.976 134.654 115.912C129.832 107.159 123.738 99.8868 112 96.2412" fill="currentColor"></path><path d="M132.044 51.114C128.114 50.1812 125.846 49.6477 122.634 48.8828C122.143 51.3901 121.198 53.5915 121.387 55.7108C122.03 64.2738 125.431 71.8443 131.024 78.385C134.311 82.2355 137.901 85.8137 141 90C136.087 88.1195 132.497 84.3734 129.096 80.5229C122.974 73.624 119.309 65.6133 118.288 56.4458C117.873 52.8154 117.381 49.1664 120.934 46.7523C123.428 45.0733 125.922 46.0695 132.044 51.114Z" fill="currentColor"></path><path d="M170.096 55C164.097 47.0651 162.512 39.4134 162.021 31.5079C161.795 27.7666 163.342 24.397 167.417 23.2823C171.605 22.1272 174.472 24.6802 176.057 27.9653C177.679 31.2724 178.396 34.9879 179 38.6887C174.925 35.2197 175.868 27.1266 167.266 27.8917C163.644 36.9413 168.813 45.0491 170.096 55" fill="currentColor"></path><path d="M144.03 145C141.12 141.735 138.061 138.619 135.412 135.163C133.062 132.111 131.308 128.64 129.145 125.431C123.176 116.437 115.304 110.142 104 108.91C110.678 106.746 116.498 108.618 121.198 112.655C125.414 116.268 129.07 120.676 132.353 125.169C136.867 131.28 140.822 137.803 145 144.154C144.664 144.435 144.366 144.715 144.03 145" fill="currentColor"></path><path d="M223 315.71C210.222 317.779 204.714 308.818 207.872 288C209.23 293.09 209.818 298.657 212.241 303.138C214.812 307.787 219.181 311.38 223 315.71Z" fill="currentColor"></path><path d="M72 88.3855C72.5215 81.2758 73.8999 79.4551 79.5995 79.0639C85.1502 78.6839 90.3655 79.9592 94.3888 83.9692C97.8533 87.4639 100.796 91.489 104 95.2809C103.478 95.8527 102.92 96.4244 102.398 97C100.498 95.2207 98.7101 93.2909 96.6612 91.7034C93.1967 88.9874 89.844 85.7673 85.8952 84.0633C79.3388 81.2231 76.3958 82.536 72 88.3855" fill="currentColor"></path><path d="M204 185C208.851 186.221 212.036 189.436 213.955 193.67C216.633 199.677 218.661 205.979 220 213C217.864 210.544 215.149 208.39 213.629 205.569C210.19 199.065 207.33 192.235 204 185Z" fill="currentColor"></path><path d="M269 291C254.726 290.199 248.451 278.573 250.323 255C250.946 258.759 251.313 262.608 252.341 266.262C253.845 271.664 255.35 277.152 257.735 282.185C259.9 286.846 263.789 290.143 269 291Z" fill="currentColor"></path><path d="M102.325 147.75C101.216 146.834 100.108 145.919 99 145C103.876 145.615 108.79 146.048 113.592 146.885C122.79 148.476 131.952 150.296 142 152.188C138.638 154.734 135.387 154.008 132.506 153.5C124.97 152.17 117.545 150.421 110.046 148.919C107.497 148.404 104.911 148.133 102.325 147.75Z" fill="currentColor"></path><path d="M288.312 178.018C290.872 177.861 293.243 178.717 292.98 181.446C292.829 183.072 291.023 185.36 289.479 185.884C280.294 188.949 271.072 188.845 262 184.512C267.27 184.512 272.578 184.755 277.848 184.429C281.386 184.213 285 183.577 288.312 182.403C290.759 181.54 291.211 179.513 288.35 178.033L288.312 178.018Z" fill="currentColor"></path><path d="M314 78C328.178 87.6289 333.111 99.8195 331.796 115C330.846 110.778 330.188 106.473 328.909 102.363C327.593 98.1737 326.168 93.8768 323.939 90.1757C321.564 86.2921 318.202 83.0565 314 78Z" fill="currentColor"></path><path d="M248.575 287C252.361 290.554 253.708 295.019 252.652 300.086C251.669 304.721 248.029 306.465 244.352 303.625C241.803 301.66 240.129 298.584 239 295.157C241.621 297.437 244.279 299.713 247.155 302.213C252.398 296.908 248.32 292.03 248.575 287Z" fill="currentColor"></path><path d="M54.2518 203.837C52.6042 203.336 50.3202 203.343 49.3841 202.241C47.437 199.903 44.6288 196.74 45.0406 194.38C45.4151 192.008 49.0846 188.75 51.6307 188.427C58.3331 187.592 65.1478 188.148 72 188.687C64.062 191.196 54.7385 187.51 46.9877 194.718C49.4215 197.861 51.7805 200.931 54.102 204L54.2518 203.837Z" fill="currentColor"></path><path d="M228 162.318C238.25 161.183 248.801 160.018 258 159C250.641 165.383 238.1 166.971 228 162.318Z" fill="currentColor"></path><path d="M112 263C109.274 271.048 100.038 275.843 105.186 284.876C101.098 285.455 99.1292 283.988 99.0156 280.863C98.7128 272.481 102.801 266.675 112 263Z" fill="currentColor"></path><path d="M232.519 283C233.041 286.128 233.862 289.245 233.974 292.388C234.198 297.135 233.041 301.863 228.154 303.519C222.745 305.346 219.499 301.64 217 297.886C220.357 298.803 224.237 301.24 227.072 300.331C231.736 298.829 230.803 293.482 230.878 289.332C230.915 287.264 230.728 285.189 230.616 283.113C231.251 283.075 231.885 283.038 232.519 283Z" fill="currentColor"></path><path d="M288.037 178C288.66 176.801 289.064 174.932 290.054 174.515C295.3 172.288 300.95 170.807 306.049 168.299C309.167 166.767 311.625 163.841 315 161C313.679 163.86 312.469 166.452 311.295 169.045L311.332 169.081C306.636 170.793 301.977 172.467 297.318 174.234C294.163 175.418 291.118 176.731 288 177.989L288.037 178Z" fill="currentColor"></path><path d="M182.112 245C186.832 253.22 185.748 262.387 179 270C180.014 261.67 181.098 253.169 182.112 245Z" fill="currentColor"></path><path d="M150 63C155.578 71.5356 161.155 80.0675 167 89C159.474 84.8947 152.407 74.4766 150 63Z" fill="currentColor"></path><path d="M311.629 169.261C313.989 169.173 316.387 169.06 318.785 169.005C322.007 168.927 324.892 169.812 325.791 173.169C326.84 177.267 323.768 179.336 320.545 180.099C314.551 181.537 308.369 182.253 302 181.919C305.747 181.171 309.606 180.69 313.24 179.597C316.836 178.518 320.208 176.819 323.917 175.293C321.52 168.208 315.637 170.857 311.666 169.302C311.666 169.298 311.629 169.261 311.629 169.261Z" fill="currentColor"></path><path d="M174.53 278C175.342 282.496 176.153 286.948 177 291.619C173.966 294.142 171.955 293.022 170.65 289.769C168.956 285.621 170.685 280.429 174.53 278Z" fill="currentColor"></path><path d="M193 44.4659C187.685 42.9381 185.797 45.4567 185.451 49.6011C185.142 53.3971 185.104 57.2076 183.833 61C181.676 55.9846 181.329 50.8495 183.294 45.8341C185.104 41.2288 187.762 40.7715 193 44.4659Z" fill="currentColor"></path><path d="M267 250C272.547 256.42 278.543 262.067 289 262.451C278.993 266.453 272.959 262.836 267 250Z" fill="currentColor"></path><path d="M173 174C165.964 183.888 163.895 185.249 154 187C158.251 184.14 161.224 182.177 164.158 180.167C167.131 178.135 170.065 176.057 173 174Z" fill="currentColor"></path><path d="M156 154.463C159.06 152.267 160.896 150.643 163 149.555C164.109 148.974 166.175 148.743 166.94 149.388C167.819 150.112 168.202 152.13 167.896 153.359C166.787 157.665 163.688 158.302 156 154.463" fill="currentColor"></path><path d="M275.002 270C279.652 272.23 283.502 274.086 288 276.252C286.971 279.129 284.074 279.421 281.329 278.604C277.365 277.432 274.925 274.747 275.002 270Z" fill="currentColor"></path><path d="M213.317 288C210.358 279.811 212.883 271.911 216 264C215.132 271.915 214.224 279.83 213.317 288Z" fill="currentColor"></path><path d="M295 293C295.037 301.798 285.607 303.013 282 309C283.202 301.324 290.867 298.557 295 293Z" fill="currentColor"></path><path d="M278 236C286.512 240.156 291.275 245.384 293 254C287.9 247.882 283.4 242.466 278 236Z" fill="currentColor"></path><path d="M155 261C161 269.253 162.962 269.368 173 261.736C169.302 267.754 166.623 269.45 161.755 268.904C157.792 268.457 156.887 267.468 155 261" fill="currentColor"></path><path d="M169 221C170.039 214.97 171.193 208.457 172.116 203C175.194 209.215 174.732 212.392 169 221Z" fill="currentColor"></path><path d="M248 232C251.614 237.107 255.193 242.213 260 249C251.506 242.541 249.807 240.283 248 232Z" fill="currentColor"></path><path d="M166 279C165.264 284.332 164.529 289.668 163.756 295C160.336 289.006 162.359 283.871 166 279Z" fill="currentColor"></path><path d="M52 112C57.5168 114.868 62.5288 117.476 67 119.804C57.8413 120.59 54.9567 119.214 52 112Z" fill="currentColor"></path><path d="M79 132.736C69.758 135.319 66.3973 134.198 63 127C68.4429 128.958 74.2511 131.041 79 132.736Z" fill="currentColor"></path><path d="M101.982 125C106.964 127.694 111.982 130.385 117 133.075C116.673 133.718 116.382 134.361 116.055 135C110.018 134.457 105.255 131.263 101 126.971C101.327 126.313 101.655 125.658 101.982 125Z" fill="currentColor"></path><path d="M78 160.188C85.3577 161.117 92.6789 162.039 100 162.969C92.5324 163.285 84.7354 166.391 78.1464 160L78 160.188Z" fill="currentColor"></path><path d="M218 220.091C218.68 226.027 219.32 231.958 220 237.886C219.64 237.924 219.28 237.962 218.92 238C217.96 231.996 216.96 226 216 220C216.64 220.03 217.32 220.061 218 220.091Z" fill="currentColor"></path><path d="M72 100C66.2577 98.6533 60.5521 97.3067 54 95.7608C61.3988 93.681 67.1043 96.1194 72 100Z" fill="currentColor"></path><path d="M101 53.2813C102.704 53.2813 104.37 53.2813 107 53.2813C99.4074 57.4795 106.407 61.7288 105.704 66C100.852 62.5728 101.889 57.5197 101.296 53L101 53.2813" fill="currentColor"></path><path d="M182.015 230C181.022 226.332 179.993 222.664 179 219C183.265 221.709 183.375 225.701 184 229.533C183.338 229.69 182.676 229.843 182.015 230Z" fill="currentColor"></path><path d="M235.799 70C233.871 74.9988 231.944 80.0012 230.016 85C229.815 79.1967 231.502 74.1234 236 70.1937C236 70.1862 235.799 70 235.799 70Z" fill="currentColor"></path><path d="M238 270C239.886 265.336 241.192 261.993 242.788 258C243.477 262.841 242.642 266.372 238 270Z" fill="currentColor"></path><path d="M144 191.908C140.667 193.937 137.333 195.967 134 198C136.097 193.685 139.431 191.597 142.989 190C143.326 190.633 143.663 191.27 144 191.908Z" fill="currentColor"></path><path d="M189.883 333C188.551 331.4 187.424 330.528 187.015 329.347C186.844 328.836 188.21 326.974 188.79 327C189.883 327.05 190.941 328.067 192 328.68C191.42 329.857 190.839 331.034 189.883 333Z" fill="currentColor"></path><path d="M297.151 184C301.113 184.573 305.038 185.146 309 185.718C308.925 186.148 308.887 186.574 308.811 187C304.887 186.464 300.925 185.928 297 185.388C297.038 184.925 297.113 184.463 297.151 184Z" fill="currentColor"></path><path d="M300 246C297.706 242.377 295.689 239.195 293 235C299.169 239.417 299.169 239.417 300 246Z" fill="currentColor"></path><path d="M134.019 313C135.406 314.64 136.594 315.561 136.99 316.744C137.148 317.264 135.366 319.11 135.128 318.995C133.94 318.395 132.673 317.522 132.039 316.402C131.761 315.962 133.029 314.64 134.019 313Z" fill="currentColor"></path><path d="M186 315.814C188.37 314.879 190.778 313.939 193.185 313C193.444 313.618 193.704 314.239 194 314.854C191.519 315.904 189.037 316.95 186.593 318C186.37 317.271 186.185 316.543 186 315.814Z" fill="currentColor"></path><path d="M228.492 21C230.649 21.966 232.843 22.9286 235 23.8946C234.773 24.2631 234.546 24.6315 234.357 25C232.238 23.9544 230.119 22.9087 228 21.8598C228.151 21.5743 228.341 21.2855 228.492 21Z" fill="currentColor"></path><path d="M248 49.663C246.337 50.7778 244.675 51.8889 242.976 53C242.651 52.5185 242.325 52.0333 242 51.5481C243.627 50.3667 245.253 49.1815 246.916 48C247.277 48.5519 247.639 49.1074 248 49.663Z" fill="currentColor"></path><path d="M249 326.14C251.817 325.425 254.671 324.711 257.524 324C257.671 324.482 257.854 324.967 258 325.449C255.183 326.299 252.402 327.15 249.585 328C249.402 327.379 249.183 326.757 249 326.14" fill="currentColor"></path><path d="M147 48C147 49.6568 147 51.3173 147 52.9741C146.833 52.9852 146.611 52.9926 146.444 53C146.278 51.3803 146.111 49.7569 146 48.1408C146.333 48.0927 146.667 48.0445 147 48Z" fill="currentColor"></path><path d="M71 50.0612C71.7241 48.7086 72.4828 47.3526 73.2069 46C73.7931 46.3408 74.4138 46.678 75 47.0188C74.2069 48.347 73.4138 49.6718 72.6207 51C72.069 50.6871 71.5172 50.3741 71 50.0612Z" fill="currentColor"></path><path d="M200.844 65C201.731 66.104 202.617 66.824 202.972 67.796C203.149 68.304 202.44 69.252 202.085 70C201.057 69.184 200.028 68.364 199 67.544C199.497 66.868 199.993 66.192 200.844 65Z" fill="currentColor"></path><path d="M54 204.183C57.3462 204.183 60.6923 204.183 64 204.183C63.9615 204.793 63.8846 205.394 63.8462 206C60.6154 205.333 57.3846 204.663 54.1538 204C54.1538 204.004 54 204.183 54 204.183Z" fill="currentColor"></path><path d="M61 211.839C59.4797 212.558 57.9257 213.277 56.3716 214C56.2365 213.664 56.1351 213.328 56 212.992C57.5878 212.327 59.1419 211.665 60.6959 211C60.7973 211.278 60.8986 211.557 61 211.839Z" fill="currentColor"></path><path d="M66 137.731C68.655 137.486 71.31 137.243 73.9301 137C73.9651 137.334 74 137.669 74 138C71.3799 137.903 68.7598 137.806 66.1048 137.72C66.0699 137.731 66 137.731 66 137.731" fill="currentColor"></path><path d="M115 276.833C115.67 275.555 116.309 274.278 116.979 273C117.33 273.174 117.649 273.345 118 273.52C117.457 275.014 116.947 276.509 116.404 278C115.926 277.612 115.479 277.221 115 276.833" fill="currentColor"></path><path d="M69 226.291C67.3247 227.528 65.6494 228.764 63.974 230C63.6623 229.547 63.3506 229.098 63 228.65C64.6753 227.433 66.3896 226.217 68.0649 225C68.3766 225.433 68.6883 225.862 69 226.291Z" fill="currentColor"></path><path d="M256 208C251.435 205.593 248.595 204.11 245 202.226C250.859 201.67 250.859 201.663 256 208Z" fill="currentColor"></path></svg>