<svg xmlns="http://www.w3.org/2000/svg" xmlns:xlink="http://www.w3.org/1999/xlink" viewBox="0 0 118.1 148.56"><defs><style>.cls-1{fill:none;}.cls-2{fill:#ae1747;}.cls-2,.cls-3,.cls-4,.cls-6{fill-rule:evenodd;}.cls-3{fill:#021a2f;}.cls-4{fill:#ed245c;}.cls-5{clip-path:url(#clip-path);}.cls-6{fill:#ff7299;}</style><clipPath id="clip-path"><path class="cls-1" d="M99,64.55c-5,1.25-29.4,5.57-40.77-.9-9.18-5.22-13.52-27.47-11.68-36,.51-2.36,2.8-10.17,6.33-10.48,5.44-.49,3.86,13.26,3.63,15.55-.14,1.32-.24,2.65-.39,4-.08.73-.75,2.71-.26,2.18S66.1,16.91,71.42,22.46c3.9,4.08-.72,12.24-2.14,15.77-.5,1.24-1,2.49-1.51,3.71-.35.81-1.86,2.88-1.07,2.41,1.17-.71,13.13-14,15.9-10.08s-2.91,9.53-5,12.08c-.78,1-1.64,1.85-2.43,2.8-.42.51-1.92,1.78-1.29,1.49,5.51-2.52,17.65-12,23-5.57,2.88,3.45-6.81,7.69-8.37,8.42-.77.36-1.57.68-2.35,1-.44.2-1.81.72-1.31.62,3.35-.66,24.33-5.07,25.29,2.2C110.81,62.06,102.61,63.64,99,64.55Z"/></clipPath></defs><g id="Layer_2" data-name="Layer 2"><g id="OBJECTS"><path class="cls-2" d="M55.3,46.3c-1.13-11.76-1.47-20.9,2.61-31.7,1-2.62,2.94-9.53,7.52-8.48,5.78,1.33,6.12,15.31,6.84,14.23,2.43-3.59,11-12.78,14.8-8.12,4,4.84-.63,15.78-2.81,19.52-.78,1.32,14.9-13.2,19.91-6.34,3,4.17-3.57,12.06-6,14.36-1.66,1.6,9.92-.74,13.25,3,4.63,5.25-5.62,10.89-8.84,12.58C92,60.91,73.89,67.1,61.42,57.93Z"/><path class="cls-3" d="M86.06,8.74a.9.9,0,0,1-.31-.57,1.55,1.55,0,0,1,0-.48,1.86,1.86,0,0,1-.07-.82A2.19,2.19,0,0,1,86,6l.76-.91a3.21,3.21,0,0,1,1.45-.67,1.13,1.13,0,0,1,1.32,1.26,5,5,0,0,1-.29,1,4.43,4.43,0,0,1-1.41,2.09,1.68,1.68,0,0,1-.62.26c-.55,1.2-1.12,2.41-1.73,3.6-2.23,4.31-4.67,8.59-6.86,13-1.49,3-2.52,6.11-3.88,9.07l.65.41,1.3.88c1.85-2.43,4.1-4.55,6-6.9,2.38-2.75,4.41-5.82,6.74-8.63a47.33,47.33,0,0,1,3.82-4.05,2,2,0,0,1,.37-1,5.08,5.08,0,0,1,1.23-1.14l.19-.17.63-.41.4-.18c1-.36,1.42.09,1.56.52a3.73,3.73,0,0,1-.51,1.9,3.59,3.59,0,0,1-1.42,1.42,2.29,2.29,0,0,1-1.55.21l-.1,0C93,19,92,20.49,91,22s-2,2.75-3.07,4.11S85.61,29,84.39,30.43c-1.62,1.84-3.35,3.58-5,5.35-.4.41-.76.85-1.12,1.28,1.09.84,2.14,1.73,3.15,2.66.46-.48.94-.94,1.43-1.39,1.78-1.65,3.74-3.14,5.68-4.62,1.27-1,2.55-1.91,3.73-3,2.42-2.06,4.66-4.28,7.06-6.32,1.16-1,2.36-1.92,3.6-2.82a.58.58,0,0,1,0-.37l-.14-.06h0c.19.28-.18,0,0,0l0-.06c-.11-.14,0-.29.08-.48a1.46,1.46,0,0,1,.41-.5,5.16,5.16,0,0,1,1.75-1A2.51,2.51,0,0,1,106,19h0a.16.16,0,0,1,.19.05h0a1.08,1.08,0,0,1,.74.79,1.09,1.09,0,0,1,0,.73,2.86,2.86,0,0,1-.65.82,5,5,0,0,1-.81.58,3.37,3.37,0,0,1-1,.37,1.77,1.77,0,0,1-1.12-.09l-.94.92c-1.21,1.18-2.34,2.42-3.5,3.63-1.76,1.84-3.55,3.63-5.4,5.39-.87.79-1.78,1.56-2.72,2.27-1.32,1-2.7,2-4.07,2.92a50.15,50.15,0,0,0-4.36,3.28c.65.63,1.28,1.27,1.89,1.93.92-.54,1.88-1,2.82-1.54,4.19-2.23,8.59-4.14,13-6,2.38-1,4.77-2,7.1-3.09a2.75,2.75,0,0,1,.21-.51,1.76,1.76,0,0,1,.79-1,4.15,4.15,0,0,1,2.16-.4,2.8,2.8,0,0,1,1.09.18,1,1,0,0,1,.57.69.87.87,0,0,1-.07.62,3.47,3.47,0,0,1-.8.79A5.81,5.81,0,0,1,110,33a4.23,4.23,0,0,1-1.29.37,1.51,1.51,0,0,1-1.28-.3c-2,1.19-4,2.31-6.1,3.33-5.29,2.56-10.77,4.77-15.92,7.5.43.5.86,1,1.27,1.52a1.83,1.83,0,0,0,.13.16c1.14-.17,2.29-.29,3.42-.51,2.6-.51,5.15-1.16,7.71-1.78s5.18-1.27,7.79-1.8q3.56-.72,7.18-1.12a1,1,0,0,1,.3-.65,2.23,2.23,0,0,1,1.29-.44l.24,0,.78-.2.79.06c1.26.28,1.25,1.11,1.18,1.47a2.25,2.25,0,0,1-1.27,1.15,4.42,4.42,0,0,1-2,.17,1.58,1.58,0,0,1-1.15-.84c-2.88.67-5.69,1.52-8.52,2.33-2.2.63-4.4,1.22-6.62,1.76-1.49.36-3,.67-4.5.94-1.85.33-3.71.6-5.6.77a33,33,0,0,1,2.64,4.24c1.88,0,3.78,0,5.65-.13,4-.18,7.89-.79,11.84-1.11,1.9-.15,3.8-.22,5.71-.21a.7.7,0,0,1,.26-.31,1,1,0,0,1,.43-.46,2.35,2.35,0,0,1,.94-.22h1a4.73,4.73,0,0,1,1.54.76.83.83,0,0,1-.06,1.27,3.06,3.06,0,0,1-2.22.53,2.46,2.46,0,0,1-1.3-.54.74.74,0,0,1-.54-.32l0-.06c-2,.28-4,.66-6,1q-2.74.48-5.5.92-3,.45-6,.71c-1.63.07-3.28.25-4.9.23a11.86,11.86,0,0,1,.35,1.22,5.52,5.52,0,0,1-1.08,5.27,3.62,3.62,0,0,1-3.6.75A14.64,14.64,0,0,1,84,59.24a27.25,27.25,0,0,1-7.22-1.82A58.23,58.23,0,0,1,65.18,51.9a49.28,49.28,0,0,1-10-8.07,20.51,20.51,0,0,1-4-6,8.73,8.73,0,0,1-.64-3.69,3.35,3.35,0,0,1-.59-1,2.18,2.18,0,0,1,.61-2.43,6.14,6.14,0,0,1,3.13-1.41,6.88,6.88,0,0,1,1.78-.49,8.53,8.53,0,0,1,1.83,0c0-.29-.06-.57-.11-.85-.15-1.13-.33-2.26-.5-3.4-.39-2.68-.78-5.36-1-8a39.05,39.05,0,0,1-.11-5.07l-.16-.06A.77.77,0,0,1,55,10.9a2.51,2.51,0,0,1-.14-.6v0a2.4,2.4,0,0,1-.19-.85,4.15,4.15,0,0,1,.23-1.35,2.49,2.49,0,0,1,.55-.9,1.12,1.12,0,0,1,.83-.32A.78.78,0,0,1,57,7.3a4.59,4.59,0,0,1,.14,1,7.32,7.32,0,0,1,0,1.4,2.61,2.61,0,0,1-.41,1,2.9,2.9,0,0,1-.47.48c0,.48.09,1,.14,1.45.28,2.6.79,5.18,1.29,7.76a68.64,68.64,0,0,1,1.21,7.51c0,.34.07.69.1,1l.82.18c.23-2.22.5-4.46.87-6.69.28-1.73.64-3.45,1-5.16A93.29,93.29,0,0,1,66.24,3.51h0a.92.92,0,0,1-.39-.76,1.37,1.37,0,0,1-.17-.56A2.25,2.25,0,0,1,66.39.63,2.25,2.25,0,0,1,67.2.05a.94.94,0,0,1,.86.12.85.85,0,0,1,.38.56,3.61,3.61,0,0,1-.08.93,5.08,5.08,0,0,1-.25.75,3,3,0,0,1-.46.71,1.42,1.42,0,0,1-1,.51A148.91,148.91,0,0,0,63.42,19c-.27,1.54-.58,3.08-.89,4.61-.4,2-.82,4-1.22,6l.2.06a30.24,30.24,0,0,1,3.55.75,80.86,80.86,0,0,1,3-8c1-2.24,2.06-4.44,3.16-6.62.83-1.63,1.69-3.23,2.54-4.85l1.25-2.32a.82.82,0,0,1-.2-.12,1.55,1.55,0,0,1-.45-1.81,4.68,4.68,0,0,1,.54-1.16,3.67,3.67,0,0,1,.92-1,3.3,3.3,0,0,1,1.19-.56,1.16,1.16,0,0,1,.94.27,1,1,0,0,1,.32.59A4,4,0,0,1,78.13,6a4.37,4.37,0,0,1-.18.46A4.83,4.83,0,0,1,77.7,7l-.47.84a2.47,2.47,0,0,1-.89.69c-.27.83-.55,1.65-.85,2.46-.85,2.3-1.79,4.56-2.78,6.8-.59,1.34-1.19,2.67-1.83,4-1.45,3-3,6-4.33,9a36.28,36.28,0,0,1,6.37,2.76,62.84,62.84,0,0,1,4-8.85A147.33,147.33,0,0,1,84.06,11.8C84.71,10.76,85.39,9.75,86.06,8.74Zm2.78,48.52,0,.05a4.26,4.26,0,0,1-.49.54.28.28,0,0,0,.21-.08A2,2,0,0,0,88.84,57.26Zm26.61-6.53-.16,0h-.11s0,0,0,0c.13.35.25.21.34-.09Zm1-10.09h0Zm-7.51-8.28,0,0h0l0,0v0Zm-3.26-11.48s.08.05.1,0,0,0,0-.08S105.68,20.84,105.63,20.88Z"/><path class="cls-4" d="M99,64.55c-5,1.25-29.4,5.57-40.77-.9-9.18-5.22-13.52-27.47-11.68-36,.51-2.36,2.8-10.17,6.33-10.48,5.44-.49,3.86,13.26,3.63,15.55-.14,1.32-.24,2.65-.39,4-.08.73-.75,2.71-.26,2.18S66.1,16.91,71.42,22.46c3.9,4.08-.72,12.24-2.14,15.77-.5,1.24-1,2.49-1.51,3.71-.35.81-1.86,2.88-1.07,2.41,1.17-.71,13.13-14,15.9-10.08s-2.91,9.53-5,12.08c-.78,1-1.64,1.85-2.43,2.8-.42.51-1.92,1.78-1.29,1.49,5.51-2.52,17.65-12,23-5.57,2.88,3.45-6.81,7.69-8.37,8.42-.77.36-1.57.68-2.35,1-.44.2-1.81.72-1.31.62,3.35-.66,24.33-5.07,25.29,2.2C110.81,62.06,102.61,63.64,99,64.55Z"/><g class="cls-5"><path class="cls-6" d="M50.49,16.55c-.42,2.47-.84,5-1.14,7.63a106.76,106.76,0,0,0-.65,18,58,58,0,0,0,2.11,13.59c.34,1.1.77,2.16,1.21,3.22a.16.16,0,0,0,.19.1.15.15,0,0,0,.1-.19c-.28-1.1-.49-2.21-.73-3.34a81.78,81.78,0,0,1-1.85-13.44,135.83,135.83,0,0,1,.5-17.85c.23-2.61.45-5.17.73-7.65a.24.24,0,1,0-.47-.07Z"/><path class="cls-6" d="M54.9,16.48a83.89,83.89,0,0,0-3.21,20.75,88.79,88.79,0,0,0,.85,16.82c.23,1.4.6,2.75.93,4.12a.21.21,0,0,0,.24.18.23.23,0,0,0,.19-.25c-.08-1.39-.07-2.78-.17-4.19-.38-5.48-.87-11.06-.79-16.65A90.79,90.79,0,0,1,55.35,16.6a.23.23,0,0,0-.17-.29A.22.22,0,0,0,54.9,16.48Z"/><path class="cls-6" d="M60.68,20.44c-.64,2-1.29,3.94-1.85,6a112.32,112.32,0,0,0-3,14.3,71.69,71.69,0,0,0-.65,16.71c.13,1.41.4,2.77.66,4.14a.14.14,0,0,0,.27,0c-.05-1.65,0-3.3,0-5,.06-3.81.24-7.67.66-11.54.45-4.1,1.12-8.21,1.86-12.26s1.56-8.25,2.5-12.2a.24.24,0,0,0-.46-.12Z"/><path class="cls-6" d="M70.13,19.8c-3.37,8.72-7,17.3-9.81,26.14a115.85,115.85,0,0,0-3.39,12.6c-.37,1.83-.62,3.68-.87,5.54a.13.13,0,1,0,.25,0c.47-1.81,1-3.58,1.52-5.37,1.17-4.18,2.38-8.32,3.69-12.44,2.81-8.83,5.93-17.56,9.06-26.35a.25.25,0,0,0-.14-.31A.25.25,0,0,0,70.13,19.8Z"/><path class="cls-6" d="M75.46,22.41c-2,4-4,8.05-5.76,12.17-2.09,4.78-4,9.64-6,14.47-1.6,3.86-3.27,7.68-4.89,11.53-.41,1-.77,1.94-1.17,2.91a.3.3,0,0,0,.14.4.29.29,0,0,0,.39-.14c.46-.78.93-1.55,1.35-2.34,1.67-3.18,3.09-6.49,4.52-9.78q3.12-7.2,6-14.49c1.94-4.85,3.77-9.74,5.85-14.53a.24.24,0,1,0-.43-.2Z"/><path class="cls-6" d="M83.84,31.26A222.62,222.62,0,0,0,66.63,51.35a90.86,90.86,0,0,0-6.85,10.31,37.69,37.69,0,0,0-2.17,4.88.28.28,0,0,0,.13.38.28.28,0,0,0,.38-.14c.93-1.62,2.24-3.41,3.63-5.45,2.57-3.76,5.65-8.16,8.88-12.48,4.92-6.6,10-13.15,13.57-17.26a.24.24,0,0,0-.36-.33Z"/><path class="cls-6" d="M88.39,34.45c-3,2.73-5.83,5.64-8.55,8.66-4.4,4.91-8.6,10-13,15-1.12,1.26-2.28,2.5-3.39,3.77-.75.85-1.45,1.73-2.2,2.58a.44.44,0,0,0,0,.61.43.43,0,0,0,.61,0c.83-.7,1.67-1.39,2.46-2.15,1.17-1.12,2.26-2.33,3.34-3.55,7.19-8.07,13.44-17,21.06-24.55a.24.24,0,0,0,0-.34A.24.24,0,0,0,88.39,34.45Z"/><path class="cls-6" d="M94.77,39.85C89.54,44.38,84.33,48.55,79,52.6c-4.25,3.25-8.66,6.27-13.11,9.47-1.09.79-2.13,1.65-3.22,2.46a.43.43,0,0,0-.13.58.42.42,0,0,0,.58.13c1-.52,1.95-1,2.88-1.55a116.5,116.5,0,0,0,10.63-7.52,241.26,241.26,0,0,0,18.42-16,.23.23,0,1,0-.31-.35Z"/><path class="cls-6" d="M100.08,42.81a32.69,32.69,0,0,0-2.82,1.78c-3.6,2.55-6.74,5.66-10.41,8.14C83,55.41,79,58,74.84,60.44,72,62.14,69,63.7,66.11,65.28c-1.26.69-2.49,1.41-3.75,2.08a.38.38,0,0,0-.18.5.37.37,0,0,0,.5.18c1.07-.42,2.15-.83,3.19-1.32,2.43-1.13,4.77-2.46,7.1-3.79,5-2.86,9.86-6,14.53-9.26.92-.64,1.82-1.31,2.68-2,3.41-2.8,6.47-6,10.16-8.45a.24.24,0,1,0-.26-.4Z"/><path class="cls-6" d="M102.2,49a102,102,0,0,1-15.94,9.6,144.59,144.59,0,0,1-13.69,5.76c-1.18.43-2.31.92-3.48,1.34a.51.51,0,1,0,.28,1c1.23-.26,2.46-.5,3.69-.85A74.2,74.2,0,0,0,87,60a88.07,88.07,0,0,0,15.52-10.62.25.25,0,0,0,0-.34A.24.24,0,0,0,102.2,49Z"/><path class="cls-6" d="M114.46,52.65c-4.41,1.75-8.91,3.15-13.39,4.58-8.41,2.67-16.9,5-25.37,7.54-2.12.65-4.2,1.37-6.3,2.07a.4.4,0,0,0-.27.49.39.39,0,0,0,.48.26c2.76-.71,5.52-1.36,8.27-2.06,6.44-1.66,12.85-3.36,19.16-5.37,3.62-1.15,7.21-2.41,10.72-3.87,2.34-1,4.62-2.07,6.89-3.21a.24.24,0,1,0-.19-.43Z"/><path class="cls-6" d="M111.71,58,72.78,68.55a.48.48,0,0,0,.25.93c7.88-2,15.74-3.71,23.5-5.88,3.11-.86,6.21-1.79,9.28-2.85,2-.7,4-1.5,6.06-2.3a.23.23,0,0,0,.14-.3A.24.24,0,0,0,111.71,58Z"/></g><path class="cls-4" d="M29.2,88.57c-.26.49-15.12.16-23.44-8.28s-4.71-13.92,1.13-12c0,0-4.44-7.79,1.35-12.26s11.82,3.31,11.82,3.31-1-5.12,4.1-6.23S40.12,67.7,29.2,88.57Z"/><path class="cls-2" d="M7.13,68.75a50.59,50.59,0,0,0,8,9.65,71.11,71.11,0,0,0,10,7.54.13.13,0,0,0,.17,0,.12.12,0,0,0,0-.16,92.15,92.15,0,0,1-9.5-8,60.47,60.47,0,0,1-8.19-9.26.24.24,0,0,0-.4.26Z"/><path class="cls-2" d="M6.2,71c1.12,1.82,2.28,3.64,3.58,5.36a32.54,32.54,0,0,0,2.81,3.29A24.89,24.89,0,0,0,16,82.45a49,49,0,0,0,5.72,3.26.2.2,0,0,0,.27-.08.21.21,0,0,0-.08-.27c-1.85-1.11-3.68-2.3-5.42-3.59A31.26,31.26,0,0,1,13.16,79a32.45,32.45,0,0,1-2.84-3.14C9,74.23,7.77,72.47,6.6,70.7a.24.24,0,0,0-.4.26Z"/><path class="cls-2" d="M4.27,72.3a33.53,33.53,0,0,0,4,5.44A30.24,30.24,0,0,0,13.57,82a.23.23,0,1,0,.27-.38A38.23,38.23,0,0,1,8,76.17,47.78,47.78,0,0,1,4.67,72,.23.23,0,0,0,4.34,72,.24.24,0,0,0,4.27,72.3Z"/><path class="cls-2" d="M4.14,74.8l3.38,3.81a.14.14,0,0,0,.19,0,.13.13,0,0,0,0-.18L4.54,74.54a.24.24,0,1,0-.4.26Z"/><path class="cls-2" d="M20.28,60.47l4.15,11.45c.87,2.22,1.73,4.38,2.47,6.58A41.51,41.51,0,0,1,28.17,83a.11.11,0,0,0,.13.09.11.11,0,0,0,.09-.13,38.74,38.74,0,0,0-1.31-5.75c-.58-1.86-1.28-3.68-2-5.55L20.72,60.28a.25.25,0,0,0-.32-.13A.25.25,0,0,0,20.28,60.47Z"/><path class="cls-2" d="M22.72,59.37,26.05,71l2.51,9.11a.21.21,0,0,0,.24.15A.22.22,0,0,0,29,80c-.27-1.57-.48-3.13-.77-4.68s-.67-3.1-1.06-4.64-.92-3.11-1.46-4.64c-.8-2.29-1.71-4.53-2.49-6.82a.23.23,0,0,0-.29-.16A.23.23,0,0,0,22.72,59.37Z"/><path class="cls-2" d="M24.41,53.79,28.6,67.87s0,.06.08,0a.08.08,0,0,0,.06-.09c-.48-2.43-.87-4.85-1.5-7.22a63.8,63.8,0,0,0-2.38-7,.23.23,0,0,0-.31-.14A.24.24,0,0,0,24.41,53.79Z"/><path class="cls-2" d="M29,60.17c.52,3,1.17,6,1.64,9.07.21,1.3.41,2.59.5,3.91a.11.11,0,0,0,.11.11.13.13,0,0,0,.11-.12A38.35,38.35,0,0,0,31,67.87c-.39-2.61-1-5.17-1.47-7.78a.24.24,0,0,0-.28-.19A.23.23,0,0,0,29,60.17Z"/><path class="cls-2" d="M29.23,71l.56,4.41.46,6.78a.15.15,0,1,0,.3,0c.08-1.37.28-2.73.31-4.1a23.22,23.22,0,0,0-.16-2.76l-1-4.39a.25.25,0,0,0-.27-.21A.24.24,0,0,0,29.23,71Z"/><path class="cls-2" d="M31.93,76.7l-.65,4.22a.07.07,0,1,0,.14,0l1-4.14a.24.24,0,0,0-.46-.1Z"/><path class="cls-2" d="M16.69,59.74l6.7,14.1a.19.19,0,0,0,.23.09.17.17,0,0,0,.09-.23c-1-2.42-1.88-4.87-3-7.25a75.15,75.15,0,0,0-3.65-6.94.24.24,0,0,0-.41.23Z"/><path class="cls-2" d="M15,61.69a39.35,39.35,0,0,0,1.69,3.68c.93,1.78,2,3.51,2.86,5.31a.24.24,0,0,0,.32.11.25.25,0,0,0,.11-.33l-4.54-8.95a.24.24,0,1,0-.44.18Z"/><path class="cls-2" d="M16.19,71.92l4,5.07a.22.22,0,0,0,.32.05.21.21,0,0,0,0-.31A30.09,30.09,0,0,0,18.78,74a22.9,22.9,0,0,0-2.24-2.39.23.23,0,0,0-.33,0A.24.24,0,0,0,16.19,71.92Z"/><path class="cls-2" d="M9.87,61,14,68.85a.17.17,0,0,0,.23.08.16.16,0,0,0,.07-.23c-.35-.81-.7-1.63-1.1-2.43-.93-1.85-2-3.62-2.94-5.47a.23.23,0,1,0-.42.21Z"/><path class="cls-2" d="M7.19,64.39a24,24,0,0,0,1.4,2.28,19.36,19.36,0,0,0,1.67,2.09.13.13,0,0,0,.18,0,.12.12,0,0,0,0-.17,18.71,18.71,0,0,1-1.57-2.12,22.17,22.17,0,0,1-1.27-2.3.24.24,0,1,0-.42.22Z"/><path class="cls-2" d="M19.63,79.06l3.08,2.85a.12.12,0,0,0,.17,0,.12.12,0,0,0,0-.17l-2.88-3a.25.25,0,0,0-.34,0A.24.24,0,0,0,19.63,79.06Z"/><path class="cls-2" d="M23.52,77.6,25.4,80a.21.21,0,0,0,.31,0,.21.21,0,0,0,0-.3L23.9,77.32a.23.23,0,0,0-.33,0A.24.24,0,0,0,23.52,77.6Z"/><path class="cls-6" d="M7.42,68.47c-.09-.33,0-.38-.21-.66-.92-1.11-3-1.33-4.39-1.13a3.16,3.16,0,0,0-2.77,2.9l0,1.68.5,2A18.89,18.89,0,0,0,4.26,79a29,29,0,0,0,5.15,4.25A.16.16,0,1,0,9.6,83a30.07,30.07,0,0,1-4.41-4.78A18,18,0,0,1,2.3,72.67l-.23-1.54L2.2,70a1.27,1.27,0,0,1,1-1.14c1-.23,2.32.45,3.4.37.36,0,.3-.16.61-.3a.22.22,0,0,0,.31-.11A.25.25,0,0,0,7.42,68.47Z"/><path class="cls-6" d="M8.13,68.29s-.11,0-.35.17a.23.23,0,0,1-.08.32.24.24,0,0,1-.33-.09c-.66.18.11.35-.54.13-.48-.15-.61-.76-.86-1.19A13.86,13.86,0,0,1,4.59,64.1a11.92,11.92,0,0,1,.39-6,7.1,7.1,0,0,1,2.59-3.5,6.34,6.34,0,0,1,1.54-.77,12,12,0,0,1,2.22-.47,7.29,7.29,0,0,1,1.55,0,8.78,8.78,0,0,1,1.45.24,8.92,8.92,0,0,1,3.29,1.67,11,11,0,0,1,2.76,3.05,7.66,7.66,0,0,1,.41.94.58.58,0,1,1-.91.72c-.27-.19-.54-.33-.81-.54a26.46,26.46,0,0,0-2.84-2.19,7.6,7.6,0,0,0-2.5-1l-2-.08a11.09,11.09,0,0,0-1.46.3,3.81,3.81,0,0,0-1.09.5,4.86,4.86,0,0,0-1.73,2.86,9.57,9.57,0,0,0-.25,3.8,20.49,20.49,0,0,0,.91,4.09c0,.14.11.26.06.4Z"/><path class="cls-6" d="M19.82,60.22a3.2,3.2,0,0,0-.33-.23c-.16-.11-.12-.37-.17-.56a7.1,7.1,0,0,1,2.25-6.68,4.49,4.49,0,0,1,5.9.06,7.59,7.59,0,0,1,1.06,1.06c.4.49.74,1,1.11,1.52a23.33,23.33,0,0,1,3.45,7.88A31.09,31.09,0,0,1,34,71.54a.13.13,0,0,1-.13.14.13.13,0,0,1-.14-.13,29.81,29.81,0,0,0-2-7.83,20.71,20.71,0,0,0-4.13-6.58l-1.95-1.89a1.86,1.86,0,0,0-2.75.4,4.91,4.91,0,0,0-1.29,3.49c0,.1.05.21,0,.29-.41.8-.12.48-.13.29s-.15-.18-.62.09a.23.23,0,0,1-.15.3.24.24,0,0,1-.3-.15C19.27,60.06,20.22,60.54,19.82,60.22Z"/><path class="cls-3" d="M60.91,62.52a11.58,11.58,0,0,0-1.52,1.17,15.47,15.47,0,0,0-1.59,2.25,142,142,0,0,0-17.61,37.15,132.06,132.06,0,0,0-3.39,13.33,157.92,157.92,0,0,0-2.89,31.82.31.31,0,0,0,.31.32.3.3,0,0,0,.32-.31,170.52,170.52,0,0,1,4.27-31.4q1.55-6.61,3.56-13.08A166.2,166.2,0,0,1,59.41,67a17.69,17.69,0,0,0,1.39-2.33,14.44,14.44,0,0,0,.51-1.85.24.24,0,1,0-.4-.26Z"/><path class="cls-3" d="M38.4,113.8a9.29,9.29,0,0,0,.28-1.27c.47-3.85-.49-7.72-1.76-11.44a49.21,49.21,0,0,0-5-10.42c-1.39-2.21-3-4.23-4.51-6.2a.45.45,0,0,0-.74.52c1.28,2.09,2.5,4.32,3.78,6.56a72.64,72.64,0,0,1,5,10.06,39,39,0,0,1,2.28,10.9c0,.43.13.83.17,1.26a.24.24,0,0,0,.47,0Z"/></g></g></svg>