<svg xmlns="http://www.w3.org/2000/svg" xmlns:xlink="http://www.w3.org/1999/xlink" viewBox="0 0 95.53 132.07"><defs><style>.cls-1{fill:none;}.cls-2{fill:#0a2135;}.cls-2,.cls-3,.cls-5,.cls-7{fill-rule:evenodd;}.cls-3{fill:#ed245c;}.cls-4,.cls-5{fill:#ae1847;}.cls-6{clip-path:url(#clip-path);}.cls-7{fill:#2b8187;}</style><clipPath id="clip-path"><path class="cls-1" d="M40.39,106.71C42.46,97.26,47.16,87.94,55,82c2.76-2.07,6.2-4.41,9.83-4.17,1.36.08,3.76.77,3.44,2.63-.67,3.79-6.58,6.4-9.41,8.18-7,4.4-14,8.09-17.16,16.27"/></clipPath></defs><g id="Layer_2" data-name="Layer 2"><g id="OBJECTS"><path class="cls-2" d="M39.71,105.12c.54-6,1.33-11.8,2.42-17.55A143.56,143.56,0,0,1,53,53.48c1.23-2.65,2.58-5.31,4-8,1.15-2.11,2.4-4.16,3.71-6.17,1.8-2.8,3.67-5.57,5.57-8.31,1.26-1.82,2.56-3.6,3.77-5.46a.42.42,0,0,1,.58-.15.43.43,0,0,1,.16.58c-.74,1.42-1.48,2.83-2.29,4.2-3.2,5.44-6.9,10.59-9.76,16.23-1.39,2.68-2.66,5.34-3.86,8a148.65,148.65,0,0,0-10.8,33.59,200.67,200.67,0,0,0-3,23.71c-.39,5.18-.72,10.48-.83,16,0,.57,0,1.15,0,1.74v2.26c.13-5.06,2.22-1.15,0,.08v.12c0,.06,0,.26,0,.25a3.73,3.73,0,0,1-.79-.09,3.75,3.75,0,0,1-.78.06h0v-.37h0V132h0s0-.17,0-.23v-.14c-2.06-1.25-.26-4.67,0-.91l-.11-5.51-.53-14.88c-.24-7.87-1.4-18.37-4.7-27.28a39.54,39.54,0,0,0-4.45-8.78,24.17,24.17,0,0,0-4.33-4.88,4.77,4.77,0,0,1-.86-.68c-.22-.28-.18-.5-.33-.83a.07.07,0,0,1,0-.11.06.06,0,0,1,.1,0,2.25,2.25,0,0,1,.93,0,3.5,3.5,0,0,1,1,.64,23.81,23.81,0,0,1,5,4.85,36.45,36.45,0,0,1,4.93,9.1C38,89.61,39.2,98,39.71,105.12Zm.47,26.58h0v0Z"/><path class="cls-3" d="M12.9,55.9S6.51,53.23,1.78,60c-3.4,4.85,3.43,8.53,3.43,8.53S-.91,70,.12,75.89c1.43,8.22,8.78,5.19,8.78,5.19S6.13,88.54,14,90.51c11.87,3,13.12-7.16,13.12-7.16s5.25,5.07,11.35.67C46,78.56,42.55,72,42.55,72s9.37-1,8.46-11.34c-.78-8.92-10.11-6.87-10.11-6.87s1.32-6.76-6.36-7.9c-7-1-9.09,4.38-9.14,4.31C20.64,44.12,10.07,48.32,12.9,55.9Z"/><ellipse class="cls-4" cx="24.17" cy="67.64" rx="7.43" ry="4.76" transform="translate(-33.45 24.75) rotate(-33.67)"/><path class="cls-5" d="M14.32,76.88s0,.1.23.17a.07.07,0,0,1,.07,0s0,0,0,.07c.26.23.27.11.27.06s0,0,.06.22c0,0,0,.09,0,.14a7,7,0,0,0-.14,1c0,.36-.06.71-.07,1.06a4.91,4.91,0,0,0,.08,1.08,4.3,4.3,0,0,0,.27,1c.71,2.07,2.8,2.33,4.76,1.79a8.6,8.6,0,0,0,2.15-.9,8.39,8.39,0,0,0,1.28-.9,7.06,7.06,0,0,0,.88-.94,5,5,0,0,0,.69-1.11.36.36,0,0,1,.42-.28.34.34,0,0,1,.28.4,4.8,4.8,0,0,1-.49,1.82,6.76,6.76,0,0,1-1.86,2.19,8.62,8.62,0,0,1-2.85,1.52c-2.93.92-6,.18-7.09-2.94A6.25,6.25,0,0,1,13,80.91a6.83,6.83,0,0,1,.09-1.43,6.48,6.48,0,0,1,.31-1.3,3.55,3.55,0,0,1,.44-.84c.09-.14.13-.34.29-.39C14.46,76.84,14.36,76.83,14.32,76.88Z"/><path class="cls-5" d="M28.43,78.38c-.06-.07-.25-.09.18.08.11.05.14.18.22.27a2.65,2.65,0,0,0,1.2.8,5.21,5.21,0,0,0,2.36.23A9.23,9.23,0,0,0,35.13,79a6.82,6.82,0,0,0,1.6-.94A5,5,0,0,0,38.32,76,8.79,8.79,0,0,0,39,73.29a.37.37,0,0,1,.37-.36.33.33,0,0,1,.35.34A8.85,8.85,0,0,1,39.27,77a6,6,0,0,1-1.47,2.26,8.64,8.64,0,0,1-2.4,1.47,9.54,9.54,0,0,1-4.08.71,4.91,4.91,0,0,1-2.1-.55,3.21,3.21,0,0,1-1.48-1.6c0-.12-.17-.24-.12-.36.26-.66-.1-.19.05-.14s.16,0,.36-.14a0,0,0,0,1,.09,0C28.44,78.51,28.47,78.43,28.43,78.38Z"/><path class="cls-5" d="M20.22,76.94c0,.15-.09.12-.08.28a.6.6,0,0,0,.06.11,3.46,3.46,0,0,0,2.44,1.54,5.09,5.09,0,0,0,2-.1,6.89,6.89,0,0,0,2.67-1.29A6.55,6.55,0,0,0,30,71.91a.34.34,0,0,0-.33-.38.38.38,0,0,0-.4.34,7.85,7.85,0,0,1-1,2.56,7.34,7.34,0,0,1-1.79,2,5.67,5.67,0,0,1-3,1.24,4.4,4.4,0,0,1-1.15,0A3.28,3.28,0,0,1,20.73,77s-.07-.09-.13-.11-.14,0-.3,0a.05.05,0,0,0-.08.06Z"/><path class="cls-5" d="M36.71,70c.06.21,0,.22.14.37.55.54,1.57.2,2.43-.08a7.29,7.29,0,0,0,1.42-.66,13.65,13.65,0,0,0,1.82-1.36,8.47,8.47,0,0,0,2.79-6,6.15,6.15,0,0,0-.22-1.87A5.43,5.43,0,0,0,43.69,58,5.24,5.24,0,0,0,42,56.91a.42.42,0,0,0-.56.15.39.39,0,0,0,.14.55,4.66,4.66,0,0,1,1.11,1.2,5.16,5.16,0,0,1,.85,2,6.63,6.63,0,0,1,.12,1.48,7.11,7.11,0,0,1-2.16,4.93,15.49,15.49,0,0,1-1.56,1.3,8.66,8.66,0,0,1-1.1.72,6.49,6.49,0,0,1-1.76.47c-.2,0-.13.11-.32.21,0,0,0,0-.06,0A0,0,0,0,0,36.71,70Z"/><path class="cls-5" d="M32.49,57.86a.81.81,0,0,0,.09-.14c.06-.1.22-.09.33-.13a3.17,3.17,0,0,1,2,0,4.59,4.59,0,0,1,1.66,1,5,5,0,0,1,1.74,3.87,5.27,5.27,0,0,1-.75,2.13,5,5,0,0,1-1.42,1.62.61.61,0,0,1-.84.06.56.56,0,0,1,0-.81c.14-.19.25-.39.38-.57a9.05,9.05,0,0,0,.77-1.28,3.93,3.93,0,0,0,.35-1.27,3.73,3.73,0,0,0-1.14-2.84,3.91,3.91,0,0,0-1.45-1,2.74,2.74,0,0,0-1.14-.19c-.09,0-.19.06-.27,0-.38-.16.06.08-.16-.25a.06.06,0,0,1-.07,0,0,0,0,0,1,0-.06C32.57,57.72,32.45,57.91,32.49,57.86Z"/><path class="cls-5" d="M26.7,53.29c.16,0,.1.08.25,0s.24-.24.37-.36a10.22,10.22,0,0,1,1.8-1.38,6.68,6.68,0,0,1,3-1.07A2.82,2.82,0,0,1,35,52.21l.75,1.84a.44.44,0,0,0,.48.41.47.47,0,0,0,.44-.47,3.53,3.53,0,0,0,.13-.63,3.33,3.33,0,0,0,0-.63,4.13,4.13,0,0,0-.13-.63,3.24,3.24,0,0,0-.27-.6,4.08,4.08,0,0,0-4.22-2.28,6.29,6.29,0,0,0-2.49.84,9.21,9.21,0,0,0-2.77,2.5c-.11.14-.29.27-.3.45s0,.08.09.23a0,0,0,0,0,0,.06A0,0,0,0,0,26.7,53.29Z"/><path class="cls-5" d="M17.6,62.56c.14-.2.28-.33.42-.54l.12-.23a7,7,0,0,1,.77-1.15,7.83,7.83,0,0,1,1.52-1.4,5.84,5.84,0,0,1,3.9-1.16,3.44,3.44,0,0,1,.75.15l.41.15c.35.13.67.3,1,.45.14.06.28.09.43.14a.39.39,0,0,0,.53-.08.36.36,0,0,0-.06-.52c-.12-.15-.22-.3-.36-.45a4.27,4.27,0,0,0-1.13-.84,3.9,3.9,0,0,0-1.41-.36,6.94,6.94,0,0,0-4.8,1.63,7.27,7.27,0,0,0-1.58,1.79,5.51,5.51,0,0,0-.64,1.43,1.28,1.28,0,0,0-.07.28,2,2,0,0,0,.09.69,0,0,0,0,0,0,.06S17.6,62.59,17.6,62.56Z"/><path class="cls-5" d="M11.47,64.44c.14-.11.18,0,.26-.2s0-.14,0-.2a16.32,16.32,0,0,1,.55-3.53A8.09,8.09,0,0,1,14.65,57a16.82,16.82,0,0,1,3.59-2.54,18.24,18.24,0,0,1,2.13-1c.31-.12.61-.24.92-.34a4.62,4.62,0,0,1,2.1-.21.35.35,0,0,0,.41-.22.31.31,0,0,0-.22-.39,5.53,5.53,0,0,0-3.1-.05,13.29,13.29,0,0,0-2.8,1.17A16.46,16.46,0,0,0,13.21,57a8.48,8.48,0,0,0-1.84,3.34,12.07,12.07,0,0,0-.27,2.93,6.29,6.29,0,0,0,0,1,.24.24,0,0,0,0,.08c.09.12.1.07.23.17a.05.05,0,0,0,.05,0S11.46,64.47,11.47,64.44Z"/><path class="cls-5" d="M13.6,66.87c-.07-.18,0-.12-.11-.24s-.37,0-.55,0a5.46,5.46,0,0,0-2.93,1,6,6,0,0,0-2.08,2.35,2.84,2.84,0,0,0,.37,3.38A3.26,3.26,0,0,0,9.58,74a4.14,4.14,0,0,0,.83.19,6.27,6.27,0,0,0,1.23,0A.33.33,0,0,0,12,74a.28.28,0,0,0-.28-.31,5.83,5.83,0,0,1-.87-.23,3.56,3.56,0,0,1-.76-.37,2.41,2.41,0,0,1-.87-.83A1.64,1.64,0,0,1,9,71.3a3.33,3.33,0,0,1,.65-1.64,6.32,6.32,0,0,1,1.5-1.51,5,5,0,0,1,1.95-.9c.13,0,.28,0,.38-.07s0-.05.13-.21a.05.05,0,0,0,.05,0S13.62,66.87,13.6,66.87Z"/><path class="cls-5" d="M5.49,72.67c-.11-.06-.14-.1-.27-.1-.73,0-1.2.78-1.51,1.47a4.3,4.3,0,0,0,0,3.39,2.33,2.33,0,0,0,1.64,1.11,6.78,6.78,0,0,0,2.7-.23.45.45,0,0,0,.35-.51.43.43,0,0,0-.51-.33,6.12,6.12,0,0,1-2.29.08,1.48,1.48,0,0,1-1-.66,3.25,3.25,0,0,1-.29-2.17,3.15,3.15,0,0,1,.33-1A1.74,1.74,0,0,1,5.34,73l.06,0c.08-.07,0-.11.11-.21s0,0,0-.06S5.52,72.66,5.49,72.67Z"/><path class="cls-2" d="M19.11,68.33l.06,0s0,0,0,.06a4.83,4.83,0,0,1,.44.76.31.31,0,0,1,0,.19c0,.12,0,0-.09.13a.15.15,0,0,1-.27.13c-.11,0,0,0-.13,0a.2.2,0,0,1-.13-.06,2,2,0,0,1-.37-.64c-.06-.13-.17-.28-.11-.4l0-.06c.14-.3-.22.14.18,0a.07.07,0,0,1,.05-.09.08.08,0,0,1,.1,0C19.07,68.38,19.11,68.36,19.11,68.33Z"/><path class="cls-2" d="M18.48,70.3h0s.05.06.08.09a8.12,8.12,0,0,1,.56.75.25.25,0,0,1,.06.17c0,.08,0,0,0,.1a.26.26,0,0,1,0,.36.25.25,0,0,1-.36,0c-.09,0-.05,0-.13,0s-.09-.07-.13-.11a2.22,2.22,0,0,1-.24-.46c-.09-.2-.26-.39-.21-.6s0,0,.15-.15a.07.07,0,0,1,0-.11.08.08,0,0,1,.11,0C18.43,70.34,18.47,70.32,18.48,70.3Z"/><path class="cls-2" d="M20.31,70.45l.1,0c.13.06.18.23.26.35a1.83,1.83,0,0,1,.16.26,2.65,2.65,0,0,1,.09.49.22.22,0,0,1-.09.32.23.23,0,0,1-.32-.09,3.37,3.37,0,0,1-.36-.3,1.59,1.59,0,0,1-.21-.41c-.05-.11-.14-.21-.11-.32.08-.28,0,0,.19-.18a.07.07,0,0,1,0-.1.07.07,0,0,1,.1,0C20.51,70.47,20.14,70.37,20.31,70.45Z"/><path class="cls-2" d="M22.11,71.59c-.31.29-.17-.18-.25.24a.66.66,0,0,0,.26.54.64.64,0,0,0,.29.13.26.26,0,0,0,.43-.29c0-.12.06-.17,0-.29s-.12-.4-.29-.47c-.39-.17.07,0-.33.07a.09.09,0,0,0-.11,0A.07.07,0,0,0,22.11,71.59Z"/><path class="cls-2" d="M21.33,68.72c-.15.16-.14,0-.18.2a1,1,0,0,0,.27.62c.07.09.16.11.24.18a.22.22,0,0,0,.28.13.21.21,0,0,0,.12-.28,1,1,0,0,0,0-.34.86.86,0,0,0-.33-.59c-.2-.11,0,0-.27,0a.07.07,0,0,0-.1,0A.08.08,0,0,0,21.33,68.72Z"/><path class="cls-2" d="M20.11,66.08c-.05.11-.08.1-.09.22a.7.7,0,0,0,.08.23,1.72,1.72,0,0,0,.24.49,1.11,1.11,0,0,0,.27.26.24.24,0,0,0,.34.08A.24.24,0,0,0,21,67a1.57,1.57,0,0,0-.08-.31,3.74,3.74,0,0,0-.4-.58.46.46,0,0,0-.07-.07c-.1-.06-.11,0-.23,0a.08.08,0,0,0-.1,0A.08.08,0,0,0,20.11,66.08Z"/><path class="cls-2" d="M22.53,65h0c.09,0,.12.15.17.23a3.56,3.56,0,0,1,.35.67,3.21,3.21,0,0,1,.11.52.2.2,0,1,1-.34.2,5.3,5.3,0,0,1-.43-.38,4.49,4.49,0,0,1-.5-.65s-.07-.08-.06-.12v0c.17-.85-.55.46.15-.11a.21.21,0,0,1,.06-.3.21.21,0,0,1,.29,0A.3.3,0,0,0,22.53,65Z"/><path class="cls-2" d="M22.9,67.84c-.15.16-.12,0-.2.21a.1.1,0,0,0,0,.09,1.37,1.37,0,0,0,.2.72.45.45,0,0,0,.17.13.35.35,0,0,0,.61-.35c0-.06,0-.11,0-.17a2.32,2.32,0,0,0-.31-.58.18.18,0,0,0-.05-.07c-.2-.11-.08,0-.29,0a.08.08,0,0,0-.11,0A.07.07,0,0,0,22.9,67.84Z"/><path class="cls-2" d="M24.17,70.37l.08,0s0,0,.05,0a2.85,2.85,0,0,1,.5.6.57.57,0,0,1,0,.22.35.35,0,0,1-.06.49.36.36,0,0,1-.49-.07.64.64,0,0,1-.19-.08,1.64,1.64,0,0,1-.39-.68c0-.06-.08-.12-.06-.19l0-.08c.1-.34-.2.22.19-.09a.07.07,0,0,1,0-.1.07.07,0,0,1,.11,0C24.46,70.32,23.82,70.29,24.17,70.37Z"/><path class="cls-2" d="M25.86,69.26c-.21.24-.15-.08-.19.23,0,.13.1.23.16.35a1.15,1.15,0,0,0,.22.35c.11.09.19.06.33.11a.21.21,0,1,0,.35-.22c0-.16.07-.22,0-.36a1.15,1.15,0,0,0-.25-.34c-.07-.09-.12-.23-.24-.27-.29-.09,0,0-.28.07a.07.07,0,0,0-.11,0A.06.06,0,0,0,25.86,69.26Z"/><path class="cls-2" d="M24.49,67.05c-.15.16-.13,0-.18.19s.11.44.22.64a1.43,1.43,0,0,0,.19.24.3.3,0,0,0,.39.12.29.29,0,0,0,.12-.39,2.56,2.56,0,0,0-.05-.27c-.07-.2-.1-.46-.28-.58s0,0-.26,0a.07.07,0,0,0-.1,0A.09.09,0,0,0,24.49,67.05Z"/><path class="cls-2" d="M25.07,63.43l.06,0a.16.16,0,0,1,.07.07,2.8,2.8,0,0,1,.35.88,1.18,1.18,0,0,1,0,.27.23.23,0,0,1-.08.32.24.24,0,0,1-.31-.08.82.82,0,0,1-.25-.16,2.17,2.17,0,0,1-.49-.86.17.17,0,0,1,0-.1l0,0a.74.74,0,0,0,.25-.12.08.08,0,1,1,.15-.07A1.16,1.16,0,0,0,25.07,63.43Z"/><path class="cls-2" d="M27.62,63.19h0s0,0,.05.07c.14.24.27.48.39.73a.67.67,0,0,1,.07.18,2.9,2.9,0,0,1,0,.51A.21.21,0,0,1,28,65a.2.2,0,0,1-.27-.1,3.24,3.24,0,0,1-.35-.27,1.52,1.52,0,0,1-.22-.34,2,2,0,0,1-.27-.72s0-.06,0-.09h0l.06,0c.13,0,0-.23.2-.29s.21.14.35.09Z"/><path class="cls-2" d="M26.68,65.47s0,0,0,.09a1.42,1.42,0,0,0,.2.62,1.51,1.51,0,0,0,.18.26.26.26,0,0,0,.34.14.25.25,0,0,0,.14-.33,2.71,2.71,0,0,0-.09-.41,1,1,0,0,0-.24-.5s0,0-.08,0a.22.22,0,0,0-.29-.12A.24.24,0,0,0,26.68,65.47Z"/><path class="cls-2" d="M27.08,68.43c-.06.16-.09.1-.11.27a.2.2,0,0,0,0,.13,2.46,2.46,0,0,0,.37.54.36.36,0,0,0,.5.11A.37.37,0,0,0,28,69a2.3,2.3,0,0,0-.33-.57.21.21,0,0,0-.11-.07c-.18,0-.13,0-.31,0a.07.07,0,0,0-.11,0A.09.09,0,0,0,27.08,68.43Z"/><path class="cls-2" d="M28.91,66.08c-.23.16-.13-.09-.23.17,0,.07,0,.15,0,.22a1.06,1.06,0,0,0,.19.53c.08.09.14.09.25.14a.21.21,0,0,0,.29.08.21.21,0,0,0,.09-.29c0-.1.07-.12.06-.22a.91.91,0,0,0-.26-.64c-.2-.17,0,0-.28,0A.07.07,0,0,0,29,66,.07.07,0,0,0,28.91,66.08Z"/><path class="cls-2" d="M29.22,64.14c-.1.11-.1,0-.15.18a.25.25,0,0,0,0,.12,2,2,0,0,0,.14.55c.05.11.12.2.18.31a.29.29,0,0,0,.36.19.29.29,0,0,0,.2-.37,2.63,2.63,0,0,0-.06-.39,2.11,2.11,0,0,0-.26-.49.32.32,0,0,0-.11-.12c-.12-.06,0,0-.17,0a.07.07,0,0,0-.09,0A.08.08,0,0,0,29.22,64.14Z"/><path class="cls-2" d="M25.6,66.58c-.15.15-.1-.07-.13.13s.16.29.25.44a.25.25,0,0,0,.34.08.24.24,0,0,0,.08-.34c-.08-.13-.08-.34-.22-.41s0,0-.18,0a.08.08,0,0,0-.1,0A.08.08,0,0,0,25.6,66.58Z"/><path class="cls-3" d="M74.82,8.72S74.11,1.2,65.53.06c-6.17-.83-6.17,7.61-6.17,7.61S54.91,2.54,50,6.5c-6.89,5.55-.43,11.09-.43,11.09s-8.27,1.11-6.17,9.71c3.17,13,13.14,9,13.14,9s-2.07,7.63,5,11.27c8.8,4.53,13.18-2.19,13.18-2.19s5.62,8.51,14.69,2.43c7.85-5.27,1.31-13.23,1.31-13.23s6.9-2.14,4.14-10.13c-2.52-7.26-8.57-6.54-8.54-6.62C89.55,10.22,80.41,2.15,74.82,8.72Z"/><ellipse class="cls-4" cx="69.57" cy="25.52" rx="5.11" ry="7.9" transform="translate(11.95 72.11) rotate(-59.1)"/><path class="cls-5" d="M56.14,20.69s-.11,0,0,.32t.06.06a0,0,0,0,1-.06,0c-.08.37,0,.33.08.29s0,0-.17.18c0,0-.09,0-.14,0a8,8,0,0,0-1,.39c-.35.14-.69.29-1,.46a5.87,5.87,0,0,0-1,.63,4.84,4.84,0,0,0-.8.77c-1.55,1.73-.76,3.87.72,5.5A9.48,9.48,0,0,0,54.7,31a8.94,8.94,0,0,0,1.46.78,7.24,7.24,0,0,0,1.32.37,4.88,4.88,0,0,0,1.37.1.38.38,0,0,1,.46.27.35.35,0,0,1-.23.46,4.63,4.63,0,0,1-1.92.45,6.92,6.92,0,0,1-3-.67,9.36,9.36,0,0,1-2.81-2c-2.31-2.37-3.16-5.71-.82-8.33a6.16,6.16,0,0,1,1.19-1,6,6,0,0,1,1.36-.64,6.91,6.91,0,0,1,1.35-.37,3.72,3.72,0,0,1,1,0c.17,0,.37-.05.5.08C56.25,20.81,56.2,20.71,56.14,20.69Z"/><path class="cls-5" d="M61.76,35.06c0-.1,0-.29,0,.22,0,.13-.09.22-.14.34a3.06,3.06,0,0,0-.13,1.56,5.69,5.69,0,0,0,1,2.39,10.15,10.15,0,0,0,2.07,2.26,7.86,7.86,0,0,0,1.66,1.07,5.27,5.27,0,0,0,2.7.48,8.89,8.89,0,0,0,2.83-.74.39.39,0,0,1,.51.17.38.38,0,0,1-.13.52,8.86,8.86,0,0,1-3.62,1.45,6.15,6.15,0,0,1-2.83-.27,9,9,0,0,1-2.55-1.57,10.5,10.5,0,0,1-2.69-3.57,5.54,5.54,0,0,1-.53-2.3,3.57,3.57,0,0,1,.74-2.24c.09-.1.14-.28.28-.3.73-.07.12-.19.15,0s.08.15.3.28a.06.06,0,0,1,.08,0s0,.05,0,.07C61.65,35.14,61.74,35.12,61.76,35.06Z"/><path class="cls-5" d="M59,26.41c-.17,0-.16,0-.3.07a.26.26,0,0,0-.07.11,3.88,3.88,0,0,0-.21,3.13,5.61,5.61,0,0,0,1.08,1.89,7.71,7.71,0,0,0,5.88,2.66,7.34,7.34,0,0,0,3.14-1,.38.38,0,0,0,.18-.51.39.39,0,0,0-.5-.22,7.86,7.86,0,0,1-2.88.31,7.45,7.45,0,0,1-2.76-.7,6.1,6.1,0,0,1-2.65-2.28,5.31,5.31,0,0,1-.54-1.13,3.69,3.69,0,0,1-.15-1.87.52.52,0,0,0,0-.18c0-.17-.08-.12-.16-.28a.06.06,0,0,0,0-.07A.06.06,0,0,0,59,26.41Z"/><path class="cls-5" d="M73.6,38.82c-.16.16-.2.1-.26.32-.24.8.59,1.61,1.27,2.3a7.8,7.8,0,0,0,1.32,1,13.83,13.83,0,0,0,2.16,1.07A8.62,8.62,0,0,0,85,43.2,6.49,6.49,0,0,0,86.64,42a5.48,5.48,0,0,0,1.71-4.77.44.44,0,0,0-.42-.46.4.4,0,0,0-.43.4A5.41,5.41,0,0,1,87,38.9a5.53,5.53,0,0,1-1.45,1.83,7.32,7.32,0,0,1-1.31.88,7.23,7.23,0,0,1-5.63.41,19.26,19.26,0,0,1-2-.85,9.06,9.06,0,0,1-1.21-.7A6.88,6.88,0,0,1,74.06,39c-.14-.17-.17-.07-.36-.19,0,0,0-.06,0,0A0,0,0,0,0,73.6,38.82Z"/><path class="cls-5" d="M82.75,28.59a.45.45,0,0,0,.17,0c.13,0,.2.16.29.25a3.61,3.61,0,0,1,1,2,5.2,5.2,0,0,1-.1,2.11,5.44,5.44,0,0,1-2.71,3.63,5.26,5.26,0,0,1-2.34.35,6,6,0,0,1-1.59-.28c-.21-.08-.41-.17-.62-.27a.66.66,0,0,1-.47-.77.58.58,0,0,1,.73-.44l.72.07a8.39,8.39,0,0,0,1.56.1,4.26,4.26,0,0,0,1.35-.3,4,4,0,0,0,2-2.54,4.29,4.29,0,0,0,.2-1.9,3.08,3.08,0,0,0-.39-1.2c0-.08-.15-.15-.16-.24,0-.44,0,.1.15-.29a0,0,0,0,1,0-.07s0,0,.07,0C82.92,28.6,82.69,28.58,82.75,28.59Z"/><path class="cls-5" d="M84.09,20.7c.07.16,0,.14.11.25s.34.11.51.17a10.88,10.88,0,0,1,2.18,1,7.15,7.15,0,0,1,2.49,2.39,3.14,3.14,0,0,1-.19,3.55l-1.32,1.66a.5.5,0,0,0,.51.85,3.72,3.72,0,0,0,.65-.19,3.33,3.33,0,0,0,.56-.36,3.11,3.11,0,0,0,.52-.44,4.84,4.84,0,0,0,.43-5.78,6.94,6.94,0,0,0-2-2,9.8,9.8,0,0,0-3.68-1.41c-.2,0-.4-.14-.57-.06s-.06.07-.17.21c0,0,0,0,0,0A0,0,0,0,0,84.09,20.7Z"/><path class="cls-5" d="M71,16.62c.26,0,.45.1.7.13H72a6.55,6.55,0,0,1,1.44.16,8,8,0,0,1,2,.76,6.26,6.26,0,0,1,3,3.17,4.21,4.21,0,0,1,.23.8c0,.15,0,.31.07.47,0,.4.06.8.09,1.21,0,.17.06.31.09.48a.44.44,0,0,0,.33.48.38.38,0,0,0,.45-.32c.08-.2.17-.37.24-.58a4.82,4.82,0,0,0,.21-1.52,4.27,4.27,0,0,0-.37-1.54A7.7,7.7,0,0,0,73.5,15.9a5.94,5.94,0,0,0-1.64.11,1.37,1.37,0,0,0-.29.07,2.65,2.65,0,0,0-.6.44,0,0,0,0,0,0,.06S71,16.63,71,16.62Z"/><path class="cls-5" d="M66.21,11.65c.17.09.14.15.32.16a.56.56,0,0,0,.2-.08,16.72,16.72,0,0,1,3.54-1.25,8.38,8.38,0,0,1,4.39.49,17.67,17.67,0,0,1,4.12,2.18,19.34,19.34,0,0,1,2,1.55c.26.24.53.47.77.72a5.11,5.11,0,0,1,1.24,1.92.35.35,0,0,0,.41.27.32.32,0,0,0,.25-.4,6.14,6.14,0,0,0-1.5-3,13.83,13.83,0,0,0-2.48-2.11A17.23,17.23,0,0,0,74,9.55a8.61,8.61,0,0,0-4-.09,12.55,12.55,0,0,0-2.84,1.22,7.08,7.08,0,0,0-.89.51l-.06.06c-.07.15,0,.14,0,.31a.06.06,0,0,0,0,.07S66.19,11.67,66.21,11.65Z"/><path class="cls-5" d="M65,14.94c.14-.16.14,0,.18-.23s-.15-.37-.24-.55a6,6,0,0,0-2.38-2.32A6.18,6.18,0,0,0,59.37,11a2.94,2.94,0,0,0-2.94,2.06,3.69,3.69,0,0,0,0,1.6,5.42,5.42,0,0,0,.24.9,6.61,6.61,0,0,0,.58,1.2.33.33,0,0,0,.43.18.31.31,0,0,0,.15-.43,6.52,6.52,0,0,1-.22-.95,4.73,4.73,0,0,1,0-.92,2.61,2.61,0,0,1,.34-1.25,1.57,1.57,0,0,1,.75-.69,3.37,3.37,0,0,1,1.84-.2,6.29,6.29,0,0,1,2.14.68,5.23,5.23,0,0,1,1.81,1.42c.09.11.13.27.25.34s.06,0,.26,0A.06.06,0,0,0,65,15,.06.06,0,0,0,65,14.94Z"/><path class="cls-5" d="M55.64,10.06c0-.14,0-.19,0-.31C55.24,9,54.28,9,53.48,9a4.34,4.34,0,0,0-3.12,1.72,2.65,2.65,0,0,0-.22,2.14,7.51,7.51,0,0,0,1.56,2.48.45.45,0,0,0,.64.09.47.47,0,0,0,.06-.66,6.68,6.68,0,0,1-1.21-2.17,1.65,1.65,0,0,1,.11-1.3A3.32,3.32,0,0,1,53.15,10a3.14,3.14,0,0,1,1.08-.18,1.86,1.86,0,0,1,1,.29l.06,0c.11,0,.13,0,.25,0a.05.05,0,0,0,.08,0A0,0,0,0,0,55.64,10.06Z"/><path class="cls-2" d="M66,20.6c.29,0-.21-.09.12.14a.09.09,0,0,1,.12,0,.08.08,0,0,1,0,.11c.23.34.11-.17.13.12V21s0,.05,0,.08a4.63,4.63,0,0,1-.49.8c0,.06-.09.11-.16.12s0,0-.16,0a.15.15,0,1,1-.24-.17c-.06-.09,0,0-.07-.11a.19.19,0,0,1,0-.15,2.18,2.18,0,0,1,.4-.69c.09-.11.16-.29.31-.3Z"/><path class="cls-2" d="M63.9,21.11h0l.1.07s.06-.05.11,0,0,.16.14.19h0v.05s0,.07,0,.11c-.14.31-.26.62-.42.92a.38.38,0,0,1-.13.15c-.07,0,0,0-.11,0a.27.27,0,0,1-.34.14.27.27,0,0,1-.15-.34c-.05-.07-.05,0-.07-.11a.35.35,0,0,1,0-.17,2,2,0,0,1,.3-.47,3.1,3.1,0,0,1,.45-.51s0,0,0,0Z"/><path class="cls-2" d="M65.05,23.19s0-.08,0,.12-.13.29-.2.43a1.28,1.28,0,0,1-.16.28,2.64,2.64,0,0,1-.4.35.23.23,0,0,1-.32.08.24.24,0,0,1-.08-.33,2.88,2.88,0,0,1,.11-.49,1.82,1.82,0,0,1,.27-.41c.07-.09.12-.24.23-.27.27-.06,0,0,.25.08a.09.09,0,0,1,.11,0,.07.07,0,0,1,0,.11C65,23.25,65,23.22,65.05,23.19Z"/><path class="cls-2" d="M64.9,25.53c-.38-.1,0-.22-.33-.09-.2.07-.31.32-.37.52a.78.78,0,0,0,0,.34.25.25,0,0,0,.11.35.26.26,0,0,0,.35-.12c.11-.05.19,0,.27-.13s.32-.32.3-.52c0-.4,0,0-.22-.26a.08.08,0,0,0-.13-.09Z"/><path class="cls-2" d="M67.17,23.33c-.21,0-.07-.13-.27,0a1,1,0,0,0-.43.57,1.8,1.8,0,0,0-.06.32.21.21,0,0,0,0,.31.22.22,0,0,0,.3,0,1.05,1.05,0,0,0,.31-.18.92.92,0,0,0,.38-.61c0-.21,0-.05-.13-.23a.09.09,0,0,0,0-.12A.09.09,0,0,0,67.17,23.33Z"/><path class="cls-2" d="M69,20.82c-.12,0-.14,0-.24,0a.52.52,0,0,0-.17.19,2,2,0,0,0-.34.48,1.9,1.9,0,0,0-.11.39.26.26,0,0,0,.09.34.24.24,0,0,0,.34-.1,1.84,1.84,0,0,0,.25-.23,4.32,4.32,0,0,0,.34-.68.45.45,0,0,0,0-.11c0-.12,0-.11-.06-.23a.07.07,0,0,0,0-.11A.07.07,0,0,0,69,20.82Z"/><path class="cls-2" d="M70.48,22.24l.17.08a.21.21,0,0,1,.28-.1.2.2,0,0,1,.1.28c.09.06.14.08.16.07l0,.05c0,.1-.08.19-.13.28a4.49,4.49,0,0,1-.44.69,3.79,3.79,0,0,1-.42.38.21.21,0,0,1-.28.06.2.2,0,0,1-.06-.27,5.82,5.82,0,0,1,.14-.6,5.63,5.63,0,0,1,.36-.79c0-.05,0-.11.08-.13Z"/><path class="cls-2" d="M68.76,24.4c-.2,0-.08-.1-.29-.07,0,0,0,0-.08.05a1.67,1.67,0,0,0-.56.56.54.54,0,0,0,0,.22.36.36,0,0,0,.12.49.37.37,0,0,0,.49-.11s.11,0,.16-.09a2.53,2.53,0,0,0,.38-.58.18.18,0,0,0,0-.09c0-.21,0-.08-.1-.28a.08.08,0,0,0,0-.11A.07.07,0,0,0,68.76,24.4Z"/><path class="cls-2" d="M66.57,26.58c.29-.08-.26,0,.16.12a.08.08,0,0,1,.11,0,.07.07,0,0,1,0,.11c.11.1.16.12.18.1s-.07-.24,0,.08c0,0,0,.05,0,.07a3.14,3.14,0,0,1-.3.79c0,.07-.12.09-.18.15a.35.35,0,0,1-.46.18.36.36,0,0,1-.18-.46.81.81,0,0,1,0-.22,1.83,1.83,0,0,1,.42-.71c0-.06.08-.15.15-.16Z"/><path class="cls-2" d="M68.91,28c-.29,0,0-.16-.29,0s-.16.22-.23.34a1.09,1.09,0,0,0-.22.39c0,.14,0,.21,0,.35a.21.21,0,0,0,.09.29.21.21,0,0,0,.28-.08c.14-.07.23-.06.33-.17a1,1,0,0,0,.19-.41c0-.12.16-.23.14-.36,0-.29,0,0-.2-.22a.08.08,0,0,0,0-.11A.08.08,0,0,0,68.91,28Z"/><path class="cls-2" d="M70.28,25.54c-.21-.05-.06-.13-.26-.07s-.35.34-.48.54-.08.2-.12.3a.29.29,0,0,0,.48.32c.07-.07.16-.12.22-.19s.38-.33.4-.56,0-.05-.12-.24a.08.08,0,0,0,0-.11A.08.08,0,0,0,70.28,25.54Z"/><path class="cls-2" d="M73.32,23.81a.57.57,0,0,0,.22.16.09.09,0,0,1,.11,0,.08.08,0,0,1,0,.12.62.62,0,0,0,.23.16v.06s0,.07,0,.1a3.08,3.08,0,0,1-.64.79c-.09.07-.16.08-.25.14a.25.25,0,0,1-.32.08.23.23,0,0,1-.08-.31,1.06,1.06,0,0,1,0-.31,2.35,2.35,0,0,1,.56-.9s0-.06.08-.06Z"/><path class="cls-2" d="M75.39,26.56h0s0,.06,0,.08c-.16.26-.31.51-.49.75a1,1,0,0,1-.13.16,2.69,2.69,0,0,1-.46.28.2.2,0,0,1-.29.05.21.21,0,0,1,0-.3c0-.16,0-.29.08-.45a1.76,1.76,0,0,1,.21-.38,2.15,2.15,0,0,1,.53-.63s0,0,.08,0h0l.05.05c.11.08.21-.09.35,0a.2.2,0,0,1,.06.21s0,.05,0,.07a.65.65,0,0,0,.12.11Z"/><path class="cls-2" d="M72.84,26.86s-.06,0-.1,0a1.5,1.5,0,0,0-.47.5,3,3,0,0,0-.16.31.26.26,0,0,0,.41.32c.11-.1.23-.18.33-.29a1.28,1.28,0,0,0,.34-.49.27.27,0,0,0,0-.09.22.22,0,0,0,0-.31A.22.22,0,0,0,72.84,26.86Z"/><path class="cls-2" d="M70.3,28.73c-.17,0-.14,0-.3,0a.23.23,0,0,0-.11.08,2.74,2.74,0,0,0-.32.64.36.36,0,0,0,.63.34,2.43,2.43,0,0,0,.37-.61.23.23,0,0,0,0-.14c0-.17-.06-.12-.14-.28a.08.08,0,0,0,0-.11A.09.09,0,0,0,70.3,28.73Z"/><path class="cls-2" d="M73.37,29.3c-.24-.11,0-.15-.26-.11-.08,0-.13.1-.19.15a1.4,1.4,0,0,0-.39.45.8.8,0,0,0,0,.31.21.21,0,0,0,.08.29.21.21,0,0,0,.29-.07c.1,0,.15,0,.23-.06a1,1,0,0,0,.47-.58c0-.24,0,0-.11-.26a.09.09,0,0,0,0-.12A.08.08,0,0,0,73.37,29.3Z"/><path class="cls-2" d="M75.32,28.63c-.14,0-.09-.08-.23,0s-.07.05-.1.08a2.14,2.14,0,0,0-.44.41c-.08.1-.12.22-.2.33a.3.3,0,0,0,0,.41.3.3,0,0,0,.42,0,1.7,1.7,0,0,0,.65-.75.32.32,0,0,0,.06-.17c0-.12,0,0-.06-.15a.08.08,0,1,0-.11-.11Z"/><path class="cls-2" d="M71.26,26.37c-.18-.06,0-.12-.17-.05s-.19.3-.28.46a.25.25,0,1,0,.43.24c.08-.14.27-.25.26-.42s0,0-.11-.14a.07.07,0,0,0,0-.11A.07.07,0,0,0,71.26,26.37Z"/><path class="cls-2" d="M40.39,106.71C42.46,97.26,47.16,87.94,55,82c2.76-2.07,6.2-4.41,9.83-4.17,1.36.08,3.76.77,3.44,2.63-.67,3.79-6.58,6.4-9.41,8.18-7,4.4-14,8.09-17.16,16.27"/><g class="cls-6"><path class="cls-7" d="M41.25,104.14a1,1,0,0,0,.18-.17,2.29,2.29,0,0,0,.16-.31c.77-1.56,1.52-3.1,2.4-4.59a38,38,0,0,1,2.09-3.19A24.65,24.65,0,0,1,48,93.59c1-1.09,2.13-2.11,3.23-3.13a59,59,0,0,1,7.08-5.72c1-.69,2-1.33,3.07-1.95a46.42,46.42,0,0,1,4.84-2.54.12.12,0,0,0,.06-.16.11.11,0,0,0-.16-.07,40.44,40.44,0,0,0-5,2.34c-1.07.6-2.1,1.26-3.12,2a60,60,0,0,0-7.14,5.77c-1.1,1-2.21,2.07-3.23,3.17a23,23,0,0,0-2,2.34,38.91,38.91,0,0,0-2.56,4.1c-.69,1.27-1.35,2.55-1.92,3.9,0,.07-.06.14-.08.22a1.13,1.13,0,0,0,0,.26.08.08,0,0,0,0,.11A.08.08,0,0,0,41.25,104.14Z"/><path class="cls-7" d="M44.18,98.42c.18,0,.35,0,.53-.08.7-.13,1.4-.26,2.11-.35s1.19-.16,1.78-.19a.09.09,0,0,0,0-.18,12.32,12.32,0,0,0-2.27.08,12.93,12.93,0,0,0-2.2.57s-.07.06-.05.1A.07.07,0,0,0,44.18,98.42Z"/><path class="cls-7" d="M46.27,95.6a2.53,2.53,0,0,0,.38,0c.49,0,1-.12,1.45-.14,1.45,0,3,.13,4.38,0,0,0,.06,0,.06-.07s0-.06-.07-.06c-1.41,0-2.92-.36-4.38-.34a3.92,3.92,0,0,0-1.53.22,1.79,1.79,0,0,0-.34.22s-.07.06,0,.1A.07.07,0,0,0,46.27,95.6Z"/><path class="cls-7" d="M48.74,92.78h.56c.73,0,1.48-.06,2.24,0,1.42.05,2.87.19,4.22.33,0,0,.07,0,.07-.06s0-.06,0-.07a35.58,35.58,0,0,0-4.23-.62,8.75,8.75,0,0,0-2.29.13,5,5,0,0,0-.55.17.08.08,0,0,0-.07.09A.09.09,0,0,0,48.74,92.78Z"/><path class="cls-7" d="M51.69,90l.69,0c.54,0,1.06,0,1.58.09,1.78.17,3.53.57,5.33.7a.08.08,0,0,0,.07,0s0-.07-.06-.07c-1.8-.23-3.51-.84-5.3-1a6.92,6.92,0,0,0-1.64,0,5.63,5.63,0,0,0-.69.14.1.1,0,0,0-.07.09A.08.08,0,0,0,51.69,90Z"/><path class="cls-7" d="M54.89,87.25a2.23,2.23,0,0,0,.27,0c.81,0,1.59,0,2.38,0,.62.06,1.23.14,1.85.23,1.46.21,2.92.45,4.37.56,0,0,.07,0,.07,0s0-.07,0-.07c-1.78-.26-3.52-.82-5.3-1a8.77,8.77,0,0,0-3.27,0,3.65,3.65,0,0,0-.35.14.08.08,0,0,0-.06.09A.08.08,0,0,0,54.89,87.25Z"/><path class="cls-7" d="M58,84.83A25.1,25.1,0,0,1,61.3,85c1.62.15,3.23.35,4.87.62a.1.1,0,1,0,0-.2,36.64,36.64,0,0,0-4.87-.81,17.53,17.53,0,0,0-3.31.1.09.09,0,0,0-.07.09A.08.08,0,0,0,58,84.83Z"/><path class="cls-7" d="M61.91,82.45c1,.07,2.06.2,3.08.34l1.84.29c.92.14,1.84.27,2.75.45a.11.11,0,0,0,.14-.08.12.12,0,0,0-.08-.14,33.8,33.8,0,0,0-3.83-.79,31.72,31.72,0,0,0-3.89-.23.09.09,0,0,0-.09.08A.09.09,0,0,0,61.91,82.45Z"/><path class="cls-7" d="M59.7,83.55c.06,0,.08,0,.12-.08s0-.24.06-.36A33.16,33.16,0,0,1,60.72,79a25,25,0,0,1,1-2.9.06.06,0,0,0,0-.08s-.06,0-.08,0A22.79,22.79,0,0,0,60,80.45a21.24,21.24,0,0,0-.55,2.75c0,.09-.06.18,0,.25s0,0,.1.08a.08.08,0,0,0,.07.09A.1.1,0,0,0,59.7,83.55Z"/><path class="cls-7" d="M55.86,86.59a1.33,1.33,0,0,0,.09-.21,6.5,6.5,0,0,0,.12-.87,25.59,25.59,0,0,1,1-4.25,30.32,30.32,0,0,1,2.07-5.06s0-.08,0-.09a.08.08,0,0,0-.1,0,26.78,26.78,0,0,0-2.35,5,20.61,20.61,0,0,0-.9,4.34,4.29,4.29,0,0,0-.06.88,1,1,0,0,0,.05.23.08.08,0,0,0,.08.08A.07.07,0,0,0,55.86,86.59Z"/><path class="cls-7" d="M52.28,89.3c0-.11.07-.21.09-.32,0-.26,0-.51,0-.76a25.13,25.13,0,0,1,.53-4.31,20.68,20.68,0,0,1,1.73-5.13.08.08,0,0,0,0-.12.09.09,0,0,0-.12,0,18.85,18.85,0,0,0-2,5.12,20.38,20.38,0,0,0-.5,4.39A4.93,4.93,0,0,0,52,89c0,.12.07.21.1.33s0,.08.08.07A.07.07,0,0,0,52.28,89.3Z"/><path class="cls-7" d="M49.42,92v-.47a21.1,21.1,0,0,1,.12-4.14,26.15,26.15,0,0,1,1-4.53,0,0,0,0,0,0-.06.05.05,0,0,0-.07,0,21.75,21.75,0,0,0-1.31,4.5,13.39,13.39,0,0,0-.07,4.24,4.48,4.48,0,0,0,.12.46.11.11,0,0,0,.13.1A.11.11,0,0,0,49.42,92Z"/><path class="cls-7" d="M47.15,94s.06,0,.08-.1c.05-.24-.09-.47-.12-.7a11.61,11.61,0,0,1,0-3.17A35.72,35.72,0,0,1,48,86.09a.1.1,0,0,0-.07-.13.12.12,0,0,0-.13.07,26.35,26.35,0,0,0-1.11,4.76,8.59,8.59,0,0,0,.16,2.95c0,.09,0,.2.08.26s0,0,.1,0a.1.1,0,0,0,.1.06A.09.09,0,0,0,47.15,94Z"/><path class="cls-7" d="M45,96.76c0-.16,0-.32,0-.47a13.09,13.09,0,0,1-.15-1.87A23.21,23.21,0,0,1,45,92.06a.13.13,0,1,0-.26,0,21.23,21.23,0,0,0-.24,2.87,5.28,5.28,0,0,0,.18,1.54,2.37,2.37,0,0,0,.17.36.08.08,0,0,0,.09.06A.08.08,0,0,0,45,96.76Z"/></g></g></g></svg>