<svg xmlns="http://www.w3.org/2000/svg" xmlns:xlink="http://www.w3.org/1999/xlink" viewBox="0 0 106.8 116.04"><defs><style>.cls-1{fill:none;}.cls-2{fill:#0a2135;}.cls-2,.cls-3,.cls-5,.cls-7{fill-rule:evenodd;}.cls-3{fill:#ed245c;}.cls-4,.cls-5{fill:#ae1847;}.cls-6{clip-path:url(#clip-path);}.cls-7{fill:#2b8187;}</style><clipPath id="clip-path"><path class="cls-1" d="M27.49,92.27C32.67,84.1,40.27,77,49.67,74.07c3.3-1,7.33-2,10.66-.56,1.25.55,3.28,2,2.34,3.65C60.75,80.49,54.3,80.93,51,81.63c-8.09,1.74-15.94,2.81-21.68,9.44"/></clipPath></defs><g id="Layer_2" data-name="Layer 2"><g id="OBJECTS"><path class="cls-2" d="M27.4,90.55c2.55-5.43,5.28-10.64,8.27-15.67A143.39,143.39,0,0,1,57.5,46.54c2.06-2.07,4.24-4.11,6.52-6.15,1.8-1.59,3.67-3.09,5.59-4.54,2.65-2,5.35-4,8.07-5.89,1.81-1.28,3.64-2.52,5.41-3.85a.43.43,0,0,1,.55.65c-1.18,1.09-2.35,2.16-3.59,3.17C75.18,34,70,37.52,65.33,41.85,63.11,43.89,61,46,59,48A148.86,148.86,0,0,0,37.36,75.88a201.36,201.36,0,0,0-11,21.26c-2.13,4.73-4.25,9.6-6.23,14.72l-.61,1.62-.77,2.13c1.84-4.71,2.48-.32,0,.08l0,.11c0,.06,0,.25-.09.24a4.27,4.27,0,0,1-.71-.36,4.65,4.65,0,0,1-.76-.21h0l.14-.34h0l0,.07-.11.28h0s.06-.16.08-.21l.05-.14c-1.51-1.87,1.35-4.47.29-.86L19.36,109l4.58-14.16c2.47-7.49,5-17.75,4.91-27.24a39.76,39.76,0,0,0-1.18-9.78,24.4,24.4,0,0,0-2.4-6.07,4.73,4.73,0,0,1-.58-.92c-.11-.35,0-.54,0-.9a.07.07,0,0,1,0-.11.08.08,0,0,1,.11,0,2.38,2.38,0,0,1,.87.31,3.38,3.38,0,0,1,.68.93,23.55,23.55,0,0,1,3,6.26,36.2,36.2,0,0,1,1.53,10.24C31,75.37,29.37,83.63,27.4,90.55Zm-8.64,25.14h0l-.13.34.11-.29Z"/><path class="cls-3" d="M19,35.12s-5.09-4.69-11.83,0c-4.85,3.39.3,9.18.3,9.18S1.22,43.67.18,49.54c-1.46,8.22,6.48,7.88,6.48,7.88S1.51,63.49,8.25,68C18.4,74.88,23,65.8,23,65.8s3.2,6.55,10.43,4.5c9-2.55,7.94-10,7.94-10s9.17,2.22,11.83-7.76c2.31-8.66-7.16-9.91-7.16-9.91s3.55-5.9-3.28-9.61c-6.21-3.36-10,1-10.06.94C30.32,26.7,19,27,19,35.12Z"/><ellipse class="cls-4" cx="25.6" cy="50.01" rx="7.43" ry="4.76" transform="translate(-11.11 7.48) rotate(-13.69)"/><path class="cls-5" d="M13.19,55.33s-.07.08.16.24a0,0,0,0,1,.07,0,0,0,0,0,1,0,.06c.17.31.22.2.23.15s0,0,0,.23c0,0,0,.08-.07.12a7.14,7.14,0,0,0-.47.91c-.16.32-.31.64-.44,1a6.44,6.44,0,0,0-.29,1,4.66,4.66,0,0,0-.09,1c0,2.18,1.84,3.14,3.87,3.31a9.07,9.07,0,0,0,2.32-.12A8.4,8.4,0,0,0,20,62.89a7.28,7.28,0,0,0,1.15-.58,5.19,5.19,0,0,0,1-.81.37.37,0,0,1,.49-.12.34.34,0,0,1,.12.47,4.4,4.4,0,0,1-1.08,1.54,6.75,6.75,0,0,1-2.49,1.43,8.51,8.51,0,0,1-3.2.45c-3.07-.13-5.71-1.88-5.66-5.18a6.38,6.38,0,0,1,.24-1.43,6.58,6.58,0,0,1,.57-1.31,6.72,6.72,0,0,1,.73-1.12,3.89,3.89,0,0,1,.7-.64c.13-.09.23-.27.4-.26C13.34,55.34,13.24,55.3,13.19,55.33Z"/><path class="cls-5" d="M25.93,61.56c0-.09-.2-.17.15.14.09.08.07.22.11.32a2.55,2.55,0,0,0,.86,1.16,5.05,5.05,0,0,0,2.13,1,9.1,9.1,0,0,0,2.84.22,6.56,6.56,0,0,0,1.82-.33A5.14,5.14,0,0,0,36,62.7a8.45,8.45,0,0,0,1.54-2.32.38.38,0,0,1,.47-.22.35.35,0,0,1,.22.44,8.84,8.84,0,0,1-1.66,3.33,6.21,6.21,0,0,1-2.16,1.62,8.24,8.24,0,0,1-2.75.56,9.46,9.46,0,0,1-4.08-.72,5,5,0,0,1-1.79-1.24,3.26,3.26,0,0,1-.84-2c0-.13-.08-.28,0-.38.47-.52,0-.21.1-.11s.15.05.38,0c0,0,0,0,.05,0a0,0,0,0,1,0,0C25.9,61.69,26,61.62,25.93,61.56Z"/><path class="cls-5" d="M18.71,57.4c-.1.13-.12.09-.17.24a.25.25,0,0,0,0,.12A3.46,3.46,0,0,0,20.33,60a5.09,5.09,0,0,0,1.91.6,7,7,0,0,0,3-.31A7.33,7.33,0,0,0,28,58.69,7.28,7.28,0,0,0,29.64,56a.33.33,0,0,0-.18-.46.36.36,0,0,0-.49.17,7.74,7.74,0,0,1-1.84,2.06,7.2,7.2,0,0,1-2.37,1.29,5.6,5.6,0,0,1-3.26.13,4.33,4.33,0,0,1-1.07-.42,3.29,3.29,0,0,1-1.25-1.18s0-.11-.09-.14-.13,0-.28-.1,0,0-.06,0A.05.05,0,0,0,18.71,57.4Z"/><path class="cls-5" d="M36.57,56.55c0,.21-.08.2,0,.39.33.69,1.41.72,2.3.75a6.81,6.81,0,0,0,1.56-.13,13.27,13.27,0,0,0,2.18-.66,8.5,8.5,0,0,0,4.68-4.68,6.31,6.31,0,0,0,.43-1.84,5.38,5.38,0,0,0-.48-2.77A5.16,5.16,0,0,0,46,46a.42.42,0,0,0-.58-.05.39.39,0,0,0-.06.56A4.74,4.74,0,0,1,46,48a5.06,5.06,0,0,1,.1,2.19,6.21,6.21,0,0,1-.39,1.43A7,7,0,0,1,42,55.55a15.19,15.19,0,0,1-1.91.69,10.07,10.07,0,0,1-1.29.31A6.67,6.67,0,0,1,37,56.38c-.21,0-.16.07-.37.1a0,0,0,0,0-.07,0S36.56,56.53,36.57,56.55Z"/><path class="cls-5" d="M36.76,43.66l.14-.09c.09-.08.24,0,.35,0a3.26,3.26,0,0,1,1.9.71,4.72,4.72,0,0,1,1.21,1.51A5.06,5.06,0,0,1,40.68,50a5.31,5.31,0,0,1-1.44,1.74,6.07,6.07,0,0,1-1.29.83c-.19.08-.39.15-.6.22a.62.62,0,0,1-.81-.24.55.55,0,0,1,.25-.76c.19-.14.36-.29.55-.42a9.19,9.19,0,0,0,1.17-.93,4.2,4.2,0,0,0,.76-1.08,3.71,3.71,0,0,0-.11-3,3.79,3.79,0,0,0-1-1.43,2.69,2.69,0,0,0-1-.57c-.08,0-.19,0-.26-.07-.3-.27,0,.1-.07-.29a.05.05,0,0,1,0-.05s0,0,0,0C36.89,43.56,36.71,43.7,36.76,43.66Z"/><path class="cls-5" d="M32.88,37.39c.15.07.07.11.23.11s.31-.15.47-.22a10.54,10.54,0,0,1,2.17-.68,6.72,6.72,0,0,1,3.22,0,2.83,2.83,0,0,1,2,2.57l.08,2a.44.44,0,0,0,.31.55.47.47,0,0,0,.58-.3,3,3,0,0,0,.33-.54,3.07,3.07,0,0,0,.18-.61,3.44,3.44,0,0,0,.1-.63,3.67,3.67,0,0,0,0-.66,4.1,4.1,0,0,0-3.19-3.59,6.56,6.56,0,0,0-2.62-.06,9.29,9.29,0,0,0-3.46,1.4c-.16.11-.37.17-.44.33s0,.08,0,.24a.05.05,0,0,0,0,.07A0,0,0,0,0,32.88,37.39Z"/><path class="cls-5" d="M21.17,43c.19-.14.37-.21.57-.36a1.62,1.62,0,0,0,.19-.18,7.12,7.12,0,0,1,1.12-.81,7.71,7.71,0,0,1,1.91-.8,5.84,5.84,0,0,1,4.06.24,4,4,0,0,1,.65.4l.34.28c.28.24.53.51.81.77.11.1.22.18.35.28a.39.39,0,0,0,.53.11.36.36,0,0,0,.12-.51c-.07-.19-.11-.36-.19-.54a4,4,0,0,0-.78-1.18,3.82,3.82,0,0,0-1.2-.83,7,7,0,0,0-5.06-.11,7.37,7.37,0,0,0-2.1,1.15A5.49,5.49,0,0,0,21.4,42a1.67,1.67,0,0,0-.16.24,2.77,2.77,0,0,0-.16.69,0,0,0,0,0,0,.06A.05.05,0,0,0,21.17,43Z"/><path class="cls-5" d="M14.76,42.66c.17,0,.18,0,.32-.09a.66.66,0,0,0,.09-.19,15.38,15.38,0,0,1,1.73-3.12,8.21,8.21,0,0,1,3.38-2.49,17.4,17.4,0,0,1,4.25-1.15,18.9,18.9,0,0,1,2.33-.2c.33,0,.66,0,1,0a4.78,4.78,0,0,1,2.05.52.34.34,0,0,0,.46-.07.31.31,0,0,0-.08-.44,5.54,5.54,0,0,0-2.89-1.1,12.59,12.59,0,0,0-3,.14A16.48,16.48,0,0,0,19,36.22a8.31,8.31,0,0,0-2.87,2.51,11.77,11.77,0,0,0-1.26,2.66,5.85,5.85,0,0,0-.31.92.11.11,0,0,0,0,.08c0,.15.07.1.16.24s0,0,0,.06A.05.05,0,0,0,14.76,42.66Z"/><path class="cls-5" d="M15.93,45.68c0-.2.09-.11,0-.27s-.33-.16-.51-.23a5.57,5.57,0,0,0-3.09-.06,6.13,6.13,0,0,0-2.75,1.5,2.83,2.83,0,0,0-.81,3.3A3.23,3.23,0,0,0,9.7,51a4.19,4.19,0,0,0,.72.46,5.87,5.87,0,0,0,1.15.46A.33.33,0,0,0,12,51.8a.29.29,0,0,0-.16-.39,4.85,4.85,0,0,1-.74-.51,3.79,3.79,0,0,1-.59-.61A2.3,2.3,0,0,1,10,49.22a1.57,1.57,0,0,1,.1-1,3.48,3.48,0,0,1,1.18-1.32,6.39,6.39,0,0,1,1.92-.9,5.11,5.11,0,0,1,2.14-.19.92.92,0,0,0,.39.07c.19,0,0,0,.19-.16a0,0,0,0,0,0-.08Z"/><path class="cls-5" d="M6.33,48.35c-.09-.09-.1-.14-.22-.18-.68-.26-1.39.32-1.92.87A4.23,4.23,0,0,0,3,52.22,2.35,2.35,0,0,0,4.2,53.83a6.82,6.82,0,0,0,2.61.7.44.44,0,0,0,.51-.35A.41.41,0,0,0,7,53.7,6.3,6.3,0,0,1,4.77,53a1.5,1.5,0,0,1-.71-1,3.19,3.19,0,0,1,.47-2.13,3.23,3.23,0,0,1,.64-.82,1.83,1.83,0,0,1,.9-.45h.07c.1,0,.09-.09.18-.16a.06.06,0,0,0,.06-.05A.05.05,0,0,0,6.33,48.35Z"/><path class="cls-2" d="M20.61,48.94l.05,0s0,.05,0,.07a4.38,4.38,0,0,1,.14.87.27.27,0,0,1,0,.18c-.07.1,0,0-.13.1a.15.15,0,0,1-.13.16.15.15,0,0,1-.16-.13c-.11,0,0,0-.13,0a.19.19,0,0,1-.1-.1,1.82,1.82,0,0,1-.13-.73c0-.14-.07-.32,0-.41l.05-.05c.23-.23-.26.06.18,0a.08.08,0,0,1,.09-.07.08.08,0,0,1,.07.08C20.55,49,20.6,49,20.61,48.94Z"/><path class="cls-2" d="M19.35,50.57l0,0s0,.07,0,.11a9.37,9.37,0,0,1,.28.9.37.37,0,0,1,0,.18c0,.08,0,0-.08.07a.26.26,0,0,1-.17.33.26.26,0,0,1-.33-.16c-.09,0-.05,0-.13,0s0-.09-.07-.14a1.82,1.82,0,0,1-.08-.52c0-.21-.1-.46,0-.64s0,0,.19-.09a.08.08,0,0,1,.16,0A.36.36,0,0,0,19.35,50.57Z"/><path class="cls-2" d="M21,51.34l.07.07c.11.09.09.27.13.42a1.5,1.5,0,0,1,.06.29,2.64,2.64,0,0,1-.08.49.23.23,0,0,1-.19.28.25.25,0,0,1-.28-.2,3.3,3.3,0,0,1-.23-.41,1.7,1.7,0,0,1-.06-.46c0-.11-.06-.24,0-.33.17-.24,0,0,.24-.1,0,0,0-.08.07-.09a.08.08,0,0,1,.08.08C21.19,51.42,20.88,51.2,21,51.34Z"/><path class="cls-2" d="M22.31,53c-.38.17-.09-.23-.31.14a.66.66,0,0,0,.06.59c.06.12.13.14.23.23a.27.27,0,0,0,.32.19.26.26,0,0,0,.18-.32c.05-.11.12-.14.13-.26A.66.66,0,0,0,22.8,53c-.3-.29.08,0-.33,0a.08.08,0,0,0-.09-.07A.09.09,0,0,0,22.31,53Z"/><path class="cls-2" d="M22.57,50.05c-.21.11-.13-.06-.24.13a.9.9,0,0,0,0,.68c0,.1.11.15.16.25a.22.22,0,0,0,.23.21.21.21,0,0,0,.2-.22.76.76,0,0,0,.13-.31,1,1,0,0,0-.11-.67c-.15-.17-.05,0-.26-.08a.07.07,0,0,0-.08-.07A.07.07,0,0,0,22.57,50.05Z"/><path class="cls-2" d="M22.32,47.16c-.08.09-.11.06-.16.17a.49.49,0,0,0,0,.24,2,2,0,0,0,.05.55,2.16,2.16,0,0,0,.17.34.24.24,0,0,0,.29.19.25.25,0,0,0,.19-.29,1.75,1.75,0,0,0,0-.32,3.77,3.77,0,0,0-.18-.68s0-.07,0-.1-.1-.06-.2-.12a.08.08,0,0,0-.09-.07A.08.08,0,0,0,22.32,47.16Z"/><path class="cls-2" d="M25,47l0,0c.08,0,.06.18.08.27a3.86,3.86,0,0,1,.1.76,3.09,3.09,0,0,1-.07.52.2.2,0,0,1-.16.23.2.2,0,0,1-.23-.17c-.09-.17-.2-.31-.28-.5a5.28,5.28,0,0,1-.24-.77s0-.1,0-.14v0c.45-.74-.67.25.18-.05A.21.21,0,1,1,24.8,47,.3.3,0,0,0,25,47Z"/><path class="cls-2" d="M24.34,49.76c-.19.1-.12,0-.26.13a.12.12,0,0,0,0,.09,1.44,1.44,0,0,0-.06.74.44.44,0,0,0,.12.19.35.35,0,0,0,.41.29.35.35,0,0,0,.28-.41c0-.06.07-.09.08-.16a2.43,2.43,0,0,0-.09-.65.32.32,0,0,0,0-.09c-.15-.16-.07,0-.26-.13a.09.09,0,0,0-.08-.08A.08.08,0,0,0,24.34,49.76Z"/><path class="cls-2" d="M24.67,52.58l.07,0s0,0,0,.06a2.8,2.8,0,0,1,.27.73c0,.09,0,.14,0,.23a.35.35,0,0,1-.23.43.35.35,0,0,1-.43-.23c-.06-.05-.12-.07-.16-.15a1.74,1.74,0,0,1-.13-.76c0-.07,0-.15,0-.2l.05-.06c.21-.29-.26.13.2,0a.08.08,0,1,1,.16,0C25,52.63,24.37,52.38,24.67,52.58Z"/><path class="cls-2" d="M26.63,52.12c-.27.15-.11-.13-.25.15-.06.11,0,.25,0,.38a.92.92,0,0,0,.07.4c.08.13.17.12.28.21a.21.21,0,0,0,.25.17.22.22,0,0,0,.16-.25c.06-.14.14-.18.15-.33a1.15,1.15,0,0,0-.12-.4c0-.11,0-.26-.13-.34-.25-.19,0,0-.29,0a.09.09,0,0,0-.1-.06A.08.08,0,0,0,26.63,52.12Z"/><path class="cls-2" d="M26.11,49.57c-.2.09-.12-.07-.24.11s-.05.46,0,.68a1.66,1.66,0,0,0,.1.29.29.29,0,0,0,.57-.08,2.19,2.19,0,0,0,0-.27c0-.21.07-.47-.06-.64s0,0-.24-.09a.09.09,0,0,0-.09-.08A.07.07,0,0,0,26.11,49.57Z"/><path class="cls-2" d="M27.89,46.36l.05,0a.25.25,0,0,1,0,.09,2.76,2.76,0,0,1,0,.95c0,.1-.07.15-.1.25a.24.24,0,0,1-.18.27.23.23,0,0,1-.27-.19.79.79,0,0,1-.19-.22,2.2,2.2,0,0,1-.16-1s0-.07,0-.1l0,0a.84.84,0,0,0,.28,0,.08.08,0,0,1,.07-.08c.05,0,.08,0,.09.07A.85.85,0,0,0,27.89,46.36Z"/><path class="cls-2" d="M30.37,47h0s0,.05,0,.08c.05.27.09.55.12.82a1.34,1.34,0,0,1,0,.2,2.3,2.3,0,0,1-.17.48.21.21,0,0,1-.19.23.21.21,0,0,1-.23-.2,2.85,2.85,0,0,1-.23-.37,1.7,1.7,0,0,1-.09-.39,2.22,2.22,0,0,1,0-.77s0-.06,0-.08h.07c.14,0,.11-.2.29-.2s.15.2.29.21Z"/><path class="cls-2" d="M28.71,48.83s-.05,0-.06.08a1.26,1.26,0,0,0,0,.64,1.77,1.77,0,0,0,.08.31.26.26,0,0,0,.52,0c0-.14.05-.27.06-.41a1.13,1.13,0,0,0-.06-.55s0,0-.07-.07a.22.22,0,0,0-.23-.21A.22.22,0,0,0,28.71,48.83Z"/><path class="cls-2" d="M28.07,51.75c-.12.13-.12.06-.2.22a.17.17,0,0,0,0,.12,2.53,2.53,0,0,0,.17.64.37.37,0,0,0,.43.27.35.35,0,0,0,.27-.43,2,2,0,0,0-.11-.65.16.16,0,0,0-.08-.1c-.15-.11-.12,0-.29-.11a.07.07,0,0,0-.09-.06A.08.08,0,0,0,28.07,51.75Z"/><path class="cls-2" d="M30.59,50.17c-.27.07-.09-.13-.28.07s0,.15,0,.23a1.18,1.18,0,0,0,0,.56.67.67,0,0,0,.19.22.22.22,0,1,0,.43-.07c.05-.09.11-.09.14-.18a1,1,0,0,0,0-.7c-.14-.22,0,0-.26-.12,0,0,0-.08-.07-.09A.08.08,0,0,0,30.59,50.17Z"/><path class="cls-2" d="M31.54,48.45c-.13.07-.1,0-.2.11a.27.27,0,0,0,0,.13,2.09,2.09,0,0,0-.06.56c0,.12,0,.23.07.35a.29.29,0,1,0,.58,0,1.8,1.8,0,0,0,.08-.39,2,2,0,0,0-.08-.55.25.25,0,0,0-.06-.15c-.09-.1,0,0-.15-.08a.07.07,0,0,0-.07-.08A.1.1,0,0,0,31.54,48.45Z"/><path class="cls-2" d="M27.31,49.51c-.19.08-.07-.11-.17.07s.06.33.09.5a.25.25,0,1,0,.48-.1c0-.15,0-.34-.07-.46s0,0-.17,0a.1.1,0,0,0-.09-.07A.08.08,0,0,0,27.31,49.51Z"/><path class="cls-3" d="M93.34,11.94s1.9-7.3-5.77-11.31c-5.52-2.88-8.41,5.05-8.41,5.05s-2.42-6.35-8.4-4.3c-8.37,2.86-4.19,10.27-4.19,10.27s-8.15-1.78-9.12,7c-1.44,13.25,9.26,13,9.26,13s-4.54,6.46.88,12.31c6.72,7.26,13.13,2.44,13.13,2.44s2.38,9.92,13,7.3c9.18-2.27,5.75-12,5.75-12s7.22.35,7.35-8.1c.12-7.69-5.82-9.08-5.76-9.14C106.67,18.39,100.84,7.68,93.34,11.94Z"/><ellipse class="cls-4" cx="82.67" cy="25.94" rx="5.11" ry="7.9" transform="translate(2.16 57.97) rotate(-39.12)"/><path class="cls-5" d="M71.69,16.81s-.11,0-.15.29a.05.05,0,0,1,0,.07.06.06,0,0,1-.07,0c-.2.31-.08.31,0,.29l-.22.11a.38.38,0,0,1-.15,0,7.79,7.79,0,0,0-1.08,0c-.37,0-.74,0-1.11.09a5.27,5.27,0,0,0-1.11.26,4.65,4.65,0,0,0-1,.45c-2.05,1.1-2,3.39-1.2,5.41A9.13,9.13,0,0,0,66.82,26a8.17,8.17,0,0,0,1.11,1.23A7.58,7.58,0,0,0,69,28a5.16,5.16,0,0,0,1.25.56.4.4,0,0,1,.35.41.36.36,0,0,1-.38.36,4.71,4.71,0,0,1-2-.24,6.76,6.76,0,0,1-2.54-1.64,9.25,9.25,0,0,1-2-2.82c-1.37-3-1-6.45,2.08-8.1A5.75,5.75,0,0,1,67.31,16a6.26,6.26,0,0,1,1.5-.14A6.53,6.53,0,0,1,70.2,16a4.39,4.39,0,0,1,.94.34c.16.08.37.09.44.25C71.75,17,71.74,16.86,71.69,16.81Z"/><path class="cls-5" d="M72.07,32.24c.07-.08.06-.28-.06.21,0,.13-.17.18-.25.27a3,3,0,0,0-.66,1.42,5.81,5.81,0,0,0,.08,2.58,10.07,10.07,0,0,0,1.17,2.83,7.71,7.71,0,0,0,1.2,1.57,5.2,5.2,0,0,0,2.37,1.37,8.78,8.78,0,0,0,2.91.28.39.39,0,0,1,.43.33.39.39,0,0,1-.31.44,8.82,8.82,0,0,1-3.9.13,6.18,6.18,0,0,1-2.56-1.22,8.86,8.86,0,0,1-1.86-2.35,10.41,10.41,0,0,1-1.31-4.27,5.68,5.68,0,0,1,.29-2.35,3.54,3.54,0,0,1,1.46-1.84c.12-.07.23-.22.36-.19.72.18.18-.14.15,0s0,.17.19.37a0,0,0,0,1,.07,0,0,0,0,0,1,0,.07C71.94,32.27,72,32.29,72.07,32.24Z"/><path class="cls-5" d="M72.44,23.17c-.17,0-.14-.07-.3,0a.23.23,0,0,0-.11.08,3.87,3.87,0,0,0-1.26,2.87,5.55,5.55,0,0,0,.37,2.14A7,7,0,0,0,79,32.92a.39.39,0,0,0,.35-.42.41.41,0,0,0-.41-.38,7.59,7.59,0,0,1-2.8-.69,7.21,7.21,0,0,1-2.36-1.6,6.18,6.18,0,0,1-1.71-3A5.27,5.27,0,0,1,72,25.54a3.67,3.67,0,0,1,.49-1.81c0-.05.08-.09.09-.16s0-.14,0-.32a0,0,0,0,0,0-.07A0,0,0,0,0,72.44,23.17Z"/><path class="cls-5" d="M81.91,39.82c-.21.09-.23,0-.36.21-.49.67,0,1.72.41,2.59a7.86,7.86,0,0,0,.88,1.43,13.46,13.46,0,0,0,1.68,1.74,8.62,8.62,0,0,0,6.63,2.05,6.46,6.46,0,0,0,1.91-.54,5.67,5.67,0,0,0,2.36-1.9,5.89,5.89,0,0,0,.88-2,.47.47,0,0,0-.24-.59.4.4,0,0,0-.54.24,5.68,5.68,0,0,1-1.1,1.39,5.49,5.49,0,0,1-2,1.23,7.19,7.19,0,0,1-7-1.16A14.69,14.69,0,0,1,83.91,43,10.29,10.29,0,0,1,83,42a7.53,7.53,0,0,1-.73-1.82c-.07-.21-.13-.12-.26-.3a.07.07,0,0,0,0-.07S81.91,39.79,81.91,39.82Z"/><path class="cls-5" d="M94,33.33l.15.08c.12.05.14.22.19.33a3.63,3.63,0,0,1,.26,2.18,5,5,0,0,1-.82,1.94A5.38,5.38,0,0,1,90,40.36a5.5,5.5,0,0,1-2.32-.47,6.2,6.2,0,0,1-1.4-.81,5.38,5.38,0,0,1-.49-.47.67.67,0,0,1-.18-.89.58.58,0,0,1,.84-.16c.22.12.44.21.65.31a9.07,9.07,0,0,0,1.44.64,4.16,4.16,0,0,0,1.37.17A3.94,3.94,0,0,0,92.7,37a4.21,4.21,0,0,0,.84-1.71,3,3,0,0,0,0-1.26c0-.09-.09-.19-.07-.29.11-.42-.07.09.24-.21a.06.06,0,0,1,0-.07,0,0,0,0,1,.07,0C94.16,33.4,93.94,33.3,94,33.33Z"/><path class="cls-5" d="M98,26.38c0,.17-.07.11,0,.27s.29.22.43.33a11.54,11.54,0,0,1,1.69,1.73,7.12,7.12,0,0,1,1.53,3.09,3.15,3.15,0,0,1-1.4,3.27l-1.81,1.11a.47.47,0,0,0-.36.58.48.48,0,0,0,.55.4,3.82,3.82,0,0,0,.68,0,3.5,3.5,0,0,0,.64-.15,4,4,0,0,0,.64-.23,3.55,3.55,0,0,0,.59-.39,4.59,4.59,0,0,0,1.8-4.91A7,7,0,0,0,101.72,29a9.59,9.59,0,0,0-3-2.59c-.17-.09-.33-.26-.51-.25s-.08.05-.23.14a0,0,0,0,0-.06,0A.05.05,0,0,0,98,26.38Z"/><path class="cls-5" d="M87.05,18.07c.23.11.39.24.62.35l.26.1a7.45,7.45,0,0,1,1.3.64,7.92,7.92,0,0,1,1.66,1.42,6.34,6.34,0,0,1,1.76,4,4.38,4.38,0,0,1-.06.83c0,.16-.06.31-.1.46-.09.4-.21.78-.32,1.18,0,.16-.06.31-.09.48a.44.44,0,0,0,.15.56.37.37,0,0,0,.53-.15,6,6,0,0,0,.42-.46,4.62,4.62,0,0,0,.72-1.35,4.27,4.27,0,0,0,.18-1.58,7.63,7.63,0,0,0-4.44-6.31,5.66,5.66,0,0,0-1.57-.47,1.62,1.62,0,0,0-.31,0,2.6,2.6,0,0,0-.71.2A0,0,0,0,0,87,18,.06.06,0,0,0,87.05,18.07Z"/><path class="cls-5" d="M84.24,11.76c.13.14.08.19.25.26s.14,0,.22,0a16.23,16.23,0,0,1,3.75,0,8.25,8.25,0,0,1,4,1.95,18.08,18.08,0,0,1,3.13,3.47,20.43,20.43,0,0,1,1.32,2.13c.16.31.33.62.47.94a5.19,5.19,0,0,1,.52,2.22.35.35,0,0,0,.28.4.32.32,0,0,0,.37-.29,6.14,6.14,0,0,0-.37-3.34,13.55,13.55,0,0,0-1.61-2.83,17.33,17.33,0,0,0-4.24-4.26A8.54,8.54,0,0,0,88.56,11a12.72,12.72,0,0,0-3.09.17,5.62,5.62,0,0,0-1,.18l-.08,0c-.12.12-.06.13-.15.28,0,0,0,0,0,.06S84.22,11.77,84.24,11.76Z"/><path class="cls-5" d="M82,14.44c.17-.1.13,0,.24-.15s0-.4,0-.6a5.92,5.92,0,0,0-1.44-3A6.14,6.14,0,0,0,78,8.84a2.93,2.93,0,0,0-3.46.93A3.75,3.75,0,0,0,74,11.26a5.94,5.94,0,0,0-.08.93A7.71,7.71,0,0,0,74,13.52a.35.35,0,0,0,.34.32.32.32,0,0,0,.29-.36,5.15,5.15,0,0,1,.12-1,4.09,4.09,0,0,1,.28-.88,2.66,2.66,0,0,1,.74-1.06,1.7,1.7,0,0,1,.94-.39,3.45,3.45,0,0,1,1.81.44A6.44,6.44,0,0,1,80.33,12a5.33,5.33,0,0,1,1.21,2c0,.13,0,.29.13.4s0,0,.24.1a0,0,0,0,0,0,.05A.06.06,0,0,0,82,14.44Z"/><path class="cls-5" d="M74.86,6.65c0-.14.08-.17.06-.31-.09-.78-1-1.17-1.74-1.39a4.41,4.41,0,0,0-3.53.55,2.71,2.71,0,0,0-.94,1.94,7.54,7.54,0,0,0,.63,2.87.46.46,0,0,0,.57.3.48.48,0,0,0,.27-.6,7,7,0,0,1-.39-2.46,1.69,1.69,0,0,1,.54-1.18,3.38,3.38,0,0,1,2.22-.65,2.94,2.94,0,0,1,1.07.19,1.86,1.86,0,0,1,.86.63l0,.06c.09.07.13,0,.24.09a.05.05,0,1,0,.1,0Z"/><path class="cls-2" d="M81,20.12c.27.07-.17-.17.07.16a.08.08,0,0,1,.1,0,.08.08,0,0,1,0,.11c.1.39.17-.12.09.15,0,0,0,.05,0,.07a.13.13,0,0,1-.06.07,5.26,5.26,0,0,1-.74.58.26.26,0,0,1-.19.06c-.12,0,0,0-.15-.06a.16.16,0,0,1-.2,0,.15.15,0,0,1,0-.2c0-.11,0,0,0-.14a.2.2,0,0,1,0-.14,2.12,2.12,0,0,1,.61-.5c.13-.08.26-.23.4-.18Z"/><path class="cls-2" d="M78.84,19.86v0l.08.1S79,20,79,20s-.07.15.07.22h0v.05s0,.06-.07.09a9.66,9.66,0,0,1-.71.72.37.37,0,0,1-.17.1c-.08,0,0,0-.11,0a.26.26,0,0,1-.39-.35c0-.08,0,0,0-.13a.28.28,0,0,1,.1-.14,2,2,0,0,1,.43-.34,3,3,0,0,1,.61-.33s0,0,0,0Z"/><path class="cls-2" d="M79.21,22.21s0-.08,0,.11-.22.23-.34.34a1.57,1.57,0,0,1-.24.21,2.15,2.15,0,0,1-.5.19.23.23,0,0,1-.33,0,.24.24,0,0,1,0-.33,3,3,0,0,1,.27-.42,1.68,1.68,0,0,1,.4-.3c.1-.06.19-.18.31-.17s0,0,.21.16a.09.09,0,0,1,.11,0,.09.09,0,0,1,0,.11C79.15,22.25,79.19,22.24,79.21,22.21Z"/><path class="cls-2" d="M78.27,24.36c-.32-.23.12-.2-.28-.21a.75.75,0,0,0-.52.37.71.71,0,0,0-.1.32.26.26,0,1,0,.35.39c.12,0,.19,0,.3,0s.41-.2.46-.4c.1-.38,0,.05-.12-.32,0,0,0-.07,0-.11A.08.08,0,0,0,78.27,24.36Z"/><path class="cls-2" d="M81.16,23.06c-.19-.11,0-.14-.24-.14a1,1,0,0,0-.61.4c-.08.08-.09.18-.16.27a.22.22,0,1,0,.22.38,1.35,1.35,0,0,0,.35-.06,1,1,0,0,0,.57-.45c.08-.2,0-.05-.05-.26a.08.08,0,0,0,0-.12A.08.08,0,0,0,81.16,23.06Z"/><path class="cls-2" d="M83.73,21.33c-.12,0-.12-.06-.24,0a.71.71,0,0,0-.22.13,2.34,2.34,0,0,0-.49.33,2.44,2.44,0,0,0-.23.33.24.24,0,0,0,0,.35.25.25,0,0,0,.35,0,1.79,1.79,0,0,0,.32-.13,4.42,4.42,0,0,0,.54-.52s.06-.05.07-.09,0-.12,0-.24a.08.08,0,0,0,0-.11S83.77,21.31,83.73,21.33Z"/><path class="cls-2" d="M84.64,23.17a1.56,1.56,0,0,0,.13.13.22.22,0,0,1,.3,0,.22.22,0,0,1,0,.31c.06.08.1.11.13.11v.06c0,.1-.14.15-.21.22a3.89,3.89,0,0,1-.66.49,3,3,0,0,1-.52.21.19.19,0,0,1-.28,0,.2.2,0,0,1,0-.28c.13-.17.21-.34.34-.51a6.05,6.05,0,0,1,.61-.63s.07-.09.12-.09Z"/><path class="cls-2" d="M82.28,24.61c-.17-.11,0-.12-.24-.16,0,0-.06,0-.1,0a1.62,1.62,0,0,0-.71.34.51.51,0,0,0-.12.2.35.35,0,0,0,.44.55.62.62,0,0,0,.19,0,2.78,2.78,0,0,0,.56-.41s0,0,.07-.08,0-.08,0-.29a.08.08,0,0,0-.08-.14Z"/><path class="cls-2" d="M79.48,25.91c.3,0-.22-.13.11.17a.08.08,0,0,1,.11,0,.08.08,0,0,1,0,.11c.07.14.11.16.13.15s0-.24,0,.09c0,0,0,0,0,.06a3,3,0,0,1-.55.63,2.18,2.18,0,0,1-.23.09.35.35,0,1,1-.5-.48.57.57,0,0,1,.07-.22A1.73,1.73,0,0,1,79.2,26c.06,0,.12-.11.19-.1Z"/><path class="cls-2" d="M81.21,28c-.26-.15,0-.15-.26-.14s-.23.15-.34.23-.26.16-.33.29,0,.21-.07.35a.21.21,0,0,0,0,.3.2.2,0,0,0,.29,0c.16,0,.23,0,.37,0a1.22,1.22,0,0,0,.32-.32c.09-.1.23-.17.25-.3,0-.28,0,0-.11-.27a.08.08,0,0,0,0-.11A.07.07,0,0,0,81.21,28Z"/><path class="cls-2" d="M83.32,26.2c-.17-.12,0-.14-.22-.15s-.44.19-.63.34a1.31,1.31,0,0,0-.22.25.29.29,0,0,0-.06.4.3.3,0,0,0,.4.06,2.33,2.33,0,0,0,.28-.11c.2-.1.46-.18.56-.39s0-.05,0-.26a.08.08,0,0,0,0-.11A.08.08,0,0,0,83.32,26.2Z"/><path class="cls-2" d="M86.77,25.61a.58.58,0,0,0,.16.24.07.07,0,0,1,.11,0A.09.09,0,0,1,87,26a.63.63,0,0,0,.15.23v.06s0,.06-.07.09a3,3,0,0,1-.87.52,2.36,2.36,0,0,1-.28,0,.23.23,0,0,1-.32,0,.22.22,0,0,1,0-.32.93.93,0,0,1,.12-.29,2.44,2.44,0,0,1,.84-.65.12.12,0,0,1,.1,0Z"/><path class="cls-2" d="M87.78,28.91h0s0,0-.06.06c-.24.19-.47.37-.71.54l-.18.11a2.47,2.47,0,0,1-.53.1.21.21,0,0,1-.3-.06.22.22,0,0,1,.06-.29,3.26,3.26,0,0,1,.24-.4,1.69,1.69,0,0,1,.32-.28,2.12,2.12,0,0,1,.71-.41s.06,0,.09,0h0l0,.06c.07.12.23,0,.32.15a.2.2,0,0,1,0,.22s-.06,0-.06.05l.08.14Z"/><path class="cls-2" d="M85.27,28.32l-.09,0a1.65,1.65,0,0,0-.62.31c-.09.07-.16.16-.25.24a.25.25,0,0,0-.08.35.26.26,0,0,0,.35.09c.14-.06.28-.09.41-.16a1.14,1.14,0,0,0,.49-.34s0-.05,0-.09a.22.22,0,0,0,.07-.31A.23.23,0,0,0,85.27,28.32Z"/><path class="cls-2" d="M82.25,29.21c-.17,0-.12-.07-.3-.07a.33.33,0,0,0-.13,0,2.94,2.94,0,0,0-.51.49.36.36,0,1,0,.48.53,3,3,0,0,0,.55-.44.21.21,0,0,0,0-.13c0-.17,0-.13,0-.31a.08.08,0,1,0-.11-.11Z"/><path class="cls-2" d="M84.94,30.8c-.19-.19.06-.14-.2-.2-.08,0-.16,0-.23.08A1.21,1.21,0,0,0,84,31a.54.54,0,0,0-.11.28.21.21,0,0,0,0,.3.22.22,0,0,0,.3,0c.1,0,.14.05.24,0a1,1,0,0,0,.64-.38c.13-.22,0,0,0-.29a.09.09,0,0,0,0-.11A.08.08,0,0,0,84.94,30.8Z"/><path class="cls-2" d="M87,30.83c-.12-.08,0-.1-.2-.12s-.08,0-.12,0a3,3,0,0,0-.56.24c-.1.07-.19.16-.29.24a.3.3,0,0,0-.13.39.28.28,0,0,0,.39.13,2.67,2.67,0,0,0,.4-.13,2,2,0,0,0,.47-.35.26.26,0,0,0,.11-.14c.05-.11,0,0,0-.16a.08.08,0,0,0,0-.11A.09.09,0,0,0,87,30.83Z"/><path class="cls-2" d="M84,27.32c-.15-.12.05-.11-.15-.11s-.28.22-.41.34a.25.25,0,0,0,0,.35.26.26,0,0,0,.35,0c.13-.11.34-.15.39-.31s0,0,0-.17a.08.08,0,0,0,0-.11A.07.07,0,0,0,84,27.32Z"/><path class="cls-2" d="M27.49,92.27C32.67,84.1,40.27,77,49.67,74.07c3.3-1,7.33-2,10.66-.56,1.25.55,3.28,2,2.34,3.65C60.75,80.49,54.3,80.93,51,81.63c-8.09,1.74-15.94,2.81-21.68,9.44"/><g class="cls-6"><path class="cls-7" d="M29.19,90.15a1.47,1.47,0,0,0,.22-.1,1.45,1.45,0,0,0,.26-.24c1.25-1.2,2.49-2.39,3.81-3.48A36.37,36.37,0,0,1,36.54,84a23.73,23.73,0,0,1,2.58-1.5c1.34-.67,2.72-1.26,4.1-1.84a60.76,60.76,0,0,1,8.61-3c1.18-.3,2.37-.55,3.56-.77a44.8,44.8,0,0,1,5.41-.74.13.13,0,0,0,.12-.13.12.12,0,0,0-.13-.12,40.28,40.28,0,0,0-5.49.49c-1.21.2-2.41.47-3.6.77a59.32,59.32,0,0,0-8.68,3c-1.39.59-2.78,1.18-4.13,1.87a24.52,24.52,0,0,0-2.62,1.53,38.51,38.51,0,0,0-3.81,3,42.25,42.25,0,0,0-3.13,3,.9.9,0,0,0-.16.18,1.73,1.73,0,0,0-.1.24.07.07,0,0,0,0,.11A.08.08,0,0,0,29.19,90.15Z"/><path class="cls-7" d="M33.89,85.78l.53.11c.7.11,1.4.23,2.1.38s1.17.26,1.74.44a.08.08,0,0,0,.11-.06.09.09,0,0,0,0-.12,13.61,13.61,0,0,0-2.16-.7,13.29,13.29,0,0,0-2.26-.21.08.08,0,0,0-.09.08A.08.08,0,0,0,33.89,85.78Z"/><path class="cls-7" d="M36.81,83.84c.13,0,.23.12.36.16.46.14.94.21,1.4.36,1.38.46,2.76,1.14,4.13,1.49,0,0,.06,0,.08,0a.09.09,0,0,0-.05-.08c-1.34-.45-2.62-1.33-4-1.81a4.05,4.05,0,0,0-1.51-.32,1.8,1.8,0,0,0-.4.1.08.08,0,1,0,0,.15Z"/><path class="cls-7" d="M40.1,82l.53.19c.7.22,1.41.45,2.12.73,1.32.54,2.63,1.16,3.85,1.76a.07.07,0,1,0,.06-.12,32.76,32.76,0,0,0-3.76-2,8.38,8.38,0,0,0-2.19-.67,5.78,5.78,0,0,0-.58,0c-.05,0-.09,0-.09.07S40.06,82,40.1,82Z"/><path class="cls-7" d="M43.82,80.45l.64.25c.5.2,1,.4,1.46.63,1.61.76,3.11,1.74,4.77,2.48a.07.07,0,0,0,.08,0,.07.07,0,0,0,0-.08c-1.62-.83-3-2-4.64-2.76a7.51,7.51,0,0,0-1.55-.55,5.36,5.36,0,0,0-.7-.09.07.07,0,0,0-.09.06A.08.08,0,0,0,43.82,80.45Z"/><path class="cls-7" d="M47.77,78.93a1.19,1.19,0,0,0,.25.13c.75.29,1.51.5,2.23.83.56.27,1.11.56,1.66.85,1.29.7,2.58,1.42,3.91,2a.07.07,0,0,0,.09,0,.07.07,0,0,0,0-.08c-1.58-.85-3-2-4.62-2.79a8.71,8.71,0,0,0-3.09-1.09,2.32,2.32,0,0,0-.37,0,.07.07,0,0,0-.09.06A.07.07,0,0,0,47.77,78.93Z"/><path class="cls-7" d="M51.56,77.74a26.16,26.16,0,0,1,3,1.24c1.47.69,2.91,1.43,4.37,2.24a.11.11,0,0,0,.14,0,.1.1,0,0,0,0-.14,36.82,36.82,0,0,0-4.3-2.43,17.49,17.49,0,0,0-3.14-1,.08.08,0,0,0-.1.06A.07.07,0,0,0,51.56,77.74Z"/><path class="cls-7" d="M56,76.82c1,.43,1.86.9,2.78,1.38l1.63.9c.81.45,1.63.88,2.43,1.37a.12.12,0,0,0,.16,0,.11.11,0,0,0,0-.15,33.51,33.51,0,0,0-3.33-2.06,30.63,30.63,0,0,0-3.58-1.54.08.08,0,1,0-.06.14Z"/><path class="cls-7" d="M53.56,77.1c.06,0,.07,0,.13,0s.13-.21.19-.32a30.57,30.57,0,0,1,2.18-3.54,24.87,24.87,0,0,1,2-2.38.05.05,0,0,0,0-.08.06.06,0,0,0-.08,0,21.86,21.86,0,0,0-3,3.55,20.73,20.73,0,0,0-1.46,2.4c0,.07-.11.14-.11.22s0,0,.07.11a.08.08,0,0,0,0,.11S53.53,77.14,53.56,77.1Z"/><path class="cls-7" d="M48.91,78.65a1.29,1.29,0,0,0,.16-.17,6.26,6.26,0,0,0,.4-.77A25.88,25.88,0,0,1,51.82,74,30.41,30.41,0,0,1,55.49,70a.07.07,0,1,0-.09-.11,26.78,26.78,0,0,0-3.92,3.9,20.47,20.47,0,0,0-2.33,3.77,4.44,4.44,0,0,0-.36.8,1.75,1.75,0,0,0,0,.24.07.07,0,0,0,0,.1A.08.08,0,0,0,48.91,78.65Z"/><path class="cls-7" d="M44.62,80c.06-.1.14-.18.19-.28s.19-.47.29-.71a24.14,24.14,0,0,1,2-3.86,20.19,20.19,0,0,1,3.39-4.23.09.09,0,0,0,0-.13.09.09,0,0,0-.12,0A19.42,19.42,0,0,0,46.7,74.9a19.91,19.91,0,0,0-2,3.95,5.25,5.25,0,0,0-.25.73,1.37,1.37,0,0,0,0,.35.09.09,0,0,0,.05.1A.08.08,0,0,0,44.62,80Z"/><path class="cls-7" d="M41,81.56c0-.15.11-.29.16-.44a22,22,0,0,1,1.52-3.85,25.92,25.92,0,0,1,2.51-3.91,0,0,0,0,0,0-.07,0,0,0,0,0-.07,0,21.67,21.67,0,0,0-2.77,3.78,13.26,13.26,0,0,0-1.51,4,3.75,3.75,0,0,0,0,.47.11.11,0,0,0,.08.14A.12.12,0,0,0,41,81.56Z"/><path class="cls-7" d="M38.19,82.64c.05,0,.07,0,.11-.07a2.29,2.29,0,0,0,.13-.7,11.81,11.81,0,0,1,1.1-3,32.76,32.76,0,0,1,2.13-3.42.11.11,0,0,0,0-.14.12.12,0,0,0-.15,0,25.45,25.45,0,0,0-2.67,4.09A8.84,8.84,0,0,0,38,82.28c0,.09-.06.18,0,.27s0,0,.09.07a.08.08,0,1,0,.16,0Z"/><path class="cls-7" d="M35.23,84.5c0-.16.09-.31.12-.46a13.8,13.8,0,0,1,.49-1.81c.29-.73.64-1.45,1-2.15A.13.13,0,0,0,36.6,80a19.36,19.36,0,0,0-1.2,2.62A5,5,0,0,0,35,84.09a1.84,1.84,0,0,0,0,.4.08.08,0,0,0,.07.08A.08.08,0,0,0,35.23,84.5Z"/></g></g></g></svg>