<svg width="700" height="700" viewBox="0 0 700 700" fill="none" xmlns="http://www.w3.org/2000/svg"><path d="M392.616 678.966C364.335 683.361 335.924 682.91 307.57 679.937C277.448 676.761 248.473 669.461 220.062 659.392C201.566 652.83 182.069 648.721 159.18 642.46C213.45 679.109 272.975 690.285 333.494 699.044C313.763 699.044 293.918 701.453 274.978 698.623C199.556 687.365 138.335 651.641 88.8526 598.428C30.6753 535.875 1.48175 462.425 0.060826 379.84C-1.67496 278.673 33.7513 189.759 104.878 113.344C124.004 92.8068 146.101 75.2045 169.983 59.634C184.224 50.355 197.989 39.774 213.595 33.0989C250.103 17.4984 288.477 6.99268 328.561 2.24402C464.421 -13.8456 612.738 56.8872 672.49 204.772C688.596 244.628 697.493 285.77 697.945 328.455C698.05 337.636 699.342 346.802 699.786 355.999C701.304 387.877 694.659 418.559 682.517 448.142C666.725 486.62 648.673 524.12 622.499 557.707C573.566 620.485 510.682 665.518 430.577 688.471C423.029 690.638 414.89 691.03 406.236 689.547C411.152 688.057 416.021 686.409 420.994 685.092C451.907 676.882 480.947 664.773 508.147 648.826C513.395 645.741 519.199 643.295 521 636.537C521.742 633.76 525.206 631.502 527.693 629.252C533.505 623.962 538.915 618.084 545.47 613.719C596.971 579.448 624.986 530.178 646.889 476.912C649.594 470.342 652.452 463.833 655.35 457.338C667.63 429.885 673.007 401.295 670.407 371.674C669.947 366.331 674.532 358.204 664.231 355.6C663.73 355.479 663.633 352.68 663.956 351.243C668.154 332.737 663.181 314.661 660.751 296.532C658.773 281.744 655.455 267.114 652.258 249.881C656.173 254.742 658.458 257.587 661.365 261.199C660.88 239.044 657.191 218.514 648.431 198.82C636.878 172.849 626.923 146.171 608.653 123.285C605.206 118.958 602.227 114.247 598.343 110.304C529.703 40.5567 444.649 7.45923 343.206 12.998C296.865 15.5266 253.139 28.1019 212.013 48.3908C202.656 53.004 194.187 58.1741 189.472 68.5669C193.363 67.3553 196.617 66.3469 199.862 65.3384C168.118 87.441 141.919 113.434 125.353 147.217C142.008 132.933 158.308 118.168 175.537 104.411C192.483 90.8878 211.173 79.6144 232.608 72.6382C229.928 74.3992 227.304 76.2656 224.543 77.9136C187.155 100.189 152.657 125.603 124.23 157.692C121.397 160.883 117.78 163.976 113.824 165.677C104.709 169.583 99.1462 176.657 95.2629 184.325C83.6613 207.211 73.3435 230.66 61.8469 253.598C52.6755 271.93 47.2905 290.933 44.0692 310.966C39.322 340.526 37.0049 370.117 37.4247 399.933C37.5297 407.173 35.261 415.142 43.5525 420.704C45.0057 421.689 45.2398 426.242 44.1257 428.214C38.5308 438.163 43.8512 447.216 46.144 456.458C47.7022 462.741 51.0123 468.747 51.8923 475.068C54.3305 492.618 62.2344 507.993 70.8891 523.443C118.272 608.023 194.292 654.899 293.652 670.733C321.126 675.106 348.987 676.468 376.921 672.72C384.655 671.689 392.834 669.416 404.928 674.458C398.38 676.904 395.603 678.5 392.616 678.966Z" fill="currentColor"></path></svg>