<svg xmlns="http://www.w3.org/2000/svg" viewBox="0 0 201.53 29.77"><defs><style>.cls-1{fill:#302f2d;}.cls-2{fill:#b56854;}</style></defs><g id="Layer_2" data-name="Layer 2"><g id="OBJECTS"><path class="cls-1" d="M93.33,28.28a10,10,0,0,1,5.85-6.43A7.35,7.35,0,0,1,93.33,28.28Z"/><path class="cls-1" d="M105.28,27.93a10,10,0,0,0-5.86-6.43A7.37,7.37,0,0,0,105.28,27.93Z"/><path class="cls-1" d="M108.16,25.76a10,10,0,0,0-7.6-4.23A7.37,7.37,0,0,0,108.16,25.76Z"/><path class="cls-1" d="M99.33,29.77a5.06,5.06,0,0,0-.33-8A8.21,8.21,0,0,0,99.33,29.77Z"/><path class="cls-1" d="M97.45,22.53a13.65,13.65,0,0,0-9.27-2.27A8.33,8.33,0,0,0,97.45,22.53Z"/><path class="cls-1" d="M111.53,24.18A29.57,29.57,0,0,1,102.85,23a.5.5,0,0,1-.34-.62.51.51,0,0,1,.63-.33c9.35,2.85,19.43,0,28.15-2.85l1.88-.62c8.65-2.87,17.59-5.84,26.66-4.7a60.39,60.39,0,0,1,13,3.68,80.24,80.24,0,0,0,9.65,3.08c7.11,1.61,13.43.33,16.91-3.41a.5.5,0,0,1,.71,0,.5.5,0,0,1,0,.71c-5.37,5.78-14.28,4.51-17.87,3.7a80.91,80.91,0,0,1-9.76-3.11,59.93,59.93,0,0,0-12.8-3.63c-8.85-1.11-17.68,1.82-26.22,4.66l-1.89.62C125.37,22.15,118.44,24.18,111.53,24.18Z"/><path class="cls-1" d="M195.35,20.13a3.33,3.33,0,0,0,2-.51c1.73-.87,3.65-2,4.09-3.86a3.7,3.7,0,0,0-1.22-3.54,4.52,4.52,0,0,0-3.69-.94,5.18,5.18,0,0,1,2.12,1.48,1.79,1.79,0,0,1-.11,2.37,3.53,3.53,0,0,1-1.8.48,3.27,3.27,0,0,0-2.65,1.83A2,2,0,0,0,195.35,20.13Z"/><path class="cls-1" d="M192.42,12.54a6.44,6.44,0,0,1-3.37,6A12.55,12.55,0,0,1,182,19.86c-2.42-.13-4.81-.63-7.23-.78a3.58,3.58,0,0,1,3.16-2.33,15.66,15.66,0,0,1,4.14.37,12.43,12.43,0,0,0,6.09-.42A6.87,6.87,0,0,0,192.42,12.54Z"/><path class="cls-1" d="M179.18,10a6.69,6.69,0,0,1-3.7,4.26,13.9,13.9,0,0,1-5.67,1.16c-1.95,0-3.9-.08-5.84,0A3.41,3.41,0,0,1,166,12.66a7.24,7.24,0,0,1,3.55-.49c1.2.07,2.4.27,3.61.23A9.38,9.38,0,0,0,179.18,10Z"/><path class="cls-1" d="M151.63,14.37a3,3,0,0,1,.48-3.52,6,6,0,0,1,3.35-1.69c1.25-.26,2.53-.33,3.77-.62a5.59,5.59,0,0,0,3.25-1.85,4.3,4.3,0,0,1-1.88,4.17,12.59,12.59,0,0,1-4.48,1.77A12.85,12.85,0,0,0,151.63,14.37Z"/><path class="cls-1" d="M146.89,8.5A5.28,5.28,0,0,1,145,13.09a15.22,15.22,0,0,1-4.47,2.55,16,16,0,0,0-4.49,2.51A5.64,5.64,0,0,1,139,12.47a21.72,21.72,0,0,1,4.46-1.19C145,10.88,146.5,10,146.89,8.5Z"/><path class="cls-1" d="M120.65,22.93a4.88,4.88,0,0,1,5.62-4.81,4.31,4.31,0,0,1-2,3.27A13,13,0,0,1,120.65,22.93Z"/><path class="cls-1" d="M110.28,23.5a9.89,9.89,0,0,1,8.51,4.57A11.21,11.21,0,0,1,110.28,23.5Z"/><path class="cls-1" d="M120,22.65c4.07-.75,8.29-1.49,12.31-.51A10.49,10.49,0,0,1,120,22.65Z"/><path class="cls-1" d="M134.18,18.84a15,15,0,0,1,12,2.11A14.56,14.56,0,0,1,134.18,18.84Z"/><path class="cls-1" d="M145.66,15.23c5,.08,9.63,2.79,13.54,5.94a19.76,19.76,0,0,1-12-3.46C146.36,17.12,145.47,16.24,145.66,15.23Z"/><path class="cls-1" d="M162.41,19.58a11.92,11.92,0,0,1-2.82-2.22,4.77,4.77,0,0,1-1.27-3.27,10.42,10.42,0,0,1,5.73,3.11A29,29,0,0,1,168,22.51,47,47,0,0,1,162.41,19.58Z"/><path class="cls-1" d="M178,24.11a20.68,20.68,0,0,1-4.84-2.36,6.89,6.89,0,0,1-2.9-4.39A13,13,0,0,1,178,24.11Z"/><path class="cls-1" d="M183.63,21.19a42.7,42.7,0,0,1,10.52,3.4,7.77,7.77,0,0,1-10.52-3.4Z"/><path class="cls-1" d="M90,24.18c-6.92,0-13.84-2-20.08-4.08l-1.88-.62c-8.55-2.84-17.37-5.77-26.22-4.66A60,60,0,0,0,29,18.45a80.91,80.91,0,0,1-9.76,3.11c-3.59.81-12.5,2.08-17.87-3.7a.5.5,0,0,1,0-.71.48.48,0,0,1,.7,0c3.48,3.74,9.81,5,16.92,3.41a80.66,80.66,0,0,0,9.64-3.08,60.39,60.39,0,0,1,13-3.68c9.07-1.14,18,1.83,26.66,4.7l1.88.62C79,22,89,24.85,98.39,22a.51.51,0,0,1,.63.33.5.5,0,0,1-.34.62A29.55,29.55,0,0,1,90,24.18Z"/><path class="cls-1" d="M6.18,20.13a3.33,3.33,0,0,1-2-.51c-1.73-.87-3.65-2-4.09-3.86A3.72,3.72,0,0,1,1.3,12.22,4.53,4.53,0,0,1,5,11.28a5.25,5.25,0,0,0-2.12,1.48A1.79,1.79,0,0,0,3,15.13a3.53,3.53,0,0,0,1.8.48,3.26,3.26,0,0,1,2.65,1.83A2,2,0,0,1,6.18,20.13Z"/><path class="cls-1" d="M9.11,12.54a6.43,6.43,0,0,0,3.38,6,12.5,12.5,0,0,0,7,1.33c2.43-.13,4.82-.63,7.24-.78a3.59,3.59,0,0,0-3.17-2.33,15.7,15.7,0,0,0-4.14.37,12.43,12.43,0,0,1-6.09-.42A6.87,6.87,0,0,1,9.11,12.54Z"/><path class="cls-1" d="M22.35,10a6.69,6.69,0,0,0,3.7,4.26,13.91,13.91,0,0,0,5.68,1.16c1.94,0,3.89-.08,5.83,0a3.39,3.39,0,0,0-2.06-2.76A7.24,7.24,0,0,0,32,12.17c-1.2.07-2.4.27-3.61.23A9.38,9.38,0,0,1,22.35,10Z"/><path class="cls-1" d="M49.9,14.37a3,3,0,0,0-.48-3.52,6,6,0,0,0-3.35-1.69c-1.24-.26-2.53-.33-3.77-.62a5.65,5.65,0,0,1-3.25-1.85,4.3,4.3,0,0,0,1.88,4.17,12.59,12.59,0,0,0,4.48,1.77A12.85,12.85,0,0,1,49.9,14.37Z"/><path class="cls-1" d="M54.64,8.5a5.28,5.28,0,0,0,1.87,4.59A15.35,15.35,0,0,0,61,15.64a15.81,15.81,0,0,1,4.49,2.51,5.62,5.62,0,0,0-2.93-5.68,21.72,21.72,0,0,0-4.46-1.19C56.59,10.88,55,10,54.64,8.5Z"/><path class="cls-1" d="M80.88,22.93a4.86,4.86,0,0,0-5.62-4.81,4.36,4.36,0,0,0,2,3.27A13,13,0,0,0,80.88,22.93Z"/><path class="cls-1" d="M91.26,23.5a9.89,9.89,0,0,0-8.52,4.57A11.23,11.23,0,0,0,91.26,23.5Z"/><path class="cls-1" d="M81.57,22.65c-4.07-.75-8.29-1.49-12.31-.51A10.49,10.49,0,0,0,81.57,22.65Z"/><path class="cls-1" d="M67.35,18.84a15,15,0,0,0-12,2.11A14.56,14.56,0,0,0,67.35,18.84Z"/><path class="cls-1" d="M55.87,15.23c-5,.08-9.62,2.79-13.54,5.94a19.76,19.76,0,0,0,12-3.46C55.17,17.12,56.06,16.24,55.87,15.23Z"/><path class="cls-1" d="M39.12,19.58a11.92,11.92,0,0,0,2.82-2.22,4.77,4.77,0,0,0,1.27-3.27,10.42,10.42,0,0,0-5.73,3.11,29,29,0,0,0-3.94,5.31A47,47,0,0,0,39.12,19.58Z"/><path class="cls-1" d="M23.59,24.11a20.61,20.61,0,0,0,4.83-2.36,6.89,6.89,0,0,0,2.9-4.39A13,13,0,0,0,23.59,24.11Z"/><path class="cls-1" d="M17.9,21.19a42.84,42.84,0,0,0-10.52,3.4,7.77,7.77,0,0,0,10.52-3.4Z"/><path class="cls-2" d="M76.21,14.29a13,13,0,0,1-7.09-2.06.49.49,0,0,1-.23-.46A1.7,1.7,0,0,1,70,10.38a1.48,1.48,0,0,1,.73-1.6,1.5,1.5,0,0,1,1.11-2A1.35,1.35,0,0,1,72.05,6a1.28,1.28,0,0,1,.52-.46,1.16,1.16,0,0,1,.44-1,1.81,1.81,0,0,1,1.69-.11,11.23,11.23,0,0,1,4.9,3.15s3.22,4.25,3.08,5a.61.61,0,0,1-.3.38A15.1,15.1,0,0,1,76.21,14.29ZM70,11.6a13,13,0,0,0,11.55.6,46.07,46.07,0,0,0-2.68-3.94,10.23,10.23,0,0,0-4.45-2.87c-.42-.13-.68-.14-.82,0a.25.25,0,0,0,0,.1.51.51,0,0,1,.36.56.52.52,0,0,1-.52.42.86.86,0,0,1-.17,0,.42.42,0,0,0-.35.17.38.38,0,0,0,0,.43.5.5,0,0,1,0,.61.52.52,0,0,1-.58.18.57.57,0,0,0-.64.23.57.57,0,0,0,.12.68.5.5,0,0,1,.14.56.48.48,0,0,1-.48.32h0a.55.55,0,0,0-.5.34.54.54,0,0,0,.18.57.49.49,0,0,1,.12.66.5.5,0,0,1-.65.19A.54.54,0,0,0,70,11.6Z"/><path class="cls-2" d="M82.17,13h0a.5.5,0,0,1-.45-.55A26.58,26.58,0,0,0,81.81,6a9.06,9.06,0,0,0-.91-3.13,4.27,4.27,0,0,0-1.29-1.43,6.17,6.17,0,0,1,.19,1.92.5.5,0,0,1-.94.21,4.58,4.58,0,0,0-1.12-1.39.53.53,0,0,1-.19.23.5.5,0,0,1-.5,0l-.24-.12-.14.45a.55.55,0,0,1-.28.3.49.49,0,0,1-.41,0L75.88,3a1,1,0,0,1-.19.67.7.7,0,0,1-.54.27.76.76,0,0,1-.25,0s0,0,0,.08a1.28,1.28,0,0,0,.29.55.51.51,0,0,1-.12.7.5.5,0,0,1-.7-.12A2.1,2.1,0,0,1,73.89,4a1.19,1.19,0,0,1,.4-.88.89.89,0,0,1,.57-.22c-.14-.77.27-1,.46-1.09a.48.48,0,0,1,.39,0l.18.08L76,1.46a.48.48,0,0,1,.28-.31.53.53,0,0,1,.41,0l.18.09A.66.66,0,0,1,77,1.06a.56.56,0,0,1,.31-.23.52.52,0,0,1,.38.06,5.32,5.32,0,0,1,.93.71,4.8,4.8,0,0,0-.35-.87.5.5,0,0,1,0-.54A.52.52,0,0,1,78.83,0a4.66,4.66,0,0,1,2.94,2.35,10.06,10.06,0,0,1,1,3.48,28,28,0,0,1-.13,6.68A.51.51,0,0,1,82.17,13Z"/><path class="cls-2" d="M71.74,16.56a13.86,13.86,0,0,1-2.15-.16.69.69,0,0,1-.5-.11.83.83,0,0,1-.35-.82A1.35,1.35,0,0,1,69,15l0-.06a.62.62,0,0,1-.1-.16.51.51,0,0,1,0-.45l.42-.65-.23-.23a.49.49,0,0,1,0-.68l.6-.68a.51.51,0,0,1,.71-.05.51.51,0,0,1,0,.71l-.29.33.18.18a.52.52,0,0,1,.07.62l-.44.68a1,1,0,0,1,0,.74l-.09.16c3.8.57,8.17-.64,12-3.36a.51.51,0,0,1,.7.13.5.5,0,0,1-.12.69A19,19,0,0,1,71.74,16.56Z"/><path class="cls-2" d="M81.53,12.89a16.18,16.18,0,0,1-6.91-1.55.51.51,0,0,1-.23-.67.5.5,0,0,1,.66-.24,14.84,14.84,0,0,0,4.36,1.31,14.63,14.63,0,0,1-3.36-2.48.5.5,0,0,1,0-.71.5.5,0,0,1,.7,0,15,15,0,0,0,5.48,3.36.5.5,0,0,1-.15,1Z"/><path class="cls-2" d="M82.15,12.66a.5.5,0,0,1-.49-.43,13.43,13.43,0,0,0-2.39-5.88.5.5,0,1,1,.81-.59,14.31,14.31,0,0,1,2.57,6.33.51.51,0,0,1-.42.57Z"/><path class="cls-2" d="M99.21,23h-.1c-2.86-.56-7-2.05-9.32-4.37-.55-.55-1.06-1.15-1.55-1.72a21.43,21.43,0,0,0-1.95-2.09A6,6,0,0,0,82,13a.53.53,0,0,1-.54-.46.5.5,0,0,1,.46-.54,6.88,6.88,0,0,1,5,2.07,22,22,0,0,1,2,2.18c.48.56,1,1.14,1.5,1.66,2.15,2.17,6.09,3.56,8.8,4.1a.51.51,0,0,1,.4.59A.5.5,0,0,1,99.21,23Z"/><path class="cls-2" d="M84.87,19.18a8.58,8.58,0,0,1-3.27-.63.5.5,0,0,1-.31-.48.49.49,0,0,1,.34-.46l.61-.2a19.16,19.16,0,0,1,3.14-.88,6.46,6.46,0,0,1,4.05.51.51.51,0,0,1,.27.43.49.49,0,0,1-.24.44A8.81,8.81,0,0,1,84.87,19.18Zm-1.41-1.13a8.12,8.12,0,0,0,4.5-.49,6.29,6.29,0,0,0-2.42,0A14.43,14.43,0,0,0,83.46,18.05Z"/><path class="cls-2" d="M122.53,14.29a15.09,15.09,0,0,1-6.16-1.36.55.55,0,0,1-.3-.38c-.15-.72,3-4.94,3.08-5a11.18,11.18,0,0,1,4.9-3.15,1.82,1.82,0,0,1,1.68.11,1.11,1.11,0,0,1,.44,1,1.28,1.28,0,0,1,.52.46,1.44,1.44,0,0,1,.22.78,1.55,1.55,0,0,1,1,.72A1.53,1.53,0,0,1,128,8.79a1.47,1.47,0,0,1,.67.8,1.33,1.33,0,0,1,.05.79,1.67,1.67,0,0,1,1.11,1.39.48.48,0,0,1-.23.46A13,13,0,0,1,122.53,14.29ZM117.2,12.2a13,13,0,0,0,11.56-.6.56.56,0,0,0-.66-.26.5.5,0,0,1-.52-.85.54.54,0,0,0,.17-.57.54.54,0,0,0-.48-.34.51.51,0,0,1-.48-.33.47.47,0,0,1,.13-.55.53.53,0,0,0-.53-.91.52.52,0,0,1-.58-.18.51.51,0,0,1,0-.61.39.39,0,0,0,0-.43.38.38,0,0,0-.32-.17l-.19,0a.5.5,0,0,1-.52-.42.49.49,0,0,1,.36-.56h0s0-.07-.06-.09-.39-.09-.81,0a10.2,10.2,0,0,0-4.46,2.87A46.07,46.07,0,0,0,117.2,12.2Z"/><path class="cls-2" d="M116.57,13a.49.49,0,0,1-.49-.45,27.48,27.48,0,0,1-.14-6.68,9.88,9.88,0,0,1,1-3.48A4.63,4.63,0,0,1,119.92,0a.5.5,0,0,1,.55.72,5.65,5.65,0,0,0-.35.87,5.4,5.4,0,0,1,.94-.71.5.5,0,0,1,.38-.06.56.56,0,0,1,.31.23l.09.19.17-.09a.56.56,0,0,1,.42,0,.54.54,0,0,1,.28.31l.15.45.18-.08a.48.48,0,0,1,.39,0c.19.07.6.32.46,1.1a.89.89,0,0,1,.57.21,1.15,1.15,0,0,1,.39.88,2,2,0,0,1-.47,1.11.49.49,0,0,1-.69.12.5.5,0,0,1-.12-.7,1.25,1.25,0,0,0,.28-.55.18.18,0,0,0,0-.1s-.09.06-.22.06a.71.71,0,0,1-.54-.27,1,1,0,0,1-.18-.67l-.11.05a.49.49,0,0,1-.41,0,.5.5,0,0,1-.27-.3l-.15-.45-.24.12a.52.52,0,0,1-.69-.27,4.55,4.55,0,0,0-1.11,1.39.5.5,0,0,1-.94-.21,6.18,6.18,0,0,1,.18-1.92,4.25,4.25,0,0,0-1.28,1.43A9.31,9.31,0,0,0,116.93,6a27.09,27.09,0,0,0,.14,6.44.5.5,0,0,1-.44.55Z"/><path class="cls-2" d="M127,16.56a18.9,18.9,0,0,1-10.72-3.68.49.49,0,0,1-.12-.69.5.5,0,0,1,.69-.13,17,17,0,0,0,12,3.36l-.09-.16a1,1,0,0,1,0-.74l-.43-.68a.49.49,0,0,1,.07-.62l.18-.18-.29-.33a.5.5,0,0,1,0-.71.51.51,0,0,1,.71.05l.6.68a.49.49,0,0,1,0,.68l-.23.23.41.65a.48.48,0,0,1,0,.45.44.44,0,0,1-.1.16.21.21,0,0,0,0,.06,1.35,1.35,0,0,1,.23.51.85.85,0,0,1-.35.82.73.73,0,0,1-.51.11A13.83,13.83,0,0,1,127,16.56Z"/><path class="cls-2" d="M117.22,12.89h-.55a.49.49,0,0,1-.48-.42.5.5,0,0,1,.32-.55A14.94,14.94,0,0,0,122,8.55a.5.5,0,0,1,.71.71,14.85,14.85,0,0,1-3.36,2.48,14.78,14.78,0,0,0,4.35-1.31.51.51,0,0,1,.67.24.5.5,0,0,1-.24.67A16.14,16.14,0,0,1,117.22,12.89Z"/><path class="cls-2" d="M116.59,12.66h-.07a.51.51,0,0,1-.42-.57,14.31,14.31,0,0,1,2.57-6.33.5.5,0,0,1,.7-.11.51.51,0,0,1,.11.7,13.2,13.2,0,0,0-2.39,5.88A.51.51,0,0,1,116.59,12.66Z"/><path class="cls-2" d="M99.54,23a.5.5,0,0,1-.49-.4.51.51,0,0,1,.39-.59c2.72-.54,6.65-1.93,8.81-4.1.52-.52,1-1.1,1.49-1.66a24.61,24.61,0,0,1,2-2.18,6.9,6.9,0,0,1,5-2.07.49.49,0,0,1,.45.54.51.51,0,0,1-.53.46,6,6,0,0,0-4.29,1.81,22.84,22.84,0,0,0-2,2.09c-.49.57-1,1.17-1.54,1.72-2.32,2.32-6.47,3.81-9.32,4.37Z"/><path class="cls-2" d="M113.88,19.18h0a8.81,8.81,0,0,1-4.59-1.27.5.5,0,0,1-.25-.44.51.51,0,0,1,.27-.43,6.47,6.47,0,0,1,4-.51,19.28,19.28,0,0,1,3.15.88l.61.2a.52.52,0,0,1,.34.46.51.51,0,0,1-.32.48A8.53,8.53,0,0,1,113.88,19.18Zm-3.1-1.62a8.09,8.09,0,0,0,3.1.62h0a8,8,0,0,0,1.4-.13,13.79,13.79,0,0,0-2.08-.53A6.29,6.29,0,0,0,110.78,17.56Z"/><path class="cls-2" d="M99.22,23a.6.6,0,0,1-.31-.1A17.61,17.61,0,0,1,91.33,7.84a.5.5,0,0,1,.29-.43,2,2,0,0,1,2.19.42,1.73,1.73,0,0,1,2.26-.22,1.8,1.8,0,0,1,2.86,0,1.65,1.65,0,0,1,.94-.31,1.8,1.8,0,0,1,.94.33,1.33,1.33,0,0,1,1.35-.21,2.35,2.35,0,0,1,1.11,1.71,14.21,14.21,0,0,1-.39,7.37C102.86,16.55,100.16,23,99.22,23ZM92.31,8.25a16.6,16.6,0,0,0,6.84,13.58,58.41,58.41,0,0,0,2.78-5.65,13.18,13.18,0,0,0,.36-6.85c-.13-.58-.31-.91-.55-1a.42.42,0,0,0-.34.11.24.24,0,0,1,0,.08.49.49,0,0,1-.31.59.5.5,0,0,1-.62-.24.8.8,0,0,1-.07-.2.65.65,0,0,0-.52-.36h0a.63.63,0,0,0-.6.39.54.54,0,0,1-.52.32.5.5,0,0,1-.44-.42.83.83,0,0,0-1.63,0,.5.5,0,0,1-.42.4.51.51,0,0,1-.52-.26.81.81,0,0,0-.83-.41.83.83,0,0,0-.64.68.51.51,0,0,1-.51.44.52.52,0,0,1-.49-.48C93.27,8.51,92.72,8.21,92.31,8.25Z"/><path class="cls-2" d="M99.21,23A.5.5,0,0,1,99,22a34.78,34.78,0,0,0,7.29-4,11.63,11.63,0,0,0,2.92-3,5.22,5.22,0,0,0,.81-2.76,7.66,7.66,0,0,1-2.22,1.65.5.5,0,0,1-.61-.1.5.5,0,0,1,0-.61A6.1,6.1,0,0,0,108,10.8a.49.49,0,0,1-.77-.38l0-.51-.75.16a.48.48,0,0,1-.4-.09.46.46,0,0,1-.2-.36l0-.39a1.29,1.29,0,0,1-1,.34.78.78,0,0,1-.55-.36,1,1,0,0,1-.11-.29.25.25,0,0,0-.29,0,1.65,1.65,0,0,0-.49.72.52.52,0,0,1-.67.25.49.49,0,0,1-.24-.66A2.42,2.42,0,0,1,103.44,8a1.29,1.29,0,0,1,1.1-.11,1,1,0,0,1,.62.58l0,0c.71-.64,1.19-.44,1.42-.26a.54.54,0,0,1,.18.35l0,.42.75-.16a.51.51,0,0,1,.41.09.52.52,0,0,1,.19.36l0,.4.39,0a.51.51,0,0,1,.35.15.54.54,0,0,1,.14.36,7.43,7.43,0,0,1-.32,1.94,6.28,6.28,0,0,0,1.13-1.31.5.5,0,0,1,.9.13,5.8,5.8,0,0,1-.74,4.65,12.41,12.41,0,0,1-3.17,3.31A35.44,35.44,0,0,1,99.41,23,.51.51,0,0,1,99.21,23Z"/><path class="cls-2" d="M99.21,23A.54.54,0,0,1,99,23c-5.78-2.72-10.15-7.09-12-12a.74.74,0,0,1-.18-.54.93.93,0,0,1,.59-.79,1.58,1.58,0,0,1,.66-.06h.21a.57.57,0,0,1,.11-.27.49.49,0,0,1,.42-.18l1.09.05L90,8.62a.5.5,0,0,1,.58-.36l1.14.24a.51.51,0,0,1,.39.6.49.49,0,0,1-.59.38l-.68-.14-.12.44a.48.48,0,0,1-.51.37l-1.1-.05h0a1.06,1.06,0,0,1-.78.43H87.9c1.75,4.71,5.95,8.91,11.52,11.52a.5.5,0,0,1-.21.95Z"/><path class="cls-2" d="M99.24,22.82a.52.52,0,0,1-.43-.24,20.5,20.5,0,0,1-3-9.21.5.5,0,1,1,1-.07,19.32,19.32,0,0,0,1.61,6.42,19.37,19.37,0,0,1,.6-6,.5.5,0,1,1,1,.26,19.48,19.48,0,0,0-.26,8.29.5.5,0,0,1-.31.55A.58.58,0,0,1,99.24,22.82Z"/><path class="cls-2" d="M99.54,22.78a.49.49,0,0,1-.39-.19.51.51,0,0,1,.08-.71,17.19,17.19,0,0,0,5.07-6.45.52.52,0,0,1,.67-.25.5.5,0,0,1,.24.67,18.22,18.22,0,0,1-5.36,6.82A.51.51,0,0,1,99.54,22.78Z"/></g></g></svg>