<svg xmlns="http://www.w3.org/2000/svg" viewBox="0 0 201.84 41.35"><defs><style>.cls-1{fill:#302f2d;}.cls-2{fill:#b56854;}</style></defs><g id="Layer_2" data-name="Layer 2"><g id="OBJECTS"><path class="cls-1" d="M197.62,30.15a.64.64,0,0,1-.23,0c-13-6.59-28.27-7.22-42.86-6.9-14.33.3-24.91.05-41-6a.5.5,0,0,1-.29-.64.51.51,0,0,1,.65-.3c15.89,6,26.39,6.21,40.59,5.91,14.74-.31,30.18.32,43.35,7a.5.5,0,0,1,.22.67A.51.51,0,0,1,197.62,30.15Z"/><path class="cls-1" d="M181.55,37.88a.51.51,0,0,1-.46-.31c-1.63-3.81-5.34-7-10.18-8.82-4.4-1.64-9.21-2.06-13.85-2.47l-1.34-.11c-14.29-1.25-29.06-2.54-42.21-9a.5.5,0,0,1,.44-.9c13,6.34,27.66,7.62,41.86,8.86l1.33.12c4.72.41,9.59.83,14.12,2.52,5.1,1.9,9,5.31,10.75,9.37a.52.52,0,0,1-.46.7Z"/><path class="cls-1" d="M143.73,21.58a104,104,0,0,1-30.15-4.34.5.5,0,0,1,.3-1c18.73,5.73,40.94,5.74,59.4,0a.5.5,0,0,1,.62.33.51.51,0,0,1-.33.63A101.91,101.91,0,0,1,143.73,21.58Z"/><path class="cls-1" d="M175.34,18.46h0l-.39,0a2.56,2.56,0,0,1-1.5-.77,2.08,2.08,0,0,1-.4-2.21,2.17,2.17,0,0,1,1.51-1.21,2.71,2.71,0,0,1,1.83.3,2.26,2.26,0,0,1,1.24,2.2A2.22,2.22,0,0,1,175.34,18.46Zm-.27-3.27a1.45,1.45,0,0,0-.3,0,1.17,1.17,0,0,0-.81.63,1.1,1.1,0,0,0,.22,1.13,1.6,1.6,0,0,0,.93.47c.63.09,1.44-.24,1.53-.86a1.27,1.27,0,0,0-.74-1.17A1.68,1.68,0,0,0,175.07,15.19Z"/><path class="cls-1" d="M199.53,32.88h0a2.43,2.43,0,0,1-.38,0,2.59,2.59,0,0,1-1.51-.77,2.12,2.12,0,0,1-.4-2.22,2.18,2.18,0,0,1,1.52-1.2,2.62,2.62,0,0,1,1.82.3,2.27,2.27,0,0,1,1.25,2.19A2.25,2.25,0,0,1,199.53,32.88Zm-.27-3.27a1.36,1.36,0,0,0-.29,0,1.16,1.16,0,0,0-.81.62,1.1,1.1,0,0,0,.22,1.14,1.59,1.59,0,0,0,.92.46l.23,0h0c.58,0,1.23-.32,1.3-.87a1.28,1.28,0,0,0-.73-1.18A1.85,1.85,0,0,0,199.26,29.61Z"/><path class="cls-1" d="M182.4,41.35h0a2.43,2.43,0,0,1-.38,0,2.6,2.6,0,0,1-1.51-.78,2.1,2.1,0,0,1-.4-2.21,2.13,2.13,0,0,1,1.52-1.2,2.67,2.67,0,0,1,1.82.29,2.28,2.28,0,0,1,1.25,2.2A2.24,2.24,0,0,1,182.4,41.35Zm-.27-3.28a1.36,1.36,0,0,0-.29,0,1.17,1.17,0,0,0-.81.63,1.13,1.13,0,0,0,.22,1.14,1.65,1.65,0,0,0,.93.46c.63.09,1.44-.24,1.53-.85A1.31,1.31,0,0,0,183,38.3,1.74,1.74,0,0,0,182.13,38.07Z"/><path class="cls-1" d="M161.55,19.76A14.88,14.88,0,0,0,170,12.9a10.52,10.52,0,0,0-5,2.49A17.52,17.52,0,0,0,161.55,19.76Z"/><path class="cls-1" d="M168.9,18.23a17.66,17.66,0,0,1,6.37,2A8.39,8.39,0,0,1,168.9,18.23Z"/><path class="cls-1" d="M190.9,34.38a17.19,17.19,0,0,1-12.72-2.09A16.81,16.81,0,0,1,190.9,34.38Z"/><path class="cls-1" d="M165.71,27a14.13,14.13,0,0,1,9.64,10.21A24.16,24.16,0,0,1,165.71,27Z"/><path class="cls-1" d="M182.11,27.27a15.67,15.67,0,0,1-9.32,1.63A14.15,14.15,0,0,1,182.11,27.27Z"/><path class="cls-1" d="M194.5,33.06a49.07,49.07,0,0,1-5.12-3A8,8,0,0,1,186,25.37,14.51,14.51,0,0,1,194.5,33.06Z"/><path class="cls-1" d="M178.4,23.47a16,16,0,0,1,12.32-5A21.62,21.62,0,0,1,178.4,23.47Z"/><path class="cls-1" d="M191.17,26.84c0-.19.15-.33.33-.41a13.82,13.82,0,0,1,6.09-1.17,13.17,13.17,0,0,1-6,1.78C191.42,27,191.22,27,191.17,26.84Z"/><path class="cls-1" d="M148.47,25a25.9,25.9,0,0,1,13.9,10.85C156.71,34.05,152.46,29.46,148.47,25Z"/><path class="cls-1" d="M140.7,20.81a26.76,26.76,0,0,1,15.53-6.76,17.78,17.78,0,0,1-7.17,4.65A53.3,53.3,0,0,1,140.7,20.81Z"/><path class="cls-1" d="M132.29,22.93A14.39,14.39,0,0,1,144.18,32,22.18,22.18,0,0,1,132.29,22.93Z"/><path class="cls-1" d="M159.05,26.24A11.47,11.47,0,0,1,164,32,9,9,0,0,1,159.05,26.24Z"/><path class="cls-1" d="M161.47,15.11A14.72,14.72,0,0,1,154,20.45,7.94,7.94,0,0,1,157.16,17,23.83,23.83,0,0,1,161.47,15.11Z"/><path class="cls-1" d="M143.79,15.56a18.2,18.2,0,0,1-12.3,4.67,11.26,11.26,0,0,1,5.6-3.66A28,28,0,0,1,143.79,15.56Z"/><path class="cls-1" d="M4.22,30.15a.5.5,0,0,1-.44-.27A.49.49,0,0,1,4,29.21c13.16-6.69,28.61-7.32,43.34-7,14.2.3,24.7.05,40.6-5.91a.5.5,0,0,1,.64.3.49.49,0,0,1-.29.64c-16.06,6-26.65,6.27-41,6-14.6-.31-29.9.31-42.87,6.9A.59.59,0,0,1,4.22,30.15Z"/><path class="cls-1" d="M20.29,37.88a.45.45,0,0,1-.19-.05.49.49,0,0,1-.27-.65c1.74-4.06,5.66-7.47,10.75-9.37C35.11,26.12,40,25.7,44.7,25.29L46,25.17c14.19-1.24,28.87-2.52,41.85-8.86a.5.5,0,0,1,.44.9c-13.15,6.42-27.92,7.71-42.21,9l-1.33.11c-4.65.41-9.46.83-13.86,2.47-4.84,1.8-8.55,5-10.18,8.82A.5.5,0,0,1,20.29,37.88Z"/><path class="cls-1" d="M58.12,21.58a101.93,101.93,0,0,1-29.85-4.31.51.51,0,0,1-.33-.63.51.51,0,0,1,.63-.33C47,22,69.23,22,88,16.28a.5.5,0,0,1,.29,1A103.92,103.92,0,0,1,58.12,21.58Z"/><path class="cls-1" d="M26.51,18.46a2.24,2.24,0,0,1-2.3-1.72,2.27,2.27,0,0,1,1.25-2.2,2.67,2.67,0,0,1,1.82-.3,2.16,2.16,0,0,1,1.52,1.21,2.1,2.1,0,0,1-.4,2.21,2.59,2.59,0,0,1-1.51.77A2.43,2.43,0,0,1,26.51,18.46Zm.27-3.27a1.74,1.74,0,0,0-.84.23,1.27,1.27,0,0,0-.73,1.17c.08.62.89,1,1.52.86a1.6,1.6,0,0,0,.93-.47,1.1,1.1,0,0,0,.22-1.13,1.15,1.15,0,0,0-.81-.63A1.36,1.36,0,0,0,26.78,15.19Z"/><path class="cls-1" d="M2.31,32.88A2.23,2.23,0,0,1,0,31.15,2.24,2.24,0,0,1,1.26,29a2.65,2.65,0,0,1,1.83-.3,2.18,2.18,0,0,1,1.51,1.2,2.12,2.12,0,0,1-.4,2.22,2.59,2.59,0,0,1-1.51.77A2.34,2.34,0,0,1,2.31,32.88Zm.27-3.27a1.73,1.73,0,0,0-.84.22A1.3,1.3,0,0,0,1,31c.09.62.88.95,1.53.85a1.53,1.53,0,0,0,.92-.46,1.08,1.08,0,0,0,.22-1.14,1.14,1.14,0,0,0-.8-.62A1.53,1.53,0,0,0,2.58,29.61Z"/><path class="cls-1" d="M19.44,41.35a2.23,2.23,0,0,1-2.29-1.73,2.26,2.26,0,0,1,1.24-2.2,2.7,2.7,0,0,1,1.83-.29,2.13,2.13,0,0,1,1.51,1.2,2.1,2.1,0,0,1-.4,2.21,2.6,2.6,0,0,1-1.51.78A2.34,2.34,0,0,1,19.44,41.35Zm.27-3.28a1.74,1.74,0,0,0-.84.23,1.3,1.3,0,0,0-.73,1.18c.09.61.89,1,1.53.85a1.65,1.65,0,0,0,.92-.46,1.13,1.13,0,0,0,.22-1.14A1.17,1.17,0,0,0,20,38.1,1.36,1.36,0,0,0,19.71,38.07Z"/><path class="cls-1" d="M40.29,19.76A14.91,14.91,0,0,1,31.8,12.9a10.47,10.47,0,0,1,5,2.49A17.52,17.52,0,0,1,40.29,19.76Z"/><path class="cls-1" d="M32.94,18.23a17.72,17.72,0,0,0-6.37,2A8.38,8.38,0,0,0,32.94,18.23Z"/><path class="cls-1" d="M11,34.38a17.17,17.17,0,0,0,12.71-2.09A16.78,16.78,0,0,0,11,34.38Z"/><path class="cls-1" d="M36.13,27A14.1,14.1,0,0,0,26.5,37.2,24.2,24.2,0,0,0,36.13,27Z"/><path class="cls-1" d="M19.73,27.27a15.68,15.68,0,0,0,9.32,1.63A14.14,14.14,0,0,0,19.73,27.27Z"/><path class="cls-1" d="M7.35,33.06a48.92,48.92,0,0,0,5.11-3,8,8,0,0,0,3.34-4.72A14.49,14.49,0,0,0,7.35,33.06Z"/><path class="cls-1" d="M23.44,23.47a16,16,0,0,0-12.31-5A21.59,21.59,0,0,0,23.44,23.47Z"/><path class="cls-1" d="M10.67,26.84c.05-.19-.15-.33-.32-.41a13.88,13.88,0,0,0-6.09-1.17,13.09,13.09,0,0,0,6,1.78C10.42,27,10.63,27,10.67,26.84Z"/><path class="cls-1" d="M53.37,25a25.94,25.94,0,0,0-13.9,10.85C45.13,34.05,49.39,29.46,53.37,25Z"/><path class="cls-1" d="M61.14,20.81a26.76,26.76,0,0,0-15.52-6.76,17.65,17.65,0,0,0,7.17,4.65A52.9,52.9,0,0,0,61.14,20.81Z"/><path class="cls-1" d="M69.55,22.93A14.41,14.41,0,0,0,57.66,32,22.14,22.14,0,0,0,69.55,22.93Z"/><path class="cls-1" d="M42.8,26.24A11.44,11.44,0,0,0,37.88,32,9.06,9.06,0,0,0,42.8,26.24Z"/><path class="cls-1" d="M40.37,15.11a14.7,14.7,0,0,0,7.48,5.34A8,8,0,0,0,44.68,17,23.83,23.83,0,0,0,40.37,15.11Z"/><path class="cls-1" d="M58.05,15.56a18.2,18.2,0,0,0,12.3,4.67,11.21,11.21,0,0,0-5.6-3.66A28,28,0,0,0,58.05,15.56Z"/><path class="cls-2" d="M103,20.78a3.84,3.84,0,0,1-1.26-.22,4.18,4.18,0,0,1-2.18-5.62,4.19,4.19,0,0,1,3.66-2.16,3.71,3.71,0,0,1,1.28.22,4.14,4.14,0,0,1,2.57,4.64A4.24,4.24,0,0,1,103,20.78Zm.22-7a3.15,3.15,0,0,0-2.77,1.62,3.19,3.19,0,0,0,1.64,4.22,2.76,2.76,0,0,0,.91.16,3.2,3.2,0,0,0,3.09-2.36,3.15,3.15,0,0,0-1.93-3.48A2.69,2.69,0,0,0,103.22,13.78Z"/><path class="cls-1" d="M76,31.31a.51.51,0,0,1-.31-.11.5.5,0,0,1-.17-.55A22.77,22.77,0,0,1,88.82,17a.51.51,0,0,1,.63.69C87,22.72,82.64,27.17,76.26,31.23A.56.56,0,0,1,76,31.31ZM87.91,18.43A21.79,21.79,0,0,0,77,29.53C82,26.14,85.62,22.49,87.91,18.43Z"/><path class="cls-1" d="M87.83,16.37A15.71,15.71,0,0,1,74.92,9.5a.5.5,0,0,1,0-.55.52.52,0,0,1,.5-.23,22.88,22.88,0,0,1,13.07,6.81.51.51,0,0,1,.1.53.5.5,0,0,1-.46.31ZM76.48,9.93a15.08,15.08,0,0,0,10.39,5.41A21.84,21.84,0,0,0,76.48,9.93Z"/><path class="cls-1" d="M95.75,10.28a.49.49,0,0,1-.21,0A12.29,12.29,0,0,1,88.76.55a.5.5,0,0,1,.18-.44A.51.51,0,0,1,89.4,0a9.81,9.81,0,0,1,5.12,3.71,9.76,9.76,0,0,1,1.73,6.08.49.49,0,0,1-.5.47Zm-5.88-9A11.34,11.34,0,0,0,95.26,9a8.68,8.68,0,0,0-5.39-7.71Z"/><path class="cls-1" d="M125,27.05a.59.59,0,0,1-.22-.05c-4.18-2.08-9.38-4.68-12.35-9.15a.48.48,0,0,1,0-.56.49.49,0,0,1,.52-.2,19,19,0,0,1,12.49,9.22.5.5,0,0,1-.08.59A.48.48,0,0,1,125,27.05ZM114,18.4c2.5,3.1,6.11,5.15,9.56,6.9A18.17,18.17,0,0,0,114,18.4Z"/><path class="cls-1" d="M114.38,16.91a.52.52,0,0,1-.41-.21.51.51,0,0,1,0-.53,16.26,16.26,0,0,1,9.36-7.68.49.49,0,0,1,.51.13.5.5,0,0,1,.11.51,12.09,12.09,0,0,1-9.48,7.78Zm8.19-7.1a15.31,15.31,0,0,0-7.18,5.9A11.17,11.17,0,0,0,122.57,9.81Z"/><path class="cls-1" d="M109.74,11.17a.45.45,0,0,1-.27-.08.51.51,0,0,1-.22-.5A14.15,14.15,0,0,1,115.7.87a.5.5,0,0,1,.75.52,15.13,15.13,0,0,1-6.43,9.7A.57.57,0,0,1,109.74,11.17Zm5.43-8.72A13.21,13.21,0,0,0,110.5,9.5,14.21,14.21,0,0,0,115.17,2.45Z"/><path class="cls-1" d="M111.13,10.83a.51.51,0,0,1-.43-.24.5.5,0,0,1,0-.58,14.25,14.25,0,0,1,8.14-4.87.51.51,0,0,1,.53.23.5.5,0,0,1,0,.58,15.24,15.24,0,0,1-8.12,4.86Zm6.18-4.23a13.34,13.34,0,0,0-4.53,2.72A14.44,14.44,0,0,0,117.31,6.6Z"/><path class="cls-1" d="M85.66,28.68l-.13,0a.5.5,0,0,1-.37-.46A13.34,13.34,0,0,1,89.51,18a.48.48,0,0,1,.55-.08.49.49,0,0,1,.28.48c-.21,3.83-2.46,7.3-4.26,10.09A.48.48,0,0,1,85.66,28.68Zm3.5-8.95a12.42,12.42,0,0,0-2.92,6.61A19.89,19.89,0,0,0,89.16,19.73Z"/><path class="cls-2" d="M99.15,29.54l-.42,0a4.37,4.37,0,0,1-3-1.62A3.66,3.66,0,0,1,95,26.16a3.92,3.92,0,0,1-1.78.41,4,4,0,0,1-3.33-1.7,5.54,5.54,0,0,1-.55-4.34,3.35,3.35,0,0,1,.85-1.45,5.5,5.5,0,0,1-2.27-2.77,5.29,5.29,0,0,1,.2-4.43A5.48,5.48,0,0,1,93,9.2a5.27,5.27,0,0,1,2.45.58c.18-1.3.46-2.82,1.72-3.35a4.63,4.63,0,0,1,3.9.2,5.12,5.12,0,0,1,3.84-1.7,4.78,4.78,0,0,1,2.06.46,5.16,5.16,0,0,1,2.78,4.77,3,3,0,0,1,1-.15,5,5,0,0,1,4.21,2.59,3.78,3.78,0,0,1-.1,3.37,4,4,0,0,1-1.8,1.8,3.06,3.06,0,0,1,.54,2.62,4.17,4.17,0,0,1-2.26,2.49,4.73,4.73,0,0,1,0,3.28,4.6,4.6,0,0,1-2.6,2.87,4.37,4.37,0,0,1-1.53.28,5,5,0,0,1-4.12-2.26A4.48,4.48,0,0,1,99.15,29.54ZM95.53,24.7a.53.53,0,0,1,.24.06.5.5,0,0,1,.26.52,2.58,2.58,0,0,0,.5,2,3.33,3.33,0,0,0,2.31,1.23,3.41,3.41,0,0,0,3.63-3,.5.5,0,0,1,1-.07,3.88,3.88,0,0,0,3.72,2.88,3.19,3.19,0,0,0,1.16-.21,3.82,3.82,0,0,0,1.77-5.28.5.5,0,0,1,.38-.76,3,3,0,0,0,2.06-1.92,2.08,2.08,0,0,0-.79-2.18.5.5,0,0,1-.21-.52.53.53,0,0,1,.41-.38,2.8,2.8,0,0,0,1.93-1.54A2.86,2.86,0,0,0,114,13a4,4,0,0,0-3.32-2,1.84,1.84,0,0,0-1.28.45.5.5,0,0,1-.82-.51,4.07,4.07,0,0,0-2.08-4.66,3.66,3.66,0,0,0-1.62-.36,4.09,4.09,0,0,0-3.32,1.65.5.5,0,0,1-.69.12,3.6,3.6,0,0,0-3.34-.35c-.81.34-1,1.71-1.15,2.81,0,.19-.05.37-.08.54a.5.5,0,0,1-.8.32A4.06,4.06,0,0,0,93,10.2,4.48,4.48,0,0,0,89,12.36,4.26,4.26,0,0,0,88.88,16a4.31,4.31,0,0,0,2.5,2.58.51.51,0,0,1,.34.46.51.51,0,0,1-.31.47,2,2,0,0,0-1.09,1.36,4.53,4.53,0,0,0,.43,3.51,3,3,0,0,0,2.49,1.24,2.78,2.78,0,0,0,2-.73A.49.49,0,0,1,95.53,24.7Z"/></g></g></svg>