<svg xmlns="http://www.w3.org/2000/svg" xmlns:xlink="http://www.w3.org/1999/xlink" viewBox="0 0 2988.19 811.39"><defs><style>.cls-1{fill:none;}.cls-2{opacity:0.3;}.cls-3{clip-path:url(#clip-path);}.cls-4{fill:#997130;}.cls-5{fill:#4f3925;}</style><clipPath id="clip-path" transform="translate(744.03 575.37)"><rect class="cls-1" width="1920" height="1080"/></clipPath></defs><g id="Layer_2" data-name="Layer 2"><g id="OBJECTS"><g class="cls-2"><g class="cls-3"><path class="cls-4" d="M-744-202.82C-512-337.77-188.81-408.61,68.82-381c187.29,20.1,321.69,100.15,488,141.61,74.1,18.47,159,35.43,253.51,11.14,81.92-21.07,159.7-60.32,226.81-111.64,68.3-52.24,126.72-117.3,201.73-160.59,244.29-141,585.32-54.58,844.13,27.91,11.18,3.57,163.58,49.2,161.14,53.55L1957.65,236c-31.82-49.75-239.1-176.87-563.39-166.85-322.9,10-534.51,382.27-1259-104.1C-77.16-177.57-470.22-277.72-733-208.09" transform="translate(744.03 575.37)"/></g></g><g class="cls-2"><g class="cls-3"><path class="cls-5" d="M410.89-26.74c-28.84,67.44-94,118-166.54,129.16-32.7,5-66.77,2.63-98.16,13.1-28.7,9.57-52.78,29.11-78.53,45S11.6,189.2-18,182.93L-25.41-10Z" transform="translate(744.03 575.37)"/></g></g></g></g></svg>