<svg width="1920" height="1080" viewBox="0 0 1920 1080" fill="none" xmlns="http://www.w3.org/2000/svg">
<g opacity="0.3">
<mask id="mask0_958_17" style="mask-type:luminance" maskUnits="userSpaceOnUse" x="0" y="0" width="1920" height="1080">
<path d="M1920 0H0V1080H1920V0Z" fill="white"/>
</mask>
<g mask="url(#mask0_958_17)">
<path d="M-744 -202.82C-512 -337.77 -188.81 -408.61 68.82 -381C256.11 -360.9 390.51 -280.85 556.82 -239.39C630.92 -220.92 715.82 -203.96 810.33 -228.25C892.25 -249.32 970.03 -288.57 1037.14 -339.89C1105.44 -392.13 1163.86 -457.19 1238.87 -500.48C1483.16 -641.48 1824.19 -555.06 2083 -472.57C2094.18 -469 2246.58 -423.37 2244.14 -419.02L1957.65 236C1925.83 186.25 1718.55 59.1299 1394.26 69.1499C1071.36 79.1499 859.75 451.42 135.26 -34.9501C-77.16 -177.57 -470.22 -277.72 -733 -208.09" fill="#997130"/>
</g>
</g>
<g opacity="0.3">
<mask id="mask1_958_17" style="mask-type:luminance" maskUnits="userSpaceOnUse" x="0" y="0" width="1920" height="1080">
<path d="M1920 0H0V1080H1920V0Z" fill="white"/>
</mask>
<g mask="url(#mask1_958_17)">
<path d="M436.3 -15C407.46 52.44 342.3 103 269.76 114.16C237.06 119.16 202.99 116.79 171.6 127.26C142.9 136.83 118.82 156.37 93.07 172.26C67.32 188.15 37.01 200.94 7.41 194.67L0 1.74L436.3 -15Z" fill="#4F3925"/>
</g>
</g>
</svg>
