<svg xmlns="http://www.w3.org/2000/svg" viewBox="0 0 86.06 120.74"><defs><style>.cls-1{fill:#142a3b;}.cls-1,.cls-2,.cls-3{fill-rule:evenodd;}.cls-2{fill:#da982a;}.cls-3{fill:#edca88;}</style></defs><g id="Layer_2" data-name="Layer 2"><g id="OBJECTS"><path class="cls-1" d="M34.27,47.67c0,.06,0,.08.23-.22a.09.09,0,0,1,0-.12.08.08,0,0,1,.11,0c.67-.4-.25-.37.52-.31.22,0,.33.28.49.43a24.63,24.63,0,0,1,4.44,5.74q.61,1,1.14,2.13a65.77,65.77,0,0,1,3.26,9,105.16,105.16,0,0,1,4,22.26,138.45,138.45,0,0,1,.26,15.79c-.06,1.35-.11,2.7-.24,4-.08.9-.21,1.78-.33,2.68a.25.25,0,0,1-.27.25.27.27,0,0,1-.25-.27c0-.9-.07-1.8-.09-2.7,0-1.35,0-2.69,0-4,0-5.25-.22-10.46-.73-15.63a106.52,106.52,0,0,0-4.31-21.8,75.16,75.16,0,0,0-3.35-9,29.58,29.58,0,0,0-4.42-7.27c-.17-.19-.4-.33-.5-.57a.11.11,0,0,1,0-.1C34.33,47.45,34.27,47.59,34.27,47.67Z"/><path class="cls-1" d="M63.51,75.51a3.69,3.69,0,0,0-.69.41c-1.63,1.51-2.58,3.58-3.74,5.4-.61,1-1.19,2-1.75,2.93a89.17,89.17,0,0,0-5.76,12.38,70.88,70.88,0,0,0-3.82,14.13,54.37,54.37,0,0,0-.63,6.8c0,1,0,1.94,0,2.93a.26.26,0,0,0,.24.25.24.24,0,0,0,.25-.23c.12-1,.28-1.92.41-2.87.31-2.26.66-4.46,1.09-6.63a82.58,82.58,0,0,1,4-13.79,108.51,108.51,0,0,1,5.71-12.15l1.6-3c1-1.89,2.43-3.63,3.13-5.72a4.17,4.17,0,0,0,.1-.8.09.09,0,0,0,0-.11A.08.08,0,0,0,63.51,75.51Z"/><path class="cls-1" d="M48.15,115.1a15.38,15.38,0,0,0,.64-2.86,19.68,19.68,0,0,0-.48-5.84,28.93,28.93,0,0,0-10.86-17c-.87-.61-1.74-1.31-2.7-1.85a7.6,7.6,0,0,0-.76-.37,8.11,8.11,0,0,0-1.87-.69,5.14,5.14,0,0,0-.88,0,.36.36,0,1,0-.19.69c.24.14.42.31.66.45.51.31,1,.59,1.53.93.21.15.41.31.63.45.89.61,1.79,1.2,2.63,1.79a26.3,26.3,0,0,1,8.68,10.66A29.51,29.51,0,0,1,47,106.7a34.05,34.05,0,0,1,.77,5.53c.08,1,.2,1.89.2,2.85a.08.08,0,0,0,.06.09A.09.09,0,0,0,48.15,115.1Z"/><path class="cls-2" d="M35.71,49.65S-1.71,47.7.06,33.91c.6-4.65,6.88-3.11,9.46-1.73a33.7,33.7,0,0,1,3.11,1.87c.58.39,2.07,1.77,1.75,1.16-1.55-3-4.2-5.46-5.76-8.52a24.19,24.19,0,0,1-1.85-4.76c-1-4.07-.6-9.5,4.74-4.8C15.79,20.91,18,25.66,21,30.26c.58.87-.59-2-.9-3l-1.41-4.5C17.52,19,14.05,9.55,17.54,5.63c.91-1,3.63,1.22,4.17,1.79,2.89,3,4.35,7.38,5.27,11.33.3,1.28-.43-7.29.58-12.87C28,3.51,28.93-.22,32.21,0c5.53.39,5.2,11.22,5.09,14.42,0,1.32-.09,2.65-.18,4,0,.67-.43,2.64-.17,2,1.31-3.21,8.38-17.5,10.6-6.67A13,13,0,0,1,47.78,17a28,28,0,0,1-.61,4.64C45,31.29,41.67,41.77,35.71,49.65Z"/><path class="cls-3" d="M10.17,25.41a50,50,0,0,0,9.22,12.21,65.72,65.72,0,0,0,8.32,6.78c.5.35,1,.7,1.53,1,.77.49,1.58.94,2.38,1.4a.08.08,0,0,0,.11,0,.07.07,0,0,0,0-.1c-.75-.54-1.47-1.1-2.21-1.64S28,44,27.27,43.45q-2.6-1.94-5-4c-1.62-1.41-3.17-2.86-4.64-4.4a50.63,50.63,0,0,1-7.32-9.72.08.08,0,0,0-.14.08Z"/><path class="cls-3" d="M19.31,32.62c.59.78,1.18,1.57,1.81,2.33.93,1.13,1.94,2.22,3,3.28a45.49,45.49,0,0,0,4.32,4c.38.31.79.59,1.2.87a.09.09,0,0,0,.12,0,.09.09,0,0,0,0-.13c-.36-.34-.7-.69-1.06-1-1.43-1.32-2.88-2.64-4.25-4.05-1-1-2-2.13-3-3.21-.66-.73-1.33-1.45-2-2.18a.08.08,0,0,0-.11,0A.08.08,0,0,0,19.31,32.62Z"/><path class="cls-3" d="M23.36,33.19c.48.71,1,1.41,1.55,2.07,1.15,1.39,2.36,2.74,3.51,4.13l.4.44a.16.16,0,0,0,.23,0,.17.17,0,0,0,0-.23c-.34-.47-.68-.94-1.05-1.38-.88-1.07-1.82-2.08-2.75-3.1-.62-.67-1.24-1.35-1.81-2.06a.07.07,0,0,0-.11,0A.08.08,0,0,0,23.36,33.19Z"/><path class="cls-3" d="M19.77,13.2a24.39,24.39,0,0,0,1.06,3.9c.67,1.9,1.49,3.74,2.23,5.64,1.07,2.68,2.1,5.36,3.21,8C27,32.53,27.78,34.28,28.6,36s1.58,3.3,2.27,5a29,29,0,0,1,1.23,3.42.09.09,0,0,0,.11.07.09.09,0,0,0,.06-.11,25.92,25.92,0,0,0-1-3.52c-.64-1.71-1.43-3.37-2.19-5s-1.55-3.51-2.28-5.27c-1.11-2.66-2.18-5.32-3.27-8-.91-2.19-1.92-4.31-2.71-6.51a25.38,25.38,0,0,1-.87-2.89.08.08,0,0,0-.09-.06A.08.08,0,0,0,19.77,13.2Z"/><path class="cls-3" d="M24.73,18.08c.05.16.09.31.15.47.22.61.51,1.2.76,1.8,1.28,3,2.47,6,3.56,9.09s2.06,6.16,2.9,9.31c.21.78.43,1.57.62,2.36a.12.12,0,0,0,.13.08.11.11,0,0,0,.08-.13c-.15-.8-.29-1.61-.47-2.4a79.77,79.77,0,0,0-2.75-9.4c-1.09-3.07-2.35-6.09-3.73-9.06-.27-.59-.52-1.2-.84-1.77-.08-.14-.17-.28-.26-.42a.08.08,0,0,0-.11,0A.07.07,0,0,0,24.73,18.08Z"/><path class="cls-3" d="M32.38,23.84a31.61,31.61,0,0,0,.46,4.54c.38,2.24,1,4.46,1.44,6.66a.12.12,0,0,0,.15.1.11.11,0,0,0,.09-.15C34,32.42,33.37,29.82,33,27.21c-.18-1.12-.34-2.25-.42-3.37a.08.08,0,0,0-.08-.08A.07.07,0,0,0,32.38,23.84Z"/><path class="cls-3" d="M34.1,8.84c.2,1.81.38,3.63.56,5.44.42,4.24.78,8.47,1,12.71s.13,8.46-.08,12.72c-.09,1.81-.18,3.63-.35,5.45a.14.14,0,1,0,.28,0c.29-1.93.53-3.87.68-5.81.22-2.92.26-5.85.2-8.77a152.59,152.59,0,0,0-1.44-17.46c-.2-1.45-.42-2.89-.65-4.33,0,0,0-.08-.09-.07A.08.08,0,0,0,34.1,8.84Z"/><path class="cls-3" d="M40.86,19.19c-.12.87-.25,1.73-.37,2.6-.46,3.47-.89,7-1.42,10.41-.31,2-.66,4-1,6-.15.86-.27,1.73-.42,2.59a.13.13,0,0,0,.08.14.12.12,0,0,0,.14-.09c.24-.85.47-1.7.66-2.55.45-2,.77-4,1.07-6,.51-3.48.89-7,1.22-10.45.08-.88.14-1.75.21-2.62a.07.07,0,0,0-.07-.09S40.87,19.15,40.86,19.19Z"/><path class="cls-3" d="M44.82,20.39c-.49,1.22-.93,2.46-1.32,3.71-.54,1.76-1,3.53-1.49,5.3-.32,1.19-.61,2.37-.95,3.54a.13.13,0,0,0,.08.17.14.14,0,0,0,.17-.09c.42-1.24.82-2.49,1.17-3.76.74-2.64,1.41-5.31,2.23-7.94.09-.29.17-.58.26-.87a.09.09,0,0,0,0-.11A.08.08,0,0,0,44.82,20.39Z"/><path class="cls-3" d="M30.49,8.69s0,0,0,.05a1.19,1.19,0,0,0,0,.46q.08,2.31.36,4.59c.33,2.54.84,5.06,1.31,7.55a.18.18,0,0,0,.21.15.19.19,0,0,0,.15-.22c-.35-2.08-.7-4.18-1-6.28-.21-1.47-.41-2.94-.55-4.41-.05-.57-.1-1.14-.14-1.71,0-.06,0-.13,0-.17s0,0-.05,0a.11.11,0,0,0-.12-.11A.12.12,0,0,0,30.49,8.69Z"/><path class="cls-3" d="M3.89,34.44c.53.33,1.06.69,1.59,1,.8.5,1.62,1,2.44,1.44q2,1.19,4.15,2.24a.17.17,0,0,0,.23-.07.17.17,0,0,0-.08-.23c-2.24-1.14-4.34-2.52-6.55-3.7-.56-.3-1.13-.56-1.71-.83a.07.07,0,0,0-.1,0A.07.07,0,0,0,3.89,34.44Z"/><path class="cls-2" d="M61.8,77.57c-2.95-6.09-4.32-16.66-1.23-23.75a7,7,0,0,1,5.3-4.6c3.77-.87,3.2,8.11,3,9.94-.13,1-.29,2-.47,3-.08.44-.46,1.72-.26,1.31,1.9-4.08,3.55-7.93,7.08-11.15.69-.63,3-2.61,4.12-1.92,3.43,2.06-1.39,8.26-2.8,10.32-.56.82-1.12,1.64-1.7,2.45A14,14,0,0,0,74,64.38a21.66,21.66,0,0,1,8.5-6c1.84-.74,3.82-.66,3.56,1.71C84.82,71,61.8,77.57,61.8,77.57Z"/><path class="cls-2" d="M35.78,89.75c-.27-6.09-3.46-12.27-6.68-17.38-.94-1.49-3.38-4.77-5.71-4.31-1.89.38-1.4,3.82-1.06,4.89a11.89,11.89,0,0,0,.61,1.53c.12.26.65.89.37.78-1-.39-1.83-1-2.77-1.47-2.6-1.24-10.74-2.86-11,1.95-.12,2.56,2.24,4.35,4.37,5.37a15.32,15.32,0,0,0,2.3.92c.46.14,1.75,0,1.39.35s-2.16.17-2.76.29c-1.76.34-5.54,2.69-4.32,4.93.92,1.68,3.29,1.66,5.06,1.72.64,0,1.28,0,1.91,0,.25,0,1-.22.76-.09-1.68.94-3.09,1.76-4,3.45-1.44,2.62.23,4.1,3.14,3.51,3.14-.64,6.2-2.74,9-4.23a33.87,33.87,0,0,1,7.51-2.65Z"/><path class="cls-3" d="M8.23,39.67a31.48,31.48,0,0,0,2.85,2,37.64,37.64,0,0,0,7.4,3.49A46.86,46.86,0,0,0,25.25,47c1.52.29,3.07.47,4.62.63a.06.06,0,0,0,.08-.06s0-.07-.06-.08c-.91-.19-1.81-.4-2.72-.61s-1.81-.4-2.71-.63c-1.35-.33-2.69-.7-4-1.11s-2.64-.85-3.93-1.36a42.29,42.29,0,0,1-5-2.35,36.62,36.62,0,0,1-3.19-1.89.08.08,0,0,0-.11,0A.09.09,0,0,0,8.23,39.67Z"/><path class="cls-3" d="M62.83,76.32c-.15-.42-.25-.85-.38-1.28s-.25-.85-.35-1.28c-.21-.88-.37-1.77-.52-2.64a35.82,35.82,0,0,1-.39-8.73,48.4,48.4,0,0,1,1.41-8.67.1.1,0,0,0-.08-.12.09.09,0,0,0-.12.07,47,47,0,0,0-1.67,8.68,34.14,34.14,0,0,0,.34,8.87,30.3,30.3,0,0,0,.72,3.18,6,6,0,0,0,.9,2,.08.08,0,0,0,.1,0A.08.08,0,0,0,62.83,76.32Z"/><path class="cls-3" d="M63.6,76.11c-.11-.43-.2-.87-.3-1.31-.23-1-.43-2.06-.56-3.09A33.53,33.53,0,0,1,62.57,65a49.14,49.14,0,0,1,1-6.66c.32-1.47.67-2.93,1.08-4.37a.09.09,0,0,0-.06-.11.07.07,0,0,0-.1,0c-.49,1.43-.93,2.88-1.29,4.34A40.74,40.74,0,0,0,62.11,65a31,31,0,0,0,.2,6.81A23.94,23.94,0,0,0,63,74.88c.14.43.3.86.47,1.28a.07.07,0,0,0,.1,0A.08.08,0,0,0,63.6,76.11Z"/><path class="cls-3" d="M63.79,74.58V70c0-1.47,0-2.94.1-4.4a35.71,35.71,0,0,1,.5-4.36c.24-1.4.67-2.77,1-4.15.15-.6.26-1.2.38-1.81a.09.09,0,0,0-.06-.1.08.08,0,0,0-.1.06c-.19.59-.4,1.16-.6,1.74s-.37,1.17-.54,1.76c-.23.79-.44,1.59-.6,2.4a33.38,33.38,0,0,0-.56,4.42c-.09,1.48-.09,3-.06,4.45,0,1.08,0,2.14.09,3.2a9.12,9.12,0,0,0,.28,1.36.08.08,0,1,0,.15,0Z"/><path class="cls-3" d="M64.72,71.94A40.44,40.44,0,0,1,65.11,67c.1-.73.22-1.46.34-2.19.27-1.7.58-3.4,1-5.1a.12.12,0,1,0-.24-.06,53.77,53.77,0,0,0-1.29,6.07,36.66,36.66,0,0,0-.32,6.2.07.07,0,0,0,.08.08A.09.09,0,0,0,64.72,71.94Z"/><path class="cls-3" d="M63.94,75.59a7.12,7.12,0,0,0,.54-.69c.62-1,1.07-2,1.61-3,.61-1.18,1.22-2.36,1.84-3.54.92-1.76,1.85-3.53,2.85-5.25a72.06,72.06,0,0,1,4.13-6.36c.37-.51.73-1,1.11-1.54a.09.09,0,0,0-.13-.11c-.54.59-1.06,1.19-1.56,1.81a64.07,64.07,0,0,0-5.26,8c-.79,1.38-1.56,2.77-2.28,4.18s-1.43,2.85-2.11,4.27a15.76,15.76,0,0,0-.7,1.51,6.15,6.15,0,0,0-.18.71.08.08,0,0,0,0,.11A.07.07,0,0,0,63.94,75.59Z"/><path class="cls-3" d="M66.88,72c1-1.72,2.16-3.38,3.27-5.05.74-1.12,1.48-2.23,2.2-3.36S73.87,61.2,74.63,60a.09.09,0,0,0,0-.11.09.09,0,0,0-.11,0c-.7,1-1.41,1.94-2.09,2.92s-1.35,2-2,3c-1.29,2-2.51,4.08-3.66,6.18a.08.08,0,0,0,0,.11A.08.08,0,0,0,66.88,72Z"/><path class="cls-3" d="M66.73,67.57a23.31,23.31,0,0,1,1.45-2.51c.53-.82,1.07-1.63,1.62-2.42a.16.16,0,0,0,0-.2.13.13,0,0,0-.19,0c-.66,1-1.35,1.91-1.94,2.92a18.69,18.69,0,0,0-1,2.1.07.07,0,0,0,0,.1A.08.08,0,0,0,66.73,67.57Z"/><path class="cls-3" d="M65.85,75.11c.34-.19.69-.38,1-.58,1.35-.81,2.67-1.65,4-2.49,1.66-1.06,3.29-2.14,4.9-3.26A75.1,75.1,0,0,0,82,64a.12.12,0,0,0,0-.17.11.11,0,0,0-.16,0c-1.55,1.22-3.14,2.34-4.74,3.44-2.26,1.55-4.57,3-6.85,4.54-1.22.81-2.43,1.63-3.61,2.51l-.86.68a.09.09,0,0,0,0,.11A.07.07,0,0,0,65.85,75.11Z"/><path class="cls-3" d="M70.78,70.18a55.19,55.19,0,0,0,4.89-3c1-.66,1.88-1.34,2.8-2,1.37-1,2.71-2.15,4.07-3.2,0,0,0-.06,0-.1a.08.08,0,0,0-.1,0c-1.36,1-2.74,1.92-4.1,2.91s-2.7,2-4.07,3c-1.18.83-2.36,1.64-3.58,2.38a.08.08,0,1,0,.08.14Z"/><path class="cls-3" d="M74.17,65.82c1.32-.82,2.65-1.61,4-2.44.87-.56,1.71-1.15,2.58-1.71a.07.07,0,0,0,0-.1.08.08,0,0,0-.11,0c-.9.51-1.8,1-2.68,1.56-1.31.82-2.56,1.72-3.85,2.58a.08.08,0,0,0,.08.14Z"/><path class="cls-3" d="M73.26,72l3.12-2a.1.1,0,0,0-.11-.17l-3.1,2.08a.09.09,0,0,0,0,.11A.07.07,0,0,0,73.26,72Z"/><path class="cls-3" d="M34.25,88.67a4.34,4.34,0,0,0-.63-.09,21,21,0,0,0-5.61.76,27.42,27.42,0,0,0-5.89,2.2A21.43,21.43,0,0,0,19.74,93c-1.13.8-2.19,1.7-3.29,2.53a.1.1,0,0,0,0,.14.11.11,0,0,0,.14,0c1.34-.89,2.64-1.84,4-2.68.58-.36,1.17-.7,1.78-1a29.93,29.93,0,0,1,5.82-2.08c1.82-.46,3.7-.66,5.48-1,.21,0,.4-.11.61-.16a.07.07,0,0,0,.07-.08A.06.06,0,0,0,34.25,88.67Z"/><path class="cls-3" d="M17.56,93a17.24,17.24,0,0,1,2.14-1.37,21.83,21.83,0,0,1,5.5-2.15,33.78,33.78,0,0,1,8.43-.91.06.06,0,0,0,.06,0s0-.06,0-.07a31.29,31.29,0,0,0-8.53.64,18.56,18.56,0,0,0-5.58,2.24,16.18,16.18,0,0,0-2.07,1.55.08.08,0,0,0,0,.11A.07.07,0,0,0,17.56,93Z"/><path class="cls-3" d="M18.85,89.07l.68-.19c.88-.27,1.77-.52,2.7-.71a46.15,46.15,0,0,1,5.22-.74.15.15,0,0,0,.13-.16.14.14,0,0,0-.15-.13,34.6,34.6,0,0,0-5.3.57,12.52,12.52,0,0,0-2.72.87,6.21,6.21,0,0,0-.62.35.08.08,0,0,0,0,.11A.07.07,0,0,0,18.85,89.07Z"/><path class="cls-3" d="M14.7,87.28c.49-.13,1-.22,1.48-.33s1-.21,1.48-.3a31.91,31.91,0,0,1,7-.39,45.17,45.17,0,0,1,6,.68c1.37.25,2.7.53,3.94.88a.09.09,0,0,0,.11-.06.08.08,0,0,0-.06-.1,33.74,33.74,0,0,0-3.91-1.13,34.43,34.43,0,0,0-6-.82,28.49,28.49,0,0,0-7.12.5c-.5.11-1,.22-1.48.37a13.81,13.81,0,0,0-1.44.55.08.08,0,0,0-.05.1A.09.09,0,0,0,14.7,87.28Z"/><path class="cls-3" d="M16.35,84.59a31.62,31.62,0,0,1,5.33,0c.79.06,1.59.15,2.38.25a45.2,45.2,0,0,1,5.5,1,.15.15,0,0,0,.08-.28,36.18,36.18,0,0,0-6.59-1.36,28.51,28.51,0,0,0-6.72.21.1.1,0,0,0-.07.09A.08.08,0,0,0,16.35,84.59Z"/><path class="cls-3" d="M14.83,79c.85.25,1.67.52,2.49.79,2,.66,3.85,1.39,5.69,2.18a84.33,84.33,0,0,1,7.81,3.86.15.15,0,1,0,.15-.25,67.79,67.79,0,0,0-7.76-4.07,46,46,0,0,0-5.78-2.05c-.84-.23-1.69-.43-2.56-.62a.08.08,0,0,0,0,.16Z"/><path class="cls-3" d="M15.67,75.83c.41.25.82.49,1.24.7,1.67.83,3.46,1.46,5.13,2.28A48.12,48.12,0,0,1,27,81.54c1.61,1,3.18,2,4.67,3.18a.09.09,0,0,0,.13,0,.09.09,0,0,0,0-.13,51.67,51.67,0,0,0-4.52-3.44,41.45,41.45,0,0,0-4.95-2.8q-1-.43-1.95-.84c-1.06-.43-2.12-.87-3.19-1.28-.46-.18-.93-.33-1.38-.52a.08.08,0,0,0-.11,0A.07.07,0,0,0,15.67,75.83Z"/><path class="cls-3" d="M21.66,76.19c1.57.94,3,1.88,4.43,2.89.71.51,1.4,1,2.09,1.6s1.36,1.09,2,1.7a.17.17,0,0,0,.22,0,.15.15,0,0,0,0-.21,28,28,0,0,0-3.21-2.81,43.65,43.65,0,0,0-5.46-3.29.07.07,0,0,0-.11,0A.07.07,0,0,0,21.66,76.19Z"/><path class="cls-3" d="M25.28,74.41a23.87,23.87,0,0,1,2.86,3.12c1.31,1.67,2.49,3.41,3.67,5.22a.1.1,0,1,0,.17-.1,47.32,47.32,0,0,0-3.52-5.37,18.21,18.21,0,0,0-3.08-3s-.09,0-.11,0A.08.08,0,0,0,25.28,74.41Z"/><path class="cls-3" d="M25.13,71.3c1,1,2,2.08,3,3.15A27.64,27.64,0,0,1,30,76.67a23.25,23.25,0,0,1,1.66,2.63c.75,1.38,1.4,2.81,2.06,4.23a.17.17,0,1,0,.31-.14c-.62-1.45-1.23-2.91-2-4.31a20,20,0,0,0-1.68-2.71,18.69,18.69,0,0,0-1.43-1.66c-1.18-1.23-2.47-2.35-3.69-3.52a.08.08,0,0,0-.11,0A.08.08,0,0,0,25.13,71.3Z"/><path class="cls-3" d="M15.12,40.31c1.58.79,3.13,1.72,4.71,2.61a43,43,0,0,0,4.85,2.42,17.34,17.34,0,0,0,3.58,1.07c.3.05.61.08.93.11a.08.08,0,0,0,.08-.06.08.08,0,0,0-.06-.08c-.29-.08-.59-.19-.88-.28a33,33,0,0,1-3.44-1.26c-1.63-.7-3.24-1.51-4.84-2.33s-3.24-1.64-4.86-2.34a.08.08,0,0,0-.11,0A.07.07,0,0,0,15.12,40.31Z"/></g></g></svg>