<svg width="1957" height="1147" viewBox="0 0 1957 1147" fill="none" xmlns="http://www.w3.org/2000/svg">
<g opacity="0.3">
<mask id="mask0_958_17" style="mask-type:luminance" maskUnits="userSpaceOnUse" x="30" y="9" width="1921" height="1080">
<path d="M1950 9H30.0005V1089H1950V9Z" fill="white"/>
</mask>
<g mask="url(#mask0_958_17)">
<path d="M-714 -193.82C-482 -328.77 -158.81 -399.61 98.8205 -372C286.11 -351.9 420.51 -271.85 586.821 -230.39C660.921 -211.92 745.821 -194.96 840.331 -219.25C922.251 -240.32 1000.03 -279.57 1067.14 -330.89C1135.44 -383.13 1193.86 -448.19 1268.87 -491.48C1513.16 -632.48 1854.19 -546.06 2113 -463.57C2124.18 -460 2276.58 -414.37 2274.14 -410.02L1987.65 245C1955.83 195.25 1748.55 68.1299 1424.26 78.1499C1101.36 88.1499 889.75 460.42 165.26 -25.9501C-47.1595 -168.57 -440.22 -268.72 -703 -199.09" fill="#D9A972"/>
</g>
</g>
<g opacity="0.3">
<mask id="mask1_958_17" style="mask-type:luminance" maskUnits="userSpaceOnUse" x="0" y="0" width="1957" height="1147">
<path d="M1956.52 67.007L37.6914 0L-4.89354e-05 1079.34L1918.83 1146.35L1956.52 67.007Z" fill="white"/>
</mask>
<g mask="url(#mask1_958_17)">
<path d="M474.249 0.235684C443.073 66.6281 376.188 114.883 303.303 123.505C270.448 127.361 236.482 123.803 204.746 133.171C175.729 141.734 150.982 160.421 124.693 175.403C98.404 190.385 67.6661 202.109 38.303 194.81L37.6306 1.73884L474.249 0.235684Z" fill="#C9995F"/>
</g>
</g>
</svg>
