<svg width="1921" height="1082" viewBox="0 0 1921 1082" fill="none" xmlns="http://www.w3.org/2000/svg">
<g opacity="0.3">
<mask id="mask0_958_17" style="mask-type:luminance" maskUnits="userSpaceOnUse" x="0" y="0" width="1921" height="1080">
<path d="M1921 0H0.998535V1080H1921V0Z" fill="white"/>
</mask>
<g mask="url(#mask0_958_17)">
<path d="M-743.001 -202.82C-511.001 -337.77 -187.811 -408.61 69.8185 -381C257.109 -360.9 391.509 -280.85 557.819 -239.39C631.919 -220.92 716.819 -203.96 811.329 -228.25C893.249 -249.32 971.029 -288.57 1038.14 -339.89C1106.44 -392.13 1164.86 -457.19 1239.87 -500.48C1484.16 -641.48 1825.19 -555.06 2084 -472.57C2095.18 -469 2247.58 -423.37 2245.14 -419.02L1958.65 236C1926.83 186.25 1719.55 59.1299 1395.26 69.1499C1072.36 79.1499 860.749 451.42 136.259 -34.9501C-76.1614 -177.57 -469.221 -277.72 -732.001 -208.09" fill="#D9A972"/>
</g>
</g>
<g opacity="0.3">
<mask id="mask1_958_17" style="mask-type:luminance" maskUnits="userSpaceOnUse" x="0" y="0" width="1921" height="1082">
<path d="M1920.85 1.51633L0.853027 0L9.33008e-05 1080L1920 1081.52L1920.85 1.51633Z" fill="white"/>
</mask>
<g mask="url(#mask1_958_17)">
<path d="M437.165 -14.6554C408.271 52.7618 343.071 103.27 270.523 114.373C237.819 119.347 203.751 116.95 172.352 127.395C143.645 136.943 119.549 156.464 93.7868 172.333C68.0243 188.203 37.7042 200.969 8.10916 194.676L0.851526 1.73999L437.165 -14.6554Z" fill="#C9995F"/>
</g>
</g>
</svg>
